<svg id="_007-car_wash" data-name="007-car wash" xmlns="http://www.w3.org/2000/svg" width="24.543" height="24.543" viewBox="0 0 24.543 24.543">
  <g id="Group_9590" data-name="Group 9590" transform="translate(5.542 3.641)">
    <path id="Path_12109" data-name="Path 12109" d="M145.3,260.354h-11.28l.761-3.424a1.181,1.181,0,0,1,1.16-.93h7.439a1.181,1.181,0,0,1,1.16.93Zm0,0" transform="translate(-132.934 -246.973)" fill="#fc3"/>
    <path id="Path_12110" data-name="Path 12110" d="M113.188,362.375a1.188,1.188,0,1,1,1.188-1.188A1.189,1.189,0,0,1,113.188,362.375Zm0,0" transform="translate(-112 -345.827)" fill="#fc3"/>
    <path id="Path_12111" data-name="Path 12111" d="M337.188,362.375a1.188,1.188,0,1,1,1.188-1.188A1.189,1.189,0,0,1,337.188,362.375Zm0,0" transform="translate(-324.916 -345.827)" fill="#fc3"/>
    <path id="Path_12112" data-name="Path 12112" d="M137.188,77.059A1.189,1.189,0,0,1,136,75.871a1.7,1.7,0,0,1,.286-.945l.9-1.352.9,1.352a1.7,1.7,0,0,1,.286.945A1.189,1.189,0,0,1,137.188,77.059Zm0,0" transform="translate(-134.812 -73.574)" fill="#fc3"/>
    <path id="Path_12113" data-name="Path 12113" d="M297.188,77.059A1.189,1.189,0,0,1,296,75.871a1.7,1.7,0,0,1,.286-.945l.9-1.352.9,1.352a1.7,1.7,0,0,1,.286.945A1.189,1.189,0,0,1,297.188,77.059Zm0,0" transform="translate(-286.895 -73.574)" fill="#fc3"/>
  </g>
  <path id="Path_12114" data-name="Path 12114" d="M79.436,172.961a2.724,2.724,0,0,0-.271-.713,1.977,1.977,0,0,0-1.785-3.4,1.583,1.583,0,0,0-2.692,1.13h.792a.791.791,0,0,1,1.444-.447l.181.264.3-.122a1.187,1.187,0,0,1,1.294,1.935,2.77,2.77,0,0,0-1.969-.838H69.483a2.752,2.752,0,0,0-1.358.36.788.788,0,1,1,.589-1.455l.369.19.173-.378a1.189,1.189,0,0,1,1.078-.7,1.176,1.176,0,0,1,.948.481l.239.319.318-.241a.781.781,0,0,1,.475-.164V168.4a1.55,1.55,0,0,0-.635.136A1.952,1.952,0,0,0,70.334,168a1.983,1.983,0,0,0-1.612.837,1.514,1.514,0,0,0-.367-.045,1.577,1.577,0,0,0-.9,2.876,2.748,2.748,0,0,0-.68,1.294l-.294,1.372H64v1.583a1.189,1.189,0,0,0,1.188,1.188h.1a2.754,2.754,0,0,0-.5,1.583v1.584a.8.8,0,0,0-.792.791v.792a.8.8,0,0,0,.8.792h.391v.4a1.189,1.189,0,0,0,1.188,1.188h1.583a1.189,1.189,0,0,0,1.188-1.188v-.4h7.917v.4a1.189,1.189,0,0,0,1.188,1.188h1.583a1.189,1.189,0,0,0,1.188-1.188v-.4h.391a.8.8,0,0,0,.8-.792v-.792a.8.8,0,0,0-.792-.791v-1.584a2.754,2.754,0,0,0-.5-1.583h.1a1.189,1.189,0,0,0,1.188-1.188v-1.583H79.73Zm1.19,7.31H65.583v-1.583a1.982,1.982,0,0,1,1.979-1.979h1.285l.792,2.771H76.57l.792-2.771h1.285a1.982,1.982,0,0,1,1.979,1.979Zm-10.955-3.563h6.868l-.566,1.979H70.236Zm-2.123-3.581a1.989,1.989,0,0,1,1.935-1.565h7.244a1.99,1.99,0,0,1,1.935,1.565l.614,2.864a2.751,2.751,0,0,0-.629-.075H67.563a2.745,2.745,0,0,0-.629.075Zm-2.756,2.79v-.792h1.518l-.255,1.188h-.867A.4.4,0,0,1,64.792,175.917Zm3.563,7.125a.4.4,0,0,1-.4.4H66.375a.4.4,0,0,1-.4-.4v-.4h2.375Zm11.876,0a.4.4,0,0,1-.4.4H78.251a.4.4,0,0,1-.4-.4v-.4H80.23Zm1.183-1.188H64.792l0-.792H81.418Zm0-6.73v.792a.4.4,0,0,1-.4.4h-.867l-.255-1.188Zm0,0" transform="translate(-60.833 -159.687)" fill="#c93a3a"/>
  <path id="Path_12115" data-name="Path 12115" d="M89.539,89.045l1.3-1.783.64.465-1.3,1.783Zm0,0" transform="translate(-85.108 -82.944)" fill="#2857ec"/>
  <path id="Path_12116" data-name="Path 12116" d="M191.348,87.727l.64-.465,1.3,1.783-.64.466Zm0,0" transform="translate(-181.879 -82.944)" fill="#2857ec"/>
  <path id="Path_12117" data-name="Path 12117" d="M249.547,89.037l1.3-1.783.64.465-1.3,1.783Zm0,0" transform="translate(-237.199 -82.936)" fill="#2857ec"/>
  <path id="Path_12118" data-name="Path 12118" d="M351.355,87.719l.64-.465,1.3,1.783-.64.466Zm0,0" transform="translate(-333.97 -82.936)" fill="#2857ec"/>
  <path id="Path_12119" data-name="Path 12119" d="M1.583,203.959a.792.792,0,1,1,0-1.583h.4v-.4a1.188,1.188,0,0,1,2.375,0h.792a1.979,1.979,0,0,0-3.927-.354,1.584,1.584,0,0,0,.364,3.125Zm0,0" transform="translate(0 -190.104)" fill="#f5b75c"/>
  <path id="Path_12120" data-name="Path 12120" d="M56,240h.792v.792H56Zm0,0" transform="translate(-53.229 -228.124)" fill="#2857ec"/>
  <path id="Path_12121" data-name="Path 12121" d="M32,312h.792v.792H32Zm0,0" transform="translate(-30.417 -296.562)" fill="#2857ec"/>
  <path id="Path_12122" data-name="Path 12122" d="M424,240h.792v.792H424Zm0,0" transform="translate(-403.02 -228.124)" fill="#2857ec"/>
  <path id="Path_12123" data-name="Path 12123" d="M80,0V2.375h3.182L82.2,3.718l.64.465,1.114-1.531,1.114,1.531.64-.465-.977-1.343H91.1l-.977,1.343.64.465,1.114-1.531,1.114,1.531.64-.465-.977-1.343h4.205l1.351,1.351v6.342a1.962,1.962,0,0,0-.792-.172,1.982,1.982,0,0,0-1.979,1.979h.792a1.188,1.188,0,1,1,2.375,0v.4H99a.792.792,0,0,1,0,1.583v.792a1.566,1.566,0,0,0,.792-.22v9.325H99V15.438h-.792v9.1h2.375V0Zm.792.792h19v.792h-19Zm18.574,10.73A1.961,1.961,0,0,0,99,10.7V3.4L97.977,2.375h1.815V11.7A1.576,1.576,0,0,0,99.365,11.522Zm0,0" transform="translate(-76.041)" fill="#c93a3a"/>
  <path id="Path_12124" data-name="Path 12124" d="M256,160h.792v.792H256Zm0,0" transform="translate(-243.333 -152.083)" fill="#2857ec"/>
  <path id="Path_12125" data-name="Path 12125" d="M96,160h.792v.792H96Zm0,0" transform="translate(-91.25 -152.083)" fill="#2857ec"/>
  <path id="Path_12126" data-name="Path 12126" d="M392,160h.792v.792H392Zm0,0" transform="translate(-372.603 -152.083)" fill="#2857ec"/>
</svg>
