<svg id="search" xmlns="http://www.w3.org/2000/svg" width="24.183" height="24.183" viewBox="0 0 24.183 24.183">
  <path id="Path_12045" data-name="Path 12045" d="M5.36,146.352l-.842,3.143-3.077.065a12.113,12.113,0,0,1-.089-11.291h0l2.739.5,1.2,2.723a7.216,7.216,0,0,0,.068,4.859Z" transform="translate(0 -131.737)" fill="#fbbb00"/>
  <path id="Path_12046" data-name="Path 12046" d="M273.243,208.176a12.087,12.087,0,0,1-4.31,11.688h0l-3.45-.176-.488-3.048a7.207,7.207,0,0,0,3.1-3.68h-6.466v-4.784h11.615Z" transform="translate(-249.27 -198.343)" fill="#518ef8"/>
  <path id="Path_12047" data-name="Path 12047" d="M48.729,316.315h0a12.1,12.1,0,0,1-18.221-3.7l3.919-3.208a7.191,7.191,0,0,0,10.363,3.682Z" transform="translate(-29.068 -294.795)" fill="#28b446"/>
  <path id="Path_12048" data-name="Path 12048" d="M47.082,2.784,43.165,5.991a7.19,7.19,0,0,0-10.6,3.765L28.625,6.531h0A12.094,12.094,0,0,1,47.082,2.784Z" transform="translate(-27.272)" fill="#f14336"/>
</svg>
