<svg xmlns="http://www.w3.org/2000/svg" width="30.484" height="26.438" viewBox="0 0 30.484 26.438">
  <g id="Group_177948" data-name="Group 177948" transform="translate(-130.418 -31.23)">
    <g id="Group_177945" data-name="Group 177945" transform="translate(134.314 32.816)">
      <path id="Path_42013" data-name="Path 42013" d="M162.731,46.546A11.634,11.634,0,1,1,151.1,34.912,11.633,11.633,0,0,1,162.731,46.546Z" transform="translate(-139.464 -34.912)" fill="#32bddb"/>
      <path id="Path_42014" data-name="Path 42014" d="M163.4,49.276a9.569,9.569,0,1,1-9.569-9.569A9.569,9.569,0,0,1,163.4,49.276Z" transform="translate(-142.194 -37.642)" fill="#81e5e8"/>
      <circle id="Ellipse_783" data-name="Ellipse 783" cx="6.746" cy="6.746" r="6.746" transform="translate(3.891 17.205) rotate(-80.737)" fill="#32bddb"/>
    </g>
    <g id="Group_177946" data-name="Group 177946" transform="translate(158.133 31.231)">
      <path id="Path_42015" data-name="Path 42015" d="M198.614,61.005a.383.383,0,0,1-.383.382h0a.383.383,0,0,1-.382-.382V59.093a.382.382,0,0,1,.382-.382h0a.383.383,0,0,1,.383.382Z" transform="translate(-196.526 -46.877)" fill="#fe9900"/>
      <path id="Path_42016" data-name="Path 42016" d="M198.417,74.444a.993.993,0,0,1-.994.993h0a.994.994,0,0,1-.993-.993V63.434a.994.994,0,0,1,.993-.994h0a.994.994,0,0,1,.994.994Z" transform="translate(-195.717 -49)" fill="#ffc51a"/>
      <path id="Path_42017" data-name="Path 42017" d="M194.8,41.842s.229,1.835,1.682,1.835c1.063,0,.994-1.835.994-1.835l.069-10.475s-.68-.569-1.445.62C195.238,33.325,194.646,35.649,194.8,41.842Z" transform="translate(-194.775 -31.231)" fill="#ffc51a"/>
    </g>
    <g id="Group_177947" data-name="Group 177947" transform="translate(130.418 31.231)">
      <path id="Path_42018" data-name="Path 42018" d="M134.114,55.809c0,.49-.171.889-.383.889h0c-.211,0-.382-.4-.382-.889V51.363c0-.49.171-.888.382-.888h0c.211,0,.383.4.383.888Z" transform="translate(-132.087 -42.188)" fill="#fe9900"/>
      <path id="Path_42019" data-name="Path 42019" d="M133.917,73.439a1.022,1.022,0,0,1-.994,1.049h0a1.022,1.022,0,0,1-.993-1.049V61.822a1.022,1.022,0,0,1,.993-1.049h0a1.022,1.022,0,0,1,.994,1.049Z" transform="translate(-131.278 -48.051)" fill="#ffc51a"/>
      <path id="Path_42020" data-name="Path 42020" d="M133.707,38.185v-6.7a.23.23,0,1,0-.459,0v6.587h-.485V31.485a.231.231,0,1,0-.459,0v6.587h-.484V31.485a.231.231,0,1,0-.459,0v6.587h-.484V31.485a.231.231,0,1,0-.459,0v8.484s-.077,1.138,1.643,1.138,1.644-1.138,1.644-1.138V38.185Z" transform="translate(-130.418 -31.231)" fill="#ffc51a"/>
    </g>
  </g>
</svg>
