<svg xmlns="http://www.w3.org/2000/svg" width="34.148" height="22.443" viewBox="0 0 34.148 22.443">
  <g id="Group_178006" data-name="Group 178006" transform="translate(-10.819 -40.131)">
    <g id="Group_178005" data-name="Group 178005" transform="translate(10.819 40.131)">
      <g id="Group_177996" data-name="Group 177996" transform="translate(0 6.445)">
        <g id="Group_177983" data-name="Group 177983" transform="translate(0 5.125)">
          <path id="Path_42053" data-name="Path 42053" d="M16.744,201.714s.013.389-.994,1.427l.941.8s.375-.863,1.146-.641Z" transform="translate(-15.333 -199.611)" fill="#a6a5a5"/>
          <path id="Path_42054" data-name="Path 42054" d="M30.048,177.2a2.043,2.043,0,0,0-2.554.212l-1.241,1.451c-.656,1.067.723,1.521.723,1.521l.587.32c.62.39.924-.047.924-.047l.885-1.035c.239-.307-.116-.68-.116-.68l-.538-.623a.433.433,0,0,1,.035-.6A3.28,3.28,0,0,1,30.048,177.2Z" transform="translate(-24.785 -176.859)" fill="#7c7b7b"/>
          <rect id="Rectangle_162899" data-name="Rectangle 162899" width="0.848" height="1.866" transform="matrix(0.65, -0.76, 0.76, 0.65, 3.763, 3.587)" fill="#979797"/>
          <path id="Path_42055" data-name="Path 42055" d="M25.087,211.541l0,0s0,.009,0,.013a2.571,2.571,0,0,1-.607,1.031l.2.173s.375-.863,1.146-.641l-.533-.776Q25.19,211.446,25.087,211.541Z" transform="translate(-23.318 -208.428)" fill="#8c8b8b"/>
          <path id="Path_42056" data-name="Path 42056" d="M18.955,202.826a1.9,1.9,0,0,0,.581-.4c.113-.1.224-.213.331-.325l-.265-.386s.011.318-.73,1.144Z" transform="translate(-18.191 -199.611)" fill="#8c8b8b"/>
          <path id="Path_42057" data-name="Path 42057" d="M76.883,228.77a.4.4,0,0,1,.045.569l-.464.543a.4.4,0,0,1-.569.045,27.689,27.689,0,0,0-3.9-3.334,13.838,13.838,0,0,1-2.131-1.822.4.4,0,0,1-.045-.569l.464-.543a.4.4,0,0,1,.569-.044,11.587,11.587,0,0,1,2.123,1.815A28.426,28.426,0,0,0,76.883,228.77Z" transform="translate(-64.738 -219.569)" fill="#ae0018"/>
          <path id="Path_42058" data-name="Path 42058" d="M28.762,183.268a1.155,1.155,0,0,1-.216.364c-.306.3-.728.073-1.027-.115s-.652-.21-.862-.515c-.293-.426-.027-.919.263-1.264a5.386,5.386,0,0,1,.506-.514l.155-.139a.247.247,0,0,1,.06-.12.546.546,0,0,0,.142-.338,1.609,1.609,0,0,0-.289.232l-1.241,1.451c-.656,1.067.723,1.521.723,1.521l.587.32c.62.39.924-.047.924-.047l.885-1.035c.239-.307-.116-.68-.116-.68l-.085-.1c-.046.13-.092.259-.143.387C28.948,182.881,28.85,183.072,28.762,183.268Z" transform="translate(-24.785 -180.309)" fill="#939292"/>
          <path id="Path_42059" data-name="Path 42059" d="M11.079,217.586l-.245.286a.128.128,0,0,0-.015.022l1.171,1a.135.135,0,0,0,.02-.018l.245-.286a.135.135,0,0,0-.015-.19l-.97-.83A.135.135,0,0,0,11.079,217.586Z" transform="translate(-10.819 -214.097)" fill="#797978"/>
          <path id="Path_42060" data-name="Path 42060" d="M13.336,218.457l-.053.062a.127.127,0,0,1,.178-.014l.911.779a.127.127,0,0,1,.014.178l.053-.062a.127.127,0,0,0-.014-.178l-.911-.779A.127.127,0,0,0,13.336,218.457Z" transform="translate(-13.075 -214.896)" fill="#939292"/>
          <path id="Path_42061" data-name="Path 42061" d="M11.483,222.069c.322.276.554.535.517.578s-.329-.145-.651-.42-.554-.535-.517-.578S11.16,221.793,11.483,222.069Z" transform="translate(-10.827 -217.852)" fill="#6d6d6d"/>
          <path id="Path_42062" data-name="Path 42062" d="M75.678,223.614a.4.4,0,0,0-.569.044l-.115.135a9.629,9.629,0,0,1,1.743,1.31,15.08,15.08,0,0,0,1.684,1.805c.527.4,2.684,2.148,3.214,2.57l.118-.139a.4.4,0,0,0-.045-.569,28.427,28.427,0,0,1-3.907-3.341A11.587,11.587,0,0,0,75.678,223.614Z" transform="translate(-69.564 -219.569)" fill="#8b0013"/>
          <path id="Path_42063" data-name="Path 42063" d="M72.413,229.1a.528.528,0,0,0-.149.357.5.5,0,0,0,.161.337c.022.023.047.045.072.068l.074.069.149.136.3.27q.151.134.305.264c.1.087.205.174.31.257s.211.165.318.244a3.657,3.657,0,0,0,.33.219c.235.137.465.282.691.433.113.076.225.153.335.232s.219.162.326.246,1.807,1.535,1.907,1.629a2.7,2.7,0,0,1,.285.3l.116.169q.057.083.117.164a3.966,3.966,0,0,0,.25.313l0,0v0a.155.155,0,0,0,.023.028.191.191,0,0,0,.03.024.175.175,0,0,0,.072.026.184.184,0,0,0,.04,0,.236.236,0,0,0,.041-.006.284.284,0,0,0,.04-.013.43.43,0,0,0,.039-.018l.038-.022c.012-.008.025-.016.037-.025a.812.812,0,0,0,.07-.056c.022-.02.044-.04.065-.062s.041-.044.062-.066c-.018.025-.035.05-.054.073s-.038.047-.059.07a.739.739,0,0,1-.065.065c-.011.01-.024.02-.036.03s-.025.018-.038.027a.444.444,0,0,1-.041.023.313.313,0,0,1-.045.019.277.277,0,0,1-.048.012.237.237,0,0,1-.05,0,.232.232,0,0,1-.1-.027.25.25,0,0,1-.043-.029.221.221,0,0,1-.038-.04l0,.006a3.152,3.152,0,0,1-.28-.3c-.044-.052-.087-.1-.129-.158l-.063-.08-.059-.078a2.566,2.566,0,0,0-.283-.274c-.1-.085-1.8-1.531-1.908-1.611s-.217-.157-.327-.233-.222-.151-.335-.224-.226-.146-.339-.217-.228-.143-.343-.211a3.786,3.786,0,0,1-.343-.232c-.11-.082-.215-.169-.319-.257s-.206-.178-.306-.27-.2-.186-.3-.28-.193-.19-.287-.288L72.5,230c-.047-.05-.093-.1-.139-.151a.689.689,0,0,1-.112-.182.52.52,0,0,1-.03-.1.478.478,0,0,1,0-.107A.527.527,0,0,1,72.413,229.1Z" transform="translate(-67.022 -224.68)" fill="#d1243e"/>
          <path id="Path_42064" data-name="Path 42064" d="M30.994,215.455c.039.029.078.055.116.079Z" transform="translate(-29.287 -212.189)" fill="#6d6d6d"/>
          <path id="Path_42065" data-name="Path 42065" d="M39.01,177.41l-.353.413a.907.907,0,0,1,.63-.191.509.509,0,0,1,.388.324,1.809,1.809,0,0,1,.03.448,1.617,1.617,0,0,0,.42.8,1.257,1.257,0,0,1,.261.933q-.009.046-.02.092l.522-.611c.239-.307-.116-.68-.116-.68l-.538-.623a.433.433,0,0,1,.035-.6,3.28,3.28,0,0,1,1.295-.521A2.043,2.043,0,0,0,39.01,177.41Z" transform="translate(-36.301 -176.859)" fill="#6d6d6d"/>
        </g>
        <g id="Group_177986" data-name="Group 177986" transform="translate(5.9 1.906)">
          <path id="Path_42066" data-name="Path 42066" d="M103.9,166.682a3.3,3.3,0,0,1-.726-1.7l-.869.707-.869.707a3.3,3.3,0,0,1,1.518,1.055l2.181,2.678a3.211,3.211,0,0,1,.678,1.642l.869-.707.869-.707a3.212,3.212,0,0,1-1.471-1Z" transform="translate(-99.673 -162.767)" fill="#a8a8a7"/>
          <g id="Group_177984" data-name="Group 177984">
            <path id="Path_42067" data-name="Path 42067" d="M83.239,140.677a.326.326,0,0,0-.11-.425l-1.2-1.156c-.195-.264.145-.277.145-.277,1.668.436,1.975,1.205,1.975,1.205.507,1.1-.65,1.99-.65,1.99-1.254.952-2.08.233-2.08.233s-.691-.457-.78-2.179c0,0,.081-.33.3-.086l.889,1.407s.132.283.394.194A1.924,1.924,0,0,0,83.239,140.677Z" transform="translate(-80.542 -138.819)" fill="#939292"/>
            <path id="Path_42068" data-name="Path 42068" d="M82.03,140.851,83,142.385s.144.309.429.211a2.1,2.1,0,0,0,1.213-.988.356.356,0,0,0-.12-.463l-1.305-1.26a.392.392,0,0,1-.053-.094c-.021.041-.015.1.049.189l1.2,1.156a.326.326,0,0,1,.11.425,1.924,1.924,0,0,1-1.113.907c-.262.089-.394-.194-.394-.194l-.889-1.407c-.073-.081-.13-.1-.175-.086A.387.387,0,0,1,82.03,140.851Z" transform="translate(-81.83 -139.709)" fill="#b8b8b7"/>
            <path id="Path_42069" data-name="Path 42069" d="M82.076,138.817s-.2.008-.2.129a.31.31,0,0,1,.13-.036c1.471.385,1.742,1.063,1.742,1.063.447.973-.573,1.755-.573,1.755-1.106.839-1.834.206-1.834.206s-.609-.4-.688-1.921a.311.311,0,0,1,.061-.12c-.12-.018-.167.175-.167.175.089,1.722.78,2.179.78,2.179s.826.719,2.08-.233c0,0,1.157-.886.65-1.99C84.051,140.022,83.743,139.253,82.076,138.817Z" transform="translate(-80.541 -138.817)" fill="#828282"/>
          </g>
          <g id="Group_177985" data-name="Group 177985" transform="translate(6.058 7.585)">
            <path id="Path_42070" data-name="Path 42070" d="M153.079,230.289a.326.326,0,0,0,.11.425l1.2,1.156c.195.264-.145.277-.145.277-1.668-.436-1.976-1.205-1.976-1.205-.507-1.1.65-1.99.65-1.99,1.254-.952,2.08-.233,2.08-.233s.691.457.78,2.179c0,0-.081.33-.3.086l-.889-1.407s-.132-.283-.394-.194A1.924,1.924,0,0,0,153.079,230.289Z" transform="translate(-152.138 -228.459)" fill="#939292"/>
            <path id="Path_42071" data-name="Path 42071" d="M163.985,239.463l-.969-1.534s-.144-.308-.429-.211a2.1,2.1,0,0,0-1.214.988.355.355,0,0,0,.12.463l1.306,1.26a.394.394,0,0,1,.053.094c.021-.041.015-.1-.049-.188l-1.2-1.156a.326.326,0,0,1-.11-.425,1.924,1.924,0,0,1,1.113-.907c.262-.089.394.194.394.194l.889,1.407c.073.081.13.1.175.086A.4.4,0,0,1,163.985,239.463Z" transform="translate(-160.547 -236.917)" fill="#b8b8b7"/>
            <path id="Path_42072" data-name="Path 42072" d="M154.242,232.147s.2-.007.2-.129a.309.309,0,0,1-.13.036c-1.471-.385-1.742-1.063-1.742-1.063-.447-.973.573-1.755.573-1.755,1.106-.839,1.834-.206,1.834-.206s.609.4.688,1.922a.31.31,0,0,1-.061.12c.12.018.168-.175.168-.175-.089-1.721-.78-2.179-.78-2.179s-.826-.719-2.08.233c0,0-1.157.886-.65,1.99C152.267,230.942,152.574,231.711,154.242,232.147Z" transform="translate(-152.138 -228.459)" fill="#828282"/>
          </g>
          <path id="Path_42073" data-name="Path 42073" d="M119.836,183.641a.359.359,0,0,1-.052.505h0a.359.359,0,0,1-.505-.052l-2.995-3.677a.359.359,0,0,1,.052-.506h0a.359.359,0,0,1,.505.052Z" transform="translate(-113.186 -176.36)" fill="#959594"/>
          <path id="Path_42074" data-name="Path 42074" d="M120.832,184.731a.32.32,0,0,1,0,.449h0a.32.32,0,0,1-.44-.088l-2.885-3.543a.32.32,0,0,1,0-.449h0a.32.32,0,0,1,.44.088Z" transform="translate(-114.294 -177.471)" fill="#878786"/>
        </g>
        <g id="Group_177992" data-name="Group 177992" transform="translate(21.281)">
          <path id="Path_42075" data-name="Path 42075" d="M296.328,121.237a.854.854,0,0,0,.616-.541l1.558-3.357a.429.429,0,0,0-.208-.57l-.936-.434a.429.429,0,0,0-.569.209L295.23,119.9a.854.854,0,0,0-.015.819s.279.3-.362.675l.6.277.6.277C295.917,121.219,296.328,121.237,296.328,121.237Z" transform="translate(-292.1 -116.296)" fill="#fca01f"/>
          <path id="Path_42076" data-name="Path 42076" d="M295.215,120.72s.279.3-.362.675l.241.112c.087-.048.171-.1.251-.152.515-.342.576-1.035.743-1.584a8.451,8.451,0,0,1,.841-1.84,4.238,4.238,0,0,1,1.082-1.292l-.654-.3a.429.429,0,0,0-.569.209L295.23,119.9A.854.854,0,0,0,295.215,120.72Z" transform="translate(-292.1 -116.296)" fill="#f68c20"/>
          <rect id="Rectangle_162900" data-name="Rectangle 162900" width="6.039" height="0.475" transform="translate(0.428 11.107) rotate(-65.103)" fill="#bababa"/>
          <rect id="Rectangle_162901" data-name="Rectangle 162901" width="6.039" height="0.249" transform="translate(0.428 11.107) rotate(-65.093)" fill="#9e9e9e"/>
          <path id="Path_42077" data-name="Path 42077" d="M292.63,176.922a.118.118,0,0,1-.157.058l-1.34-.622a.119.119,0,0,1-.058-.157l.082-.176a.118.118,0,0,1,.157-.058l1.34.622a.118.118,0,0,1,.058.157Z" transform="translate(-288.631 -170.907)" fill="#2e2e2d"/>
          <g id="Group_177987" data-name="Group 177987" transform="translate(2.478 5.078)">
            <path id="Path_42078" data-name="Path 42078" d="M291.657,176.629a.031.031,0,0,1-.041.015h0a.031.031,0,0,1-.015-.041l.126-.272a.031.031,0,0,1,.041-.015h0a.031.031,0,0,1,.015.041Z" transform="translate(-291.598 -176.313)" fill="#292928"/>
            <path id="Path_42079" data-name="Path 42079" d="M292.617,177.074a.031.031,0,0,1-.041.015h0a.031.031,0,0,1-.015-.041l.126-.272a.031.031,0,0,1,.041-.015h0a.031.031,0,0,1,.015.041Z" transform="translate(-292.476 -176.721)" fill="#292928"/>
            <path id="Path_42080" data-name="Path 42080" d="M293.576,177.519a.031.031,0,0,1-.041.015h0a.031.031,0,0,1-.015-.041l.126-.272a.031.031,0,0,1,.041-.015h0a.031.031,0,0,1,.015.041Z" transform="translate(-293.355 -177.128)" fill="#292928"/>
            <path id="Path_42081" data-name="Path 42081" d="M294.535,177.964a.031.031,0,0,1-.041.015h0a.031.031,0,0,1-.015-.041l.126-.272a.031.031,0,0,1,.041-.015h0a.031.031,0,0,1,.015.041Z" transform="translate(-294.233 -177.535)" fill="#292928"/>
            <path id="Path_42082" data-name="Path 42082" d="M295.494,178.409a.031.031,0,0,1-.041.015h0a.031.031,0,0,1-.015-.041l.126-.272a.031.031,0,0,1,.041-.015h0a.031.031,0,0,1,.015.041Z" transform="translate(-295.11 -177.942)" fill="#292928"/>
            <path id="Path_42083" data-name="Path 42083" d="M296.454,178.854a.031.031,0,0,1-.041.015h0a.031.031,0,0,1-.015-.041l.126-.272a.031.031,0,0,1,.041-.015h0a.031.031,0,0,1,.015.041Z" transform="translate(-295.989 -178.35)" fill="#292928"/>
            <path id="Path_42084" data-name="Path 42084" d="M297.413,179.3a.031.031,0,0,1-.041.015h0a.031.031,0,0,1-.015-.041l.126-.272a.031.031,0,0,1,.041-.015h0a.031.031,0,0,1,.015.041Z" transform="translate(-296.866 -178.758)" fill="#292928"/>
            <path id="Path_42085" data-name="Path 42085" d="M298.372,179.744a.031.031,0,0,1-.041.015h0a.031.031,0,0,1-.015-.041l.126-.272a.031.031,0,0,1,.041-.015h0a.031.031,0,0,1,.015.041Z" transform="translate(-297.744 -179.165)" fill="#292928"/>
            <path id="Path_42086" data-name="Path 42086" d="M299.331,180.189a.031.031,0,0,1-.041.015h0a.031.031,0,0,1-.015-.041l.126-.272a.031.031,0,0,1,.041-.015h0a.031.031,0,0,1,.015.041Z" transform="translate(-298.623 -179.572)" fill="#292928"/>
            <path id="Path_42087" data-name="Path 42087" d="M300.291,180.635a.031.031,0,0,1-.041.015h0a.031.031,0,0,1-.015-.041l.126-.272a.031.031,0,0,1,.041-.015h0a.031.031,0,0,1,.015.041Z" transform="translate(-299.501 -179.98)" fill="#292928"/>
            <path id="Path_42088" data-name="Path 42088" d="M301.25,181.08a.031.031,0,0,1-.041.015h0a.031.031,0,0,1-.015-.041l.126-.272a.031.031,0,0,1,.041-.015h0a.031.031,0,0,1,.015.041Z" transform="translate(-300.379 -180.388)" fill="#292928"/>
            <path id="Path_42089" data-name="Path 42089" d="M302.209,181.524a.031.031,0,0,1-.041.015h0a.031.031,0,0,1-.015-.041l.126-.272a.031.031,0,0,1,.041-.015h0a.031.031,0,0,1,.015.041Z" transform="translate(-301.257 -180.794)" fill="#292928"/>
            <path id="Path_42090" data-name="Path 42090" d="M303.169,181.97a.031.031,0,0,1-.041.015h0a.031.031,0,0,1-.015-.041l.126-.272a.031.031,0,0,1,.041-.015h0a.031.031,0,0,1,.015.041Z" transform="translate(-302.136 -181.202)" fill="#292928"/>
            <path id="Path_42091" data-name="Path 42091" d="M304.127,182.415a.031.031,0,0,1-.041.015h0a.031.031,0,0,1-.015-.041l.126-.272a.031.031,0,0,1,.041-.015h0a.031.031,0,0,1,.015.041Z" transform="translate(-303.013 -181.61)" fill="#292928"/>
            <path id="Path_42092" data-name="Path 42092" d="M305.087,182.86a.031.031,0,0,1-.041.015h0a.031.031,0,0,1-.015-.041l.126-.272a.031.031,0,0,1,.041-.015h0a.031.031,0,0,1,.015.041Z" transform="translate(-303.891 -182.017)" fill="#292928"/>
            <path id="Path_42093" data-name="Path 42093" d="M306.046,183.305a.031.031,0,0,1-.041.015h0a.031.031,0,0,1-.015-.041l.126-.272a.031.031,0,0,1,.041-.015h0a.031.031,0,0,1,.015.041Z" transform="translate(-304.769 -182.424)" fill="#292928"/>
            <path id="Path_42094" data-name="Path 42094" d="M307,183.751a.031.031,0,0,1-.041.015h0a.031.031,0,0,1-.015-.041l.126-.272a.031.031,0,0,1,.041-.015h0a.031.031,0,0,1,.015.041Z" transform="translate(-305.647 -182.832)" fill="#292928"/>
            <path id="Path_42095" data-name="Path 42095" d="M307.964,184.2a.031.031,0,0,1-.041.015h0a.031.031,0,0,1-.015-.041l.126-.272a.031.031,0,0,1,.041-.015h0a.031.031,0,0,1,.015.041Z" transform="translate(-306.525 -183.24)" fill="#292928"/>
          </g>
          <path id="Path_42096" data-name="Path 42096" d="M262.742,248.6a.1.1,0,0,1-.134.049l-.236-.11a.1.1,0,0,1-.049-.134l.291-.867a.1.1,0,0,1,.134-.049l.419.195a.1.1,0,0,1,.049.134Z" transform="translate(-262.314 -236.382)" fill="#9e9e9e"/>
          <path id="Path_42097" data-name="Path 42097" d="M262.732,247.773a.1.1,0,0,1,.134-.049l.319.148.031-.051a.1.1,0,0,0-.049-.134l-.419-.195a.1.1,0,0,0-.134.049l-.291.867a.1.1,0,0,0,.049.134l.088.041Z" transform="translate(-262.314 -236.382)" fill="#939292"/>
          <path id="Path_42098" data-name="Path 42098" d="M265.5,251.334c.058.023.115.046.171.07l.008,0,0,.008c-.034.058-.067.117-.1.175s-.07.116-.1.174-.071.115-.107.172-.074.113-.11.17h0a.067.067,0,0,1-.017.014.1.1,0,0,1-.019.009l-.01,0-.01,0a.134.134,0,0,1-.02,0,.065.065,0,0,1-.02,0l-.019,0-.035-.017.037.013.019,0a.064.064,0,0,0,.019,0,.1.1,0,0,0,.019,0l.009,0,.009,0a.085.085,0,0,0,.016-.009.061.061,0,0,0,.012-.011h0c.034-.059.067-.118.1-.176s.069-.116.1-.174.071-.115.107-.172.073-.114.11-.171l0,.012Z" transform="translate(-264.868 -239.907)" fill="#d2d1d1"/>
          <g id="Group_177991" data-name="Group 177991" transform="translate(3.343 0.29)">
            <g id="Group_177988" data-name="Group 177988">
              <path id="Path_42099" data-name="Path 42099" d="M302.156,123.467a.131.131,0,0,1-.17.072l-.1-.044a.131.131,0,0,1-.055-.176l1.631-3.515a.131.131,0,0,1,.17-.072l.095.044a.131.131,0,0,1,.055.176Z" transform="translate(-301.823 -119.721)" fill="#f8c118"/>
              <path id="Path_42100" data-name="Path 42100" d="M301.952,123.373l1.631-3.516a.132.132,0,0,1,.159-.075l-.01-.006-.095-.044a.131.131,0,0,0-.17.072l-1.631,3.515a.131.131,0,0,0,.055.176l.1.044.011,0A.132.132,0,0,1,301.952,123.373Z" transform="translate(-301.823 -119.721)" fill="#d8981a"/>
            </g>
            <g id="Group_177989" data-name="Group 177989" transform="translate(0.399 0.185)">
              <path id="Path_42101" data-name="Path 42101" d="M306.914,125.675a.131.131,0,0,1-.17.072l-.095-.044a.131.131,0,0,1-.055-.176l1.631-3.516a.131.131,0,0,1,.17-.072l.095.044a.131.131,0,0,1,.055.176Z" transform="translate(-306.577 -121.928)" fill="#f8c118"/>
              <path id="Path_42102" data-name="Path 42102" d="M306.665,125.56l1.631-3.516a.132.132,0,0,1,.159-.075l-.01-.006-.095-.044a.131.131,0,0,0-.17.072l-1.631,3.515a.131.131,0,0,0,.055.176l.095.044.011,0A.132.132,0,0,1,306.665,125.56Z" transform="translate(-306.535 -121.908)" fill="#d8981a"/>
            </g>
            <g id="Group_177990" data-name="Group 177990" transform="translate(0.805 0.374)">
              <path id="Path_42103" data-name="Path 42103" d="M311.673,127.884a.131.131,0,0,1-.17.072l-.095-.044a.131.131,0,0,1-.055-.176l1.631-3.515a.131.131,0,0,1,.17-.072l.095.044a.131.131,0,0,1,.055.176Z" transform="translate(-311.34 -124.138)" fill="#f8c118"/>
              <path id="Path_42104" data-name="Path 42104" d="M311.469,127.789l1.631-3.516a.131.131,0,0,1,.159-.075l-.01-.006-.095-.044a.131.131,0,0,0-.17.072l-1.631,3.515a.131.131,0,0,0,.055.176l.095.044.011,0A.132.132,0,0,1,311.469,127.789Z" transform="translate(-311.34 -124.138)" fill="#d8981a"/>
            </g>
          </g>
        </g>
        <g id="Group_177995" data-name="Group 177995" transform="translate(22.082 3.928)">
          <path id="Path_42105" data-name="Path 42105" d="M359.348,164.389a3.279,3.279,0,0,1,3.031-1.655l.1.1-1.436,1.4-.084-.085a2.552,2.552,0,0,0-.848,1.013l-1.212,1.19-.11-.112-.348.361-.553-.563S358.678,166.114,359.348,164.389Z" transform="translate(-350.607 -162.721)" fill="#bababa"/>
          <path id="Path_42106" data-name="Path 42106" d="M369.461,167.744a3.233,3.233,0,0,0,1.747-2.964l-.139-.141-1.43,1.41.084.085a2.551,2.551,0,0,1-1.029.829l-1.212,1.19.11.112-.367.341.553.563S367.723,168.382,369.461,167.744Z" transform="translate(-359.149 -164.477)" fill="#bababa"/>
          <path id="Path_42107" data-name="Path 42107" d="M371.192,192.126a.61.61,0,1,1,.074-.919A.655.655,0,0,1,371.192,192.126Z" transform="translate(-361.796 -188.648)" fill="#8c8b8b"/>
          <path id="Path_42108" data-name="Path 42108" d="M373.154,194.081a.43.43,0,1,1,.052-.647A.461.461,0,0,1,373.154,194.081Z" transform="translate(-363.883 -190.73)" fill="#a3a3a3"/>
          <g id="Group_177993" data-name="Group 177993" transform="translate(0 2.665)">
            <path id="Path_42109" data-name="Path 42109" d="M279.622,195.437c.015.035-.183.273-.208.307a2.518,2.518,0,0,1-.6.626,1.724,1.724,0,0,1-.863.254c-.091.009-.182.016-.272.029a4.183,4.183,0,0,0-.78.2,4.619,4.619,0,0,0-1.03.522,5.766,5.766,0,0,0-1.147,1.011,7.65,7.65,0,0,0-1.056,1.663c-.04.08-.082.16-.119.241-.009.02,0,.076,0,.1a.458.458,0,0,1-.073.183.657.657,0,0,1-.7.2c-.308-.055-.823-.123-.967-.455a.481.481,0,0,1,0-.328.615.615,0,0,1,.407-.326c.074-.022.149-.041.223-.063.013,0,.121-.024.126-.037a7.075,7.075,0,0,1,4.623-3.814s.863-.031,1.316-1.409C278.507,194.344,278.874,193.662,279.622,195.437Z" transform="translate(-271.783 -194.215)" fill="#ae0018"/>
            <path id="Path_42110" data-name="Path 42110" d="M283.271,195.745c.024-.034.222-.273.208-.307-.748-1.776-1.115-1.094-1.115-1.094l-.008.024a1.378,1.378,0,0,1,.506,1.017.786.786,0,0,1-.37.6,1.726,1.726,0,0,1-.721.193,5.684,5.684,0,0,0-.679.121,6.123,6.123,0,0,0-1.922.933,4.062,4.062,0,0,0-.839.857,8.566,8.566,0,0,0-.635.975,4.255,4.255,0,0,1-.71.969,2.858,2.858,0,0,1-.667.421c-.106.053-.217.106-.322.167a2.831,2.831,0,0,0,.638.161.657.657,0,0,0,.7-.2.458.458,0,0,0,.073-.183c0-.025-.01-.08,0-.1.036-.082.079-.161.119-.241a7.648,7.648,0,0,1,1.056-1.663,5.766,5.766,0,0,1,1.147-1.011,4.618,4.618,0,0,1,1.03-.522,4.183,4.183,0,0,1,.78-.2c.09-.013.181-.02.272-.029a1.724,1.724,0,0,0,.863-.254A2.518,2.518,0,0,0,283.271,195.745Z" transform="translate(-275.639 -194.215)" fill="#7f0411"/>
            <path id="Path_42111" data-name="Path 42111" d="M274.352,206.956a.482.482,0,0,1-.137-.111.371.371,0,0,1-.05-.076.278.278,0,0,1-.017-.043.262.262,0,0,1-.01-.046.291.291,0,0,1,0-.095.373.373,0,0,1,.012-.046.366.366,0,0,1,.017-.044.438.438,0,0,1,.021-.042c.008-.014.016-.026.025-.039l.028-.037.03-.035h0l0,0,.034-.028.035-.026c.023-.016.047-.032.072-.046a.946.946,0,0,1,.156-.072.824.824,0,0,1,.169-.04.715.715,0,0,1,.088-.006.776.776,0,0,1,.089,0l-.071.047c.006-.023.011-.038.017-.057s.012-.035.019-.052c.013-.034.028-.068.042-.1s.03-.066.046-.1.032-.064.049-.1.034-.063.051-.094.035-.063.054-.093l.056-.091.058-.09c.038-.06.079-.118.118-.178l.123-.174c.042-.057.083-.115.127-.171l.131-.168-.007.01c.021-.033.04-.061.061-.09l.062-.085c.042-.056.085-.111.13-.165q.133-.162.279-.312c.1-.1.2-.2.3-.289s.211-.182.32-.268.223-.167.338-.245.233-.152.353-.222.243-.136.367-.2.251-.119.38-.172.258-.1.389-.148.264-.084.4-.121.269-.068.4-.1c.068-.015.136-.026.2-.037s.129-.025.194-.041a2.263,2.263,0,0,0,.375-.13,1.26,1.26,0,0,0,.332-.21.8.8,0,0,0,.128-.147.609.609,0,0,0,.081-.178.669.669,0,0,0,.022-.2.94.94,0,0,0-.031-.2.749.749,0,0,1,.054.408.729.729,0,0,1-.194.375,1.364,1.364,0,0,1-.339.255,2.285,2.285,0,0,1-.388.164c-.067.021-.134.041-.2.057l-.2.048c-.131.034-.26.07-.389.112s-.255.087-.381.134-.25.1-.372.154-.243.114-.362.177-.236.127-.351.2-.228.141-.338.217-.218.155-.324.237-.209.168-.31.256-.2.18-.293.274-.186.192-.274.292c-.044.05-.087.1-.128.153l-.061.078c-.019.026-.04.054-.056.078l0,.007,0,0-.133.161-.131.162-.128.164c-.041.056-.084.111-.123.168l-.06.085-.058.086c-.02.029-.038.058-.057.086s-.038.058-.056.087-.036.059-.053.088-.034.06-.05.09-.031.06-.046.091c-.007.015-.014.03-.021.046s-.013.032-.017.043l-.019.056-.051-.008a.706.706,0,0,0-.148-.009.738.738,0,0,0-.15.023.843.843,0,0,0-.144.053c-.023.011-.046.023-.068.036l-.033.02-.03.022,0,0-.03.029-.028.031c-.008.011-.018.021-.025.032a.362.362,0,0,0-.022.034.3.3,0,0,0-.019.036.306.306,0,0,0-.014.038.255.255,0,0,0-.008.04.268.268,0,0,0,0,.04.241.241,0,0,0,0,.04.219.219,0,0,0,.011.04.339.339,0,0,0,.037.075A.5.5,0,0,0,274.352,206.956Z" transform="translate(-273.936 -200.583)" fill="#bf1129"/>
          </g>
          <g id="Group_177994" data-name="Group 177994" transform="translate(2.582 4.072)">
            <path id="Path_42112" data-name="Path 42112" d="M307.775,210.846c-.035-.015-.277.178-.311.2a2.514,2.514,0,0,0-.637.586,1.725,1.725,0,0,0-.27.858c-.011.09-.019.181-.034.271a4.171,4.171,0,0,1-.218.776,4.627,4.627,0,0,1-.541,1.02,5.768,5.768,0,0,1-1.032,1.128,7.652,7.652,0,0,1-1.682,1.026c-.081.038-.161.08-.244.114-.02.008-.076-.006-.1,0a.462.462,0,0,0-.185.069.656.656,0,0,0-.211.7c.05.309.108.825.437.975a.48.48,0,0,0,.329,0,.616.616,0,0,0,.333-.4c.024-.073.044-.148.067-.221,0-.013.026-.12.04-.125a7.075,7.075,0,0,0,3.9-4.552s.046-.862,1.433-1.289C308.848,211.98,309.537,211.626,307.775,210.846Z" transform="translate(-302.295 -210.845)" fill="#ae0018"/>
            <path id="Path_42113" data-name="Path 42113" d="M307.464,211.048c.035-.024.277-.217.311-.2,1.762.78,1.073,1.135,1.073,1.135l-.024.008a1.378,1.378,0,0,0-1.007-.524.786.786,0,0,0-.6.359,1.725,1.725,0,0,0-.206.717,5.693,5.693,0,0,1-.133.677,6.124,6.124,0,0,1-.968,1.9,4.064,4.064,0,0,1-.872.824,8.594,8.594,0,0,1-.986.617,4.258,4.258,0,0,0-.982.692,2.86,2.86,0,0,0-.433.66c-.055.1-.11.215-.173.319a2.832,2.832,0,0,1-.149-.641.656.656,0,0,1,.211-.7.462.462,0,0,1,.185-.069c.024,0,.08.011.1,0,.082-.035.163-.076.244-.114a7.652,7.652,0,0,0,1.682-1.026,5.768,5.768,0,0,0,1.032-1.128,4.627,4.627,0,0,0,.541-1.02,4.171,4.171,0,0,0,.218-.776c.015-.09.023-.181.034-.271a1.725,1.725,0,0,1,.27-.858A2.514,2.514,0,0,1,307.464,211.048Z" transform="translate(-302.295 -210.845)" fill="#7f0411"/>
            <path id="Path_42114" data-name="Path 42114" d="M304.6,227.938a.475.475,0,0,0,.109.139.37.37,0,0,0,.075.051.257.257,0,0,0,.043.018.266.266,0,0,0,.046.011.3.3,0,0,0,.047,0,.317.317,0,0,0,.047,0,.327.327,0,0,0,.046-.01.4.4,0,0,0,.044-.016.456.456,0,0,0,.042-.021c.014-.007.026-.016.04-.024l.038-.027.036-.029h0l0,0,.029-.033.026-.034c.017-.023.033-.047.047-.071a.938.938,0,0,0,.075-.155.844.844,0,0,0,.044-.169.745.745,0,0,0,.008-.088.772.772,0,0,0,0-.089l-.048.07c.023-.005.039-.011.057-.016l.052-.018c.035-.012.068-.026.1-.04s.066-.029.1-.044l.1-.047c.032-.016.064-.032.1-.05s.063-.034.094-.052l.092-.054.091-.056c.061-.037.12-.076.18-.115l.176-.119c.058-.041.116-.082.173-.124l.17-.128-.01.007c.034-.02.062-.039.091-.059l.086-.061q.085-.062.167-.127.164-.13.317-.273t.3-.3c.094-.1.186-.207.273-.316s.171-.219.251-.333.157-.23.229-.349.141-.24.2-.363.123-.249.179-.376.107-.256.155-.386.089-.263.128-.4.073-.267.1-.4c.016-.067.028-.135.041-.2s.027-.129.044-.193a2.243,2.243,0,0,1,.137-.373,1.256,1.256,0,0,1,.216-.328.8.8,0,0,1,.149-.125.616.616,0,0,1,.179-.078.677.677,0,0,1,.2-.018.931.931,0,0,1,.2.035.75.75,0,0,0-.407-.062.73.73,0,0,0-.379.187,1.359,1.359,0,0,0-.261.334,2.277,2.277,0,0,0-.171.385c-.023.067-.043.133-.06.2s-.034.131-.052.2c-.036.13-.075.259-.119.386s-.092.253-.141.378-.1.248-.161.369-.119.241-.183.358-.132.234-.2.347-.145.225-.223.334-.159.215-.243.32-.171.206-.262.3-.183.2-.28.288-.2.183-.3.269c-.051.043-.1.085-.156.125l-.079.059-.079.055-.007,0,0,0-.163.13-.164.128-.167.125c-.057.04-.112.082-.17.12l-.086.059-.087.057-.087.056-.088.054c-.029.018-.059.035-.089.051s-.06.033-.09.048-.061.031-.092.044l-.046.02-.043.016-.056.018.007.052a.683.683,0,0,1,.007.148.724.724,0,0,1-.026.149.835.835,0,0,1-.056.143q-.017.035-.038.068l-.021.032-.022.03,0,0-.03.029-.031.028c-.011.008-.021.017-.033.025a.344.344,0,0,1-.035.022.36.36,0,0,1-.036.018.287.287,0,0,1-.038.013.306.306,0,0,1-.039.007.279.279,0,0,1-.04,0,.243.243,0,0,1-.04-.005.247.247,0,0,1-.04-.011.337.337,0,0,1-.075-.039A.5.5,0,0,1,304.6,227.938Z" transform="translate(-304.407 -220.61)" fill="#bf1129"/>
          </g>
        </g>
      </g>
      <g id="Group_178004" data-name="Group 178004" transform="translate(8.371 0)">
        <g id="Group_178003" data-name="Group 178003" transform="translate(0)">
          <rect id="Rectangle_162902" data-name="Rectangle 162902" width="3.794" height="2.293" transform="translate(6.769 14.751)" fill="#f9b79b"/>
          <path id="Path_42115" data-name="Path 42115" d="M192.61,216.11a6.063,6.063,0,0,0,.93-.5v-1.157h-3.794v1.4A3.665,3.665,0,0,0,192.61,216.11Z" transform="translate(-182.977 -199.705)" fill="#c99680"/>
          <g id="Group_177997" data-name="Group 177997" transform="translate(11.999 9.798)">
            <path id="Path_42116" data-name="Path 42116" d="M252.883,157.179c-.121.622-.508,1.069-.866,1s-.55-.629-.43-1.251.508-1.07.866-1S253,156.557,252.883,157.179Z" transform="translate(-251.552 -155.921)" fill="#f9b79b"/>
          </g>
          <g id="Group_177998" data-name="Group 177998" transform="translate(4.004 9.946)">
            <path id="Path_42117" data-name="Path 42117" d="M157.1,158.927c.119.622.505,1.071.863,1s.552-.628.433-1.25-.506-1.071-.863-1S156.984,158.305,157.1,158.927Z" transform="translate(-157.068 -157.671)" fill="#f9b79b"/>
          </g>
          <path id="Path_42118" data-name="Path 42118" d="M173.068,103.143a4.4,4.4,0,0,1-.877,2.078c-1.035,1.509-1.449,2.161-2.969,2.161-1.472,0-1.683-.387-2.821-1.6a5.384,5.384,0,0,1-1.1-2.128l-.084-.792c-.08-.694-.077-1.683-.077-1.683a7.024,7.024,0,0,1,.793-3.782,3.781,3.781,0,0,1,3.232-1.319,3.848,3.848,0,0,1,3.064,1.194,6.042,6.042,0,0,1,.869,3.693c0,.055,0,.111,0,.166C173.1,101.131,173.094,102.849,173.068,103.143Z" transform="translate(-160.45 -91.344)" fill="#f9b79b"/>
          <path id="Path_42119" data-name="Path 42119" d="M127.329,242.144l-.578-2.841a6.921,6.921,0,0,0-3.048-1.9l-3.3-1.1h-3.636l-3.181,1.205a5.985,5.985,0,0,0-2.895,2.16l-.756,2.479Z" transform="translate(-109.923 -219.701)" fill="#f9b79b"/>
          <path id="Path_42120" data-name="Path 42120" d="M172.4,76.8s1.534,1.089,5.592.841c0,0,.99,2.3.742,3.239h.319l.341-1.133a6.594,6.594,0,0,0,.387-2.948,4.772,4.772,0,0,0-1.367-2.573s.3-.223.684.309c0,0-.314-1.167-2.426-1.332a10.455,10.455,0,0,1,1.089,0,3.411,3.411,0,0,0-2.54-.2,1.086,1.086,0,0,1,.87-.429,3.645,3.645,0,0,0-2.288.759,3.689,3.689,0,0,1,.825-.792s-1.914.363-2.227,1.353a2.6,2.6,0,0,1,.314-.99,2.12,2.12,0,0,0-.928,1.815A1.719,1.719,0,0,0,172.4,76.8Z" transform="translate(-166.412 -69.8)" fill="#341e13"/>
          <path id="Path_42121" data-name="Path 42121" d="M155.534,100.148h-.318l-.5-1.408a5.356,5.356,0,0,1-.224-3.687,1.926,1.926,0,0,1,1.758-1.46s-.524,2.549-.817,4.6Z" transform="translate(-150.49 -89.069)" fill="#341e13"/>
          <path id="Path_42122" data-name="Path 42122" d="M127.157,242.144l-.578-2.841c-.407-1.092-2.926-1.859-2.926-1.859l-3.417-1.143-1.818,2.869L116.6,236.3l-3.517,1.332a4.438,4.438,0,0,0-2.777,2.584l-.553,1.927Z" transform="translate(-109.752 -219.701)" fill="#161615"/>
          <path id="Path_42123" data-name="Path 42123" d="M153.385,246.953h9.509a6.766,6.766,0,0,1,.3-4.741l-1.966-.658-3.147,5.328-3.168-5.261-1.831.694A5.057,5.057,0,0,1,153.385,246.953Z" transform="translate(-149.418 -224.51)" fill="#e85620"/>
          <g id="Group_177999" data-name="Group 177999" transform="translate(4.269 17.237)">
            <path id="Path_42124" data-name="Path 42124" d="M162.336,249.045a27.664,27.664,0,0,0-1.24-5.206l-.9.339c0,.243.418,1.732.8,4.866Z" transform="translate(-160.201 -243.839)" fill="#ffd400"/>
          </g>
          <g id="Group_178000" data-name="Group 178000" transform="translate(10.807 17.116)">
            <path id="Path_42125" data-name="Path 42125" d="M238.708,247.729a35.161,35.161,0,0,1,.879-5.026l-.843-.3a28.476,28.476,0,0,0-1.277,5.327Z" transform="translate(-237.468 -242.402)" fill="#ffd400"/>
          </g>
          <g id="Group_178002" data-name="Group 178002" transform="translate(3.029)">
            <path id="Path_42126" data-name="Path 42126" d="M155.637,106.224a15.977,15.977,0,0,0-4.64-.29,15.973,15.973,0,0,0-4.64.29s-1.19.156-.683.843a3,3,0,0,0,1.811,1.386,11.925,11.925,0,0,0,3.512.34,10.15,10.15,0,0,0,3.512-.382,2.571,2.571,0,0,0,1.773-1.253C156.7,106.41,155.637,106.224,155.637,106.224Z" transform="translate(-145.549 -100.315)" fill="#c38b00"/>
            <path id="Path_42127" data-name="Path 42127" d="M155.637,103.156a15.985,15.985,0,0,0-4.64-.29,15.981,15.981,0,0,0-4.64.29s-1.19.156-.683.843a3,3,0,0,0,1.811,1.386,11.919,11.919,0,0,0,3.512.34,10.152,10.152,0,0,0,3.512-.382,2.572,2.572,0,0,0,1.773-1.253C156.7,103.342,155.637,103.156,155.637,103.156Z" transform="translate(-145.549 -97.507)" fill="#eba400"/>
            <path id="Path_42128" data-name="Path 42128" d="M157.961,109.447a9.739,9.739,0,0,1-3.367.366,11.44,11.44,0,0,1-3.367-.326,2.876,2.876,0,0,1-1.736-1.329.441.441,0,0,1-.109-.385.389.389,0,0,0-.149.654,2.879,2.879,0,0,0,1.736,1.329,11.431,11.431,0,0,0,3.367.326,9.738,9.738,0,0,0,3.368-.366,2.756,2.756,0,0,0,1.5-.9A2.948,2.948,0,0,1,157.961,109.447Z" transform="translate(-148.811 -102.049)" fill="#ffbf22"/>
            <path id="Path_42129" data-name="Path 42129" d="M163.921,53.767a.11.11,0,0,0,0-.019.165.165,0,0,0,0-.025c-.072-3.089-2.166-5.567-4.739-5.567-2.607,0-4.722,2.544-4.74,5.69h.03c.258.447,2.269.8,4.712.8s4.453-.348,4.711-.8h.029C163.922,53.819,163.921,53.793,163.921,53.767Z" transform="translate(-153.689 -47.476)" fill="#ffb400"/>
            <path id="Path_42130" data-name="Path 42130" d="M186.6,68.414c0-.006,0-.013,0-.019a4.148,4.148,0,0,0-2.78-4.054,4.286,4.286,0,0,1,2.335,3.9.133.133,0,0,1,0,.019.1.1,0,0,1,0,.014c0,.019,0,.039,0,.059h-.021c-.193.333-1.692.593-3.514.593a12.535,12.535,0,0,1-2.859-.274,9.421,9.421,0,0,0,3.3.429c1.821,0,3.321-.26,3.513-.593h.021c0-.02,0-.039,0-.058S186.6,68.419,186.6,68.414Z" transform="translate(-176.868 -62.292)" fill="#fff" opacity="0.5"/>
            <path id="Path_42131" data-name="Path 42131" d="M160.5,49.08a4.016,4.016,0,0,1,1.689.375,4.255,4.255,0,0,0-3.006-1.3c-2.607,0-4.722,2.544-4.74,5.69h.03c.117.2.591.383,1.3.522C155.959,51.409,158,49.08,160.5,49.08Z" transform="translate(-153.689 -47.476)" fill="#fda000"/>
            <path id="Path_42132" data-name="Path 42132" d="M187.693,40.136v0l-.044,0-.044,0v0c-2.257.13-2.008,1.264-2.008,1.264a34.222,34.222,0,0,1,.428,5.838c.782.081,1.449.145,1.624.131a14.128,14.128,0,0,0,1.624-.1A34.635,34.635,0,0,1,189.7,41.4S189.951,40.266,187.693,40.136Z" transform="translate(-182.2 -40.131)" fill="#c38b00"/>
            <path id="Path_42133" data-name="Path 42133" d="M189.726,40.136v0l-.041,0-.041,0v0c-2.05.13-1.824,1.264-1.824,1.264a37.571,37.571,0,0,1,.39,5.838c.71.08,1.316.145,1.475.131a11.729,11.729,0,0,0,1.475-.1,37.951,37.951,0,0,1,.389-5.871S191.777,40.266,189.726,40.136Z" transform="translate(-184.237 -40.131)" fill="#ffb400"/>
            <path id="Path_42134" data-name="Path 42134" d="M188.793,42.113s-.227-1.134,1.824-1.265v0l.041,0,.04,0v0a3.9,3.9,0,0,1,.792.124c-.14-.336-.558-.759-1.764-.836v0l-.041,0-.041,0v0c-2.05.13-1.824,1.264-1.824,1.264a37.571,37.571,0,0,1,.39,5.838c.365.041.7.079.967.1A31.283,31.283,0,0,0,188.793,42.113Z" transform="translate(-184.237 -40.131)" fill="#fda000"/>
            <g id="Group_178001" data-name="Group 178001" transform="translate(5.449 0.863)" opacity="0.5">
              <path id="Path_42135" data-name="Path 42135" d="M210.794,56.611a28.173,28.173,0,0,1,.337-5.082v0c.124-.627-.011-.8-.037-.83l-.017,0,0,0a1.291,1.291,0,0,0-1.143-.142h0c.088-.045.855-.4,1.3-.091.081.049.335.275.168,1.124a27.931,27.931,0,0,0-.333,5.019Z" transform="translate(-209.939 -50.326)" fill="#fff"/>
            </g>
          </g>
        </g>
      </g>
    </g>
  </g>
</svg>
