<svg xmlns="http://www.w3.org/2000/svg" width="31.248" height="28.645" viewBox="0 0 31.248 28.645">
  <g id="mobile-concept-innovation-idea-think-startup-light-innovate-2_1_" data-name="mobile-concept-innovation-idea-think-startup-light-innovate-2 (1)" transform="translate(-2.25 -4.014)">
    <g id="Group_182939" data-name="Group 182939" transform="translate(2.5 4.014)">
      <g id="Group_182938" data-name="Group 182938" transform="translate(0 13.992)">
        <path id="Path_51895" data-name="Path 51895" d="M12.335,1945.764v1.8a1.79,1.79,0,0,1-1.788,1.8H-16.625a1.78,1.78,0,0,1-1.788-1.8l.027-1.8" transform="translate(18.413 -1934.962)" fill="#addcf4" fill-rule="evenodd"/>
        <path id="Path_51896" data-name="Path 51896" d="M12.335,1945.764v1.8a1.79,1.79,0,0,1-1.788,1.8H-16.625a1.78,1.78,0,0,1-1.788-1.8l.027-1.8" transform="translate(18.413 -1934.962)" fill="none" stroke="#007cbe" stroke-linejoin="round" stroke-width="0.5"/>
        <path id="Path_51897" data-name="Path 51897" d="M11.3,1926.476a1.432,1.432,0,0,0-1.431-1.441H-15.871a1.433,1.433,0,0,0-1.014.423,1.432,1.432,0,0,0-.416,1.017l-1.059,9.362A1.96,1.96,0,0,0-16.385,1938H10.171a2.134,2.134,0,0,0,2.189-2.161Z" transform="translate(18.388 -1925.036)" fill="#f6f4f8"/>
        <path id="Path_51898" data-name="Path 51898" d="M11.117,1925.227l.716,11.423H-11l.715-11.423" transform="translate(14.865 -1925.127)" fill="#eaf8ff" fill-rule="evenodd"/>
        <path id="Path_51899" data-name="Path 51899" d="M-10.789,1925.328l-.714,11.631h23.1l-.08-1.028H-9.841a.491.491,0,0,1-.542-.518l.6-10.086Z" transform="translate(15.104 -1925.176)" fill="#007cbe" fill-rule="evenodd"/>
        <path id="Path_51900" data-name="Path 51900" d="M-13.582,1934.018l-.215,2.161" transform="translate(16.203 -1929.337)" fill="none" stroke="#007cbe" stroke-width="0.5"/>
        <ellipse id="Ellipse_6236" data-name="Ellipse 6236" cx="0.358" cy="0.36" rx="0.358" ry="0.36" transform="translate(1.907 7.562)" fill="#007cbe"/>
        <path id="Path_51901" data-name="Path 51901" d="M10.174,1925.068a1.428,1.428,0,0,1,1.275,1.424l1.058,9.362a1.959,1.959,0,0,1-1.975,2.16H-16.024a2.1,2.1,0,0,1-1.836-.976,2.4,2.4,0,0,0,.562.071H9.258a1.959,1.959,0,0,0,1.975-2.161l-.023-.2a2.847,2.847,0,0,0,.022-.32l-1.058-9.36Z" transform="translate(18.148 -1925.052)" fill="#eaf8ff"/>
        <path id="Path_51902" data-name="Path 51902" d="M11.117,1925.227l.716,11.423H-11" transform="translate(14.865 -1925.127)" fill="#007cbe" fill-rule="evenodd"/>
        <path id="Path_51903" data-name="Path 51903" d="M-16.026,1925.068a1.428,1.428,0,0,0-1.275,1.424l-1.058,9.362a1.959,1.959,0,0,0,1.975,2.16H10.172a2.1,2.1,0,0,0,1.836-.976,2.382,2.382,0,0,1-.562.071H-15.11a1.959,1.959,0,0,1-1.975-2.161c0-.346.006-.365,0-.52Z" transform="translate(18.388 -1925.052)" fill="#addcf4"/>
        <path id="Path_51904" data-name="Path 51904" d="M-9.52,1945.675l-1.484.766H11.81l-.06-.766Z" transform="translate(14.865 -1934.919)" fill="#01669b" fill-rule="evenodd"/>
        <path id="Path_51905" data-name="Path 51905" d="M11.117,1925.227l.716,11.423H-11l.715-11.423" transform="translate(14.865 -1925.127)" fill="none" stroke="#007cbe" stroke-linecap="round" stroke-linejoin="round" stroke-width="0.5"/>
        <path id="Path_51906" data-name="Path 51906" d="M11.3,1926.476a1.432,1.432,0,0,0-1.431-1.441H-15.871a1.433,1.433,0,0,0-1.014.423,1.432,1.432,0,0,0-.416,1.017l-1.059,9.362A1.96,1.96,0,0,0-16.385,1938H10.171a2.134,2.134,0,0,0,2.189-2.161Z" transform="translate(18.388 -1925.036)" fill="none" stroke="#007cbe" stroke-width="0.5"/>
        <path id="Path_51907" data-name="Path 51907" d="M35.653,1936.837a.624.624,0,0,1-.136.505.6.6,0,0,1-.477.2.883.883,0,0,1-.822-.735.591.591,0,0,1,.612-.705.883.883,0,0,1,.823.735Z" transform="translate(-6.786 -1930.335)" fill="#fff0f0"/>
        <path id="Path_51908" data-name="Path 51908" d="M34.55,1935.592a.809.809,0,0,0-.836.959,1.21,1.21,0,0,0,1.123,1,.809.809,0,0,0,.837-.959,1.21,1.21,0,0,0-1.124-1Zm.076.52a.557.557,0,0,1,.522.47.374.374,0,0,1-.387.451.557.557,0,0,1-.522-.47.373.373,0,0,1,.387-.45Z" transform="translate(-6.543 -1930.09)" fill="#007cbe"/>
      </g>
      <path id="Path_51909" data-name="Path 51909" d="M-147.666,2113.63h4.2v1.042h-4.2Z" transform="translate(161.032 -2094.094)" fill="#eaf8ff"/>
      <rect id="Rectangle_164823" data-name="Rectangle 164823" width="7.329" height="1.042" rx="0.521" transform="translate(11.803 17.448)" fill="#eaf8ff"/>
      <path id="Path_51910" data-name="Path 51910" d="M-149.666,2108.646v-1.023h6.254v1.019m0,1.189v.923h-6.254v-.975" transform="translate(161.99 -2091.217)" fill="#afddf4"/>
      <path id="Path_51911" data-name="Path 51911" d="M-146.218,2096.362v-1.8a5.714,5.714,0,0,0,3.046-5.049,5.713,5.713,0,0,0-5.712-5.714,5.713,5.713,0,0,0-5.712,5.714,5.714,5.714,0,0,0,3.047,5.05v1.8" transform="translate(164.35 -2079.808)" fill="#eaf8ff"/>
      <path id="Path_51912" data-name="Path 51912" d="M-144.146,2083.8c-.188,0-.373.01-.557.029a5.712,5.712,0,0,1,5.154,5.685,5.715,5.715,0,0,1-3.046,5.05v1.8h1.115v-1.8a5.713,5.713,0,0,0,3.045-5.05A5.712,5.712,0,0,0-144.146,2083.8Z" transform="translate(159.613 -2079.808)" fill="#c0e7fa"/>
      <path id="Path_51913" data-name="Path 51913" d="M-146.229,2096.282v-1.819a5.754,5.754,0,0,0,3.067-5.085,5.752,5.752,0,0,0-5.751-5.753,5.752,5.752,0,0,0-5.752,5.753,5.755,5.755,0,0,0,3.067,5.085v1.819" transform="translate(164.384 -2079.726)" fill="none" stroke="#007cbe" stroke-width="0.5"/>
      <path id="Path_51914" data-name="Path 51914" d="M-145.666,2097.464v5.352m2.085-5.352v5.352" transform="translate(160.074 -2086.353)" fill="none" stroke="#97c3d9" stroke-width="1"/>
      <path id="Path_51915" data-name="Path 51915" d="M-148.624,2110.753h4.2v1.042h-4.2Zm-1.042-2.107v-1.023h6.254v1.019m0,1.189v.923h-6.254v-.975" transform="translate(161.99 -2091.217)" fill="none" stroke="#007cbe" stroke-linecap="round" stroke-linejoin="round" stroke-width="0.25"/>
      <path id="Path_51916" data-name="Path 51916" d="M-143.476,2097.623h-4.69" transform="translate(161.271 -2086.429)" fill="none" stroke="#f6f4f8" stroke-width="1"/>
      <path id="Path_51917" data-name="Path 51917" d="M-152.666,2090.546a4.924,4.924,0,0,1,4.924-4.925" transform="translate(163.426 -2080.682)" fill="none" stroke="#007cbe" stroke-width="0.25"/>
      <path id="Path_51918" data-name="Path 51918" d="M-144.036,2092.637c1.779,2.9.945,3.517-1.865,1.39a40,40,0,0,1-8.325-9.1c-1.793-2.906-.977-3.548,1.823-1.436" transform="translate(164.629 -2079.065)" fill="none" stroke="#007cbe" stroke-width="0.5"/>
      <path id="Path_51920" data-name="Path 51920" d="M-156.372,2092.725c-2.1.86-1.516,2.118,1.353,2.929a22.377,22.377,0,0,0,9.888.251c2.775-.667,3.2-1.9.988-2.869" transform="translate(165.802 -2084.084)" fill="none" stroke="#007cbe" stroke-width="0.5"/>
      <circle id="Ellipse_6237" data-name="Ellipse 6237" cx="0.521" cy="0.521" r="0.521" transform="translate(6.852 16.926)" fill="#ecdafc"/>
      <circle id="Ellipse_6238" data-name="Ellipse 6238" cx="0.521" cy="0.521" r="0.521" transform="translate(6.852 16.926)" fill="none" stroke="#007cbe" stroke-linecap="round" stroke-linejoin="round" stroke-width="1"/>
      <circle id="Ellipse_6239" data-name="Ellipse 6239" cx="0.394" cy="0.394" r="0.394" transform="translate(23.395 13.409)" fill="#b76cfd"/>
      <circle id="Ellipse_6240" data-name="Ellipse 6240" cx="0.521" cy="0.521" r="0.521" transform="translate(23.268 13.282)" fill="none" stroke="#007cbe" stroke-linecap="round" stroke-linejoin="round" stroke-width="1"/>
      <circle id="Ellipse_6241" data-name="Ellipse 6241" cx="0.521" cy="0.521" r="0.521" transform="translate(17.014 1.292)" fill="#8400ff"/>
      <circle id="Ellipse_6242" data-name="Ellipse 6242" cx="0.521" cy="0.521" r="0.521" transform="translate(17.014 1.292)" fill="#fff0f0" stroke="#007cbe" stroke-linecap="round" stroke-linejoin="round" stroke-width="1"/>
      <path id="Path_51921" data-name="Path 51921" d="M-161.03,2099.694v-1.563m-.782.782h1.563m6.851,8.342v.778m2.085-.778v.778" transform="translate(167.806 -2086.672)" fill="none" stroke="#007cbe" stroke-width="1"/>
      <rect id="Rectangle_164824" data-name="Rectangle 164824" width="7.329" height="1.042" rx="0.521" transform="translate(11.803 17.448)" fill="none" stroke="#007cbe" stroke-width="0.25"/>
      <path id="Path_51922" data-name="Path 51922" d="M-155.22,2077.7v-1.556m-.778.778h1.556m11.695,7.845,1.1-1.105m-1.1,0,1.1,1.1m-18.927-1.981.732-.732m-.732,0,.732.732" transform="translate(167.211 -2076.144)" fill="none" stroke="#007cbe" stroke-width="1"/>
    </g>
  </g>
</svg>
