<svg xmlns="http://www.w3.org/2000/svg" width="68.002" height="62.124" viewBox="0 0 68.002 62.124">
  <g id="Group_179592" data-name="Group 179592" transform="translate(-89.707 -233.571)">
    <g id="Group_179579" data-name="Group 179579" transform="translate(90.952 235.035)" opacity="0.5" style="mix-blend-mode: multiply;isolation: isolate">
      <path id="Path_49298" data-name="Path 49298" d="M154.195,261.809a6.977,6.977,0,0,0-4.556-2.333,6.088,6.088,0,0,0-.871-.148v-1.791a22.928,22.928,0,0,0-22.838-22.966h-3.988A22.928,22.928,0,0,0,99.1,257.537v1.791a6.054,6.054,0,0,0-.871.148,6.989,6.989,0,0,0-4.56,2.333c-1.713,2.147-3.116,6.735-3.116,10.2s1.4,8.051,3.116,10.2a6.989,6.989,0,0,0,4.56,2.333,5.487,5.487,0,0,0,2.816,0,4.817,4.817,0,0,0,3.438-4.913V264.388a5.02,5.02,0,0,0-2.06-4.272v-2.579a19.6,19.6,0,0,1,19.515-19.632h3.988a19.6,19.6,0,0,1,19.516,19.632v2.577a5.018,5.018,0,0,0-2.06,4.273v15.239a5.108,5.108,0,0,0,1.667,3.951c-.18.438-.375.908-.589,1.423l-.192.46a7.231,7.231,0,0,1-6.082,4.056h-5.454l-.041-.076.018.076h-.028c-.016-.06-.029-.122-.05-.182l.06.105a3.163,3.163,0,0,0-.22-.592A5.386,5.386,0,0,0,129.7,286.5a9.724,9.724,0,0,0-2.387-.671,10.55,10.55,0,0,0-2.787-.048,4.76,4.76,0,0,0-2.832,1.314,4.006,4.006,0,0,0-.867,1.464c-.073.275-.168.581-.209.844l-.081.794a4.752,4.752,0,0,0,1,3.248,5.09,5.09,0,0,0,2.97,1.6c.52.107.94.113,1.4.171a12.144,12.144,0,0,0,1.483-.023,10.4,10.4,0,0,0,2.605-.543,6.276,6.276,0,0,0,3.431-2.591,4.249,4.249,0,0,0,.338-.751c.042-.146.082-.3.113-.435h4.319a8.6,8.6,0,0,0,7.335-4.893l.192-.46c.186-.447.349-.839.5-1.205a4.7,4.7,0,0,0,.6.223,5.5,5.5,0,0,0,2.819,0,6.977,6.977,0,0,0,4.556-2.333c1.718-2.147,3.119-6.733,3.119-10.2S155.913,263.956,154.195,261.809Z" transform="translate(-90.557 -234.571)" fill="gray"/>
      <path id="Path_49299" data-name="Path 49299" d="M116.777,271.6c4.051-.061,12.057-1.243,14.517-3.985a12.171,12.171,0,0,0-.874-17.1c-2.154-1.955-6.449-3.122-11.488-3.122-4.616,0-10.49,1.051-13.137,4a11.794,11.794,0,0,0,6.123,19.686l3.146,8.021Z" transform="translate(-84.918 -228.616)" fill="gray"/>
    </g>
    <g id="Group_179591" data-name="Group 179591" transform="translate(89.707 233.571)">
      <g id="Group_179590" data-name="Group 179590">
        <g id="Group_179585" data-name="Group 179585">
          <g id="Group_179583" data-name="Group 179583">
            <g id="Group_179580" data-name="Group 179580" transform="translate(8.548)">
              <path id="Path_49300" data-name="Path 49300" d="M144.568,259.762h-2.352v-3.378a20.082,20.082,0,0,0-20-20.117h-3.988a20.082,20.082,0,0,0-20,20.117v3.378H95.875v-3.378A22.443,22.443,0,0,1,118.228,233.9h3.988a22.443,22.443,0,0,1,22.353,22.482Z" transform="translate(-95.39 -233.417)" fill="#001d7a"/>
              <path id="Path_49301" data-name="Path 49301" d="M145.207,260.4h-3.321v-3.863a19.6,19.6,0,0,0-19.516-19.632h-3.988a19.6,19.6,0,0,0-19.515,19.632V260.4H95.544v-3.863a22.928,22.928,0,0,1,22.838-22.966h3.988a22.928,22.928,0,0,1,22.838,22.966Zm-2.352-.969h1.382v-2.894a21.957,21.957,0,0,0-21.868-22h-3.988a21.957,21.957,0,0,0-21.868,22v2.894H97.9v-2.894a20.566,20.566,0,0,1,20.484-20.6h3.988a20.567,20.567,0,0,1,20.486,20.6Z" transform="translate(-95.544 -233.571)" fill="#2857ec"/>
            </g>
            <g id="Group_179581" data-name="Group 179581" transform="translate(41.049 45.896)">
              <path id="Path_49302" data-name="Path 49302" d="M124.322,275.32h-6.584v-1.358h6.584a7.231,7.231,0,0,0,6.082-4.056l.192-.46c1.025-2.463,1.675-4.1,1.809-4.471l.019-.054,0-.009.029.009h1.306v.155c0,.142,0,.291-1.913,4.891l-.192.46A8.6,8.6,0,0,1,124.322,275.32Z" transform="translate(-117.738 -264.912)" fill="#001d7a"/>
            </g>
            <g id="Group_179582" data-name="Group 179582" transform="translate(0 24.722)">
              <path id="Path_49303" data-name="Path 49303" d="M135.5,252.969a6.977,6.977,0,0,0-4.556-2.333,5.515,5.515,0,0,0-2.819,0V275.7a5.5,5.5,0,0,0,2.819,0,6.977,6.977,0,0,0,4.556-2.333c1.718-2.147,3.119-6.733,3.119-10.2S137.22,255.116,135.5,252.969Z" transform="translate(-71.864 -250.453)" fill="#0c4060"/>
              <path id="Path_49304" data-name="Path 49304" d="M125.782,255.49v15.239a4.815,4.815,0,0,0,3.434,4.913V250.577A4.814,4.814,0,0,0,125.782,255.49Z" transform="translate(-72.953 -250.395)" fill="#132d3f"/>
              <path id="Path_49305" data-name="Path 49305" d="M97.383,250.636a6.981,6.981,0,0,0-4.559,2.333c-1.715,2.147-3.118,6.735-3.118,10.2s1.4,8.051,3.118,10.2a6.981,6.981,0,0,0,4.559,2.333,5.493,5.493,0,0,0,2.818,0V250.635A5.509,5.509,0,0,0,97.383,250.636Z" transform="translate(-89.707 -250.453)" fill="#0c4060"/>
              <path id="Path_49306" data-name="Path 49306" d="M96.873,250.577v25.065a4.817,4.817,0,0,0,3.437-4.913V255.49A4.816,4.816,0,0,0,96.873,250.577Z" transform="translate(-86.379 -250.395)" fill="#132d3f"/>
            </g>
          </g>
          <g id="Group_179584" data-name="Group 179584" transform="translate(29.973 51.144)">
            <path id="Path_49307" data-name="Path 49307" d="M122.239,272.878c0,2.3-3.021,4.169-6.75,4.169s-4.91-1.866-4.91-4.169,1.182-4.168,4.91-4.168S122.239,270.577,122.239,272.878Z" transform="translate(-109.987 -268.396)" fill="#c93a3a"/>
            <path id="Path_49308" data-name="Path 49308" d="M123.6,273.074s-.013.126-.044.36a5.151,5.151,0,0,1-.154.656,4.248,4.248,0,0,1-.338.751,6.277,6.277,0,0,1-3.431,2.591,10.4,10.4,0,0,1-2.605.543,12.143,12.143,0,0,1-1.483.023c-.461-.059-.882-.064-1.4-.171a5.09,5.09,0,0,1-2.97-1.6,4.752,4.752,0,0,1-1-3.248l.081-.794a8.543,8.543,0,0,1,.209-.844,4.007,4.007,0,0,1,.867-1.464,4.761,4.761,0,0,1,2.832-1.314,10.549,10.549,0,0,1,2.787.048,9.727,9.727,0,0,1,2.387.671,5.386,5.386,0,0,1,2.779,2.347,2.816,2.816,0,0,1,.306,1.347Zm-.822-.067c-.026.013-.3-.57-.748-1.327a5.168,5.168,0,0,0-2.823-2.053,9.313,9.313,0,0,0-2.312-.47,10.01,10.01,0,0,0-2.6.145,3.914,3.914,0,0,0-2.242,1.216,3.021,3.021,0,0,0-.561,1.125c-.031.214-.092.388-.11.625l-.025.712a3.447,3.447,0,0,0,.858,2.315,3.651,3.651,0,0,0,2.106.925c.4.062.911.041,1.346.064.308-.018.792-.054,1.158-.114a8.516,8.516,0,0,0,2.091-.6c2.336-.561,3.491-3.228,3.491-3.228Z" transform="translate(-110.175 -268.495)" fill="#ffc021"/>
          </g>
        </g>
        <g id="Group_179586" data-name="Group 179586" transform="translate(17.78 18.777)">
          <path id="Path_49309" data-name="Path 49309" d="M129.092,249.72c-4.742-4.3-19.66-3.925-23.939.842a11.324,11.324,0,0,0,6.12,18.948l2.665,6.795,1.448-6.337c4.19.012,12.248-1.27,14.545-3.826A11.674,11.674,0,0,0,129.092,249.72Z" transform="translate(-101.696 -246.239)" fill="#ffc021"/>
          <path id="Path_49310" data-name="Path 49310" d="M114.212,278.1l-3.146-8.021a11.793,11.793,0,0,1-6.123-19.685c2.648-2.948,8.521-4,13.137-4,5.039,0,9.334,1.167,11.488,3.122a12.171,12.171,0,0,1,.874,17.1c-2.46,2.741-10.466,3.923-14.518,3.985Zm3.869-30.735c-5.537,0-10.411,1.442-12.415,3.677a10.842,10.842,0,0,0,5.868,18.153l.25.057,2.183,5.569,1.185-5.183h.39c4.581,0,12.143-1.394,14.18-3.665a11.2,11.2,0,0,0-.8-15.74C126.967,248.464,122.814,247.362,118.081,247.362Z" transform="translate(-101.848 -246.393)" fill="#f2a416"/>
        </g>
        <g id="Group_179587" data-name="Group 179587" transform="translate(25.173 26.623)">
          <path id="Path_49311" data-name="Path 49311" d="M123.546,253.108H107.575a.679.679,0,0,1,0-1.358h15.971a.679.679,0,0,1,0,1.358Z" transform="translate(-106.897 -251.751)" fill="#132d3f"/>
        </g>
        <g id="Group_179588" data-name="Group 179588" transform="translate(25.173 30.319)">
          <path id="Path_49312" data-name="Path 49312" d="M123.546,255.633H107.575a.679.679,0,0,1,0-1.358h15.971a.679.679,0,0,1,0,1.358Z" transform="translate(-106.897 -254.275)" fill="#132d3f"/>
        </g>
        <g id="Group_179589" data-name="Group 179589" transform="translate(25.173 34.016)">
          <path id="Path_49313" data-name="Path 49313" d="M123.546,258.158H107.575a.679.679,0,0,1,0-1.359h15.971a.679.679,0,0,1,0,1.359Z" transform="translate(-106.897 -256.799)" fill="#132d3f"/>
        </g>
      </g>
    </g>
  </g>
</svg>
