<svg xmlns="http://www.w3.org/2000/svg" width="72.462" height="59.995" viewBox="0 0 72.462 59.995">
  <g id="Group_179607" data-name="Group 179607" transform="translate(-350.857 -141.908)">
    <g id="Group_179594" data-name="Group 179594">
      <g id="Group_179593" data-name="Group 179593">
        <path id="Path_49314" data-name="Path 49314" d="M386.888,170.632c-1.972-11.959-8.334-21.4-15.61-24.412l-.318-1.927-6.434,1.06c-9.782,1.613-15.632,15.545-13.065,31.118s12.579,26.891,22.362,25.279l6.434-1.061-.318-1.927C385.864,193.574,388.859,182.591,386.888,170.632Z" fill="#6b1c1c"/>
        <path id="Path_49315" data-name="Path 49315" d="M393.322,169.571c2.567,15.573-3.282,29.505-13.065,31.118s-19.794-9.705-22.362-25.278,3.283-29.506,13.065-31.118S390.755,154,393.322,169.571Z" fill="#f74343"/>
        <ellipse id="Ellipse_903" data-name="Ellipse 903" cx="14.859" cy="23.655" rx="14.859" ry="23.655" transform="translate(357.1 151.568) rotate(-9.361)" fill="#fff"/>
        <path id="Path_49316" data-name="Path 49316" d="M388.03,170.663c1.824,11.06-2.331,20.955-9.279,22.1s-14.058-6.893-15.882-17.954,2.332-20.956,9.28-22.1S386.207,159.6,388.03,170.663Z" fill="#f74343"/>
        <path id="Path_49317" data-name="Path 49317" d="M385.8,171.03c1.5,9.1-1.918,17.239-7.633,18.181s-11.565-5.67-13.065-14.769,1.918-17.239,7.633-18.181S384.3,161.931,385.8,171.03Z" fill="#fff"/>
        <path id="Path_49318" data-name="Path 49318" d="M383.366,171.431c1.147,6.96-1.467,13.187-5.839,13.907s-8.846-4.337-9.993-11.3,1.467-13.186,5.839-13.907S382.219,164.471,383.366,171.431Z" fill="#f74343"/>
        <path id="Path_49319" data-name="Path 49319" d="M380.949,171.83c.8,4.834-1.019,9.159-4.056,9.66s-6.145-3.013-6.942-7.847,1.019-9.16,4.056-9.66S380.152,166.995,380.949,171.83Z" fill="#fff"/>
        <path id="Path_49320" data-name="Path 49320" d="M378.468,172.239c.437,2.653-.56,5.027-2.226,5.3s-3.373-1.653-3.81-4.306.559-5.027,2.226-5.3S378.03,169.586,378.468,172.239Z" fill="#f74343"/>
        <path id="Path_49321" data-name="Path 49321" d="M376.825,172.7c.108.655-.138,1.241-.549,1.309s-.833-.408-.941-1.063.138-1.242.55-1.31S376.717,172.042,376.825,172.7Z" fill="#3b1010"/>
        <path id="Path_49322" data-name="Path 49322" d="M369.822,156.536c.108.655-.138,1.241-.55,1.309s-.833-.408-.941-1.064.138-1.241.55-1.309S369.714,155.881,369.822,156.536Z" fill="#3b1010"/>
        <path id="Path_49323" data-name="Path 49323" d="M369.753,181.747c-.069.66-.461,1.16-.876,1.117s-.7-.614-.626-1.274.461-1.161.876-1.118S369.822,181.086,369.753,181.747Z" fill="#3b1010"/>
      </g>
    </g>
    <g id="Group_179598" data-name="Group 179598">
      <g id="Group_179595" data-name="Group 179595">
        <path id="Path_49324" data-name="Path 49324" d="M422.441,169.57,376.5,173.765a.966.966,0,0,1-.176-1.924l45.937-4.2a.966.966,0,0,1,.176,1.924Z" fill="#e39d46"/>
        <path id="Path_49325" data-name="Path 49325" d="M422.441,169.57,376.5,173.765a.966.966,0,0,1-1.05-.874l47.861-4.371A.966.966,0,0,1,422.441,169.57Z" fill="#b87f39"/>
      </g>
      <g id="Group_179596" data-name="Group 179596">
        <path id="Path_49326" data-name="Path 49326" d="M421.808,163.3l-10.673.975-2.73,4.633,10.973-1Z" fill="#ed3030"/>
        <path id="Path_49327" data-name="Path 49327" d="M419.352,164.9l-7.333.67-1.875,3.183,7.539-.689Z" fill="#fff"/>
      </g>
      <g id="Group_179597" data-name="Group 179597">
        <path id="Path_49328" data-name="Path 49328" d="M422.778,173.923l-10.673.975-3.524-4.062,10.973-1Z" fill="#ed3030"/>
        <path id="Path_49329" data-name="Path 49329" d="M420.074,172.8l-7.333.67-2.421-2.791,7.539-.689Z" fill="#fff"/>
      </g>
    </g>
    <g id="Group_179602" data-name="Group 179602">
      <g id="Group_179599" data-name="Group 179599">
        <path id="Path_49330" data-name="Path 49330" d="M414.748,189.69,369.153,182.7a.966.966,0,0,1,.293-1.91l45.595,6.995a.966.966,0,0,1-.293,1.91Z" fill="#e39d46"/>
        <path id="Path_49331" data-name="Path 49331" d="M414.748,189.69,369.153,182.7a.966.966,0,0,1-.808-1.1l47.5,7.288A.965.965,0,0,1,414.748,189.69Z" fill="#b87f39"/>
      </g>
      <g id="Group_179600" data-name="Group 179600">
        <path id="Path_49332" data-name="Path 49332" d="M415.643,183.456l-10.593-1.625-3.765,3.839,10.892,1.671Z" fill="#30b1ed"/>
        <path id="Path_49333" data-name="Path 49333" d="M412.875,184.413,405.6,183.3l-2.587,2.637,7.483,1.148Z" fill="#fff"/>
      </g>
      <g id="Group_179601" data-name="Group 179601">
        <path id="Path_49334" data-name="Path 49334" d="M414.026,194l-10.593-1.625-2.441-4.791,10.891,1.671Z" fill="#30b1ed"/>
        <path id="Path_49335" data-name="Path 49335" d="M411.673,192.252l-7.278-1.117-1.677-3.292,7.483,1.148Z" fill="#fff"/>
      </g>
    </g>
    <g id="Group_179606" data-name="Group 179606">
      <g id="Group_179603" data-name="Group 179603">
        <path id="Path_49336" data-name="Path 49336" d="M414.838,148.059,369.686,157.5a.966.966,0,0,1-.4-1.891l45.152-9.443a.966.966,0,0,1,.4,1.891Z" fill="#e39d46"/>
        <path id="Path_49337" data-name="Path 49337" d="M414.838,148.059,369.686,157.5a.964.964,0,0,1-1.143-.747l47.042-9.839A.965.965,0,0,1,414.838,148.059Z" fill="#b87f39"/>
      </g>
      <g id="Group_179604" data-name="Group 179604">
        <path id="Path_49338" data-name="Path 49338" d="M413.489,141.908,403,144.1l-2.179,4.916,10.786-2.256Z" fill="#8eed30"/>
        <path id="Path_49339" data-name="Path 49339" d="M411.233,143.775l-7.207,1.507-1.5,3.377,7.41-1.55Z" fill="#fff"/>
      </g>
      <g id="Group_179605" data-name="Group 179605">
        <path id="Path_49340" data-name="Path 49340" d="M415.672,152.345l-10.49,2.194-3.967-3.63L412,148.653Z" fill="#8eed30"/>
        <path id="Path_49341" data-name="Path 49341" d="M412.857,151.538l-7.207,1.507-2.726-2.494,7.411-1.55Z" fill="#fff"/>
      </g>
    </g>
  </g>
</svg>
