<svg xmlns="http://www.w3.org/2000/svg" width="29.859" height="29.859" viewBox="0 0 29.859 29.859">
  <g id="quality-premium-certificate-svgrepo-com" transform="translate(-13.7 -13.7)">
    <path id="Path_51889" data-name="Path 51889" d="M28.629,13.7l3.45,2h4l2,3.482,3.482,2v4l2,3.45-2,3.45v4l-3.482,2-2,3.482h-4l-3.45,2-3.45-2h-4l-2-3.482-3.482-2v-4l-2-3.45,2-3.45v-4l3.482-2,2-3.482h4Z" transform="translate(0 0)" fill="#007cbe"/>
    <g id="Group_182936" data-name="Group 182936" transform="translate(17.698 17.698)">
      <path id="Path_51890" data-name="Path 51890" d="M37.031,47.962A10.931,10.931,0,1,1,47.962,37.031,10.94,10.94,0,0,1,37.031,47.962Zm0-20.927a10,10,0,1,0,10,10A10,10,0,0,0,37.031,27.035Z" transform="translate(-26.1 -26.1)" fill="#fff"/>
    </g>
    <g id="Group_182937" data-name="Group 182937" transform="translate(22.361 24.44)">
      <path id="Path_51891" data-name="Path 51891" d="M45.635,55.26,40.9,51.488a.881.881,0,0,1-.129-1.258h0a.881.881,0,0,1,1.258-.129l4.063,3.257L51.5,47.3a.907.907,0,0,1,1.258-.064h0a.907.907,0,0,1,.064,1.258L46.86,55.164A.9.9,0,0,1,45.635,55.26Z" transform="translate(-40.56 -47.008)" fill="#eff3fa"/>
    </g>
  </g>
</svg>
