<svg xmlns="http://www.w3.org/2000/svg" width="29.132" height="21.83" viewBox="0 0 29.132 21.83">
  <g id="Layer_1" data-name="Layer 1" transform="translate(-34 -85.646)">
    <g id="_lt_Group_gt_" data-name="&amp;lt;Group&amp;gt;" transform="translate(34 85.646)">
      <g id="_lt_Group_gt_2" data-name="&amp;lt;Group&amp;gt;" transform="translate(0 11.769)">
        <g id="_lt_Group_gt_3" data-name="&amp;lt;Group&amp;gt;" transform="translate(4.495 0.702)">
          <path id="_lt_Path_gt_" data-name="&amp;lt;Path&amp;gt;" d="M119.168,279.274l4.928-2.407a2.293,2.293,0,0,1,3.042.879l-9.994,6.651a6.932,6.932,0,0,1-4.318.547l-6.977-1.86a2.574,2.574,0,0,0-1.907.234l-1.443.8.1-7.092h.058a6.8,6.8,0,0,1,7.062-.587l.419.21a4.864,4.864,0,0,0,2.108.515l4.088.059A3.04,3.04,0,0,1,119.168,279.274Z" transform="translate(-102.5 -275.714)" fill="#007cbe"/>
        </g>
        <g id="_lt_Group_gt_4" data-name="&amp;lt;Group&amp;gt;">
          <path id="_lt_Path_gt_2" data-name="&amp;lt;Path&amp;gt;" d="M38.495,274.113l-.012.8L34,274.847l.142-9.837,4.483.065L38.6,267.02Z" transform="translate(-34 -265.01)" fill="#007cbe"/>
        </g>
      </g>
      <g id="_lt_Group_gt_5" data-name="&amp;lt;Group&amp;gt;" transform="translate(11.154 0)">
        <path id="_lt_Path_gt_3" data-name="&amp;lt;Path&amp;gt;" d="M207.46,85.646a3.411,3.411,0,0,0-3.46,3.4v.493h1.05v-.493a2.356,2.356,0,1,1,3.093,2.235,1.831,1.831,0,0,0-1.256,1.75v1.691h1.05V93.033a.784.784,0,0,1,.533-.752,3.4,3.4,0,0,0-1.01-6.634Z" transform="translate(-204 -85.646)" fill="#007cbe"/>
        <rect id="_lt_Path_gt_4" data-name="&amp;lt;Path&amp;gt;" width="1.05" height="1.575" transform="translate(2.887 9.734)" fill="#007cbe"/>
      </g>
    </g>
  </g>
</svg>
