<svg xmlns="http://www.w3.org/2000/svg" width="22.697" height="22.697" viewBox="0 0 22.697 22.697">
  <path id="link-circle-svgrepo-com" d="M3.662,23.035C5.324,24.7,8,24.7,13.349,24.7s8.025,0,9.687-1.662S24.7,18.7,24.7,13.349s0-8.025-1.662-9.687S18.7,2,13.349,2,5.324,2,3.662,3.662,2,8,2,13.349,2,21.373,3.662,23.035ZM10.511,9.66A3.688,3.688,0,1,0,14.2,13.349a.851.851,0,0,1,1.7,0,5.391,5.391,0,1,1-5.391-5.391.851.851,0,0,1,0,1.7Zm9.363,3.688a3.688,3.688,0,0,1-3.688,3.688.851.851,0,1,0,0,1.7A5.391,5.391,0,1,0,10.8,13.349a.851.851,0,1,0,1.7,0,3.688,3.688,0,0,1,7.377,0Z" transform="translate(-2 -2)" fill="#007cbe" fill-rule="evenodd"/>
</svg>
