<svg xmlns="http://www.w3.org/2000/svg" width="24" height="28" viewBox="0 0 24 28">
  <g id="_6569357_and_applications_code_coding_development_icon" data-name="6569357_and_applications_code_coding_development_icon" transform="translate(-4 -2)">
    <path id="Path_51857" data-name="Path 51857" d="M19,8a.945.945,0,0,0,1-1V5a2.946,2.946,0,0,0-3-3H7A2.946,2.946,0,0,0,4,5V27a2.946,2.946,0,0,0,3,3H17a2.946,2.946,0,0,0,3-3V23a.945.945,0,0,0-1-1H6V8ZM11,25h2a1,1,0,0,1,0,2H11a1,1,0,0,1,0-2Z" fill="#007cbe"/>
    <g id="Group_182931" data-name="Group 182931">
      <path id="Path_51858" data-name="Path 51858" d="M14,19a.908.908,0,0,1-.7-.3l-3-3a.967.967,0,0,1,0-1.4l3-3a.99.99,0,0,1,1.4,1.4L12.4,15l2.3,2.3a.967.967,0,0,1,0,1.4A.908.908,0,0,1,14,19Z" fill="#007cbe"/>
    </g>
    <g id="Group_182932" data-name="Group 182932">
      <path id="Path_51859" data-name="Path 51859" d="M24,19a.908.908,0,0,1-.7-.3.967.967,0,0,1,0-1.4L25.6,15l-2.3-2.3a.99.99,0,1,1,1.4-1.4l3,3a.967.967,0,0,1,0,1.4l-3,3A.908.908,0,0,1,24,19Z" fill="#007cbe"/>
    </g>
    <g id="Group_182933" data-name="Group 182933">
      <path id="Path_51860" data-name="Path 51860" d="M17,20a.6.6,0,0,1-.4-.1.883.883,0,0,1-.4-1.3l4-8a.962.962,0,1,1,1.7.9l-4,8A1.05,1.05,0,0,1,17,20Z" fill="#007cbe"/>
    </g>
  </g>
</svg>
