<svg xmlns="http://www.w3.org/2000/svg" width="71.271" height="42.885" viewBox="0 0 71.271 42.885">
  <g id="Group_179577" data-name="Group 179577" transform="translate(-340.534 -353.037)">
    <g id="Group_179576" data-name="Group 179576">
      <g id="Group_179575" data-name="Group 179575">
        <g id="Group_179511" data-name="Group 179511">
          <g id="Group_179510" data-name="Group 179510">
            <g id="Group_179486" data-name="Group 179486">
              <g id="Group_179485" data-name="Group 179485">
                <path id="Path_49260" data-name="Path 49260" d="M356.789,379.832l-8.182-.131-.927.263-.323.175.08.244,2.54,7.751.742,2.093h4.211l.4-1.947,2.213-7.863.091-.321Z" fill="#dbd5d5"/>
              </g>
            </g>
            <g id="Group_179488" data-name="Group 179488">
              <g id="Group_179487" data-name="Group 179487">
                <path id="Path_49261" data-name="Path 49261" d="M347.437,380.383c-2.308,3-6.029,3.44-6.688,7.082l-.215,2.762H350.72l-.743-2.093Z" fill="#0c0a0a"/>
              </g>
            </g>
            <g id="Group_179490" data-name="Group 179490">
              <g id="Group_179489" data-name="Group 179489">
                <path id="Path_49262" data-name="Path 49262" d="M354.931,390.227h9.836l-.214-2.762c-.514-2.477-3.305-3.67-7.009-7.049l-2.213,7.863Z" fill="#161313"/>
              </g>
            </g>
            <g id="Group_179492" data-name="Group 179492">
              <g id="Group_179491" data-name="Group 179491">
                <path id="Path_49263" data-name="Path 49263" d="M355.208,376.077h-5.115a1.512,1.512,0,0,0-1.6,1.409v3.631a1.511,1.511,0,0,0,1.6,1.408h5.115a1.562,1.562,0,0,0,1.561-1.112c.011-.006.026-.005.037-.011v-3.916A1.512,1.512,0,0,0,355.208,376.077Z" fill="#d1ab86"/>
              </g>
            </g>
            <g id="Group_179494" data-name="Group 179494">
              <g id="Group_179493" data-name="Group 179493">
                <path id="Path_49264" data-name="Path 49264" d="M360.156,369.391c-.2-.061-.428.08-.647.367.006-.142.01-.281.01-.42,0-4.543-3.076-8.227-6.868-8.227s-6.868,3.684-6.868,8.227c0,.139,0,.278.009.42-.219-.287-.447-.428-.647-.367-.482.15-.628,1.418-.324,2.83s.944,2.439,1.427,2.29c.171-.052.3-.248.379-.538,1.168,3.4,3.428,6.476,6.024,6.476s4.855-3.078,6.023-6.476c.081.29.21.486.379.538.485.149,1.122-.876,1.426-2.29S360.639,369.541,360.156,369.391Z" fill="#ffe2c2"/>
              </g>
            </g>
            <g id="Group_179496" data-name="Group 179496">
              <g id="Group_179495" data-name="Group 179495">
                <path id="Path_49265" data-name="Path 49265" d="M348.432,380.036s.135,1.282,2.472,1.982.78,2.33.78,2.33l-1.828.379-1.074-2.1-.456-1.6Z" fill="#fff8f8"/>
              </g>
            </g>
            <g id="Group_179498" data-name="Group 179498">
              <g id="Group_179497" data-name="Group 179497">
                <path id="Path_49266" data-name="Path 49266" d="M356.868,380.27s-.135,1.281-2.473,1.98-.779,2.33-.779,2.33l1.828.379,1.075-2.1.456-1.6Z" fill="#fff8f8"/>
              </g>
            </g>
            <g id="Group_179500" data-name="Group 179500">
              <g id="Group_179499" data-name="Group 179499">
                <path id="Path_49267" data-name="Path 49267" d="M347.811,379.832l-2.537,1.508,4.7,6.794Z" fill="#333030"/>
              </g>
            </g>
            <g id="Group_179502" data-name="Group 179502">
              <g id="Group_179501" data-name="Group 179501">
                <path id="Path_49268" data-name="Path 49268" d="M357.542,379.8l2.652,2-4.863,6.48Z" fill="#333030"/>
              </g>
            </g>
            <g id="Group_179507" data-name="Group 179507">
              <g id="Group_179504" data-name="Group 179504">
                <g id="Group_179503" data-name="Group 179503">
                  <path id="Path_49269" data-name="Path 49269" d="M352.319,385.3l-1.245,4.916h3.451l-1.42-4.916Z" fill="#0c0a0a"/>
                </g>
              </g>
              <g id="Group_179506" data-name="Group 179506">
                <g id="Group_179505" data-name="Group 179505">
                  <path id="Path_49270" data-name="Path 49270" d="M351.685,382.41l2.054.029.379,1.515L353.7,385.5h-1.936l-.466-1.441Z" fill="#0c0a0a"/>
                </g>
              </g>
            </g>
            <g id="Group_179509" data-name="Group 179509">
              <g id="Group_179508" data-name="Group 179508">
                <path id="Path_49271" data-name="Path 49271" d="M345.337,375.643a9.889,9.889,0,0,1-1.577-6.774,12.534,12.534,0,0,1,3.664-6.99c.308-1.992,1.482-3.118,3.839-3.065,5.913.379,9.07,3.855,10.278,9.518a9.889,9.889,0,0,1-1.577,6.774c-1.553,3.068-.611,5.386.876,8.642-3.808-1.176-6.315-2.475-5.548-4.088,2.137-4.762,4.437-9.08,1.378-13.14-1-.027-5.461,3.186-8.175.907-2.655,3.971-.462,8.225,1.515,12.77.765,1.613-1.741,2.912-5.549,4.088C345.947,381.029,346.891,378.709,345.337,375.643Z" fill="#6b4a3b"/>
              </g>
            </g>
          </g>
        </g>
        <g id="Group_179537" data-name="Group 179537">
          <g id="Group_179536" data-name="Group 179536">
            <g id="Group_179513" data-name="Group 179513">
              <g id="Group_179512" data-name="Group 179512">
                <path id="Path_49272" data-name="Path 49272" d="M402.774,379.715l-8.868-.131-1.006.263-.35.175.086.244,2.754,7.752.806,2.092h4.565l.434-1.947,2.4-7.863.1-.321Z" fill="#dbd5d5"/>
              </g>
            </g>
            <g id="Group_179515" data-name="Group 179515">
              <g id="Group_179514" data-name="Group 179514">
                <path id="Path_49273" data-name="Path 49273" d="M392.637,380.266c-4.241.837-7.517,2.748-7.517,5.8l-.346,4.043H396.2l-.805-2.091Z" fill="#161313"/>
              </g>
            </g>
            <g id="Group_179517" data-name="Group 179517">
              <g id="Group_179516" data-name="Group 179516">
                <path id="Path_49274" data-name="Path 49274" d="M400.762,390.109H411.8l-.347-4.043c0-2.945-3.456-4.892-7.864-5.767l-2.4,7.863Z" fill="#0c0a0a"/>
              </g>
            </g>
            <g id="Group_179519" data-name="Group 179519">
              <g id="Group_179518" data-name="Group 179518">
                <path id="Path_49275" data-name="Path 49275" d="M401.061,376.21h-5.543a1.579,1.579,0,0,0-1.734,1.355v3.49a1.579,1.579,0,0,0,1.734,1.354h5.543a1.689,1.689,0,0,0,1.694-1.069c.013-.006.028-.006.04-.012v-3.763A1.579,1.579,0,0,0,401.061,376.21Z" fill="#d1ab86"/>
              </g>
            </g>
            <g id="Group_179521" data-name="Group 179521">
              <g id="Group_179520" data-name="Group 179520">
                <path id="Path_49276" data-name="Path 49276" d="M406.427,369.783c-.219-.059-.465.076-.7.353.006-.136.01-.271.01-.4a7.458,7.458,0,1,0-14.889,0c0,.133,0,.268.008.4-.237-.277-.483-.412-.7-.353-.524.144-.68,1.362-.35,2.721s1.021,2.344,1.546,2.2a.7.7,0,0,0,.411-.52c1.265,3.27,3.715,6.228,6.53,6.228s5.265-2.959,6.53-6.228a.7.7,0,0,0,.411.52c.525.143,1.216-.842,1.546-2.2S406.95,369.927,406.427,369.783Z" fill="#ffe2c2"/>
              </g>
            </g>
            <g id="Group_179523" data-name="Group 179523">
              <g id="Group_179522" data-name="Group 179522">
                <path id="Path_49277" data-name="Path 49277" d="M393.717,379.919s.145,1.282,2.678,1.981.845,2.33.845,2.33l-1.98.379-1.164-2.1-.5-1.6Z" fill="#fff8f8"/>
              </g>
            </g>
            <g id="Group_179525" data-name="Group 179525">
              <g id="Group_179524" data-name="Group 179524">
                <path id="Path_49278" data-name="Path 49278" d="M402.86,380.152s-.145,1.282-2.678,1.981-.845,2.33-.845,2.33l1.98.379,1.164-2.1.5-1.6Z" fill="#fff8f8"/>
              </g>
            </g>
            <g id="Group_179527" data-name="Group 179527">
              <g id="Group_179526" data-name="Group 179526">
                <path id="Path_49279" data-name="Path 49279" d="M392.944,379.365l-2.243,1.049,4.689,7.6Z" fill="#333030"/>
              </g>
            </g>
            <g id="Group_179529" data-name="Group 179529">
              <g id="Group_179528" data-name="Group 179528">
                <path id="Path_49280" data-name="Path 49280" d="M403.642,379.512l2.243,1.049-4.69,7.6Z" fill="#333030"/>
              </g>
            </g>
            <g id="Group_179531" data-name="Group 179531">
              <g id="Group_179530" data-name="Group 179530">
                <path id="Path_49281" data-name="Path 49281" d="M397.991,385.154l-1.246,4.916H400.2l-1.42-4.916Z" fill="#0c0a0a"/>
              </g>
            </g>
            <g id="Group_179533" data-name="Group 179533">
              <g id="Group_179532" data-name="Group 179532">
                <path id="Path_49282" data-name="Path 49282" d="M397.356,382.264l2.055.029.379,1.516-.423,1.543h-1.936l-.467-1.441Z" fill="#0c0a0a"/>
              </g>
            </g>
            <g id="Group_179535" data-name="Group 179535">
              <g id="Group_179534" data-name="Group 179534">
                <path id="Path_49283" data-name="Path 49283" d="M402.848,363.449c.99-4.941-13.786-4.682-11.995,6.687l.906,4.049a40.285,40.285,0,0,0,9.889-8.578c1.553.7,2.438,2.032,2.744,5.225l.427,3.353.9-4.049S407.005,361.945,402.848,363.449Z" fill="#6b4a3b"/>
              </g>
            </g>
          </g>
        </g>
        <g id="Group_179539" data-name="Group 179539">
          <g id="Group_179538" data-name="Group 179538">
            <path id="Path_49284" data-name="Path 49284" d="M393.037,379.619c-1.24-1.566-5.382-2.328-6.554-2.508l-.9-.227-.593-.325-1.943-1.513a1.27,1.27,0,0,1-.416-.894l-.078-1.434a15.572,15.572,0,0,0,1.717-3.058,4.369,4.369,0,0,0,2.144-2.489,4.262,4.262,0,0,0,.1-3.069,1.636,1.636,0,0,0-.584-.678,58.472,58.472,0,0,0-1.134-6.08c-.463.1-.736-.271-1.266-.271-.018,0-.035,0-.052,0,1.957,3.055,1.283,7.787-2.027,9.679,1.264,3.871-.748,8.949-6.046,8.949-2.121,0-3.666-.425-4.734-1.651a7.108,7.108,0,0,1-.966-.908l-.053,1a1.268,1.268,0,0,1-.4.89l-1.979,1.661-.15.081-1.231.317c-1.268.2-5.412.96-6.654,2.527-2.214,2.213-1.882,14.774-1.768,15.311a1.136,1.136,0,0,0,.93.953c.133.022.237.039,4.44.039,3.987,0,9.551-.018,11.1-.023,2.015.005,9.2.023,14.321.023,5.379,0,5.478-.016,5.6-.036a1.142,1.142,0,0,0,.946-.956C394.922,394.393,395.251,381.832,393.037,379.619Z" fill="#c29200"/>
          </g>
        </g>
        <g id="Group_179574" data-name="Group 179574">
          <g id="Group_179573" data-name="Group 179573">
            <g id="Group_179541" data-name="Group 179541">
              <g id="Group_179540" data-name="Group 179540">
                <path id="Path_49285" data-name="Path 49285" d="M374.869,392.972,366.19,379.1l4.54-3.387,11.277.8,4.281,4.028-9.665,13.438C376.045,393.617,375.459,393.285,374.869,392.972Z" fill="#dbd5d5"/>
              </g>
            </g>
            <g id="Group_179543" data-name="Group 179543">
              <g id="Group_179542" data-name="Group 179542">
                <path id="Path_49286" data-name="Path 49286" d="M382.949,377.335l3.267.827s5.08.8,6.016,2.188c1.679,1.072,1.8,14.414,1.466,14.465s-15.8,0-15.8,0c-.582-.4-1.173-.777-1.764-1.13v-.017Z" fill="#0c0a0a"/>
              </g>
            </g>
            <g id="Group_179545" data-name="Group 179545">
              <g id="Group_179544" data-name="Group 179544">
                <path id="Path_49287" data-name="Path 49287" d="M369.324,377.335l-3.268.827s-5.079.8-6.013,2.188c-1.682,1.072-1.8,14.414-1.47,14.465s20.306,0,20.306,0c.582-.4-1.534-.621-2.742-1.13v-.017Z" fill="#0c0a0a"/>
              </g>
            </g>
            <g id="Group_179547" data-name="Group 179547">
              <g id="Group_179546" data-name="Group 179546">
                <rect id="Rectangle_163303" data-name="Rectangle 163303" width="10.1" height="7.891" transform="translate(371.083 370.272)" fill="#d1ab86"/>
              </g>
            </g>
            <g id="Group_179558" data-name="Group 179558">
              <g id="Group_179549" data-name="Group 179549">
                <g id="Group_179548" data-name="Group 179548">
                  <path id="Path_49288" data-name="Path 49288" d="M367.961,365.22c.623,6.1,5.23,10.633,8.157,10.633,3.132,0,7.425-4.656,8.158-10.633.714-5.829-3.652-8.794-8.158-8.794S367.364,359.377,367.961,365.22Z" fill="#ffe2c2"/>
                </g>
              </g>
              <g id="Group_179551" data-name="Group 179551">
                <g id="Group_179550" data-name="Group 179550">
                  <path id="Path_49289" data-name="Path 49289" d="M384.591,359.215a8.6,8.6,0,0,0-5.736-5.717c-2.38-.582-6.649-1.258-10.267,2.4a13.948,13.948,0,0,0-1.42,5.293,30.6,30.6,0,0,0,.767,4.947l.969.449a5.133,5.133,0,0,1,.157-3.155,7.6,7.6,0,0,1,.659-1.387c2.409,1.332,7.033-.137,9.823.238,2.009.27,2.366,2.543,3.558,2.576a4.6,4.6,0,0,1-.144,1.728l.969-.449a11.106,11.106,0,0,0,.268-1.262c.232,0,.363,0,.363,0A11.619,11.619,0,0,0,384.591,359.215Z" fill="#0c0a0a"/>
                </g>
              </g>
              <g id="Group_179554" data-name="Group 179554">
                <g id="Group_179553" data-name="Group 179553">
                  <g id="Group_179552" data-name="Group 179552">
                    <path id="Path_49290" data-name="Path 49290" d="M383.562,366.179c-.423,1.22-.752,2.4-.248,2.571s1.645-.717,2.069-1.935.363-2.351-.139-2.526S383.987,364.959,383.562,366.179Z" fill="#ffe2c2"/>
                  </g>
                </g>
              </g>
              <g id="Group_179557" data-name="Group 179557">
                <g id="Group_179556" data-name="Group 179556">
                  <g id="Group_179555" data-name="Group 179555">
                    <path id="Path_49291" data-name="Path 49291" d="M368.7,366.179c.425,1.22.753,2.4.247,2.571s-1.644-.717-2.068-1.935-.364-2.351.138-2.526S368.279,364.959,368.7,366.179Z" fill="#ffe2c2"/>
                  </g>
                </g>
              </g>
            </g>
            <g id="Group_179563" data-name="Group 179563">
              <g id="Group_179560" data-name="Group 179560">
                <g id="Group_179559" data-name="Group 179559">
                  <path id="Path_49292" data-name="Path 49292" d="M373.593,379.468l2.545,2.133,2.542-2.133-2.542-2.133Z" fill="#0c0a0a"/>
                </g>
              </g>
              <g id="Group_179562" data-name="Group 179562">
                <g id="Group_179561" data-name="Group 179561">
                  <path id="Path_49293" data-name="Path 49293" d="M376.593,381.108l1.5,7.306-1.848,6.014-2.3-6.014,1.705-7.306Z" fill="#0c0a0a"/>
                </g>
              </g>
            </g>
            <g id="Group_179568" data-name="Group 179568">
              <g id="Group_179565" data-name="Group 179565">
                <g id="Group_179564" data-name="Group 179564">
                  <path id="Path_49294" data-name="Path 49294" d="M381.541,374.2l-5.4,3.142,1.777,3.783,4.22-3.911s1.11-.286.74-.785S381.608,375.483,381.541,374.2Z" fill="#fff8f8"/>
                </g>
              </g>
              <g id="Group_179567" data-name="Group 179567">
                <g id="Group_179566" data-name="Group 179566">
                  <path id="Path_49295" data-name="Path 49295" d="M370.726,374.212l5.395,3.13-1.773,3.771-4.217-3.9s-1.108-.287-.739-.783S370.654,375.491,370.726,374.212Z" fill="#fff8f8"/>
                </g>
              </g>
            </g>
            <g id="Group_179570" data-name="Group 179570">
              <g id="Group_179569" data-name="Group 179569">
                <path id="Path_49296" data-name="Path 49296" d="M376.137,393.668l6.181-17.815,2.074,1.742,2.164,1.164-2.653,4.429-1.219-.024.774,2.563Z" fill="#333030"/>
              </g>
            </g>
            <g id="Group_179572" data-name="Group 179572">
              <g id="Group_179571" data-name="Group 179571">
                <path id="Path_49297" data-name="Path 49297" d="M376.134,393.668l-6.181-17.815-2.072,1.613-2.358,1.293,2.846,4.429,1.221-.024-.776,2.563Z" fill="#333030"/>
              </g>
            </g>
          </g>
        </g>
      </g>
    </g>
  </g>
</svg>
