<svg xmlns="http://www.w3.org/2000/svg" width="22.042" height="25.928" viewBox="0 0 22.042 25.928">
  <g id="technical-support-svgrepo-com" transform="translate(-35.795)">
    <path id="Path_51892" data-name="Path 51892" d="M57.756,320.279l-.552-1.624a7.786,7.786,0,0,0-7.044-5.272,6.2,6.2,0,0,1-.886.571,1.757,1.757,0,0,1-2.9.608,5.492,5.492,0,0,1-2.9-1.179,7.786,7.786,0,0,0-7.044,5.272l-.551,1.624a1.53,1.53,0,0,0,1.448,2.021H56.307a1.531,1.531,0,0,0,1.449-2.021Z" transform="translate(0 -296.373)" fill="#007cbe"/>
    <path id="Path_51893" data-name="Path 51893" d="M149.148,65.667c1.857-1.305,3.156-4.188,3.156-6.975,0-7.92-10.538-7.912-10.538,0,0,3.387,1.918,6.91,4.426,7.575a1.749,1.749,0,0,1,2.955-.6Z" transform="translate(-100.219 -49.892)" fill="#007cbe"/>
    <path id="Path_51894" data-name="Path 51894" d="M62.085,12.107a.856.856,0,0,0,1.685-.207c0-3.809.182-4.165-.328-4.579a6.291,6.291,0,0,1,12.448,0c-.509.415-.327.769-.327,4.578a.847.847,0,0,0,.39.7c0,2.963-1.2,2.79-4.817,3.748a.893.893,0,1,0,.2.841c2.918-.774,5.483-1.018,5.483-3.935v-.6a.849.849,0,0,0,.432-.553,2.166,2.166,0,0,0,0-4.33.843.843,0,0,0-.4-.533,6.51,6.51,0,0,0-.6-3.093C72.8-2.951,62.638-.172,62.479,6.71a2.52,2.52,0,0,0,.009.534.843.843,0,0,0-.4.533,2.165,2.165,0,0,0,0,4.33Z" transform="translate(-22.85 0)" fill="#007cbe"/>
  </g>
</svg>
