<svg xmlns="http://www.w3.org/2000/svg" width="69.255" height="64.753" viewBox="0 0 69.255 64.753">
  <g id="_11" data-name="11" transform="translate(-30.995 -354.527)">
    <g id="Group_179617" data-name="Group 179617">
      <g id="Group_179614" data-name="Group 179614">
        <path id="Path_49368" data-name="Path 49368" d="M88.968,373.86H37.416a2.536,2.536,0,0,0-2.48,2.574V408.4a2.537,2.537,0,0,0,2.48,2.575H88.968a2.536,2.536,0,0,0,2.48-2.575V376.434A2.536,2.536,0,0,0,88.968,373.86Z" fill="#cfd8dc"/>
        <path id="Path_49369" data-name="Path 49369" d="M39.008,376.09H87.377a2.014,2.014,0,0,1,2,2.02v29.483a2.024,2.024,0,0,1-.8,1.61L38.018,376.359A1.973,1.973,0,0,1,39.008,376.09Z" fill="#2a445d"/>
        <path id="Path_49370" data-name="Path 49370" d="M38.018,376.359,88.574,409.2a1.965,1.965,0,0,1-1.2.409H39.008a2.013,2.013,0,0,1-2-2.019V378.11A2.029,2.029,0,0,1,38.018,376.359Z" fill="#355168"/>
      </g>
      <g id="Group_179616" data-name="Group 179616">
        <path id="Path_49371" data-name="Path 49371" d="M95.743,417.663l-.031-.82L31,417.388v.322a1.855,1.855,0,0,0,2.044,1.57H93.7C94.852,419.28,95.777,418.549,95.743,417.663Z" fill="#90a4ae"/>
        <g id="Group_179615" data-name="Group 179615">
          <path id="Path_49372" data-name="Path 49372" d="M89.81,410.856H36.993a3.761,3.761,0,0,0-2.775.909l-3.127,5.078c-.389.632.435,1.161,1.841,1.161h60.94c1.4,0,2.229-.529,1.84-1.161l-3.128-5.078A3.759,3.759,0,0,0,89.81,410.856Z" fill="#cfd8dc"/>
          <path id="Path_49373" data-name="Path 49373" d="M87.512,412.807H39.291a3.99,3.99,0,0,0-2.246.414l-1.165,2.16c-.136.252.719.459,1.9.459H89.023c1.181,0,2.036-.207,1.9-.459l-1.165-2.16A3.99,3.99,0,0,0,87.512,412.807Z" fill="#b0bec5"/>
          <path id="Path_49374" data-name="Path 49374" d="M86.788,411.352H40.015a9.737,9.737,0,0,0-2.021.112l-.3.559a7.724,7.724,0,0,0,1.932.116H87.18a7.731,7.731,0,0,0,1.932-.116l-.3-.559A9.737,9.737,0,0,0,86.788,411.352Z" fill="#b0bec5"/>
          <path id="Path_49375" data-name="Path 49375" d="M75.279,416.087H51.524c-.547,0-1.016.082-1.042.183l-.23.926c-.026.1.412.192.974.192H75.578c.561,0,1-.087.973-.192l-.231-.926C76.295,416.169,75.827,416.087,75.279,416.087Z" fill="#b0bec5"/>
        </g>
      </g>
    </g>
    <g id="Group_179624" data-name="Group 179624">
      <path id="Path_49376" data-name="Path 49376" d="M77.844,369.527H45.583v36.717H68.306l9.538-8.981Z" fill="#0ec0c0"/>
      <path id="Path_49377" data-name="Path 49377" d="M75.88,371.762H47.546v32.247H67.5l8.377-7.888Z" fill="#fff"/>
      <g id="Group_179623" data-name="Group 179623">
        <g id="Group_179622" data-name="Group 179622">
          <g id="Group_179618" data-name="Group 179618">
            <rect id="Rectangle_163308" data-name="Rectangle 163308" width="24.328" height="3.862" transform="translate(49.092 387.648)" fill="#306b88"/>
          </g>
          <g id="Group_179619" data-name="Group 179619">
            <rect id="Rectangle_163309" data-name="Rectangle 163309" width="24.328" height="3.861" transform="translate(49.092 375.794)" fill="#306b88"/>
          </g>
          <g id="Group_179620" data-name="Group 179620">
            <rect id="Rectangle_163310" data-name="Rectangle 163310" width="24.328" height="3.861" transform="translate(49.092 381.722)" fill="#306b88"/>
          </g>
          <g id="Group_179621" data-name="Group 179621">
            <rect id="Rectangle_163311" data-name="Rectangle 163311" width="24.328" height="3.862" transform="translate(49.092 393.576)" fill="#306b88"/>
          </g>
        </g>
      </g>
      <path id="Path_49378" data-name="Path 49378" d="M77.844,397.263l-9.538,8.981v-8.981Z" fill="#2dd"/>
    </g>
    <path id="Path_49379" data-name="Path 49379" d="M85.911,364.743l-.587-3.21-2.454.031a8.265,8.265,0,0,0-.856-1.466l1.22-2.113L80.723,355.9l-1.841,1.583a8.389,8.389,0,0,0-1.624-.581l-.417-2.378-3.263.02-.388,2.376a8.371,8.371,0,0,0-1.635.606l-1.834-1.54-.071.061L67.234,358.1l1.227,2.065a8.479,8.479,0,0,0-.86,1.52H65.206l-.547,3.216,2.282.8a8.291,8.291,0,0,0,.319,1.7l-1.851,1.55,1.649,2.815,2.285-.863a8.2,8.2,0,0,0,1.318,1.08l-.426,2.4,3.072,1.1,1.207-2.151a8.377,8.377,0,0,0,1.683-.017l1.23,2.131,3.058-1.133-.234-1.242-.228-1.193c.222-.155.439-.32.648-.5s.429-.385.626-.589l2.32.847,1.614-2.835-1.915-1.569a8.431,8.431,0,0,0,.281-1.652Zm-7.281,4.238a5.348,5.348,0,0,1-.643.459,5.163,5.163,0,1,1,.643-.459Z" fill="#f4cd25"/>
    <path id="Path_49380" data-name="Path 49380" d="M74.479,373.8l-.272-3.023-2.276-.178a7.7,7.7,0,0,0-.669-1.431l1.309-1.854-2.151-2.14-1.839,1.31a7.866,7.866,0,0,0-1.455-.675l-.186-2.237-3.024-.258-.56,2.168a7.914,7.914,0,0,0-1.566.424l-1.568-1.581-.071.05-2.412,1.7.962,2.017a7.824,7.824,0,0,0-.924,1.336l-2.219-.2-.778,2.932,2.047.933a7.671,7.671,0,0,0,.152,1.6l-1.846,1.28,1.29,2.746,2.189-.606a7.656,7.656,0,0,0,1.13,1.112l-.6,2.189,2.753,1.277,1.3-1.89a7.831,7.831,0,0,0,1.56.126L65.717,383l2.928-.792-.112-1.169-.109-1.125c.218-.125.433-.26.642-.406a7.668,7.668,0,0,0,.629-.492l2.078.98,1.734-2.49-1.642-1.614a7.8,7.8,0,0,0,.4-1.508Zm-7.1,3.311a5.087,5.087,0,0,1-.634.371,4.836,4.836,0,0,1-4.934-8.286,5.019,5.019,0,0,1,.592-.349,4.835,4.835,0,0,1,4.976,8.264Z" fill="#f62f48"/>
    <g id="Group_179630" data-name="Group 179630">
      <g id="Group_179628" data-name="Group 179628">
        <g id="Group_179627" data-name="Group 179627">
          <g id="Group_179625" data-name="Group 179625">
            <path id="Path_49381" data-name="Path 49381" d="M99.247,366.5v3.975H96.516V366.5a3.372,3.372,0,0,0-3.365-3.364h-2.6a3.368,3.368,0,0,0-3.364,3.364v3.975H84.451V366.5a6.1,6.1,0,0,1,6.1-6.1h2.6c.169,0,.337.009.5.023A6.1,6.1,0,0,1,99.247,366.5Z" fill="#14b0bf"/>
          </g>
          <g id="Group_179626" data-name="Group 179626">
            <path id="Path_49382" data-name="Path 49382" d="M99.247,366.5v3.342H97.708v-3.715a3.228,3.228,0,0,0-3.3-3.146H91.863a3.389,3.389,0,0,0-1.02.155h-.3a3.368,3.368,0,0,0-3.364,3.364v3.342H85.89v-3.715a5.85,5.85,0,0,1,5.973-5.7h1.789A6.1,6.1,0,0,1,99.247,366.5Z" fill="#17c5cc" opacity="0.7" style="mix-blend-mode: overlay;isolation: isolate"/>
          </g>
        </g>
        <path id="Path_49383" data-name="Path 49383" d="M100.25,380.514v-9.686a1.984,1.984,0,0,0-1.984-1.984h-13.3a1.975,1.975,0,0,0-1.13.356l15.86,12.688A1.974,1.974,0,0,0,100.25,380.514Z" fill="#17c5cc"/>
        <path id="Path_49384" data-name="Path 49384" d="M83.832,369.2a1.979,1.979,0,0,0-.853,1.628v9.686a1.983,1.983,0,0,0,1.983,1.983h13.3a1.972,1.972,0,0,0,1.426-.609Z" fill="#14b0bf"/>
        <path id="Rectangle_163312" data-name="Rectangle 163312" d="M1.518,0H13.187A1.517,1.517,0,0,1,14.7,1.517V9.453a1.517,1.517,0,0,1-1.517,1.517H1.517A1.517,1.517,0,0,1,0,9.453V1.518A1.518,1.518,0,0,1,1.518,0Z" transform="translate(84.262 369.777)" fill="#939598" opacity="0.7" style="mix-blend-mode: overlay;isolation: isolate"/>
      </g>
      <g id="Group_179629" data-name="Group 179629">
        <path id="Path_49385" data-name="Path 49385" d="M93.073,375.469a1.284,1.284,0,1,1-1.284-1.284A1.283,1.283,0,0,1,93.073,375.469Z" fill="#2a445d"/>
        <rect id="Rectangle_163313" data-name="Rectangle 163313" width="1.481" height="4.049" transform="translate(91.049 374.975)" fill="#2a445d"/>
      </g>
    </g>
  </g>
</svg>
