<svg xmlns="http://www.w3.org/2000/svg" xmlns:xlink="http://www.w3.org/1999/xlink" width="55.225" height="55.224" viewBox="0 0 55.225 55.224">
  <defs>
    <linearGradient id="linear-gradient" x1="-1.971" y1="2.61" x2="-1.264" y2="3.317" gradientUnits="objectBoundingBox">
      <stop offset="0" stop-color="#2489be"/>
      <stop offset="1" stop-color="#0575b3"/>
    </linearGradient>
  </defs>
  <g id="SvgjsG1016" transform="translate(-7.025 -7.025)">
    <g id="Group_175610" data-name="Group 175610" transform="translate(7.025 7.025)">
      <path id="Path_12053" data-name="Path 12053" d="M34.637,7.025A27.612,27.612,0,1,0,62.25,34.637,27.612,27.612,0,0,0,34.637,7.025ZM27.27,47.986H21.208V28.4H27.27ZM24.21,25.835a3.614,3.614,0,1,1,3.585-3.614A3.6,3.6,0,0,1,24.21,25.835ZM49.99,47.986H43.956V37.705c0-2.82-1.071-4.394-3.3-4.394-2.427,0-3.694,1.639-3.694,4.394V47.986H31.147V28.4h5.815v2.638a6.831,6.831,0,0,1,5.9-3.235c4.153,0,7.126,2.536,7.126,7.782v12.4Z" transform="translate(-7.025 -7.025)" fill="url(#linear-gradient)"/>
    </g>
  </g>
</svg>
