<svg xmlns="http://www.w3.org/2000/svg" width="50.153" height="48.758" viewBox="0 0 50.153 48.758">
  <g id="Group_179452" data-name="Group 179452" transform="translate(-347.507 -282.215)">
    <g id="Group_179451" data-name="Group 179451" transform="translate(347.507 282.215)">
      <g id="Group_179450" data-name="Group 179450">
        <g id="_690_Analysis_development_optimize_web" data-name="690, Analysis, development, optimize, web">
          <g id="Group_179449" data-name="Group 179449">
            <g id="Group_179448" data-name="Group 179448">
              <path id="Path_49181" data-name="Path 49181" d="M195.507,302.447v27.214a4.094,4.094,0,0,0,4.1,4.1h41.867a4.094,4.094,0,0,0,4.1-4.1V302.447Z" transform="translate(-195.507 -285.002)" fill="#ecf0f1"/>
              <path id="Path_49182" data-name="Path 49182" d="M219.752,326.523l-6.542,3.227,6.542,3.315h9.769v-6.542Z" transform="translate(-197.946 -288.319)" fill="#e3835a"/>
              <path id="Path_49183" data-name="Path 49183" d="M219.752,318.936l-6.542,3.227,6.542,3.315h9.769v-6.542Z" transform="translate(-197.946 -287.274)" fill="#64e1db"/>
              <path id="Path_49184" data-name="Path 49184" d="M219.752,311.349l-6.542,3.227,6.542,3.315h9.769v-6.542Z" transform="translate(-197.946 -286.229)" fill="#ffd24d"/>
              <path id="Path_49185" data-name="Path 49185" d="M205.275,282.215a2.181,2.181,0,1,1-2.181,2.181A2.16,2.16,0,0,1,205.275,282.215Z" transform="translate(-196.552 -282.215)" fill="#74829c"/>
              <path id="Path_49186" data-name="Path 49186" d="M246.428,283.53a1.656,1.656,0,0,1,1.658,1.657,1.583,1.583,0,0,1-1.658,1.57,1.656,1.656,0,0,1-1.657-1.657A1.535,1.535,0,0,1,246.428,283.53Z" transform="translate(-202.294 -282.396)" fill="#74829c"/>
              <path id="Path_49187" data-name="Path 49187" d="M241.474,292.331H199.607a4.1,4.1,0,0,0-4.1,4.1v4.623H245.66V296.43A4.17,4.17,0,0,0,241.474,292.331Z" transform="translate(-195.507 -283.609)" fill="#74829c"/>
              <rect id="Rectangle_163282" data-name="Rectangle 163282" width="2.18" height="20.672" transform="translate(45.792 22.94)" fill="#bec3c7"/>
              <rect id="Rectangle_163283" data-name="Rectangle 163283" width="2.18" height="2.18" transform="translate(45.792 19.625)" fill="#bec3c7"/>
              <path id="Path_49188" data-name="Path 49188" d="M247.9,296.422a1.109,1.109,0,0,1,.349.785.851.851,0,0,1-.349.785,1.1,1.1,0,0,1-.785.349,1.155,1.155,0,0,1-1.134-1.134.947.947,0,0,1,.349-.785,1.059,1.059,0,0,1,1.57,0Z" transform="translate(-202.461 -284.124)" fill="#d8f2f1"/>
              <rect id="Rectangle_163284" data-name="Rectangle 163284" width="39.25" height="2.18" transform="translate(5.408 19.625)" fill="#bec3c7"/>
              <path id="Path_49189" data-name="Path 49189" d="M237.788,285.093a1.106,1.106,0,0,1,.348.785.948.948,0,0,1-.348.786,1.106,1.106,0,0,1-.785.348,1.154,1.154,0,0,1-1.134-1.134.947.947,0,0,1,.348-.785,1.057,1.057,0,0,1,1.57,0Z" transform="translate(-201.068 -282.563)" fill="#74829c"/>
              <rect id="Rectangle_163285" data-name="Rectangle 163285" width="2.18" height="2.18" transform="translate(26.167 40.384)" fill="#c6613e"/>
              <rect id="Rectangle_163286" data-name="Rectangle 163286" width="2.18" height="2.18" transform="translate(26.167 33.843)" fill="#4ec6bd"/>
              <rect id="Rectangle_163287" data-name="Rectangle 163287" width="2.18" height="2.18" transform="translate(26.167 27.301)" fill="#e2b23b"/>
              <path id="Path_49190" data-name="Path 49190" d="M226.357,282.564a1.1,1.1,0,0,1,.349.785.944.944,0,0,1-.349.785,1.1,1.1,0,0,1-.785.349,1.155,1.155,0,0,1-1.134-1.134.948.948,0,0,1,.349-.785,1.057,1.057,0,0,1,1.57,0Z" transform="translate(-199.493 -282.215)" fill="#74829c"/>
              <rect id="Rectangle_163288" data-name="Rectangle 163288" width="2.18" height="2.18" transform="translate(22.852 40.384)" fill="#c6613e"/>
              <rect id="Rectangle_163289" data-name="Rectangle 163289" width="2.18" height="2.18" transform="translate(22.852 33.843)" fill="#4ec6bd"/>
              <rect id="Rectangle_163290" data-name="Rectangle 163290" width="2.18" height="2.18" transform="translate(22.852 27.301)" fill="#e2b23b"/>
              <path id="Path_49191" data-name="Path 49191" d="M216.241,286.307a1.106,1.106,0,0,1,.349.785.947.947,0,0,1-.349.785,1.3,1.3,0,0,1-.785.348,1.155,1.155,0,0,1-1.134-1.134.947.947,0,0,1,.348-.785,1.3,1.3,0,0,1,.785-.349A1.1,1.1,0,0,1,216.241,286.307Z" transform="translate(-198.099 -282.731)" fill="#74829c"/>
              <rect id="Rectangle_163291" data-name="Rectangle 163291" width="2.181" height="2.18" transform="translate(10.903 12.037)" fill="#e3835a"/>
              <path id="Path_49192" data-name="Path 49192" d="M209.969,314.125a1.109,1.109,0,0,1,.349.786.848.848,0,0,1-.349.785,1.3,1.3,0,0,1-.785.349,1.155,1.155,0,0,1-1.134-1.134.948.948,0,0,1,.349-.786,1.3,1.3,0,0,1,.785-.348A1.106,1.106,0,0,1,209.969,314.125Z" transform="translate(-197.235 -286.563)" fill="#65b2fe"/>
              <path id="Path_49193" data-name="Path 49193" d="M209.969,321.713a1.1,1.1,0,0,1,.349.785.849.849,0,0,1-.349.785,1.3,1.3,0,0,1-.785.349,1.155,1.155,0,0,1-1.134-1.134.944.944,0,0,1,.349-.785,1.293,1.293,0,0,1,.785-.349A1.1,1.1,0,0,1,209.969,321.713Z" transform="translate(-197.235 -287.608)" fill="#65b2fe"/>
              <path id="Path_49194" data-name="Path 49194" d="M209.969,329.3a1.108,1.108,0,0,1,.349.785.945.945,0,0,1-.349.785,1.3,1.3,0,0,1-.785.349,1.155,1.155,0,0,1-1.134-1.134.947.947,0,0,1,.349-.785,1.3,1.3,0,0,1,.785-.348A1.106,1.106,0,0,1,209.969,329.3Z" transform="translate(-197.235 -288.654)" fill="#65b2fe"/>
              <rect id="Rectangle_163292" data-name="Rectangle 163292" width="2.18" height="2.18" transform="translate(7.589 12.037)" fill="#80af52"/>
              <path id="Path_49195" data-name="Path 49195" d="M206.125,314.125a1.105,1.105,0,0,1,.349.786.848.848,0,0,1-.349.785,1.3,1.3,0,0,1-.785.349,1.154,1.154,0,0,1-1.134-1.134.95.95,0,0,1,.348-.786,1.3,1.3,0,0,1,.786-.348A1.106,1.106,0,0,1,206.125,314.125Z" transform="translate(-196.706 -286.563)" fill="#65b2fe"/>
              <path id="Path_49196" data-name="Path 49196" d="M206.125,321.713a1.1,1.1,0,0,1,.349.785.849.849,0,0,1-.349.785,1.3,1.3,0,0,1-.785.349,1.154,1.154,0,0,1-1.134-1.134.946.946,0,0,1,.348-.785,1.3,1.3,0,0,1,.786-.349A1.1,1.1,0,0,1,206.125,321.713Z" transform="translate(-196.706 -287.608)" fill="#65b2fe"/>
              <path id="Path_49197" data-name="Path 49197" d="M206.125,329.3a1.105,1.105,0,0,1,.349.785.946.946,0,0,1-.349.785,1.3,1.3,0,0,1-.785.349,1.154,1.154,0,0,1-1.134-1.134.949.949,0,0,1,.348-.785,1.3,1.3,0,0,1,.786-.348A1.106,1.106,0,0,1,206.125,329.3Z" transform="translate(-196.706 -288.654)" fill="#65b2fe"/>
              <rect id="Rectangle_163293" data-name="Rectangle 163293" width="2.181" height="2.18" transform="translate(4.361 12.037)" fill="#ffd24d"/>
              <rect id="Rectangle_163294" data-name="Rectangle 163294" width="2.18" height="20.672" transform="translate(2.181 22.94)" fill="#bec3c7"/>
              <rect id="Rectangle_163295" data-name="Rectangle 163295" width="2.18" height="2.18" transform="translate(2.181 19.625)" fill="#bec3c7"/>
              <path id="Path_49198" data-name="Path 49198" d="M239.893,298.342H218.087a1.134,1.134,0,1,1,0-2.268h21.806a1.155,1.155,0,0,1,1.134,1.134A1.3,1.3,0,0,1,239.893,298.342Z" transform="translate(-198.462 -284.124)" fill="#d8f2f1"/>
              <path id="Path_49199" data-name="Path 49199" d="M238.071,316.753a1.065,1.065,0,0,1-.785-.349l-1.569-1.569a1.11,1.11,0,1,1,1.569-1.57l.785.785,3.577-3.664a1.11,1.11,0,0,1,1.57,1.57l-4.361,4.536a2.778,2.778,0,0,1-.786.261Z" transform="translate(-201.001 -286.051)" fill="#80af52"/>
              <path id="Path_49200" data-name="Path 49200" d="M238.071,325.554a1.065,1.065,0,0,1-.785-.349l-1.569-1.57a1.11,1.11,0,0,1,1.569-1.569l.785.785,3.577-3.664a1.11,1.11,0,0,1,1.57,1.57l-4.361,4.535a1.4,1.4,0,0,1-.786.262Z" transform="translate(-201.001 -287.263)" fill="#80af52"/>
              <path id="Path_49201" data-name="Path 49201" d="M238.071,334.456a1.065,1.065,0,0,1-.785-.349l-1.569-1.57a1.11,1.11,0,1,1,1.569-1.57l.785.786,3.577-3.663a1.11,1.11,0,0,1,1.57,1.569l-4.361,4.536a2.778,2.778,0,0,1-.786.261Z" transform="translate(-201.001 -288.49)" fill="#80af52"/>
            </g>
          </g>
        </g>
      </g>
    </g>
  </g>
</svg>
