<svg xmlns="http://www.w3.org/2000/svg" width="78.468" height="78.468" viewBox="0 0 78.468 78.468">
  <g id="Group_181635" data-name="Group 181635" transform="translate(-859.542 -3522.041)">
    <circle id="Ellipse_894" data-name="Ellipse 894" cx="39.234" cy="39.234" r="39.234" transform="translate(859.542 3522.041)" fill="#fdc506" opacity="0.3"/>
    <g id="Start_Up_Application" data-name="Start Up Application" transform="translate(-1025.733 -2931.929)">
      <g id="Globe" transform="translate(1899.222 6486.642)">
        <path id="Path_48774" data-name="Path 48774" d="M1917.185,6965.608a8.982,8.982,0,1,1-8.982-8.982A8.982,8.982,0,0,1,1917.185,6965.608Z" transform="translate(-1899.222 -6956.626)" fill="#11c1a7"/>
        <path id="Path_48775" data-name="Path 48775" d="M1947.92,6991.741c-.057,0-.125-.108-.2-.176s-.469.019-.564.019a.411.411,0,0,1-.231-.095c-.087-.053-.182.011-.25.027s-.1-.046-.057-.122-.14-.057-.276-.03-.083.095-.193.057.129-.163.208-.258-.015-.253-.061-.269-.132-.151-.269-.257-.238-.027-.4-.027a.36.36,0,0,1-.276-.128c-.076-.057-.053-.171-.356-.33s-.174-.072-.155-.1.049-.026-.057-.076-.193.057-.3.1a.534.534,0,0,1-.28.018c-.045-.011-.1-.12-.151-.143a.321.321,0,0,1-.132-.125.081.081,0,0,0-.14.067c0,.1-.053.156-.159.2s-.06-.117-.06-.167.095-.1.1-.174-.094.072-.193.179-.167.007-.356.026-.1.215-.1.325-.159.147-.186.122-.027-.088-.083-.088-.072-.09-.087-.125a.2.2,0,0,0-.28.068c-.072.136-.148.027-.235,0s-.257-.367-.22-.427.038-.087,0-.129-.023-.071.011-.135.125-.125-.057-.242-.466-.016-.617-.031-.03-.125,0-.154a.771.771,0,0,0,.121-.228c.03-.09-.027-.1.026-.219s.038-.2-.083-.212a.238.238,0,0,0-.242.257c-.008.174-.182.167-.583.136s-.363-.348-.409-.6a1.722,1.722,0,0,1,.091-.606c.008-.129.167-.272.318-.385a.557.557,0,0,1,.367-.085,2.351,2.351,0,0,0,.382.055c.091-.008.015-.076.023-.167s.447-.03.522-.03.06.061.144.143.068-.082.151-.066.015.067.136.265a.972.972,0,0,1,.136.431c.038.167.121.083.174-.053a2.971,2.971,0,0,0-.091-.8c-.03-.227.174-.144.371-.356s.4-.227.492-.378-.008-.4.045-.266.061-.053.068-.2.083-.205.121-.122.083.023.114-.121a.951.951,0,0,1,.219-.363c.06-.072.182,0,.348,0s.008-.031-.042-.2a.171.171,0,0,1,.17-.224,1.806,1.806,0,0,0,.4-.186c.061-.039.14-.034.246.045s-.1.02-.167.136.1.133.17.026.231-.056.367-.192-.155-.087-.219-.106-.1-.178-.1-.229a.36.36,0,0,0-.108-.239c-.068-.057-.244.006-.4.068s-.2.12-.187.046.267-.244.335-.255a.785.785,0,0,0,.352-.193c.091-.1.352.017.471.028s.289.08.352-.005.114-.085.238-.1.148-.2.063-.279-.21-.369-.386-.459-.108-.148-.051-.222-.178-.256-.254-.445.008-.235-.083-.242-.03.136-.076.265-.235.06-.265.054a.331.331,0,0,1-.129-.258c.008-.121.038-.228,0-.265s-.121-.007-.167-.053a2.909,2.909,0,0,0-.174-.242c-.068-.061-.219-.023-.326-.046s-.2.016-.182.083a1.028,1.028,0,0,1-.03.4c-.038.242-.114.113-.174.174s.038.076.091.25a.356.356,0,0,1-.121.355,1.221,1.221,0,0,1-.341.129c-.114.039.007.182.023.3a.392.392,0,0,1-.159.318c-.06.022-.257-.227-.272-.371s.121-.3.061-.348a1.625,1.625,0,0,1-.515-.228c-.22-.182-.484-.28-.575-.5s.091-.417.167-.576.227-.136.469-.228.091-.174.151-.174.257-.03.3-.09a.848.848,0,0,1,.25-.174c.1-.053.121-.159.159-.22s.144.084.265.068.114.023.28-.053.023-.122.007-.2.106-.062.068-.152a.353.353,0,0,0-.314-.166c-.11.015.034.121-.08.227s-.091.174-.129.189-.2-.038-.2-.09.076-.1.106-.122-.023-.136-.038-.174-.083.045-.1.121-.1.083-.076.015-.061-.151-.121-.234.061-.076.129-.182.046-.151-.046-.2-.2.03-.3.144-.068.1-.031.25,0,0,.023.136-.174.122-.174.122a.741.741,0,0,1-.136-.023c-.038-.015,0-.068-.083-.1s-.121.106-.121.106-.227-.008-.318-.008a.381.381,0,0,1-.242-.083.343.343,0,0,0-.235-.114c-.1,0-.136.083-.136.182s-.167.106-.159.06a1.1,1.1,0,0,0-.023-.2l-.091.053s-.25-.016-.333-.022-.053-.114-.053-.114l.167-.015.023-.038a.286.286,0,0,0-.091-.061c-.046-.015-.242-.053-.242-.053l-.061-.083h-.129c-.038,0-.1.075-.129.075s-.03-.083-.03-.083l.015-.068-.076.038c-.076.038-.106.007-.106.007l.03-.076.008-.083s-.046-.053-.046-.016a.158.158,0,0,1-.144.114c-.068-.008-.114.06-.212.037a.573.573,0,0,0-.394.137c-.106.091-.174.121-.151.015s-.3-.09-.348-.113a1.661,1.661,0,0,0-.318-.054.183.183,0,0,1-.159-.121l-.052-.187a9,9,0,0,0-1.82,1.311,1.767,1.767,0,0,0,.17.276.094.094,0,0,0,.106,0,6.172,6.172,0,0,0-.553.444c-.341.3-.227.335-.227.449s.068.068.068.068l-.341.349c-.076.075-.212.181-.212.181l-.136.167.061.023.823-.691s.051-.012.057-.04a.361.361,0,0,1,.068-.131.747.747,0,0,0,.091-.124.461.461,0,0,0,.114-.08c.063-.057.125-.142.176-.147s0,.073-.091.147a1.392,1.392,0,0,0-.2.233s.3-.159.4-.228.068-.169.108-.175.131.08.159.165.062-.017.216,0,.051.136.108.215.057.1.2.069-.057.318-.057.318l-.011.113a.614.614,0,0,1,.057.091c0,.011-.068.215-.068.215h.113a.423.423,0,0,1-.1.091c-.057.035.011.125.068.17s0,0-.079.181,0,.126.091.251a3.381,3.381,0,0,0,.216.261c.068.08,0,.261-.068.272s-.216-.1-.216-.1c.011,1.7-.1.568-.159.716s-.136.227-.136.317a.561.561,0,0,1-.091.352c-.091.125-.011.409,0,.443s.083.181.083.181v.466c0,.151.272.228.363.356a.9.9,0,0,1,.076.42.482.482,0,0,0,.117.193c.053.049.057.133.1.208s-.064.049-.076.148.095.1.151.125a.117.117,0,0,1,.083.163c-.03.106-.015.068.042.128s.03.022.06.136.106.064.106.064v.067c0,.02.068.038.068.038l.045-.068s-.034-.015-.034-.026-.008-.068-.008-.068l-.1-.041a.487.487,0,0,1-.015-.08v-.1c0-.015-.038-.026-.038-.026s0-.1,0-.163-.1-.117-.1-.144a.426.426,0,0,0-.049-.17.557.557,0,0,1-.125-.306c0-.129-.03-.212.019-.212s.132.125.155.148a.992.992,0,0,0,.1.314,3.4,3.4,0,0,1,.317.45c-.023.023-.085.015-.051.1a.229.229,0,0,0,.179.122c.063.017.165.363.233.477s-.017.114-.034.188.006.113.119.164.091.176.221.216.386.207.454.221.061.076.151.084a.234.234,0,0,1,.151.068c.045.029.2-.031.234-.054s.061-.015.144,0,.325.272.4.348.136-.03.2,0,.174.1.219.091.046-.046.076-.046.008.06.121.2.091.174.091.2.053.136.129.121.151.065.151.065v.125s.258.016.31.03.061.129.084.144.114-.091.1-.151.1-.09.144-.136.106.053.144.1a.482.482,0,0,1,.121.25c0,.091-.008.227-.008.371s-.113.212-.2.31-.159.144-.2.19a.439.439,0,0,0-.053.272c.015.083.121.008.121.105s-.1.046-.212.137.015.1.053.174-.053.016-.053.106.136.076.265.114.265.371.341.545.151.326.227.356.083.1.242.136.284.163.373.163.087.153.058.215-.005.08.017.307a3.309,3.309,0,0,1-.075.794c-.024.057-.017.046.024.087s-.068.223-.072.28-.11.091-.132.145.052.052.067.1-.03.17.015.216.087.03.1.1a.119.119,0,0,1-.118.139c-.076,0-.076.08-.042.054a.077.077,0,0,1,.08,0l.061.107c.186-.019.369-.044.551-.075.039-.044.073-.081.1-.086.091-.015.046-.105-.008-.295s.129-.03.242-.076.076-.2.235-.219a.675.675,0,0,0,.4-.273c.068-.105-.03-.159.219-.128s.477-.288.674-.522.023-.311.371-.53a3.064,3.064,0,0,0,.946-1c.034-.187-.062-.193.136-.324a1.594,1.594,0,0,0,.471-.6C1948.033,6991.894,1947.977,6991.741,1947.92,6991.741Z" transform="translate(-1933.766 -6978.207)" fill="#e2e2e2"/>
        <path id="Path_48776" data-name="Path 48776" d="M2148.7,6971.613c-.288,0-.348.289-.091.334s.787.045.878.423-.273.485,0,.667-.061.378-.061.635a.745.745,0,0,0,.3.605c.182.137.364.318.379.424s.2.075.2.075a.4.4,0,0,1,0-.151c.015-.091.167-.2.167-.454s.135-.243.242-.228.319-.015.379,0,.424.016.454-.167-.242-.454-.242-.454a1.142,1.142,0,0,0,.152-.37.677.677,0,0,0-.043-.151,9,9,0,0,0-2.48-1.568C2148.929,6971.379,2148.9,6971.613,2148.7,6971.613Z" transform="translate(-2136.461 -6970.533)" fill="#e2e2e2"/>
        <path id="Path_48777" data-name="Path 48777" d="M2232.9,7125.346c-.522-.432-.863-.432-.908-.318s.363.522,0,1.022-.636.7-.5,1.113-.571.772-.036,1.135.422.363.808.341.33.578.3.66a8.95,8.95,0,0,0,.686-3.447c0-.037,0-.074,0-.111A1.506,1.506,0,0,0,2232.9,7125.346Z" transform="translate(-2215.285 -7116.871)" fill="#e2e2e2"/>
        <path id="Path_48778" data-name="Path 48778" d="M2103.307,6977.229a8.982,8.982,0,0,0,.728-17.789C2109.243,6961.535,2111.832,6974.252,2103.307,6977.229Z" transform="translate(-2093.494 -6959.304)" fill="#231f20" opacity="0.1"/>
      </g>
      <g id="Phone" transform="translate(1933.115 6478.933)">
        <rect id="Rectangle_163205" data-name="Rectangle 163205" width="16.681" height="29.023" rx="8.34" transform="translate(0)" fill="#0b2e44"/>
        <rect id="Rectangle_163206" data-name="Rectangle 163206" width="13.604" height="19.841" transform="translate(1.538 3.443)" fill="#fff" opacity="0.8"/>
        <g id="Group_179162" data-name="Group 179162" transform="translate(2.459 8.321)">
          <g id="Setting" transform="translate(0 2.505)">
            <path id="Path_48779" data-name="Path 48779" d="M2663.39,7026.576a2.286,2.286,0,1,1-2.286-2.286A2.286,2.286,0,0,1,2663.39,7026.576Z" transform="translate(-2658.647 -7024.154)" fill="#424242"/>
            <path id="Path_48780" data-name="Path 48780" d="M2659.845,7023.738a2.286,2.286,0,1,1-2.286-2.287A2.286,2.286,0,0,1,2659.845,7023.738Z" transform="translate(-2655.273 -7021.451)" fill="#f3ae1b"/>
            <g id="Group_179155" data-name="Group 179155" transform="translate(0.783 0.774)">
              <path id="Path_48781" data-name="Path 48781" d="M2673.223,7037.552h-.309a.03.03,0,0,0-.03.03v.161a1.217,1.217,0,0,0-.536.214l-.151-.151a.03.03,0,0,0-.042,0l-.219.219a.03.03,0,0,0,0,.042l.144.144a1.35,1.35,0,0,0-.232.442l-.208-.037a.031.031,0,0,0-.035.024l-.053.3a.03.03,0,0,0,.024.035l.211.037c0,.016,0,.032,0,.049a1.415,1.415,0,0,0,.046.359l-.19.089a.03.03,0,0,0-.014.039l.131.28a.031.031,0,0,0,.04.015l.176-.082a1.338,1.338,0,0,0,.273.328l-.088.152a.031.031,0,0,0,.01.042l.268.155a.031.031,0,0,0,.041-.012l.08-.138a1.218,1.218,0,0,0,.431.105l.013.152a.031.031,0,0,0,.032.028l.308-.027a.03.03,0,0,0,.027-.033l-.013-.156a1.253,1.253,0,0,0,.4-.182l.114.136a.03.03,0,0,0,.042,0l.237-.2a.03.03,0,0,0,0-.042l-.126-.151a1.344,1.344,0,0,0,.207-.357l.211.057a.03.03,0,0,0,.037-.021l.08-.3a.029.029,0,0,0-.021-.036l-.22-.06a1.421,1.421,0,0,0-.015-.4l.216-.078a.031.031,0,0,0,.018-.038l-.106-.291a.031.031,0,0,0-.039-.018l-.2.075a1.342,1.342,0,0,0-.235-.34l.114-.163a.03.03,0,0,0-.007-.042l-.254-.178a.031.031,0,0,0-.041.008l-.1.146a1.2,1.2,0,0,0-.409-.146v-.166a.03.03,0,0,0-.03-.03Zm-.169.865a.648.648,0,1,1-.648.648.648.648,0,0,1,.648-.648Z" transform="translate(-2671.551 -7037.552)" fill="#0b2e44" fill-rule="evenodd"/>
              <path id="Path_48782" data-name="Path 48782" d="M2685.047,7050.332a.9.9,0,1,1-.9.9.9.9,0,0,1,.9-.9Zm0,.25a.648.648,0,1,1-.648.648.648.648,0,0,1,.648-.648Z" transform="translate(-2683.544 -7049.718)" fill="#fff" fill-rule="evenodd" opacity="0.2"/>
              <path id="Path_48783" data-name="Path 48783" d="M2704.3,7039.271l-.22-.06a1.381,1.381,0,0,0,.008-.146,1.429,1.429,0,0,0-.023-.253l.216-.078a.03.03,0,0,0,.018-.038l-.106-.291a.03.03,0,0,0-.038-.018l-.2.075a1.335,1.335,0,0,0-.235-.34l.114-.163a.03.03,0,0,0-.007-.042l-.253-.178a.031.031,0,0,0-.042.008l-.1.146a1.2,1.2,0,0,0-.409-.146v-.166a.031.031,0,0,0-.03-.03h-.168v.865a.648.648,0,1,1,0,1.3v.862l.287-.025a.029.029,0,0,0,.027-.033l-.013-.156a1.258,1.258,0,0,0,.4-.182l.114.136a.03.03,0,0,0,.042,0l.237-.2a.029.029,0,0,0,0-.042l-.126-.151a1.363,1.363,0,0,0,.207-.357l.211.057a.03.03,0,0,0,.036-.021l.08-.3A.029.029,0,0,0,2704.3,7039.271Z" transform="translate(-2701.318 -7037.552)" fill="#fff" opacity="0.1"/>
            </g>
          </g>
          <g id="Game" transform="translate(4.84)">
            <path id="Path_48784" data-name="Path 48784" d="M2764.143,6974.916a2.286,2.286,0,1,1-2.286-2.286A2.286,2.286,0,0,1,2764.143,6974.916Z" transform="translate(-2759.395 -6972.472)" fill="#424242"/>
            <path id="Path_48785" data-name="Path 48785" d="M2760.507,6971.635a2.286,2.286,0,1,1-2.286-2.286A2.286,2.286,0,0,1,2760.507,6971.635Z" transform="translate(-2755.934 -6969.349)" fill="#d0edfa"/>
            <g id="Rocket" transform="translate(0.62 1.263)">
              <path id="Path_48786" data-name="Path 48786" d="M2781.7,6995.663a1.954,1.954,0,0,0-2.1.881l.262.381.262.381A1.956,1.956,0,0,0,2781.7,6995.663Z" transform="translate(-2779.09 -6995.618)" fill="#ff651f"/>
              <path id="Path_48787" data-name="Path 48787" d="M2779.155,7015.3l-.006-.009-.276-.4a.666.666,0,0,0-.028.295l.148.214.006.008.128.187a.608.608,0,0,0,.27.057Z" transform="translate(-2778.354 -7013.968)" fill="#0051c4"/>
              <rect id="Rectangle_163207" data-name="Rectangle 163207" width="0.139" height="0.481" transform="matrix(0.824, -0.567, 0.567, 0.824, 0.373, 1.296)" fill="#e46400"/>
              <rect id="Rectangle_163208" data-name="Rectangle 163208" width="0.065" height="0.379" transform="translate(0.348 1.375) rotate(-34.599)" fill="#c0003b"/>
              <path id="Path_48788" data-name="Path 48788" d="M2774.948,7004.82l-.827-.015.394.531Z" transform="translate(-2773.866 -7004.363)" fill="#ffea50"/>
              <path id="Path_48789" data-name="Path 48789" d="M2791.516,7022l-.281.777-.356-.557Z" transform="translate(-2789.819 -7020.736)" fill="#ffea50"/>
              <path id="Path_48790" data-name="Path 48790" d="M2814.094,6996.106a1.9,1.9,0,0,0,.12-.439,1.935,1.935,0,0,0-.454-.044Z" transform="translate(-2811.6 -6995.623)" fill="#ff2c0d"/>
              <path id="Path_48791" data-name="Path 48791" d="M2768.825,7022.562l.318-.026.319-.025-.181-.263-.181-.263-.137.288Z" transform="translate(-2768.825 -7020.717)" fill="#ff1a2c"/>
              <path id="Path_48792" data-name="Path 48792" d="M2771.559,7023.7l.227-.013.227-.013-.133-.194-.134-.194-.093.208Z" transform="translate(-2771.427 -7021.957)" fill="#ff2c4d"/>
              <path id="Path_48793" data-name="Path 48793" d="M2775,7024.755l.122.014.122.013-.091-.132-.091-.133-.031.12Z" transform="translate(-2774.7 -7023.128)" fill="#ffd74c"/>
              <path id="Path_48794" data-name="Path 48794" d="M2771.319,6996.946h0a2.007,2.007,0,0,0,.117-.42h0c0-.007,0-.013,0-.016h0l-.008,0-2.6,1.788-.006.014.318-.025.319-.025-.052-.075-.021-.031.053-.037.029.042.115-.079.012.019a.619.619,0,0,0,.269.056h0c.043-.009.086-.018.127-.029l.246.386.2-.555A1.906,1.906,0,0,0,2771.319,6996.946Z" transform="translate(-2768.825 -6996.461)" opacity="0.2"/>
            </g>
            <g id="Group_179156" data-name="Group 179156" transform="translate(0.946 3.183)">
              <path id="Path_48795" data-name="Path 48795" d="M2778.325,7035.841a.167.167,0,0,0-.039,0,.351.351,0,0,0-.323-.292.324.324,0,0,0-.274.17.3.3,0,0,0-.128-.029.287.287,0,0,0-.289.285.307.307,0,0,0,.007.065h1.209a.163.163,0,0,0,0-.038A.167.167,0,0,0,2778.325,7035.841Z" transform="translate(-2777.192 -7035.554)" fill="#4c4c4b"/>
              <path id="Path_48796" data-name="Path 48796" d="M2776.655,7035.841a.169.169,0,0,0-.039,0,.351.351,0,0,0-.323-.292.323.323,0,0,0-.274.17.294.294,0,0,0-.128-.029.287.287,0,0,0-.289.285.292.292,0,0,0,.008.065h1.209a.177.177,0,0,0,0-.038A.167.167,0,0,0,2776.655,7035.841Z" transform="translate(-2775.602 -7035.554)" fill="#6cd2ea"/>
              <path id="Path_48797" data-name="Path 48797" d="M2790.054,7035.841a.167.167,0,0,0-.039,0,.351.351,0,0,0-.323-.292h-.014v.49h.54a.163.163,0,0,0,0-.038A.167.167,0,0,0,2790.054,7035.841Z" transform="translate(-2789.001 -7035.554)" opacity="0.2"/>
            </g>
            <g id="Group_179157" data-name="Group 179157" transform="translate(0.817 0.372)">
              <path id="Path_48798" data-name="Path 48798" d="M2777.045,6977.529a.261.261,0,0,0-.059.006.528.528,0,0,0-.487-.44.487.487,0,0,0-.414.257.436.436,0,0,0-.629.386.443.443,0,0,0,.011.1h1.824a.25.25,0,0,0-.246-.308Z" transform="translate(-2775.335 -6977.095)" fill="#4c4c4b"/>
              <path id="Path_48799" data-name="Path 48799" d="M2774.525,6977.529a.26.26,0,0,0-.059.006.529.529,0,0,0-.488-.44.487.487,0,0,0-.414.257.436.436,0,0,0-.629.386.416.416,0,0,0,.012.1h1.824a.251.251,0,0,0-.247-.308Z" transform="translate(-2772.936 -6977.095)" fill="#6cd2ea"/>
              <path id="Path_48800" data-name="Path 48800" d="M2794.744,6977.529a.26.26,0,0,0-.059.006.529.529,0,0,0-.488-.44h-.021v.741h.814a.251.251,0,0,0-.246-.308Z" transform="translate(-2793.155 -6977.095)" opacity="0.2"/>
            </g>
            <g id="Group_179158" data-name="Group 179158" transform="translate(2.78 2.252)">
              <path id="Path_48801" data-name="Path 48801" d="M2817.288,7016.562a.238.238,0,0,0-.05.006.455.455,0,0,0-.418-.378.419.419,0,0,0-.355.22.378.378,0,0,0-.166-.038.372.372,0,0,0-.374.37.353.353,0,0,0,.01.084h1.565a.209.209,0,0,0,.006-.049A.216.216,0,0,0,2817.288,7016.562Z" transform="translate(-2815.82 -7016.19)" fill="#4c4c4b"/>
              <path id="Path_48802" data-name="Path 48802" d="M2815.124,7016.562a.24.24,0,0,0-.05.006.454.454,0,0,0-.418-.378.42.42,0,0,0-.355.22.377.377,0,0,0-.166-.038.372.372,0,0,0-.374.37.353.353,0,0,0,.01.084h1.565a.209.209,0,0,0,.005-.049A.216.216,0,0,0,2815.124,7016.562Z" transform="translate(-2813.76 -7016.19)" fill="#6cd2ea"/>
              <path id="Path_48803" data-name="Path 48803" d="M2832.479,7016.562a.236.236,0,0,0-.05.006.454.454,0,0,0-.418-.378h-.019v.636h.7a.209.209,0,0,0,.006-.049A.216.216,0,0,0,2832.479,7016.562Z" transform="translate(-2831.115 -7016.19)" opacity="0.2"/>
            </g>
          </g>
          <g id="Idea" transform="translate(4.162 5.503)">
            <path id="Path_48804" data-name="Path 48804" d="M2750.438,7088.835a2.286,2.286,0,1,1-2.286-2.286A2.286,2.286,0,0,1,2750.438,7088.835Z" transform="translate(-2745.672 -7086.417)" fill="#424242"/>
            <path id="Path_48805" data-name="Path 48805" d="M2746.4,7086.088a2.286,2.286,0,1,1-2.286-2.287A2.286,2.286,0,0,1,2746.4,7086.088Z" transform="translate(-2741.823 -7083.801)" fill="#f7674f"/>
            <g id="Lamp" transform="translate(0.489 0.736)">
              <path id="Path_48806" data-name="Path 48806" d="M2774.9,7120.452a.691.691,0,0,0-.736.743,2.6,2.6,0,0,0,.4.9h.667a2.6,2.6,0,0,0,.4-.9A.691.691,0,0,0,2774.9,7120.452Z" transform="translate(-2773.097 -7119.426)" fill="#fff064"/>
              <g id="Group_179159" data-name="Group 179159" transform="translate(1.643 2.03)">
                <path id="Path_48807" data-name="Path 48807" d="M2786.4,7141.988a2.117,2.117,0,0,1-.033-.393.538.538,0,0,1,.018-.167.166.166,0,0,1-.056,0,.055.055,0,0,1-.032-.016.135.135,0,0,1-.064.023l.007.012a1.877,1.877,0,0,1,.018.541h-.021a1.815,1.815,0,0,0-.014-.529l-.014-.02h-.015c-.043,0-.045-.014-.046-.019a.026.026,0,0,1,.016-.027c.012,0,.03,0,.054.025a.162.162,0,0,0,.044-.01.085.085,0,0,0,.026-.014h0a.061.061,0,0,1,.019-.055.012.012,0,0,1,.016,0c.007,0,.008.015,0,.035a.076.076,0,0,1-.013.026.043.043,0,0,0,.021.01.142.142,0,0,0,.062,0,.076.076,0,0,1,.025-.029.043.043,0,0,1,.041,0l.012.007-.01.01a.137.137,0,0,1-.054.031.446.446,0,0,0-.021.174,2.033,2.033,0,0,0,.032.39Zm-.231-.576a.065.065,0,0,0,.018,0c-.007-.005-.012-.007-.015-.005Z" transform="translate(-2786.15 -7141.333)" fill="#4f4e4f"/>
              </g>
              <path id="Path_48808" data-name="Path 48808" d="M2782.539,7154.551v.352a.082.082,0,0,0,.08.083h.508a.082.082,0,0,0,.079-.083v-.352Z" transform="translate(-2781.07 -7151.885)" fill="#1e2f47"/>
              <g id="Group_179160" data-name="Group 179160" transform="translate(1.469 2.697)">
                <path id="Path_48809" data-name="Path 48809" d="M2783.206,7155.224a.024.024,0,0,1-.025.022h-.616a.024.024,0,0,1-.026-.022h0a.024.024,0,0,1,.026-.023h.616a.024.024,0,0,1,.025.023Z" transform="translate(-2782.539 -7155.201)" fill="#fff" opacity="0.1"/>
                <path id="Path_48810" data-name="Path 48810" d="M2783.206,7157.1a.024.024,0,0,1-.025.023h-.616a.024.024,0,0,1-.026-.023h0a.024.024,0,0,1,.026-.022h.616a.024.024,0,0,1,.025.022Z" transform="translate(-2782.539 -7156.985)" fill="#fff" opacity="0.1"/>
                <path id="Path_48811" data-name="Path 48811" d="M2783.206,7158.981a.024.024,0,0,1-.025.022h-.616a.024.024,0,0,1-.026-.022h0a.024.024,0,0,1,.026-.023h.616a.024.024,0,0,1,.025.023Z" transform="translate(-2782.539 -7158.777)" fill="#fff" opacity="0.1"/>
                <path id="Path_48812" data-name="Path 48812" d="M2783.206,7160.855a.024.024,0,0,1-.025.022h-.616a.024.024,0,0,1-.026-.022h0a.024.024,0,0,1,.026-.022h.616a.024.024,0,0,1,.025.022Z" transform="translate(-2782.539 -7160.562)" fill="#fff" opacity="0.1"/>
                <path id="Path_48813" data-name="Path 48813" d="M2783.206,7156.162a.024.024,0,0,1-.025.023h-.616a.025.025,0,0,1-.026-.023h0a.024.024,0,0,1,.026-.022h.616a.024.024,0,0,1,.025.022Z" transform="translate(-2782.539 -7156.094)" opacity="0.1"/>
                <path id="Path_48814" data-name="Path 48814" d="M2783.206,7158.042a.024.024,0,0,1-.025.022h-.616a.024.024,0,0,1-.026-.022h0a.024.024,0,0,1,.026-.022h.616a.023.023,0,0,1,.025.022Z" transform="translate(-2782.539 -7157.884)" opacity="0.1"/>
                <path id="Path_48815" data-name="Path 48815" d="M2783.206,7159.918a.024.024,0,0,1-.025.022h-.616a.024.024,0,0,1-.026-.022h0a.025.025,0,0,1,.026-.023h.616a.024.024,0,0,1,.025.023Z" transform="translate(-2782.539 -7159.67)" opacity="0.1"/>
                <path id="Path_48816" data-name="Path 48816" d="M2783.206,7161.792a.024.024,0,0,1-.025.023h-.616a.025.025,0,0,1-.026-.023h0a.024.024,0,0,1,.026-.023h.616a.024.024,0,0,1,.025.023Z" transform="translate(-2782.539 -7161.453)" opacity="0.1"/>
              </g>
              <path id="Path_48817" data-name="Path 48817" d="M2793.429,7120.963a1.86,1.86,0,0,1-.018,1.616h.144a2.591,2.591,0,0,0,.4-.9A.663.663,0,0,0,2793.429,7120.963Z" transform="translate(-2791.419 -7119.912)" opacity="0.1"/>
              <path id="Path_48818" data-name="Path 48818" d="M2777.823,7132.2c.014.04-.023.088-.083.109s-.119.006-.133-.033.023-.088.083-.109S2777.809,7132.163,2777.823,7132.2Z" transform="translate(-2776.371 -7130.57)" fill="#fff" opacity="0.4"/>
              <path id="Path_48819" data-name="Path 48819" d="M2778.986,7124.552c.027.075-.045.17-.16.211s-.23.012-.257-.064.045-.17.161-.211S2778.959,7124.476,2778.986,7124.552Z" transform="translate(-2777.285 -7123.25)" fill="#fff" opacity="0.4"/>
              <g id="Group_179161" data-name="Group 179161" transform="translate(0 0)">
                <path id="Path_48820" data-name="Path 48820" d="M2765.973,7106.9l.023-.02.622.632-.023.02Z" transform="translate(-2765.301 -7106.507)" fill="#fff064"/>
                <path id="Path_48821" data-name="Path 48821" d="M2751.985,7125.265l0-.03.895.114,0,.03Z" transform="translate(-2751.985 -7123.979)" fill="#fff064"/>
                <path id="Path_48822" data-name="Path 48822" d="M2752.594,7139.44l-.007-.03.884-.172.006.03Z" transform="translate(-2752.559 -7137.309)" fill="#fff064"/>
                <path id="Path_48823" data-name="Path 48823" d="M2798.73,7106.9l-.023-.02-.621.632.023.02Z" transform="translate(-2795.869 -7106.507)" fill="#fff064"/>
                <path id="Path_48824" data-name="Path 48824" d="M2808.974,7126.241l0-.03-.894.115,0,.029Z" transform="translate(-2805.379 -7124.907)" fill="#fff064"/>
                <path id="Path_48825" data-name="Path 48825" d="M2808,7137.975l.007-.029-.884-.172-.007.029Z" transform="translate(-2804.465 -7135.914)" fill="#fff064"/>
                <rect id="Rectangle_163209" data-name="Rectangle 163209" width="0.032" height="0.858" transform="translate(1.774 0.001) rotate(-1.185)" fill="#fff064"/>
              </g>
            </g>
          </g>
        </g>
        <g id="Group_179164" data-name="Group 179164" transform="translate(3.242 19.123)">
          <rect id="Rectangle_163210" data-name="Rectangle 163210" width="10.82" height="0.834" transform="translate(0 1.442)" fill="#f2f2f2"/>
          <rect id="Rectangle_163211" data-name="Rectangle 163211" width="6.406" height="0.834" transform="translate(0 1.442)" fill="#0076c6"/>
          <g id="Group_179163" data-name="Group 179163" transform="translate(3.489)">
            <path id="Path_48826" data-name="Path 48826" d="M2744.493,7196.162v.077h-.385v-.64h.09v.563Z" transform="translate(-2744.108 -7195.522)" fill="#8e4387"/>
            <path id="Path_48827" data-name="Path 48827" d="M2753.621,7198.924a.3.3,0,0,1-.017.1.234.234,0,0,1-.046.08.206.206,0,0,1-.071.051.223.223,0,0,1-.091.018.221.221,0,0,1-.09-.018.2.2,0,0,1-.071-.051.243.243,0,0,1-.047-.08.33.33,0,0,1,0-.207.238.238,0,0,1,.047-.08.2.2,0,0,1,.071-.051.214.214,0,0,1,.09-.019.216.216,0,0,1,.091.019.2.2,0,0,1,.071.051.23.23,0,0,1,.046.08A.3.3,0,0,1,2753.621,7198.924Zm-.09,0a.21.21,0,0,0-.036-.129.128.128,0,0,0-.2,0,.249.249,0,0,0,0,.258.128.128,0,0,0,.2,0A.21.21,0,0,0,2753.531,7198.924Z" transform="translate(-2752.734 -7198.448)" fill="#8e4387"/>
            <path id="Path_48828" data-name="Path 48828" d="M2764.532,7198.672a.276.276,0,0,1,.087.013.154.154,0,0,1,.057.038.138.138,0,0,1,.031.059.265.265,0,0,1,.009.074v.3l-.031,0c-.013,0-.028,0-.044.006l-.054,0c-.02,0-.039,0-.058,0a.3.3,0,0,1-.075-.008.16.16,0,0,1-.059-.026.117.117,0,0,1-.039-.047.161.161,0,0,1-.014-.071.138.138,0,0,1,.016-.069.126.126,0,0,1,.044-.045.2.2,0,0,1,.065-.026.36.36,0,0,1,.077-.008l.027,0,.026,0,.022,0,.013,0v-.025a.178.178,0,0,0,0-.041.1.1,0,0,0-.017-.037.086.086,0,0,0-.033-.026.131.131,0,0,0-.054-.01.37.37,0,0,0-.074.007.216.216,0,0,0-.047.012l-.01-.071a.256.256,0,0,1,.055-.015A.507.507,0,0,1,2764.532,7198.672Zm.007.431h.054a.242.242,0,0,0,.04-.005v-.144l-.03-.007a.372.372,0,0,0-.05,0l-.041,0a.125.125,0,0,0-.04.012.077.077,0,0,0-.03.024.061.061,0,0,0-.012.039.07.07,0,0,0,.029.065A.152.152,0,0,0,2764.539,7199.1Z" transform="translate(-2763.369 -7198.448)" fill="#8e4387"/>
            <path id="Path_48829" data-name="Path 48829" d="M2774.858,7194.025l.086-.015v.7c-.02.005-.045.011-.076.016a.569.569,0,0,1-.106.009.28.28,0,0,1-.1-.018.214.214,0,0,1-.124-.128.305.305,0,0,1-.017-.106.343.343,0,0,1,.014-.1.227.227,0,0,1,.042-.079.194.194,0,0,1,.068-.052.22.22,0,0,1,.092-.019.2.2,0,0,1,.073.012.217.217,0,0,1,.048.021Zm0,.323a.171.171,0,0,0-.045-.025.173.173,0,0,0-.064-.012.131.131,0,0,0-.063.014.109.109,0,0,0-.043.037.16.16,0,0,0-.024.056.313.313,0,0,0-.007.069.187.187,0,0,0,.042.13.144.144,0,0,0,.111.046.473.473,0,0,0,.059,0,.191.191,0,0,0,.037-.007Z" transform="translate(-2773.059 -7194.01)" fill="#8e4387"/>
            <path id="Path_48830" data-name="Path 48830" d="M2786.171,7194.89a.058.058,0,0,1-.039-.1.059.059,0,0,1,.039-.015.06.06,0,0,1,.04.015.062.062,0,0,1,0,.083A.057.057,0,0,1,2786.171,7194.89Zm.043.567h-.086v-.479h.086Z" transform="translate(-2784.096 -7194.74)" fill="#8e4387"/>
            <path id="Path_48831" data-name="Path 48831" d="M2791.243,7198.735c.02-.005.046-.01.079-.016a.643.643,0,0,1,.113-.009.265.265,0,0,1,.095.016.158.158,0,0,1,.06.046.17.17,0,0,1,.032.07.419.419,0,0,1,.009.089v.269h-.086v-.25a.394.394,0,0,0-.006-.076.136.136,0,0,0-.02-.051.084.084,0,0,0-.037-.028.173.173,0,0,0-.057-.009h-.029l-.028,0-.024,0-.015,0v.4h-.086Z" transform="translate(-2788.976 -7198.485)" fill="#8e4387"/>
            <path id="Path_48832" data-name="Path 48832" d="M2802.037,7199.153a.213.213,0,0,1-.043.019.2.2,0,0,1-.074.011.249.249,0,0,1-.082-.013.178.178,0,0,1-.067-.043.2.2,0,0,1-.045-.072.319.319,0,0,1,0-.2.207.207,0,0,1,.046-.075.2.2,0,0,1,.073-.05.249.249,0,0,1,.1-.018.5.5,0,0,1,.1.009l.075.016v.428a.2.2,0,0,1-.057.161.258.258,0,0,1-.174.05.528.528,0,0,1-.085-.007.408.408,0,0,1-.069-.018l.015-.075a.366.366,0,0,0,.063.018.4.4,0,0,0,.078.008.164.164,0,0,0,.11-.03.128.128,0,0,0,.034-.1Zm0-.356-.035-.007a.444.444,0,0,0-.059,0,.131.131,0,0,0-.106.045.184.184,0,0,0-.037.12.2.2,0,0,0,.011.071.143.143,0,0,0,.028.049.125.125,0,0,0,.042.029.15.15,0,0,0,.049.009.185.185,0,0,0,.063-.011.134.134,0,0,0,.045-.022Z" transform="translate(-2798.939 -7198.485)" fill="#8e4387"/>
            <path id="Path_48833" data-name="Path 48833" d="M2817.458,7206.644a.064.064,0,0,1-.017.043.058.058,0,0,1-.046.018.057.057,0,0,1-.045-.018.063.063,0,0,1-.017-.043.065.065,0,0,1,.017-.043.059.059,0,0,1,.045-.019.06.06,0,0,1,.046.019A.066.066,0,0,1,2817.458,7206.644Z" transform="translate(-2813.813 -7205.978)" fill="#8e4387"/>
            <path id="Path_48834" data-name="Path 48834" d="M2822.181,7206.644a.063.063,0,0,1-.016.043.066.066,0,0,1-.091,0,.063.063,0,0,1-.017-.043.065.065,0,0,1,.017-.043.065.065,0,0,1,.091,0A.065.065,0,0,1,2822.181,7206.644Z" transform="translate(-2818.309 -7205.978)" fill="#8e4387"/>
            <path id="Path_48835" data-name="Path 48835" d="M2826.9,7206.644a.063.063,0,0,1-.017.043.066.066,0,0,1-.091,0,.063.063,0,0,1-.017-.043.065.065,0,0,1,.017-.043.065.065,0,0,1,.091,0A.065.065,0,0,1,2826.9,7206.644Z" transform="translate(-2822.805 -7205.978)" fill="#8e4387"/>
          </g>
        </g>
        <path id="Path_48836" data-name="Path 48836" d="M2649.727,6867.9h-.253l-13.351,19.04v.8h13.6Z" transform="translate(-2634.584 -6864.46)" fill-rule="evenodd" opacity="0.1"/>
      </g>
      <g id="Rocket-2" data-name="Rocket" transform="translate(1914.67 6462.903)">
        <path id="Path_48837" data-name="Path 48837" d="M2292.822,6462.9s-9.078,8.007-3.884,19.548l4.052-.034,4.053-.036C2302.038,6470.75,2292.822,6462.9,2292.822,6462.9Z" transform="translate(-2284.12 -6462.902)" fill="#ff651f"/>
        <path id="Path_48838" data-name="Path 48838" d="M2325.067,6868.04h-.088l-4.269.036a5.813,5.813,0,0,0,2.006,1.647l2.277-.021h.088l1.988-.018c.8-.292,1.733-1.679,1.733-1.679Z" transform="translate(-2315.892 -6848.529)" fill="#0051c4"/>
        <path id="Path_48839" data-name="Path 48839" d="M2365.551,6904.194l-4.215.036-.011-1.22,4.216-.036Z" transform="translate(-2354.553 -6881.815)" fill="#e46400"/>
        <path id="Path_48840" data-name="Path 48840" d="M2374.109,6928.988l-3.329.03-.005-.572,3.329-.028Z" transform="translate(-2363.549 -6906.035)" fill="#c0003b"/>
        <path id="Path_48841" data-name="Path 48841" d="M2224.664,6736.406l-4.166,5.931,5.79-.252Z" transform="translate(-2220.498 -6723.255)" fill="#ffea50"/>
        <path id="Path_48842" data-name="Path 48842" d="M2462.479,6726.328l4.269,5.858-5.794-.152Z" transform="translate(-2449.392 -6713.662)" fill="#ffea50"/>
        <g id="Group_179169" data-name="Group 179169" transform="translate(0.059 23.245)">
          <path id="Path_48843" data-name="Path 48843" d="M2344.947,6961.692s-.015,9.776-1,13.446l6.115-.173s-1.544-9.677-1.332-13.183Z" transform="translate(-2338.075 -6960.955)" fill="#dbdbdb"/>
          <path id="Path_48844" data-name="Path 48844" d="M2368.609,6947.4s.914,6.458.3,9.013a33.631,33.631,0,0,0-.769,5.157l3.8-.562s-1.7-11.252-.8-13.608S2368.609,6947.4,2368.609,6947.4Z" transform="translate(-2361.099 -6946.352)" fill="#cececc"/>
          <g id="Group_179168" data-name="Group 179168" transform="translate(0 10.401)">
            <g id="Group_179165" data-name="Group 179165" transform="translate(3.065)">
              <path id="Path_48845" data-name="Path 48845" d="M2295.015,7165.271a1.543,1.543,0,0,0-.352.041,3.175,3.175,0,0,0-2.925-2.642,2.925,2.925,0,0,0-2.485,1.537,2.648,2.648,0,0,0-1.16-.267,2.6,2.6,0,0,0-2.615,2.585,2.552,2.552,0,0,0,.069.591h10.946a1.525,1.525,0,0,0,.039-.343A1.509,1.509,0,0,0,2295.015,7165.271Z" transform="translate(-2285.479 -7162.669)" fill="#efefef"/>
            </g>
            <g id="Group_179166" data-name="Group 179166" transform="translate(0 2.593)">
              <path id="Path_48846" data-name="Path 48846" d="M2231.267,7219.2a1.491,1.491,0,0,0-.352.042,3.176,3.176,0,0,0-2.925-2.643,2.926,2.926,0,0,0-2.485,1.537,2.651,2.651,0,0,0-1.159-.267,2.583,2.583,0,0,0-2.546,3.176h10.946a1.5,1.5,0,0,0-1.479-1.845Z" transform="translate(-2221.731 -7216.602)" fill="#d8d8d8"/>
            </g>
            <g id="Group_179167" data-name="Group 179167" transform="translate(6.617 2.593)">
              <path id="Path_48847" data-name="Path 48847" d="M2360.873,7219.2a1.49,1.49,0,0,1,.352.042,3.176,3.176,0,0,1,2.925-2.643,2.926,2.926,0,0,1,2.485,1.537,2.651,2.651,0,0,1,1.159-.267,2.6,2.6,0,0,1,2.615,2.585,2.551,2.551,0,0,1-.07.591h-10.946a1.5,1.5,0,0,1,1.479-1.845Z" transform="translate(-2359.355 -7216.602)" fill="#eaeaea"/>
            </g>
          </g>
        </g>
        <path id="Path_48848" data-name="Path 48848" d="M2353.552,6465.929a2.615,2.615,0,1,0-5.156.045Z" transform="translate(-2342.245 -6462.902)" fill="#ff2c0d"/>
        <path id="Path_48849" data-name="Path 48849" d="M2350.095,6944.977l1.378-2.437,1.38-2.437-2.8.023-2.8.026,1.421,2.412Z" transform="translate(-2341.157 -6917.158)" fill="#ff1a2c"/>
        <path id="Path_48850" data-name="Path 48850" d="M2363.239,6943.676l1.018-1.711,1.019-1.71-2.066.017-2.066.019,1.047,1.693Z" transform="translate(-2354.38 -6917.302)" fill="#ff2c4d"/>
        <path id="Path_48851" data-name="Path 48851" d="M2375.689,6942l.7-.819.7-.819-1.408.012-1.407.013.711.807Z" transform="translate(-2366.874 -6917.4)" fill="#ffd74c"/>
        <path id="Path_48852" data-name="Path 48852" d="M2402.644,6465.929h0a17.645,17.645,0,0,0-2.476-2.911l0-.006-.106-.094-.008-.006-.01-.01-.011.01-.007.006-.055.051.241,27.637.067.115,1.378-2.437,1.38-2.437-.8.007-.334,0-.006-.57.443,0-.01-1.219.191,0c.8-.292,1.732-1.679,1.732-1.679h.013q.229-.535.42-1.059l4.012.106-3.046-4.179A16.666,16.666,0,0,0,2402.644,6465.929Z" transform="translate(-2391.338 -6462.902)" opacity="0.2"/>
      </g>
      <g id="Button" transform="translate(1919.447 6496.903)">
        <path id="Path_48853" data-name="Path 48853" d="M2328.237,7174.21a4.186,4.186,0,1,1-4.186-4.186A4.186,4.186,0,0,1,2328.237,7174.21Z" transform="translate(-2319.866 -7170.024)" fill="#0b2e44"/>
        <circle id="Ellipse_827" data-name="Ellipse 827" cx="3.108" cy="3.108" r="3.108" transform="matrix(0.23, -0.973, 0.973, 0.23, 0.446, 6.497)" fill="#bababa"/>
        <path id="Path_48854" data-name="Path 48854" d="M2367.883,7215.963a2.077,2.077,0,1,1-2.077-2.077A2.077,2.077,0,0,1,2367.883,7215.963Z" transform="translate(-2361.621 -7211.777)" fill="#0b2e44"/>
      </g>
      <g id="Push" transform="translate(1919.111 6500.776)">
        <path id="Path_48855" data-name="Path 48855" d="M2312.871,7261.02l.042,6.17a30.68,30.68,0,0,1,3.479,4.134,4.654,4.654,0,0,0,2.361,1.988h8.821s2.174-.622,2.236-3.6v-10.125s-1.325-2.541-2.609,0h-.807v-1.554s-1.553-2.422-2.92,0v1.429h-.808v-2.505s-1.553-2.691-2.857,0v2.505h-.87v-7.579s-1.367-2.919-2.733,0V7266.8a2.939,2.939,0,0,1-.632-1.242l-.238-2.927S2314.611,7259.639,2312.871,7261.02Z" transform="translate(-2312.871 -7250.584)" fill="#f9b946"/>
        <path id="Path_48856" data-name="Path 48856" d="M2383.139,7252.728a2.471,2.471,0,0,0-.932,1.194v15.1l.932-.035Z" transform="translate(-2378.873 -7252.624)" opacity="0.1"/>
        <path id="Path_48857" data-name="Path 48857" d="M2436.316,7275.186a3.848,3.848,0,0,0-.294.512v2.5h-.87v-7.579a3.5,3.5,0,0,0-.2-.351v8.309h1.362Z" transform="translate(-2429.084 -7269.327)" opacity="0.1"/>
        <path id="Path_48858" data-name="Path 48858" d="M2511.745,7375.6c-.064.091-.128.191-.191.3v1.429h-.807v-2.5a3.549,3.549,0,0,0-.294-.417v3.1h1.293Z" transform="translate(-2500.952 -7368.46)" opacity="0.1"/>
        <path id="Path_48859" data-name="Path 48859" d="M2589.916,7400.575h-.807v-1.553a3.221,3.221,0,0,0-.251-.326v2.134h1.328v-.713A3.954,3.954,0,0,0,2589.916,7400.575Z" transform="translate(-2575.587 -7391.575)" opacity="0.1"/>
        <path id="Path_48860" data-name="Path 48860" d="M2313.452,7472.379c-.062-.776-.557-.87-.558-.87l.01,1.521h.548Z" transform="translate(-2312.893 -7460.887)" fill="#fff" opacity="0.4"/>
        <path id="Path_48861" data-name="Path 48861" d="M2393.972,7262.069a.917.917,0,0,0-.827.986h1.654A.917.917,0,0,0,2393.972,7262.069Z" transform="translate(-2389.285 -7261.517)" fill="#fff" opacity="0.5"/>
      </g>
    </g>
  </g>
</svg>
