<svg xmlns="http://www.w3.org/2000/svg" width="78.468" height="78.468" viewBox="0 0 78.468 78.468">
  <g id="Group_181633" data-name="Group 181633" transform="translate(-859.542 -3217)">
    <circle id="Ellipse_889" data-name="Ellipse 889" cx="39.234" cy="39.234" r="39.234" transform="translate(859.542 3217)" fill="#4564ad" opacity="0.3"/>
    <g id="Design_Web" data-name="Design Web" transform="translate(-4143.679 1517.529)">
      <g id="Web" transform="translate(5037.333 1722.788)">
        <path id="Path_48509" data-name="Path 48509" d="M5617.39,2080.562a1.021,1.021,0,0,1-1.021,1.021h-24.6a1.022,1.022,0,0,1-1.021-1.021v-18.135a1.022,1.022,0,0,1,1.021-1.021h24.6a1.021,1.021,0,0,1,1.021,1.021Z" transform="translate(-5590.742 -2061.406)" fill="#ddd"/>
        <path id="Path_48510" data-name="Path 48510" d="M5616.368,2061.406h-24.6a1.022,1.022,0,0,0-1.021,1.021v3.959h26.648v-3.959A1.021,1.021,0,0,0,5616.368,2061.406Z" transform="translate(-5590.742 -2061.406)" fill="#e74c3c"/>
        <path id="Path_48511" data-name="Path 48511" d="M6079.746,2070.98a.511.511,0,1,1-.512-.511A.511.511,0,0,1,6079.746,2070.98Z" transform="translate(-6057.326 -2070.072)" fill="#ff614f"/>
        <path id="Path_48512" data-name="Path 48512" d="M6118.249,2070.98a.511.511,0,1,1-.511-.511A.511.511,0,0,1,6118.249,2070.98Z" transform="translate(-6094.142 -2070.072)" fill="#0e78c1"/>
        <path id="Path_48513" data-name="Path 48513" d="M6158.378,2070.98a.511.511,0,1,1-.511-.511A.511.511,0,0,1,6158.378,2070.98Z" transform="translate(-6132.51 -2070.072)" fill="#f1c40f"/>
        <path id="Path_48514" data-name="Path 48514" d="M5672.935,2082.913a.791.791,0,0,1-.79.791h-15.574a.791.791,0,0,1-.791-.791h0a.791.791,0,0,1,.791-.791h15.574a.79.79,0,0,1,.79.791Z" transform="translate(-5652.929 -2081.214)" fill="#e2e1e0"/>
        <rect id="Rectangle_163171" data-name="Rectangle 163171" width="15.892" height="8.06" transform="translate(1.319 5.917)" fill="#ededed"/>
        <rect id="Rectangle_163172" data-name="Rectangle 163172" width="24.037" height="1.475" transform="translate(1.319 15.453)" fill="#f1c40f" opacity="0.7"/>
        <rect id="Rectangle_163173" data-name="Rectangle 163173" width="24.037" height="1.476" transform="translate(1.305 17.609)" fill="#f1c40f" opacity="0.7"/>
        <path id="Path_48515" data-name="Path 48515" d="M5907.21,2061.406h-12.288v20.177h12.288a1.021,1.021,0,0,0,1.021-1.021v-18.135A1.021,1.021,0,0,0,5907.21,2061.406Z" transform="translate(-5881.584 -2061.406)" opacity="0.06"/>
      </g>
      <g id="Line" transform="translate(5015.634 1721.758)">
        <path id="Path_48516" data-name="Path 48516" d="M5095.872,2037.9v29.083h21.05v-24.194l-4.68-4.889Z" transform="translate(-5095.872 -2037.903)" fill="#69f7dc"/>
        <path id="Path_48517" data-name="Path 48517" d="M5471.2,2103.776l4.751,4.751v-4.751l-3.444-1.94Z" transform="translate(-5454.74 -2099.033)" opacity="0.1"/>
        <path id="Path_48518" data-name="Path 48518" d="M5473.873,2042.792l-4.681.073V2037.9Z" transform="translate(-5452.823 -2037.903)" fill="#f2f2f2"/>
        <path id="Path_48519" data-name="Path 48519" d="M5223.125,2241.622l1.29.953.953-1.29-1.29-.953Zm1.882-.282-.646.874-.875-.646.646-.874Z" transform="translate(-5217.545 -2231.456)" fill="#033d6d"/>
        <path id="Path_48520" data-name="Path 48520" d="M5382.564,2359.389l1.291.953.953-1.291-1.29-.953Zm1.882-.282-.646.874-.874-.646.646-.874Z" transform="translate(-5369.994 -2344.058)" fill="#033d6d"/>
        <g id="Group_179124" data-name="Group 179124" transform="translate(5.655 8.027)">
          <path id="Path_48521" data-name="Path 48521" d="M5232.211,2284.15a4.134,4.134,0,0,1-6.525-4.82l-.362-.267a4.576,4.576,0,0,0,7.248,5.354Z" transform="translate(-5224.847 -2276.516)" fill="#1e1e1e"/>
          <path id="Path_48522" data-name="Path 48522" d="M5257.454,2222.227l.361.267a4.135,4.135,0,0,1,6.525,4.82l.362.267a4.576,4.576,0,0,0-7.249-5.354Z" transform="translate(-5256.024 -2220.97)" fill="#1e1e1e"/>
        </g>
      </g>
      <g id="Keyboard" transform="translate(5023.714 1743.747)">
        <rect id="Rectangle_163174" data-name="Rectangle 163174" width="34.998" height="13.17" transform="translate(0)" fill="#ddd"/>
        <g id="Keyboard-2" data-name="Keyboard" transform="translate(1.735 1.625)" opacity="0.3">
          <path id="Path_48523" data-name="Path 48523" d="M5319.888,2576.445h1.553a.2.2,0,0,1,.164.215v1.673c0,.118-.072.216-.164.216h-1.553a.2.2,0,0,1-.168-.216v-1.673a.2.2,0,0,1,.168-.215Z" transform="translate(-5319.72 -2576.445)" fill="#333" fill-rule="evenodd"/>
          <path id="Path_48524" data-name="Path 48524" d="M5377.349,2576.445h1.553a.2.2,0,0,1,.168.215v1.673a.2.2,0,0,1-.168.216h-1.553a.2.2,0,0,1-.168-.216v-1.673a.2.2,0,0,1,.168-.215Z" transform="translate(-5374.661 -2576.445)" fill="#333" fill-rule="evenodd"/>
          <path id="Path_48525" data-name="Path 48525" d="M5434.881,2576.445h1.55a.2.2,0,0,1,.168.215v1.673a.2.2,0,0,1-.168.216h-1.55a.2.2,0,0,1-.168-.216v-1.673a.2.2,0,0,1,.168-.215Z" transform="translate(-5429.67 -2576.445)" fill="#333" fill-rule="evenodd"/>
          <path id="Path_48526" data-name="Path 48526" d="M5492.355,2576.445h1.55a.2.2,0,0,1,.168.215v1.673a.2.2,0,0,1-.168.216h-1.55a.2.2,0,0,1-.168-.216v-1.673a.2.2,0,0,1,.168-.215Z" transform="translate(-5484.625 -2576.445)" fill="#333" fill-rule="evenodd"/>
          <path id="Path_48527" data-name="Path 48527" d="M5549.821,2576.445h1.553a.2.2,0,0,1,.167.215v1.673a.2.2,0,0,1-.167.216h-1.553a.2.2,0,0,1-.168-.216v-1.673a.2.2,0,0,1,.168-.215Z" transform="translate(-5539.571 -2576.445)" fill="#333" fill-rule="evenodd"/>
          <path id="Path_48528" data-name="Path 48528" d="M5607.356,2576.445h1.55a.2.2,0,0,1,.167.215v1.673a.2.2,0,0,1-.167.216h-1.55a.2.2,0,0,1-.167-.216v-1.673a.2.2,0,0,1,.167-.215Z" transform="translate(-5594.583 -2576.445)" fill="#333" fill-rule="evenodd"/>
          <path id="Path_48529" data-name="Path 48529" d="M5664.829,2576.445h1.549a.2.2,0,0,1,.168.215v1.673a.2.2,0,0,1-.168.216h-1.549a.2.2,0,0,1-.168-.216v-1.673a.2.2,0,0,1,.168-.215Z" transform="translate(-5649.536 -2576.445)" fill="#333" fill-rule="evenodd"/>
          <path id="Path_48530" data-name="Path 48530" d="M5722.289,2576.445h1.555a.2.2,0,0,1,.167.215v1.673a.2.2,0,0,1-.167.216h-1.555a.2.2,0,0,1-.167-.216v-1.673a.2.2,0,0,1,.167-.215Z" transform="translate(-5704.477 -2576.445)" fill="#333" fill-rule="evenodd"/>
          <path id="Path_48531" data-name="Path 48531" d="M5779.829,2576.445h1.549a.2.2,0,0,1,.169.215v1.673a.2.2,0,0,1-.169.216h-1.549a.2.2,0,0,1-.168-.216v-1.673a.2.2,0,0,1,.168-.215Z" transform="translate(-5759.493 -2576.445)" fill="#333" fill-rule="evenodd"/>
          <path id="Path_48532" data-name="Path 48532" d="M5837.29,2576.445h1.55a.2.2,0,0,1,.168.215v1.673a.2.2,0,0,1-.168.216h-1.55a.2.2,0,0,1-.168-.216v-1.673a.2.2,0,0,1,.168-.215Z" transform="translate(-5814.434 -2576.445)" fill="#333" fill-rule="evenodd"/>
          <path id="Path_48533" data-name="Path 48533" d="M5894.764,2576.445h1.554a.2.2,0,0,1,.167.215v1.673a.2.2,0,0,1-.167.216h-1.554a.2.2,0,0,1-.168-.216v-1.673a.2.2,0,0,1,.168-.215Z" transform="translate(-5869.388 -2576.445)" fill="#333" fill-rule="evenodd"/>
          <path id="Path_48534" data-name="Path 48534" d="M5406.2,2643.066h1.55a.2.2,0,0,1,.168.216v1.673a.2.2,0,0,1-.168.216h-1.55a.2.2,0,0,1-.168-.216v-1.673a.2.2,0,0,1,.168-.216Z" transform="translate(-5402.244 -2640.145)" fill="#333" fill-rule="evenodd"/>
          <path id="Path_48535" data-name="Path 48535" d="M5463.656,2643.066h1.553a.2.2,0,0,1,.169.216v1.673a.2.2,0,0,1-.169.216h-1.553a.2.2,0,0,1-.168-.216v-1.673a.2.2,0,0,1,.168-.216Z" transform="translate(-5457.184 -2640.145)" fill="#333" fill-rule="evenodd"/>
          <path id="Path_48536" data-name="Path 48536" d="M5521.192,2643.066h1.553a.2.2,0,0,1,.168.216v1.673a.2.2,0,0,1-.168.216h-1.553a.2.2,0,0,1-.165-.216v-1.673a.2.2,0,0,1,.165-.216Z" transform="translate(-5512.2 -2640.145)" fill="#333" fill-rule="evenodd"/>
          <path id="Path_48537" data-name="Path 48537" d="M5578.664,2643.066h1.55a.2.2,0,0,1,.168.216v1.673a.2.2,0,0,1-.168.216h-1.55a.2.2,0,0,1-.167-.216v-1.673a.2.2,0,0,1,.167-.216Z" transform="translate(-5567.149 -2640.145)" fill="#333" fill-rule="evenodd"/>
          <path id="Path_48538" data-name="Path 48538" d="M5636.137,2643.066h1.553a.2.2,0,0,1,.165.216v1.673a.2.2,0,0,1-.165.216h-1.553a.2.2,0,0,1-.167-.216v-1.673a.2.2,0,0,1,.167-.216Z" transform="translate(-5622.102 -2640.145)" fill="#333" fill-rule="evenodd"/>
          <path id="Path_48539" data-name="Path 48539" d="M5693.592,2643.066h1.554a.2.2,0,0,1,.168.216v1.673a.2.2,0,0,1-.168.216h-1.554a.2.2,0,0,1-.168-.216v-1.673a.2.2,0,0,1,.168-.216Z" transform="translate(-5677.038 -2640.145)" fill="#333" fill-rule="evenodd"/>
          <path id="Path_48540" data-name="Path 48540" d="M5751.13,2643.066h1.55a.2.2,0,0,1,.167.216v1.673a.2.2,0,0,1-.167.216h-1.55a.2.2,0,0,1-.167-.216v-1.673a.2.2,0,0,1,.167-.216Z" transform="translate(-5732.053 -2640.145)" fill="#333" fill-rule="evenodd"/>
          <path id="Path_48541" data-name="Path 48541" d="M5808.6,2643.066h1.553a.2.2,0,0,1,.165.216v1.673a.2.2,0,0,1-.165.216H5808.6a.2.2,0,0,1-.168-.216v-1.673a.2.2,0,0,1,.168-.216Z" transform="translate(-5787.001 -2640.145)" fill="#333" fill-rule="evenodd"/>
          <path id="Path_48542" data-name="Path 48542" d="M5866.053,2643.066h1.554a.2.2,0,0,1,.167.216v1.673a.2.2,0,0,1-.167.216h-1.554a.2.2,0,0,1-.168-.216v-1.673a.2.2,0,0,1,.168-.216Z" transform="translate(-5841.936 -2640.145)" fill="#333" fill-rule="evenodd"/>
          <path id="Path_48543" data-name="Path 48543" d="M5923.6,2643.066h1.551a.2.2,0,0,1,.167.216v1.673a.2.2,0,0,1-.167.216H5923.6a.2.2,0,0,1-.168-.216v-1.673a.2.2,0,0,1,.168-.216Z" transform="translate(-5896.958 -2640.145)" fill="#333" fill-rule="evenodd"/>
          <path id="Path_48544" data-name="Path 48544" d="M5952.291,2576.445h1.549a.2.2,0,0,1,.168.215v1.673a.2.2,0,0,1-.168.216h-1.549a.2.2,0,0,1-.169-.216v-1.673a.2.2,0,0,1,.169-.215Z" transform="translate(-5924.392 -2576.445)" fill="#333" fill-rule="evenodd"/>
          <path id="Path_48545" data-name="Path 48545" d="M6009.764,2576.445h1.549a.2.2,0,0,1,.168.215v1.673a.2.2,0,0,1-.168.216h-1.549a.2.2,0,0,1-.168-.216v-1.673a.2.2,0,0,1,.168-.215Z" transform="translate(-5979.345 -2576.445)" fill="#333" fill-rule="evenodd"/>
          <path id="Path_48546" data-name="Path 48546" d="M5982,2643.066h2.768a.2.2,0,0,1,.168.216v1.673a.2.2,0,0,1-.168.216H5982a.2.2,0,0,1-.168-.216v-1.673a.2.2,0,0,1,.168-.216Z" transform="translate(-5952.796 -2640.145)" fill="#333" fill-rule="evenodd"/>
          <path id="Path_48547" data-name="Path 48547" d="M5320.467,2643.066h2.872a.2.2,0,0,1,.167.216v1.673a.2.2,0,0,1-.167.216h-2.872a.2.2,0,0,1-.168-.216v-1.673a.2.2,0,0,1,.168-.216Z" transform="translate(-5320.273 -2640.145)" fill="#333" fill-rule="evenodd"/>
          <path id="Path_48548" data-name="Path 48548" d="M5320.467,2709.674h3.43a.2.2,0,0,1,.167.216v1.673a.2.2,0,0,1-.167.216h-3.43a.2.2,0,0,1-.168-.216v-1.673a.2.2,0,0,1,.168-.216Z" transform="translate(-5320.273 -2703.832)" fill="#333" fill-rule="evenodd"/>
          <path id="Path_48549" data-name="Path 48549" d="M5320.467,2776.295h1.547a.2.2,0,0,1,.167.216v1.673a.2.2,0,0,1-.167.216h-1.547a.2.2,0,0,1-.168-.216v-1.673a.2.2,0,0,1,.168-.216Z" transform="translate(-5320.273 -2767.531)" fill="#333" fill-rule="evenodd"/>
          <path id="Path_48550" data-name="Path 48550" d="M5377.857,2776.295h1.547a.2.2,0,0,1,.168.216v1.673a.2.2,0,0,1-.168.216h-1.547a.2.2,0,0,1-.168-.216v-1.673a.2.2,0,0,1,.168-.216Z" transform="translate(-5375.147 -2767.531)" fill="#333" fill-rule="evenodd"/>
          <path id="Path_48551" data-name="Path 48551" d="M5435.258,2776.295h1.547a.2.2,0,0,1,.168.216v1.673a.2.2,0,0,1-.168.216h-1.547a.2.2,0,0,1-.167-.216v-1.673a.2.2,0,0,1,.167-.216Z" transform="translate(-5430.032 -2767.531)" fill="#333" fill-rule="evenodd"/>
          <path id="Path_48552" data-name="Path 48552" d="M5492.643,2776.295h16.117a.2.2,0,0,1,.168.216v1.673a.2.2,0,0,1-.168.216h-16.117a.2.2,0,0,1-.168-.216v-1.673a.2.2,0,0,1,.168-.216Z" transform="translate(-5484.899 -2767.531)" fill="#333" fill-rule="evenodd"/>
          <path id="Path_48553" data-name="Path 48553" d="M5419.92,2710.325h1.55a.2.2,0,0,1,.168.216v1.673a.2.2,0,0,1-.168.216h-1.55a.2.2,0,0,1-.168-.216v-1.673a.2.2,0,0,1,.168-.216Z" transform="translate(-5415.366 -2704.455)" fill="#333" fill-rule="evenodd"/>
          <path id="Path_48554" data-name="Path 48554" d="M5477.395,2710.325h1.553a.2.2,0,0,1,.168.216v1.673a.2.2,0,0,1-.168.216h-1.553a.2.2,0,0,1-.168-.216v-1.673a.2.2,0,0,1,.168-.216Z" transform="translate(-5470.32 -2704.455)" fill="#333" fill-rule="evenodd"/>
          <path id="Path_48555" data-name="Path 48555" d="M5534.924,2710.325h1.553a.2.2,0,0,1,.168.216v1.673a.2.2,0,0,1-.168.216h-1.553a.2.2,0,0,1-.165-.216v-1.673a.2.2,0,0,1,.165-.216Z" transform="translate(-5525.33 -2704.455)" fill="#333" fill-rule="evenodd"/>
          <path id="Path_48556" data-name="Path 48556" d="M5592.395,2710.325h1.55a.2.2,0,0,1,.168.216v1.673a.2.2,0,0,1-.168.216h-1.55a.2.2,0,0,1-.168-.216v-1.673a.2.2,0,0,1,.168-.216Z" transform="translate(-5580.277 -2704.455)" fill="#333" fill-rule="evenodd"/>
          <path id="Path_48557" data-name="Path 48557" d="M5649.86,2710.325h1.554a.2.2,0,0,1,.165.216v1.673a.2.2,0,0,1-.165.216h-1.554a.2.2,0,0,1-.167-.216v-1.673a.2.2,0,0,1,.167-.216Z" transform="translate(-5635.224 -2704.455)" fill="#333" fill-rule="evenodd"/>
          <path id="Path_48558" data-name="Path 48558" d="M5707.329,2710.325h1.553a.2.2,0,0,1,.168.216v1.673a.2.2,0,0,1-.168.216h-1.553a.2.2,0,0,1-.167-.216v-1.673a.2.2,0,0,1,.167-.216Z" transform="translate(-5690.172 -2704.455)" fill="#333" fill-rule="evenodd"/>
          <path id="Path_48559" data-name="Path 48559" d="M5764.861,2710.325h1.55a.2.2,0,0,1,.168.216v1.673a.2.2,0,0,1-.168.216h-1.55a.2.2,0,0,1-.168-.216v-1.673a.2.2,0,0,1,.168-.216Z" transform="translate(-5745.181 -2704.455)" fill="#333" fill-rule="evenodd"/>
          <path id="Path_48560" data-name="Path 48560" d="M5822.329,2710.325h1.553a.2.2,0,0,1,.165.216v1.673a.2.2,0,0,1-.165.216h-1.553a.2.2,0,0,1-.168-.216v-1.673a.2.2,0,0,1,.168-.216Z" transform="translate(-5800.129 -2704.455)" fill="#333" fill-rule="evenodd"/>
          <path id="Path_48561" data-name="Path 48561" d="M5879.8,2710.325h2.887a.2.2,0,0,1,.168.216v1.673a.2.2,0,0,1-.168.216H5879.8a.2.2,0,0,1-.168-.216v-1.673a.2.2,0,0,1,.168-.216Z" transform="translate(-5855.083 -2704.455)" fill="#333" fill-rule="evenodd"/>
          <path id="Path_48562" data-name="Path 48562" d="M5966.469,2709.674h3.433a.2.2,0,0,1,.167.216v1.673a.2.2,0,0,1-.167.216h-3.433a.2.2,0,0,1-.168-.216v-1.673a.2.2,0,0,1,.168-.216Z" transform="translate(-5937.949 -2703.832)" fill="#333" fill-rule="evenodd"/>
          <path id="Path_48563" data-name="Path 48563" d="M5975.9,2776.295h1.293a.068.068,0,0,1,.06.073v.58a.069.069,0,0,1-.06.073H5975.9a.067.067,0,0,1-.057-.073v-.58a.066.066,0,0,1,.057-.073Z" transform="translate(-5947.075 -2767.531)" fill="#333" fill-rule="evenodd"/>
          <path id="Path_48564" data-name="Path 48564" d="M5975.9,2805.045h1.293a.069.069,0,0,1,.06.074v.575a.069.069,0,0,1-.06.073H5975.9a.067.067,0,0,1-.057-.073v-.575a.067.067,0,0,1,.057-.074Z" transform="translate(-5947.075 -2795.021)" fill="#333" fill-rule="evenodd"/>
          <path id="Path_48565" data-name="Path 48565" d="M5932.16,2805.045h1.293a.069.069,0,0,1,.06.074v.575a.069.069,0,0,1-.06.073h-1.293a.067.067,0,0,1-.057-.073v-.575a.067.067,0,0,1,.057-.074Z" transform="translate(-5905.25 -2795.021)" fill="#333" fill-rule="evenodd"/>
          <path id="Path_48566" data-name="Path 48566" d="M6019.476,2805.045h1.293a.067.067,0,0,1,.057.074v.575a.067.067,0,0,1-.057.073h-1.293a.07.07,0,0,1-.062-.073v-.575a.069.069,0,0,1,.062-.074Z" transform="translate(-5988.733 -2795.021)" fill="#333" fill-rule="evenodd"/>
          <path id="Path_48567" data-name="Path 48567" d="M5878.423,2776.295h1.553a.2.2,0,0,1,.168.216v1.673a.2.2,0,0,1-.168.216h-1.553a.2.2,0,0,1-.168-.216v-1.673a.2.2,0,0,1,.168-.216Z" transform="translate(-5853.764 -2767.531)" fill="#333" fill-rule="evenodd"/>
        </g>
        <g id="Keyboard-3" data-name="Keyboard" transform="translate(1.557 1.391)">
          <path id="Path_48568" data-name="Path 48568" d="M5315.832,2571.12h1.553a.2.2,0,0,1,.165.216v1.673a.2.2,0,0,1-.165.216h-1.553a.2.2,0,0,1-.168-.216v-1.673a.2.2,0,0,1,.168-.216Z" transform="translate(-5315.664 -2571.12)" fill="#333" fill-rule="evenodd"/>
          <path id="Path_48569" data-name="Path 48569" d="M5373.293,2571.12h1.553a.2.2,0,0,1,.168.216v1.673a.2.2,0,0,1-.168.216h-1.553a.2.2,0,0,1-.168-.216v-1.673a.2.2,0,0,1,.168-.216Z" transform="translate(-5370.605 -2571.12)" fill="#333" fill-rule="evenodd"/>
          <path id="Path_48570" data-name="Path 48570" d="M5430.833,2571.12h1.549a.2.2,0,0,1,.168.216v1.673a.2.2,0,0,1-.168.216h-1.549a.2.2,0,0,1-.168-.216v-1.673a.2.2,0,0,1,.168-.216Z" transform="translate(-5425.621 -2571.12)" fill="#333" fill-rule="evenodd"/>
          <path id="Path_48571" data-name="Path 48571" d="M5488.305,2571.12h1.551a.2.2,0,0,1,.167.216v1.673a.2.2,0,0,1-.167.216h-1.551a.2.2,0,0,1-.168-.216v-1.673a.2.2,0,0,1,.168-.216Z" transform="translate(-5480.575 -2571.12)" fill="#333" fill-rule="evenodd"/>
          <path id="Path_48572" data-name="Path 48572" d="M5545.768,2571.12h1.552a.2.2,0,0,1,.167.216v1.673a.2.2,0,0,1-.167.216h-1.552a.2.2,0,0,1-.169-.216v-1.673a.2.2,0,0,1,.169-.216Z" transform="translate(-5535.516 -2571.12)" fill="#333" fill-rule="evenodd"/>
          <path id="Path_48573" data-name="Path 48573" d="M5603.3,2571.12h1.55a.2.2,0,0,1,.167.216v1.673a.2.2,0,0,1-.167.216h-1.55a.2.2,0,0,1-.168-.216v-1.673a.2.2,0,0,1,.168-.216Z" transform="translate(-5590.525 -2571.12)" fill="#333" fill-rule="evenodd"/>
          <path id="Path_48574" data-name="Path 48574" d="M5660.773,2571.12h1.551a.2.2,0,0,1,.167.216v1.673a.2.2,0,0,1-.167.216h-1.551a.2.2,0,0,1-.167-.216v-1.673a.2.2,0,0,1,.167-.216Z" transform="translate(-5645.48 -2571.12)" fill="#333" fill-rule="evenodd"/>
          <path id="Path_48575" data-name="Path 48575" d="M5718.239,2571.12h1.554a.2.2,0,0,1,.167.216v1.673a.2.2,0,0,1-.167.216h-1.554a.2.2,0,0,1-.168-.216v-1.673a.2.2,0,0,1,.168-.216Z" transform="translate(-5700.426 -2571.12)" fill="#333" fill-rule="evenodd"/>
          <path id="Path_48576" data-name="Path 48576" d="M5775.767,2571.12h1.55a.2.2,0,0,1,.168.216v1.673a.2.2,0,0,1-.168.216h-1.55a.2.2,0,0,1-.168-.216v-1.673a.2.2,0,0,1,.168-.216Z" transform="translate(-5755.431 -2571.12)" fill="#333" fill-rule="evenodd"/>
          <path id="Path_48577" data-name="Path 48577" d="M5833.234,2571.12h1.549a.2.2,0,0,1,.168.216v1.673a.2.2,0,0,1-.168.216h-1.549a.2.2,0,0,1-.168-.216v-1.673a.2.2,0,0,1,.168-.216Z" transform="translate(-5810.377 -2571.12)" fill="#333" fill-rule="evenodd"/>
          <path id="Path_48578" data-name="Path 48578" d="M5890.707,2571.12h1.554a.2.2,0,0,1,.167.216v1.673a.2.2,0,0,1-.167.216h-1.554a.2.2,0,0,1-.167-.216v-1.673a.2.2,0,0,1,.167-.216Z" transform="translate(-5865.332 -2571.12)" fill="#333" fill-rule="evenodd"/>
          <path id="Path_48579" data-name="Path 48579" d="M5402.133,2637.741h1.551a.2.2,0,0,1,.167.216v1.672a.2.2,0,0,1-.167.216h-1.551a.2.2,0,0,1-.167-.216v-1.672a.2.2,0,0,1,.167-.216Z" transform="translate(-5398.182 -2634.82)" fill="#333" fill-rule="evenodd"/>
          <path id="Path_48580" data-name="Path 48580" d="M5459.6,2637.741h1.554a.2.2,0,0,1,.168.216v1.672a.2.2,0,0,1-.168.216H5459.6a.2.2,0,0,1-.168-.216v-1.672a.2.2,0,0,1,.168-.216Z" transform="translate(-5453.129 -2634.82)" fill="#333" fill-rule="evenodd"/>
          <path id="Path_48581" data-name="Path 48581" d="M5517.131,2637.741h1.552a.2.2,0,0,1,.168.216v1.672a.2.2,0,0,1-.168.216h-1.552a.2.2,0,0,1-.166-.216v-1.672a.2.2,0,0,1,.166-.216Z" transform="translate(-5508.139 -2634.82)" fill="#333" fill-rule="evenodd"/>
          <path id="Path_48582" data-name="Path 48582" d="M5574.607,2637.741h1.551a.2.2,0,0,1,.167.216v1.672a.2.2,0,0,1-.167.216h-1.551a.2.2,0,0,1-.167-.216v-1.672a.2.2,0,0,1,.167-.216Z" transform="translate(-5563.092 -2634.82)" fill="#333" fill-rule="evenodd"/>
          <path id="Path_48583" data-name="Path 48583" d="M5632.081,2637.741h1.554a.2.2,0,0,1,.164.216v1.672a.2.2,0,0,1-.164.216h-1.554a.2.2,0,0,1-.167-.216v-1.672a.2.2,0,0,1,.167-.216Z" transform="translate(-5618.046 -2634.82)" fill="#333" fill-rule="evenodd"/>
          <path id="Path_48584" data-name="Path 48584" d="M5689.536,2637.741h1.553a.2.2,0,0,1,.168.216v1.672a.2.2,0,0,1-.168.216h-1.553a.2.2,0,0,1-.168-.216v-1.672a.2.2,0,0,1,.168-.216Z" transform="translate(-5672.982 -2634.82)" fill="#333" fill-rule="evenodd"/>
          <path id="Path_48585" data-name="Path 48585" d="M5747.081,2637.741h1.55a.2.2,0,0,1,.168.216v1.672a.2.2,0,0,1-.168.216h-1.55a.2.2,0,0,1-.167-.216v-1.672a.2.2,0,0,1,.167-.216Z" transform="translate(-5728.004 -2634.82)" fill="#333" fill-rule="evenodd"/>
          <path id="Path_48586" data-name="Path 48586" d="M5804.543,2637.741h1.554a.2.2,0,0,1,.164.216v1.672a.2.2,0,0,1-.164.216h-1.554a.2.2,0,0,1-.168-.216v-1.672a.2.2,0,0,1,.168-.216Z" transform="translate(-5782.945 -2634.82)" fill="#333" fill-rule="evenodd"/>
          <path id="Path_48587" data-name="Path 48587" d="M5862,2637.741h1.554a.2.2,0,0,1,.167.216v1.672a.2.2,0,0,1-.167.216H5862a.2.2,0,0,1-.168-.216v-1.672a.2.2,0,0,1,.168-.216Z" transform="translate(-5837.88 -2634.82)" fill="#333" fill-rule="evenodd"/>
          <path id="Path_48588" data-name="Path 48588" d="M5919.543,2637.741h1.55a.2.2,0,0,1,.167.216v1.672a.2.2,0,0,1-.167.216h-1.55a.2.2,0,0,1-.168-.216v-1.672a.2.2,0,0,1,.168-.216Z" transform="translate(-5892.903 -2634.82)" fill="#333" fill-rule="evenodd"/>
          <path id="Path_48589" data-name="Path 48589" d="M5948.234,2571.12h1.55a.2.2,0,0,1,.167.216v1.673a.2.2,0,0,1-.167.216h-1.55a.2.2,0,0,1-.168-.216v-1.673a.2.2,0,0,1,.168-.216Z" transform="translate(-5920.335 -2571.12)" fill="#333" fill-rule="evenodd"/>
          <path id="Path_48590" data-name="Path 48590" d="M6005.707,2571.12h1.551a.2.2,0,0,1,.167.216v1.673a.2.2,0,0,1-.167.216h-1.551a.2.2,0,0,1-.167-.216v-1.673a.2.2,0,0,1,.167-.216Z" transform="translate(-5975.29 -2571.12)" fill="#333" fill-rule="evenodd"/>
          <path id="Path_48591" data-name="Path 48591" d="M5977.941,2637.741h2.767a.2.2,0,0,1,.168.216v1.672a.2.2,0,0,1-.168.216h-2.767a.2.2,0,0,1-.169-.216v-1.672a.2.2,0,0,1,.169-.216Z" transform="translate(-5948.74 -2634.82)" fill="#333" fill-rule="evenodd"/>
          <path id="Path_48592" data-name="Path 48592" d="M5316.411,2637.741h2.872a.2.2,0,0,1,.167.216v1.672a.2.2,0,0,1-.167.216h-2.872a.2.2,0,0,1-.168-.216v-1.672a.2.2,0,0,1,.168-.216Z" transform="translate(-5316.218 -2634.82)" fill="#333" fill-rule="evenodd"/>
          <path id="Path_48593" data-name="Path 48593" d="M5316.411,2704.349h3.43a.2.2,0,0,1,.168.216v1.673a.2.2,0,0,1-.168.216h-3.43a.2.2,0,0,1-.168-.216v-1.673a.2.2,0,0,1,.168-.216Z" transform="translate(-5316.218 -2698.507)" fill="#333" fill-rule="evenodd"/>
          <path id="Path_48594" data-name="Path 48594" d="M5316.411,2770.977h1.547a.2.2,0,0,1,.167.216v1.673a.2.2,0,0,1-.167.217h-1.547a.2.2,0,0,1-.168-.217v-1.673a.2.2,0,0,1,.168-.216Z" transform="translate(-5316.218 -2762.214)" fill="#333" fill-rule="evenodd"/>
          <path id="Path_48595" data-name="Path 48595" d="M5373.8,2770.977h1.546a.2.2,0,0,1,.168.216v1.673a.2.2,0,0,1-.168.217H5373.8a.2.2,0,0,1-.168-.217v-1.673a.2.2,0,0,1,.168-.216Z" transform="translate(-5371.091 -2762.214)" fill="#333" fill-rule="evenodd"/>
          <path id="Path_48596" data-name="Path 48596" d="M5431.2,2770.977h1.546a.2.2,0,0,1,.168.216v1.673a.2.2,0,0,1-.168.217H5431.2a.2.2,0,0,1-.168-.217v-1.673a.2.2,0,0,1,.168-.216Z" transform="translate(-5425.976 -2762.214)" fill="#333" fill-rule="evenodd"/>
          <path id="Path_48597" data-name="Path 48597" d="M5488.592,2770.977h16.117a.2.2,0,0,1,.168.216v1.673a.2.2,0,0,1-.168.217h-16.117a.2.2,0,0,1-.168-.217v-1.673a.2.2,0,0,1,.168-.216Z" transform="translate(-5480.848 -2762.214)" fill="#333" fill-rule="evenodd"/>
          <path id="Path_48598" data-name="Path 48598" d="M5415.863,2705h1.55a.2.2,0,0,1,.168.217v1.672a.2.2,0,0,1-.168.217h-1.55a.2.2,0,0,1-.168-.217v-1.672a.2.2,0,0,1,.168-.217Z" transform="translate(-5411.309 -2699.129)" fill="#333" fill-rule="evenodd"/>
          <path id="Path_48599" data-name="Path 48599" d="M5473.332,2705h1.554a.2.2,0,0,1,.167.217v1.672a.2.2,0,0,1-.167.217h-1.554a.2.2,0,0,1-.167-.217v-1.672a.2.2,0,0,1,.167-.217Z" transform="translate(-5466.258 -2699.129)" fill="#333" fill-rule="evenodd"/>
          <path id="Path_48600" data-name="Path 48600" d="M5530.868,2705h1.553a.2.2,0,0,1,.168.217v1.672a.2.2,0,0,1-.168.217h-1.553a.2.2,0,0,1-.166-.217v-1.672a.2.2,0,0,1,.166-.217Z" transform="translate(-5521.273 -2699.129)" fill="#333" fill-rule="evenodd"/>
          <path id="Path_48601" data-name="Path 48601" d="M5588.333,2705h1.55a.2.2,0,0,1,.168.217v1.672a.2.2,0,0,1-.168.217h-1.55a.2.2,0,0,1-.168-.217v-1.672a.2.2,0,0,1,.168-.217Z" transform="translate(-5576.215 -2699.129)" fill="#333" fill-rule="evenodd"/>
          <path id="Path_48602" data-name="Path 48602" d="M5645.806,2705h1.553a.2.2,0,0,1,.165.217v1.672a.2.2,0,0,1-.165.217h-1.553a.2.2,0,0,1-.168-.217v-1.672a.2.2,0,0,1,.168-.217Z" transform="translate(-5631.168 -2699.129)" fill="#333" fill-rule="evenodd"/>
          <path id="Path_48603" data-name="Path 48603" d="M5703.273,2705h1.553a.2.2,0,0,1,.168.217v1.672a.2.2,0,0,1-.168.217h-1.553a.2.2,0,0,1-.168-.217v-1.672a.2.2,0,0,1,.168-.217Z" transform="translate(-5686.116 -2699.129)" fill="#333" fill-rule="evenodd"/>
          <path id="Path_48604" data-name="Path 48604" d="M5760.806,2705h1.55a.2.2,0,0,1,.168.217v1.672a.2.2,0,0,1-.168.217h-1.55a.2.2,0,0,1-.168-.217v-1.672a.2.2,0,0,1,.168-.217Z" transform="translate(-5741.126 -2699.129)" fill="#333" fill-rule="evenodd"/>
          <path id="Path_48605" data-name="Path 48605" d="M5818.277,2705h1.554a.2.2,0,0,1,.165.217v1.672a.2.2,0,0,1-.165.217h-1.554a.2.2,0,0,1-.167-.217v-1.672a.2.2,0,0,1,.167-.217Z" transform="translate(-5796.079 -2699.129)" fill="#333" fill-rule="evenodd"/>
          <path id="Path_48606" data-name="Path 48606" d="M5875.739,2705h2.888a.2.2,0,0,1,.168.217v1.672a.2.2,0,0,1-.168.217h-2.888a.2.2,0,0,1-.167-.217v-1.672a.2.2,0,0,1,.167-.217Z" transform="translate(-5851.02 -2699.129)" fill="#333" fill-rule="evenodd"/>
          <path id="Path_48607" data-name="Path 48607" d="M5962.413,2704.349h3.434a.2.2,0,0,1,.168.216v1.673a.2.2,0,0,1-.168.216h-3.434a.2.2,0,0,1-.167-.216v-1.673a.2.2,0,0,1,.167-.216Z" transform="translate(-5933.894 -2698.507)" fill="#333" fill-rule="evenodd"/>
          <path id="Path_48608" data-name="Path 48608" d="M5971.846,2770.977h1.293a.068.068,0,0,1,.061.073v.58a.069.069,0,0,1-.061.073h-1.293a.067.067,0,0,1-.057-.073v-.58a.067.067,0,0,1,.057-.073Z" transform="translate(-5943.019 -2762.214)" fill="#333" fill-rule="evenodd"/>
          <path id="Path_48609" data-name="Path 48609" d="M5971.846,2799.727h1.293a.068.068,0,0,1,.061.073v.575a.069.069,0,0,1-.061.073h-1.293a.067.067,0,0,1-.057-.073v-.575a.067.067,0,0,1,.057-.073Z" transform="translate(-5943.019 -2789.703)" fill="#333" fill-rule="evenodd"/>
          <path id="Path_48610" data-name="Path 48610" d="M5928.1,2799.727h1.293a.069.069,0,0,1,.061.073v.575a.069.069,0,0,1-.061.073H5928.1a.067.067,0,0,1-.058-.073v-.575a.066.066,0,0,1,.058-.073Z" transform="translate(-5901.194 -2789.703)" fill="#333" fill-rule="evenodd"/>
          <path id="Path_48611" data-name="Path 48611" d="M6015.424,2799.727h1.293c.031,0,.056.032.056.073v.575c0,.041-.024.073-.056.073h-1.293a.069.069,0,0,1-.061-.073v-.575a.069.069,0,0,1,.061-.073Z" transform="translate(-5984.683 -2789.703)" fill="#333" fill-rule="evenodd"/>
          <path id="Path_48612" data-name="Path 48612" d="M5874.359,2770.977h1.553a.2.2,0,0,1,.168.216v1.673a.2.2,0,0,1-.168.217h-1.553a.2.2,0,0,1-.168-.217v-1.673a.2.2,0,0,1,.168-.216Z" transform="translate(-5849.7 -2762.214)" fill="#333" fill-rule="evenodd"/>
        </g>
      </g>
      <g id="Brush" transform="translate(5040.157 1707.259)">
        <g id="Group_179125" data-name="Group 179125" transform="translate(0 20.595)">
          <path id="Path_48613" data-name="Path 48613" d="M5660.071,2177.12c-2.558-.641-3.279.495-1.415,1.7,1.611,1.042-.731,1.253-.731,1.253-2-.026-3.44,1.734-2.468,3.587a3.963,3.963,0,0,0,4.35,1.592C5663.694,2184.425,5665.253,2178.418,5660.071,2177.12Zm-1.6,5c-.433-.24-.675-.63-.54-.873s.592-.245,1.024-.005.674.629.54.872S5658.907,2182.359,5658.475,2182.12Z" transform="translate(-5655.146 -2176.936)" fill="#ffdc4a" fill-rule="evenodd"/>
          <path id="Path_48614" data-name="Path 48614" d="M5737.844,2319.857c-.2.04-.414-.208-.483-.555s.035-.658.233-.7.415.209.484.555S5738.042,2319.818,5737.844,2319.857Z" transform="translate(-5733.735 -2312.388)" fill="#ff63a4"/>
          <path id="Path_48615" data-name="Path 48615" d="M5794.813,2280.272c-.056.194-.376.272-.716.176s-.569-.333-.514-.528.376-.273.715-.176S5794.867,2280.078,5794.813,2280.272Z" transform="translate(-5787.504 -2275.197)" fill="#00aecb"/>
          <path id="Path_48616" data-name="Path 48616" d="M5790.231,2241.081c-.19.068-.44-.148-.558-.48s-.058-.657.132-.724.439.148.558.481S5790.421,2241.014,5790.231,2241.081Z" transform="translate(-5783.717 -2237.104)" fill="#00f345"/>
          <path id="Path_48617" data-name="Path 48617" d="M5757.73,2196.109c-.18-.09-.2-.42-.04-.735s.432-.5.612-.408.2.42.042.736S5757.911,2196.2,5757.73,2196.109Z" transform="translate(-5753.091 -2194.154)" fill="#ffac13"/>
        </g>
        <g id="Group_179126" data-name="Group 179126" transform="translate(5.199 0)">
          <path id="Path_48618" data-name="Path 48618" d="M5776.271,2190.129a1.816,1.816,0,0,1-.4,2.7,10.077,10.077,0,0,0-1.9,1.644s-1.218-3.775,1.779-4.69l.252-.041Z" transform="translate(-5773.726 -2168.583)" fill="#f9b710" fill-rule="evenodd"/>
          <path id="Path_48619" data-name="Path 48619" d="M5773.9,2194.279a11.31,11.31,0,0,1,2.126-4.481l-.042-.059-.251.041C5773.144,2190.573,5773.706,2193.5,5773.9,2194.279Z" transform="translate(-5773.713 -2168.583)" fill-rule="evenodd" opacity="0.2"/>
          <path id="Path_48620" data-name="Path 48620" d="M5826.68,1707.884c-2.7,2.947-9.638,10.6-12.468,14.44-3.552,4.818-2.016,6.211-2.016,6.211l.182.1.338.245s1.919.836,5.156-4.185c2.58-4,7.221-13.133,9-16.676l.382-.763Z" transform="translate(-5810.191 -1707.259)" fill="#ef6f00" fill-rule="evenodd"/>
          <path id="Path_48621" data-name="Path 48621" d="M5814.211,1722.323c-3.552,4.818-2.016,6.211-2.016,6.211l.06.033,15-21.309-.573.625C5823.98,1710.831,5817.042,1718.484,5814.211,1722.323Z" transform="translate(-5810.191 -1707.259)" fill-rule="evenodd" opacity="0.2"/>
        </g>
      </g>
      <g id="Pen" transform="translate(5011.954 1733.851)">
        <path id="Path_48622" data-name="Path 48622" d="M5034.388,2314.225l-.325-.231-1.8,2.421c.145.656-.4.686-.471.687l-.095-.072h0l-.1-.076c-.018-.067-.134-.6.538-.635l1.857-2.374-.31-.253s-1.539,1.242-2.808.813c0,0-.79,2.591-1.472,2.858l.012.009c-.062-.046-.169-.009-.24.084s-.078.208-.017.254l.081.062-8.37,11.048a.6.6,0,0,0-.737.187l-.067.089a.6.6,0,0,0,.123.844l1.1.818h0l1,.745a.6.6,0,0,0,.844-.123l.067-.09a.6.6,0,0,0,.047-.645l8.379-11.06.091.07c.062.047.17.009.241-.084s.079-.207.017-.255l-.008-.006.021.016c.075-.729,2.364-2.178,2.364-2.178C5033.6,2316.038,5034.388,2314.225,5034.388,2314.225Z" transform="translate(-5019.6 -2313.691)" fill="#231f20" opacity="0.5"/>
        <g id="Group_179129" data-name="Group 179129" transform="translate(0 0)">
          <g id="Group_179128" data-name="Group 179128">
            <g id="Group_179127" data-name="Group 179127">
              <path id="Path_48623" data-name="Path 48623" d="M5232.553,2317.148c-.751-1.11.038-2.923.038-2.923l-.326-.231-1.8,2.421c.146.656-.4.686-.471.687l-.2-.149c-.017-.067-.134-.6.538-.635l1.857-2.374-.31-.253s-1.538,1.242-2.807.813c0,0-.79,2.591-1.473,2.858l1.078.826h0l.363.277h0l1.139.861C5230.265,2318.6,5232.553,2317.148,5232.553,2317.148Z" transform="translate(-5218.153 -2313.691)" fill="#033d6d"/>
              <path id="Path_48624" data-name="Path 48624" d="M5023.736,2405.44l-2.386-1.807-8.473,11.184a.6.6,0,0,0-.736.187l-.067.089a.6.6,0,0,0,.123.844l2.094,1.563a.6.6,0,0,0,.844-.122l.066-.09a.6.6,0,0,0,.048-.645Z" transform="translate(-5011.954 -2399.689)" fill="#f68817"/>
              <path id="Path_48625" data-name="Path 48625" d="M5223.914,2399.367c-.071.093-.178.131-.241.084l-2.554-1.945c-.062-.047-.054-.161.017-.254h0c.072-.094.179-.131.241-.084l2.554,1.945c.062.047.054.161-.017.254Z" transform="translate(-5211.908 -2393.487)" fill="#f99841"/>
            </g>
            <path id="Path_48626" data-name="Path 48626" d="M5055.566,2320.836l-.325-.231-1.8,2.421c.145.656-.4.686-.471.687l-.1-.072-10.413,13.727,1,.745a.6.6,0,0,0,.844-.123l.067-.09a.6.6,0,0,0,.048-.645l8.379-11.06.091.069c.062.047.17.01.241-.084s.078-.207.017-.254l-.011-.009.023.018c.075-.729,2.364-2.178,2.364-2.178C5054.777,2322.649,5055.566,2320.836,5055.566,2320.836Z" transform="translate(-5041.128 -2320.302)" fill="#231f20" opacity="0.1"/>
          </g>
          <path id="Path_48627" data-name="Path 48627" d="M5049.959,2433.712a.242.242,0,0,1-.336.057h0a.241.241,0,0,1-.035-.339l7.288-9.607a.241.241,0,0,1,.336-.057h0a.242.242,0,0,1,.036.339Z" transform="translate(-5047.886 -2418.895)" fill="#fff" opacity="0.5"/>
        </g>
      </g>
    </g>
  </g>
</svg>
