<svg xmlns="http://www.w3.org/2000/svg" width="68.55" height="61.323" viewBox="0 0 68.55 61.323">
  <g id="Data_Security" data-name="Data Security" transform="translate(-1738.125 -1743.724)">
    <g id="Data" transform="translate(1759.62 1768.941)">
      <g id="Group_179131" data-name="Group 179131" transform="translate(0 0)">
        <g id="Group_179130" data-name="Group 179130" transform="translate(0.754)">
          <rect id="Rectangle_163175" data-name="Rectangle 163175" width="1.748" height="30.012" transform="translate(14.132 0)" fill="#00c0a4"/>
          <rect id="Rectangle_163176" data-name="Rectangle 163176" width="30.012" height="1.748" transform="translate(0 30.166)" fill="#00c0a4"/>
          <path id="Path_48628" data-name="Path 48628" d="M2179.446,2195.033a3.3,3.3,0,0,1-3.3,3.3H2154.77a3.3,3.3,0,0,1-3.3-3.3h0a3.3,3.3,0,0,1,3.3-3.3h21.374a3.3,3.3,0,0,1,3.3,3.3Z" transform="translate(-2150.451 -2191.731)" fill="#ffdb09"/>
          <path id="Path_48629" data-name="Path 48629" d="M2179.446,2351.3a3.3,3.3,0,0,1-3.3,3.3H2154.77a3.3,3.3,0,0,1-3.3-3.3h0a3.3,3.3,0,0,1,3.3-3.3h21.374a3.3,3.3,0,0,1,3.3,3.3Z" transform="translate(-2150.451 -2339.205)" fill="#ffdb09"/>
          <path id="Path_48630" data-name="Path 48630" d="M2179.446,2512.1a3.3,3.3,0,0,1-3.3,3.3H2154.77a3.3,3.3,0,0,1-3.3-3.3h0a3.3,3.3,0,0,1,3.3-3.3h21.374a3.3,3.3,0,0,1,3.3,3.3Z" transform="translate(-2150.451 -2490.948)" fill="#ffdb09"/>
        </g>
        <rect id="Rectangle_163177" data-name="Rectangle 163177" width="10.537" height="1.748" transform="translate(10.477 30.166)" opacity="0.2"/>
        <rect id="Rectangle_163178" data-name="Rectangle 163178" width="10.132" height="2.882" transform="translate(10.695 29.599)" fill="#00c0a4"/>
        <rect id="Rectangle_163179" data-name="Rectangle 163179" width="2.882" height="10.132" transform="translate(0 25.975)" fill="#00c0a4"/>
        <rect id="Rectangle_163180" data-name="Rectangle 163180" width="2.882" height="10.132" transform="translate(28.785 25.975)" fill="#00c0a4"/>
      </g>
      <g id="Group_179132" data-name="Group 179132" transform="translate(4.998 1.996)">
        <path id="Path_48631" data-name="Path 48631" d="M2211.1,2228.348a1.148,1.148,0,1,1-1.148-1.148A1.148,1.148,0,0,1,2211.1,2228.348Z" transform="translate(-2208.799 -2227.2)" fill="#03386d"/>
        <path id="Path_48632" data-name="Path 48632" d="M2559.1,2228.348a1.148,1.148,0,1,1-1.148-1.148A1.148,1.148,0,0,1,2559.1,2228.348Z" transform="translate(-2537.212 -2227.2)" fill="#03386d"/>
        <path id="Path_48633" data-name="Path 48633" d="M2567.495,2391.545a1.148,1.148,0,1,1-1.148-1.148A1.149,1.149,0,0,1,2567.495,2391.545Z" transform="translate(-2545.137 -2381.211)" fill="#03386d"/>
        <path id="Path_48634" data-name="Path 48634" d="M2567.495,2548.205a1.148,1.148,0,1,1-1.148-1.148A1.149,1.149,0,0,1,2567.495,2548.205Z" transform="translate(-2545.137 -2529.053)" fill="#03386d"/>
        <path id="Path_48635" data-name="Path 48635" d="M2211.1,2391.545a1.148,1.148,0,1,1-1.148-1.148A1.148,1.148,0,0,1,2211.1,2391.545Z" transform="translate(-2208.799 -2381.211)" fill="#03386d"/>
        <path id="Path_48636" data-name="Path 48636" d="M2211.1,2548.205a1.148,1.148,0,1,1-1.148-1.148A1.148,1.148,0,0,1,2211.1,2548.205Z" transform="translate(-2208.799 -2529.053)" fill="#03386d"/>
      </g>
    </g>
    <g id="Security" transform="translate(1738.125 1756.866)">
      <path id="Path_48637" data-name="Path 48637" d="M1747.194,1977.207l-9.069,3.917v9.714s.535,6.764,9.069,10.52c8.534-3.756,9.069-10.52,9.069-10.52v-9.714Z" transform="translate(-1738.125 -1977.207)" fill="#ff4247"/>
      <path id="Path_48638" data-name="Path 48638" d="M1778.267,2021.048l-7.216,3.116v7.729s.426,5.382,7.216,8.37c6.79-2.988,7.216-8.37,7.216-8.37v-7.729Z" transform="translate(-1769.198 -2018.58)" fill="#ffdf42"/>
      <path id="Path_48639" data-name="Path 48639" d="M1908.317,1990.837v-9.714l-9.069-3.917v24.15C1907.782,1997.6,1908.317,1990.837,1908.317,1990.837Z" transform="translate(-1890.179 -1977.207)" fill="#231f20" opacity="0.1"/>
      <path id="Path_48640" data-name="Path 48640" d="M1851.261,2132.523l5.694-4.87-.855-1-4.718,4.035-1.96-2.205-.984.874,2.81,3.162.007.008h0Z" transform="translate(-1842.228 -2118.241)" fill="#09c6a2"/>
    </g>
    <g id="Globe" transform="translate(1767.663 1743.724)">
      <g id="Globe-2" data-name="Globe" transform="translate(0)">
        <path id="Path_48641" data-name="Path 48641" d="M2280.773,1752.661a8.937,8.937,0,1,1-8.937-8.937A8.937,8.937,0,0,1,2280.773,1752.661Z" transform="translate(-2262.9 -1743.724)" fill="#008aac"/>
        <path id="Path_48642" data-name="Path 48642" d="M2306.09,1775.37c-.056,0-.124-.107-.2-.175s-.467.019-.562.019a.405.405,0,0,1-.229-.095c-.087-.053-.181.012-.249.026s-.1-.045-.057-.12-.139-.057-.275-.03-.083.094-.192.057.128-.162.207-.256-.015-.252-.06-.268-.132-.151-.267-.256-.237-.026-.4-.026a.36.36,0,0,1-.275-.128c-.075-.057-.053-.169-.354-.327s-.173-.072-.155-.1.049-.026-.056-.075-.192.056-.3.1a.531.531,0,0,1-.279.019c-.045-.011-.1-.12-.151-.143a.319.319,0,0,1-.132-.124.081.081,0,0,0-.14.068c0,.1-.052.154-.158.2s-.06-.117-.06-.166.094-.1.1-.173-.094.072-.192.177-.166.007-.354.026-.1.215-.1.324-.158.146-.184.12-.027-.086-.083-.086-.072-.091-.087-.125a.2.2,0,0,0-.279.068c-.071.136-.146.026-.233,0s-.256-.365-.219-.425.038-.087,0-.128-.022-.071.012-.136.124-.124-.057-.241-.463-.015-.614-.03-.03-.124,0-.154a.748.748,0,0,0,.121-.226c.03-.09-.026-.1.027-.218s.037-.2-.083-.211a.237.237,0,0,0-.241.256c-.007.173-.181.166-.58.135s-.361-.347-.407-.6a1.726,1.726,0,0,1,.09-.6c.008-.128.166-.271.316-.384a.56.56,0,0,1,.365-.084,2.413,2.413,0,0,0,.38.054c.091-.008.015-.076.023-.166s.445-.03.52-.03.06.06.143.142.068-.082.151-.067.015.068.135.264a.968.968,0,0,1,.136.429c.038.166.121.083.173-.053a2.967,2.967,0,0,0-.09-.8c-.03-.226.173-.143.369-.354s.4-.226.49-.377-.007-.4.045-.263.06-.053.068-.2.083-.2.12-.121.083.023.113-.12a.951.951,0,0,1,.218-.362c.06-.072.181,0,.347,0s.007-.03-.042-.2a.17.17,0,0,1,.169-.222,1.8,1.8,0,0,0,.4-.184c.06-.038.139-.034.245.045s-.1.019-.166.135.1.132.169.026.23-.057.365-.192-.155-.087-.218-.105-.1-.177-.1-.228a.359.359,0,0,0-.107-.237c-.068-.057-.243.005-.4.068s-.2.119-.186.045.265-.243.333-.254a.778.778,0,0,0,.35-.193c.09-.1.35.017.469.028s.288.079.35-.005.113-.085.237-.1.147-.2.062-.276-.209-.367-.384-.458-.107-.147-.051-.22-.177-.254-.253-.442.008-.234-.083-.241-.03.136-.075.264-.234.06-.264.053a.327.327,0,0,1-.128-.256c.008-.12.038-.226,0-.263s-.12-.007-.166-.053-.105-.181-.173-.241-.218-.023-.324-.045-.2.015-.181.083a1.029,1.029,0,0,1-.03.4c-.038.241-.113.113-.173.173s.038.076.09.249a.355.355,0,0,1-.121.354,1.22,1.22,0,0,1-.339.128c-.113.038.008.181.022.3a.391.391,0,0,1-.158.317c-.061.022-.256-.226-.271-.369s.12-.3.06-.346a1.61,1.61,0,0,1-.512-.226c-.219-.181-.482-.278-.572-.5s.09-.414.166-.572.226-.136.467-.226.09-.173.151-.173.256-.03.3-.091a.843.843,0,0,1,.249-.173c.1-.053.12-.158.158-.219s.143.083.264.068.113.022.278-.053.023-.121.008-.2.106-.061.068-.151a.353.353,0,0,0-.313-.166c-.109.015.034.12-.079.226s-.091.173-.128.188-.2-.038-.2-.09.075-.1.105-.121-.023-.135-.038-.173-.083.045-.1.121-.1.083-.075.015-.061-.151-.121-.234.06-.075.128-.181.045-.151-.045-.2-.2.03-.3.143-.068.105-.03.248,0,0,.022.135-.173.121-.173.121a.693.693,0,0,1-.135-.023c-.038-.015,0-.068-.083-.1s-.12.106-.12.106-.226-.008-.316-.008a.377.377,0,0,1-.241-.083.342.342,0,0,0-.233-.113c-.1,0-.136.083-.136.181s-.166.105-.158.061a1.088,1.088,0,0,0-.022-.2l-.091.053s-.249-.016-.332-.023-.052-.113-.052-.113l.166-.015.022-.038a.28.28,0,0,0-.09-.06c-.045-.015-.241-.053-.241-.053l-.061-.083h-.128c-.038,0-.1.075-.128.075s-.03-.083-.03-.083l.015-.068-.075.038c-.076.037-.106.007-.106.007l.03-.076.008-.083s-.045-.053-.045-.015a.157.157,0,0,1-.143.113c-.068-.008-.113.06-.211.037a.568.568,0,0,0-.392.135c-.106.091-.173.12-.15.015s-.294-.09-.347-.113a1.712,1.712,0,0,0-.316-.053.183.183,0,0,1-.158-.12l-.052-.186a8.96,8.96,0,0,0-1.811,1.3,1.689,1.689,0,0,0,.169.275.093.093,0,0,0,.105,0,6.3,6.3,0,0,0-.55.442c-.339.3-.226.333-.226.446s.068.068.068.068-.264.271-.339.346-.211.181-.211.181l-.136.166.061.023.819-.687s.051-.011.056-.04a.353.353,0,0,1,.068-.13.741.741,0,0,0,.09-.124.477.477,0,0,0,.113-.079c.062-.057.124-.141.175-.147s0,.073-.09.147a1.352,1.352,0,0,0-.2.232s.3-.158.4-.226.068-.169.107-.175.13.079.158.164.063-.017.215,0,.051.135.107.215.056.1.2.068-.057.317-.057.317l-.012.113a.628.628,0,0,1,.057.09c0,.011-.068.214-.068.214h.113a.447.447,0,0,1-.1.09c-.056.034.012.124.068.169s0,0-.08.181,0,.124.09.248a3.322,3.322,0,0,0,.215.26.2.2,0,0,1-.068.271c-.068.011-.214-.1-.214-.1.011,1.695-.1.565-.158.712s-.136.226-.136.316a.56.56,0,0,1-.09.35c-.09.124-.011.407,0,.44s.083.181.083.181v.463c0,.151.271.226.362.354a.891.891,0,0,1,.075.418.494.494,0,0,0,.117.192c.053.049.057.131.1.207s-.064.049-.075.147.094.1.151.124a.116.116,0,0,1,.083.162c-.03.106-.015.068.042.128s.03.023.06.136.105.064.105.064v.068c0,.019.068.038.068.038l.045-.068s-.034-.015-.034-.026-.007-.068-.007-.068l-.1-.042a.481.481,0,0,1-.015-.079v-.1c0-.015-.038-.026-.038-.026s0-.1,0-.162-.1-.117-.1-.143a.416.416,0,0,0-.049-.17.561.561,0,0,1-.124-.3c0-.128-.03-.211.019-.211s.132.124.154.147a.988.988,0,0,0,.1.312,3.387,3.387,0,0,1,.315.448c-.022.022-.085.014-.051.1a.227.227,0,0,0,.178.121c.062.017.164.362.231.474s-.017.113-.034.187.006.113.119.164.09.175.22.215.384.2.452.22.06.075.151.083a.24.24,0,0,1,.151.067c.045.03.2-.03.233-.053s.061-.015.143,0,.324.271.4.346.135-.03.2,0,.173.1.219.09.045-.045.075-.045.008.061.12.2.09.173.09.2.053.136.128.12.151.064.151.064V1774s.256.015.309.03.061.128.083.143.113-.091.1-.151.1-.09.143-.136.105.052.143.1a.482.482,0,0,1,.121.248c0,.091-.008.226-.008.369s-.113.211-.2.309-.158.143-.2.188a.444.444,0,0,0-.053.271c.015.083.121.007.121.105s-.1.045-.211.135.015.1.053.173-.053.015-.053.105.136.076.264.113.263.369.339.542.15.324.226.354.083.1.241.136.282.162.371.162.086.153.058.215-.006.079.017.3a3.3,3.3,0,0,1-.075.791c-.024.057-.017.045.024.087s-.067.222-.072.278-.109.09-.131.143.052.053.067.1-.03.169.015.215.086.03.1.1a.119.119,0,0,1-.117.139c-.075,0-.075.079-.042.053a.077.077,0,0,1,.079,0l.061.107q.277-.029.548-.074c.039-.045.072-.081.1-.085.091-.015.045-.105-.008-.294s.128-.03.241-.075.075-.2.233-.219a.673.673,0,0,0,.4-.271c.068-.105-.03-.158.219-.128s.474-.286.67-.52.023-.308.369-.527a3.049,3.049,0,0,0,.942-1c.034-.186-.062-.192.135-.322a1.584,1.584,0,0,0,.469-.593C2306.2,1775.523,2306.146,1775.37,2306.09,1775.37Z" transform="translate(-2292.007 -1761.904)" fill="#e2e2e2"/>
        <path id="Path_48643" data-name="Path 48643" d="M2474.983,1756.515c-.286,0-.346.286-.09.331s.783.045.874.422-.271.482,0,.663-.06.377-.06.632a.742.742,0,0,0,.3.6c.181.135.362.316.377.422s.2.075.2.075a.4.4,0,0,1,0-.151c.015-.091.166-.2.166-.452s.135-.241.241-.226.317-.015.377,0,.422.015.452-.166-.241-.452-.241-.452a1.128,1.128,0,0,0,.151-.367.67.67,0,0,0-.042-.151,8.95,8.95,0,0,0-2.468-1.56C2475.214,1756.281,2475.182,1756.515,2474.983,1756.515Z" transform="translate(-2462.807 -1755.44)" fill="#e2e2e2"/>
        <path id="Path_48644" data-name="Path 48644" d="M2546.751,1887.181c-.52-.43-.859-.43-.9-.317s.361.52,0,1.017-.633.7-.5,1.107-.568.768-.035,1.13.419.361.8.339.328.575.3.657a8.908,8.908,0,0,0,.682-3.43c0-.037,0-.074,0-.111A1.492,1.492,0,0,0,2546.751,1887.181Z" transform="translate(-2529.228 -1878.747)" fill="#e2e2e2"/>
        <path id="Path_48645" data-name="Path 48645" d="M2436.367,1763.814a8.937,8.937,0,0,0,.724-17.7C2442.274,1748.2,2444.85,1760.852,2436.367,1763.814Z" transform="translate(-2426.603 -1745.979)" fill="#231f20" opacity="0.1"/>
      </g>
      <g id="Loading" transform="translate(0 10.91)">
        <path id="Path_48646" data-name="Path 48646" d="M2274.407,1942.152l-.058-.2-.069-.231c-.027-.09-.061-.188-.1-.3a11.393,11.393,0,0,0-.681-1.608c-.076-.145-.155-.292-.24-.434l-.127-.213-.132-.2c-.087-.136-.179-.264-.268-.386s-.179-.236-.264-.342-.166-.2-.241-.284-.14-.158-.2-.216l-.181-.185.059.114c.036.073.089.174.146.3s.119.27.182.424.12.322.176.486.1.332.143.484.073.3.1.421.045.225.058.3.02.112.02.112l-.11-.065c-.07-.043-.179-.1-.315-.174a8.722,8.722,0,0,0-1.18-.519,6.974,6.974,0,0,0-1.782-.378,6.22,6.22,0,0,0-2.061.193,6.705,6.705,0,0,0-.983.344,7.639,7.639,0,0,0-.886.465,8.73,8.73,0,0,0-1.394,1.065,9.248,9.248,0,0,0-.844.9c-.188.23-.282.371-.282.371s.106-.133.312-.345a9.214,9.214,0,0,1,.908-.815,8.508,8.508,0,0,1,1.441-.919,7.273,7.273,0,0,1,.881-.37,6.2,6.2,0,0,1,.946-.243,5.651,5.651,0,0,1,1.889-.016,6.266,6.266,0,0,1,1.567.476,7.914,7.914,0,0,1,1.021.557c.117.079.211.137.272.183l.094.067-.1.032c-.066.021-.158.05-.269.091s-.237.087-.369.141-.272.119-.406.183-.266.139-.385.206-.226.139-.316.2-.161.114-.211.151l-.077.059.153-.049c.05-.017.111-.031.182-.049s.153-.039.244-.054a6.238,6.238,0,0,1,1.441-.094,9.8,9.8,0,0,1,1.564.2c.109.022.21.043.3.064l.229.056Z" transform="translate(-2262.897 -1937.552)" fill="#ffd648"/>
        <path id="Path_48647" data-name="Path 48647" d="M2262.9,2052.469l.058.2.069.231c.027.09.061.188.1.3a11.428,11.428,0,0,0,.681,1.607c.077.145.155.292.24.434l.126.213.132.2c.087.136.179.264.268.386s.179.236.263.342.166.2.241.284.14.159.2.216l.181.185-.059-.114c-.036-.073-.09-.174-.146-.3s-.119-.27-.182-.424-.12-.322-.176-.486-.1-.332-.143-.485-.073-.3-.1-.421-.045-.225-.059-.3-.019-.111-.019-.111l.11.064c.07.043.179.1.315.175a8.763,8.763,0,0,0,1.18.519,7,7,0,0,0,1.782.378,6.219,6.219,0,0,0,2.061-.193,6.605,6.605,0,0,0,.983-.344,7.633,7.633,0,0,0,.886-.464,8.748,8.748,0,0,0,1.394-1.066,9.187,9.187,0,0,0,.844-.9c.188-.23.282-.371.282-.371s-.106.132-.312.344a9.112,9.112,0,0,1-.908.815,8.521,8.521,0,0,1-1.442.92,7.322,7.322,0,0,1-.881.37,6.266,6.266,0,0,1-.946.243,5.673,5.673,0,0,1-1.89.017,6.269,6.269,0,0,1-1.567-.476,7.945,7.945,0,0,1-1.021-.558c-.117-.078-.211-.137-.272-.182l-.094-.067.1-.032c.066-.021.158-.05.269-.09s.237-.088.369-.142.272-.119.406-.183.266-.139.385-.206.227-.139.316-.2.161-.115.211-.151l.077-.058-.153.049c-.05.017-.11.031-.182.049s-.154.039-.244.054a6.267,6.267,0,0,1-1.441.093,9.893,9.893,0,0,1-1.564-.2c-.108-.023-.21-.043-.3-.064l-.229-.057Z" transform="translate(-2262.897 -2045.778)" fill="#ff5c60"/>
        <path id="Path_48648" data-name="Path 48648" d="M2270.569,2059.167c-.293.015-.645.048-1.068.1-2.912.372-5.592-1.926-6.5-2.812l-.1-.025.058.2.069.231c.027.089.061.188.1.3a11.414,11.414,0,0,0,.681,1.607c.077.146.155.292.24.434l.126.213.132.2c.087.136.179.264.268.386s.179.236.263.341.166.2.241.284.14.159.2.216l.181.185-.059-.114c-.036-.073-.09-.174-.146-.3s-.119-.27-.182-.424-.12-.322-.176-.486-.1-.332-.143-.485-.073-.3-.1-.421-.045-.225-.059-.3-.019-.112-.019-.112l.11.065c.07.044.179.1.315.175a8.767,8.767,0,0,0,1.18.519,6.99,6.99,0,0,0,1.782.379,6.219,6.219,0,0,0,2.061-.193C2270.205,2059.29,2270.388,2059.232,2270.569,2059.167Z" transform="translate(-2262.897 -2049.74)" opacity="0.1"/>
        <path id="Path_48649" data-name="Path 48649" d="M2327.557,1941.721c-.027-.09-.061-.188-.1-.3a11.393,11.393,0,0,0-.681-1.608c-.076-.145-.155-.292-.24-.434l-.126-.213-.132-.2c-.087-.136-.179-.264-.268-.386s-.179-.236-.263-.342-.167-.2-.241-.284-.139-.158-.2-.216l-.181-.185.059.114c.036.073.089.174.146.3s.119.27.182.424.12.322.175.486.1.332.143.484.073.3.1.421.045.225.058.3.02.112.02.112l-.109-.065c-.07-.043-.18-.1-.315-.174a8.75,8.75,0,0,0-1.18-.519,6.98,6.98,0,0,0-1.782-.378,6.219,6.219,0,0,0-2.061.193,6.709,6.709,0,0,0-.983.344c-.077.034-.153.069-.228.106.274-.061.584-.127.934-.2,4.144-.856,7.4,2.656,7.4,2.656l-.058-.2Z" transform="translate(-2316.175 -1937.552)" opacity="0.1"/>
      </g>
    </g>
    <g id="Document" transform="translate(1791.286 1759.234)">
      <path id="Path_48650" data-name="Path 48650" d="M2750.146,2025.221a14.31,14.31,0,0,1,.509-2.07,15.683,15.683,0,0,1,2.179.484c1.671.424,3.088.787,3.088.787s.618.182.763-.236.073-.418.908-.2,2.107.581,2.107.581.4.145.4.436v.508l1.308.327s.509.109.254.98-3.124,10.9-3.124,10.9Z" transform="translate(-2746.344 -2022.933)" fill="#3f3f3f"/>
      <path id="Path_48651" data-name="Path 48651" d="M2746.276,2021.347a14.344,14.344,0,0,1,.508-2.07,15.69,15.69,0,0,1,2.18.484c1.671.424,3.088.787,3.088.787s.617.182.762-.236.073-.418.908-.2,2.107.581,2.107.581.4.145.4.436v.509l1.308.327s.509.109.255.98-3.124,10.9-3.124,10.9Z" transform="translate(-2742.692 -2019.277)" fill="#f1c40f"/>
      <path id="Path_48652" data-name="Path 48652" d="M2695.005,2042.447l-2.067-9.785s.109-.436-.582-.69a4.778,4.778,0,0,0-1.089-.291.844.844,0,0,0-.63-.944c-.751-.218-2.967-.908-2.967-.908l-.327.218v.254l-4.323-1.344-.424.157,2.531,9.251,9.662,4.831Z" transform="translate(-2682.598 -2028.413)" fill="#4c4c4c"/>
      <path id="Path_48653" data-name="Path 48653" d="M2694.789,2045.833l-2.179-10.316s.109-.436-.581-.69a4.8,4.8,0,0,0-1.09-.291.843.843,0,0,0-.629-.944c-.751-.218-2.967-.908-2.967-.908l-.327.472-4.323-1.344s-.218-.363,0,.69,2.107,8.718,2.107,8.718Z" transform="translate(-2682.596 -2031.048)" fill="#e67e22"/>
    </g>
  </g>
</svg>
