<svg xmlns="http://www.w3.org/2000/svg" width="61.907" height="85.133" viewBox="0 0 61.907 85.133">
  <g id="Group_177144" data-name="Group 177144" transform="translate(-138.242 -11.611)">
    <g id="Group_177077" data-name="Group 177077">
      <g id="Group_177074" data-name="Group 177074">
        <g id="Group_177073" data-name="Group 177073">
          <path id="Path_40765" data-name="Path 40765" d="M192.957,59.188a7.415,7.415,0,1,0,0,10.485A7.379,7.379,0,0,0,192.957,59.188Z" fill="#bf4e00"/>
        </g>
      </g>
      <g id="Group_177076" data-name="Group 177076">
        <g id="Group_177075" data-name="Group 177075">
          <path id="Path_40766" data-name="Path 40766" d="M189.832,64.258a5.015,5.015,0,0,0-1.472-.743l-.414-.138c-.082-.028-.156-.059-.229-.089a2.214,2.214,0,0,1-.718-.415.934.934,0,0,1-.267-.7,1.012,1.012,0,0,1,.264-.723.9.9,0,0,1,.689-.282c.01,0,.021,0,.032,0a1.058,1.058,0,0,1,.719.269,1.089,1.089,0,0,1,.336.733h1.841a3.043,3.043,0,0,0-.415-1.414,2.607,2.607,0,0,0-1.012-.976,2.7,2.7,0,0,0-.657-.257V57.881H187v1.66h0a2.776,2.776,0,0,0-.644.262,2.725,2.725,0,0,0-1.032.995,2.6,2.6,0,0,0-.379,1.366,2.708,2.708,0,0,0,1.249,2.271,4.646,4.646,0,0,0,.8.374c.048.013.177.054.385.123.121.04.232.079.337.118a3.169,3.169,0,0,1,.9.487,1.255,1.255,0,0,1,.439,1,1.188,1.188,0,0,1-.359.889,1.258,1.258,0,0,1-.916.35c-.024,0-.044,0-.067,0a1.216,1.216,0,0,1-1.261-1.219h-1.872a2.96,2.96,0,0,0,.223,1.071,2.668,2.668,0,0,0,.618.938,3.02,3.02,0,0,0,1.574.873v1.612h1.53V69.415a3.066,3.066,0,0,0,2.319-3A2.666,2.666,0,0,0,189.832,64.258Z" fill="#ff6800"/>
        </g>
      </g>
    </g>
    <g id="Group_177079" data-name="Group 177079">
      <g id="Group_177078" data-name="Group 177078">
        <path id="Path_40767" data-name="Path 40767" d="M180.484,21.8h-2.338a3.213,3.213,0,0,1-.055-.634,3.133,3.133,0,0,1,.055-.619h2.338V17.986c.1-.019.205-.033.3-.043s.205-.013.318-.013.206,0,.31.013.211.024.323.043v2.563h2.324a2.972,2.972,0,0,1,.041.309c.01.1.016.207.016.31s-.006.209-.016.317a2.95,2.95,0,0,1-.041.317h-2.324v2.55c-.112.018-.22.032-.323.042s-.207.013-.31.013a3.17,3.17,0,0,1-.621-.055Z" fill="#c2edff"/>
      </g>
    </g>
    <g id="Group_177081" data-name="Group 177081">
      <g id="Group_177080" data-name="Group 177080">
        <path id="Path_40768" data-name="Path 40768" d="M142.471,37.633H141.02a2.04,2.04,0,0,1-.034-.393,2,2,0,0,1,.034-.385h1.451V35.264c.064-.012.127-.02.188-.026s.127-.008.2-.008.128,0,.192.008.132.014.2.026v1.591h1.443a2.492,2.492,0,0,1,.035.385,1.864,1.864,0,0,1-.01.2,1.8,1.8,0,0,1-.025.2h-1.443v1.582c-.069.012-.137.021-.2.027s-.128.008-.192.008a1.908,1.908,0,0,1-.385-.035Z" fill="#c2edff"/>
      </g>
    </g>
    <g id="Group_177083" data-name="Group 177083">
      <g id="Group_177082" data-name="Group 177082">
        <path id="Path_40769" data-name="Path 40769" d="M194.133,53.685h-1.451a1.966,1.966,0,0,1-.035-.393,1.919,1.919,0,0,1,.035-.385h1.451V51.316c.064-.012.127-.02.187-.026s.127-.009.2-.009.128,0,.192.009.131.014.2.026v1.591h1.442c.012.064.02.128.026.192s.009.128.009.193,0,.129-.009.2-.014.133-.026.2h-1.442v1.582c-.07.012-.137.02-.2.026s-.128.009-.192.009a1.908,1.908,0,0,1-.385-.035Z" fill="#c2edff"/>
      </g>
    </g>
    <g id="Group_177084" data-name="Group 177084">
      <circle id="Ellipse_712" data-name="Ellipse 712" cx="23.498" cy="23.498" r="23.498" transform="matrix(0.929, -0.369, 0.369, 0.929, 138.242, 28.946)" fill="#c2edff"/>
    </g>
    <g id="Group_177089" data-name="Group 177089">
      <g id="Group_177086" data-name="Group 177086">
        <g id="Group_177085" data-name="Group 177085">
          <path id="Path_40770" data-name="Path 40770" d="M190.92,52.6a4.532,4.532,0,1,0,0,6.409A4.509,4.509,0,0,0,190.92,52.6Z" fill="#ff6800"/>
        </g>
      </g>
      <g id="Group_177088" data-name="Group 177088">
        <g id="Group_177087" data-name="Group 177087">
          <path id="Path_40771" data-name="Path 40771" d="M189.009,55.7a3.054,3.054,0,0,0-.9-.454l-.253-.085c-.05-.017-.1-.036-.14-.054a1.347,1.347,0,0,1-.439-.254.572.572,0,0,1-.163-.425.62.62,0,0,1,.161-.442.553.553,0,0,1,.422-.173l.019,0a.65.65,0,0,1,.44.164.664.664,0,0,1,.2.449h1.126a1.863,1.863,0,0,0-.254-.865,1.594,1.594,0,0,0-.618-.6,1.7,1.7,0,0,0-.4-.157V51.805h-.935v1.014h0a1.719,1.719,0,0,0-.394.161,1.68,1.68,0,0,0-.631.607,1.643,1.643,0,0,0,.533,2.223,2.74,2.74,0,0,0,.489.23c.03.007.108.033.236.075.073.024.141.048.205.072a1.96,1.96,0,0,1,.553.3.772.772,0,0,1,.268.615.723.723,0,0,1-.22.543.765.765,0,0,1-.56.214l-.041,0a.744.744,0,0,1-.77-.746H185.8a1.794,1.794,0,0,0,.135.655,1.649,1.649,0,0,0,.378.573,1.854,1.854,0,0,0,.962.534v.985h.935v-1a1.873,1.873,0,0,0,1.418-1.832A1.628,1.628,0,0,0,189.009,55.7Z" fill="#fff"/>
        </g>
      </g>
    </g>
    <g id="Group_177094" data-name="Group 177094">
      <g id="Group_177091" data-name="Group 177091">
        <g id="Group_177090" data-name="Group 177090">
          <path id="Path_40772" data-name="Path 40772" d="M153.641,56.872a7.414,7.414,0,1,0,0,10.485A7.382,7.382,0,0,0,153.641,56.872Z" fill="#ff6800"/>
        </g>
      </g>
      <g id="Group_177093" data-name="Group 177093">
        <g id="Group_177092" data-name="Group 177092">
          <path id="Path_40773" data-name="Path 40773" d="M150.515,61.943a4.991,4.991,0,0,0-1.472-.743l-.413-.139c-.083-.028-.156-.059-.23-.089a2.215,2.215,0,0,1-.717-.414.939.939,0,0,1-.268-.7,1.017,1.017,0,0,1,.264-.723.907.907,0,0,1,.69-.282c.01,0,.02,0,.031,0a1.056,1.056,0,0,1,.719.269,1.084,1.084,0,0,1,.336.733H151.3a3.02,3.02,0,0,0-.415-1.414,2.611,2.611,0,0,0-1.011-.976,2.785,2.785,0,0,0-.658-.257V55.566h-1.529v1.659h0a2.761,2.761,0,0,0-.644.263,2.725,2.725,0,0,0-1.033.994,2.6,2.6,0,0,0-.379,1.367,2.712,2.712,0,0,0,1.25,2.27,4.63,4.63,0,0,0,.8.374c.049.013.177.054.385.123.122.04.232.079.337.118a3.176,3.176,0,0,1,.9.487,1.26,1.26,0,0,1,.439,1.006,1.187,1.187,0,0,1-.359.888,1.258,1.258,0,0,1-.917.35c-.024,0-.044,0-.067,0a1.307,1.307,0,0,1-.87-.324,1.292,1.292,0,0,1-.39-.9h-1.872a2.95,2.95,0,0,0,.222,1.071,2.688,2.688,0,0,0,.618.937,3.022,3.022,0,0,0,1.575.873v1.612h1.529V67.1a3.1,3.1,0,0,0,1.9-1.432,3.04,3.04,0,0,0,.416-1.565A2.661,2.661,0,0,0,150.515,61.943Z" fill="#fff"/>
        </g>
      </g>
    </g>
    <g id="Group_177099" data-name="Group 177099">
      <g id="Group_177096" data-name="Group 177096">
        <g id="Group_177095" data-name="Group 177095">
          <path id="Path_40774" data-name="Path 40774" d="M154.267,44.99a2.511,2.511,0,1,0,0,3.549A2.5,2.5,0,0,0,154.267,44.99Z" fill="#ff6800"/>
        </g>
      </g>
      <g id="Group_177098" data-name="Group 177098">
        <g id="Group_177097" data-name="Group 177097">
          <path id="Path_40775" data-name="Path 40775" d="M153.209,46.707a1.691,1.691,0,0,0-.5-.252l-.14-.047-.077-.03a.742.742,0,0,1-.243-.141.313.313,0,0,1-.091-.235.345.345,0,0,1,.089-.245.307.307,0,0,1,.234-.1h.011a.357.357,0,0,1,.243.09.371.371,0,0,1,.114.249h.623a1.019,1.019,0,0,0-.141-.479.875.875,0,0,0-.342-.33.97.97,0,0,0-.222-.088v-.558h-.518v.562h0a.98.98,0,0,0-.218.089.926.926,0,0,0-.349.337.876.876,0,0,0-.128.463.917.917,0,0,0,.422.768,1.593,1.593,0,0,0,.271.127c.017,0,.061.018.131.041l.114.04a1.092,1.092,0,0,1,.306.165.427.427,0,0,1,.148.341.4.4,0,0,1-.121.3.427.427,0,0,1-.31.119h-.023a.413.413,0,0,1-.427-.414h-.633a.983.983,0,0,0,.075.363.906.906,0,0,0,.209.318,1.027,1.027,0,0,0,.533.295v.546h.518v-.554a1.074,1.074,0,0,0,.26-.1,1.038,1.038,0,0,0,.525-.909A.9.9,0,0,0,153.209,46.707Z" fill="#fff"/>
        </g>
      </g>
    </g>
    <g id="Group_177104" data-name="Group 177104">
      <g id="Group_177101" data-name="Group 177101">
        <g id="Group_177100" data-name="Group 177100">
          <path id="Path_40776" data-name="Path 40776" d="M142.76,54.934a2.511,2.511,0,1,0,0,3.549A2.5,2.5,0,0,0,142.76,54.934Z" fill="#ffa466"/>
        </g>
      </g>
      <g id="Group_177103" data-name="Group 177103">
        <g id="Group_177102" data-name="Group 177102">
          <path id="Path_40777" data-name="Path 40777" d="M141.7,56.651a1.683,1.683,0,0,0-.5-.252l-.14-.047a.792.792,0,0,1-.078-.03.773.773,0,0,1-.243-.14.32.32,0,0,1-.09-.236.345.345,0,0,1,.089-.245.309.309,0,0,1,.234-.1h.01a.357.357,0,0,1,.243.091.369.369,0,0,1,.114.248h.624a1.031,1.031,0,0,0-.141-.479.877.877,0,0,0-.343-.33.907.907,0,0,0-.222-.087v-.558h-.518v.562h0a.9.9,0,0,0-.219.089.924.924,0,0,0-.349.336.9.9,0,0,0-.014.9.889.889,0,0,0,.309.329,1.557,1.557,0,0,0,.271.127c.016,0,.06.018.13.041l.114.04a1.089,1.089,0,0,1,.306.165.427.427,0,0,1,.148.341.4.4,0,0,1-.121.3.426.426,0,0,1-.31.118h-.023a.449.449,0,0,1-.295-.11.44.44,0,0,1-.132-.3h-.633a1.008,1.008,0,0,0,.075.363.911.911,0,0,0,.209.317,1.024,1.024,0,0,0,.533.295v.546h.518V58.4a1.058,1.058,0,0,0,.26-.1,1.033,1.033,0,0,0,.525-.909A.9.9,0,0,0,141.7,56.651Z" fill="#fff"/>
        </g>
      </g>
    </g>
    <g id="Group_177109" data-name="Group 177109">
      <g id="Group_177106" data-name="Group 177106">
        <g id="Group_177105" data-name="Group 177105">
          <path id="Path_40778" data-name="Path 40778" d="M199.414,71.209a2.511,2.511,0,1,0,0,3.55A2.5,2.5,0,0,0,199.414,71.209Z" fill="#ffa466"/>
        </g>
      </g>
      <g id="Group_177108" data-name="Group 177108">
        <g id="Group_177107" data-name="Group 177107">
          <path id="Path_40779" data-name="Path 40779" d="M198.355,72.926a1.672,1.672,0,0,0-.5-.251l-.14-.048c-.028-.009-.052-.019-.077-.029a.78.78,0,0,1-.244-.14.321.321,0,0,1-.09-.236.345.345,0,0,1,.089-.245.306.306,0,0,1,.234-.1h.011a.357.357,0,0,1,.243.091.369.369,0,0,1,.114.249h.623a1.012,1.012,0,0,0-.141-.479.875.875,0,0,0-.342-.33.887.887,0,0,0-.222-.088v-.557H197.4v.561h0a.934.934,0,0,0-.218.089.923.923,0,0,0-.349.336.882.882,0,0,0-.129.463.914.914,0,0,0,.423.769,1.6,1.6,0,0,0,.271.126l.131.042c.04.013.078.027.114.04a1.07,1.07,0,0,1,.305.165.424.424,0,0,1,.149.34.4.4,0,0,1-.121.3.425.425,0,0,1-.31.119l-.023,0a.411.411,0,0,1-.427-.412h-.634a1.024,1.024,0,0,0,.075.362.9.9,0,0,0,.21.317,1.023,1.023,0,0,0,.532.3v.546h.519v-.554a1.063,1.063,0,0,0,.644-.485,1.028,1.028,0,0,0,.141-.53A.9.9,0,0,0,198.355,72.926Z" fill="#fff"/>
        </g>
      </g>
    </g>
    <g id="Group_177114" data-name="Group 177114">
      <g id="Group_177111" data-name="Group 177111">
        <g id="Group_177110" data-name="Group 177110">
          <path id="Path_40780" data-name="Path 40780" d="M195.365,57.965a3.36,3.36,0,1,0,0,4.751A3.346,3.346,0,0,0,195.365,57.965Z" fill="#ffa466"/>
        </g>
      </g>
      <g id="Group_177113" data-name="Group 177113">
        <g id="Group_177112" data-name="Group 177112">
          <path id="Path_40781" data-name="Path 40781" d="M193.949,60.263a2.283,2.283,0,0,0-.667-.337l-.188-.063c-.037-.012-.071-.027-.1-.04a.984.984,0,0,1-.325-.188.423.423,0,0,1-.121-.315.461.461,0,0,1,.119-.328.412.412,0,0,1,.313-.128l.014,0a.475.475,0,0,1,.326.121.494.494,0,0,1,.152.333h.835a1.38,1.38,0,0,0-.189-.641,1.172,1.172,0,0,0-.458-.442,1.216,1.216,0,0,0-.3-.117v-.747h-.693v.752h0a1.279,1.279,0,0,0-.759.569,1.178,1.178,0,0,0-.172.62,1.226,1.226,0,0,0,.566,1.028,2.025,2.025,0,0,0,.363.17c.022.006.08.025.174.056.055.018.1.036.153.053a1.434,1.434,0,0,1,.409.221.57.57,0,0,1,.2.455.537.537,0,0,1-.164.4.57.57,0,0,1-.415.159l-.03,0a.592.592,0,0,1-.394-.147.585.585,0,0,1-.177-.406h-.848a1.341,1.341,0,0,0,.1.486,1.224,1.224,0,0,0,.28.424,1.37,1.37,0,0,0,.714.4v.731h.693V62.6a1.39,1.39,0,0,0,.348-.141,1.383,1.383,0,0,0,.7-1.217A1.207,1.207,0,0,0,193.949,60.263Z" fill="#fff"/>
        </g>
      </g>
    </g>
    <g id="Group_177138" data-name="Group 177138">
      <g id="Group_177118" data-name="Group 177118">
        <g id="Group_177117" data-name="Group 177117">
          <g id="Group_177115" data-name="Group 177115">
            <path id="Path_40782" data-name="Path 40782" d="M151.149,39.15c5.248,5.246,16.5,3.336,16.5,3.336l-19.84-19.841S145.9,33.9,151.149,39.15Z" fill="#66d1ff"/>
          </g>
          <g id="Group_177116" data-name="Group 177116">
            <path id="Path_40783" data-name="Path 40783" d="M147.813,22.645l19.84,19.841s1.912-11.257-3.336-16.506S147.813,22.645,147.813,22.645Z" fill="#00b3ff"/>
          </g>
        </g>
      </g>
      <g id="Group_177122" data-name="Group 177122">
        <g id="Group_177121" data-name="Group 177121">
          <g id="Group_177119" data-name="Group 177119">
            <path id="Path_40784" data-name="Path 40784" d="M173.181,25.98c-5.248,5.249-3.334,16.506-3.334,16.506l19.839-19.841S178.431,20.732,173.181,25.98Z" fill="#66d1ff"/>
          </g>
          <g id="Group_177120" data-name="Group 177120">
            <path id="Path_40785" data-name="Path 40785" d="M189.686,22.645,169.847,42.486s11.255,1.913,16.5-3.336S189.686,22.645,189.686,22.645Z" fill="#00b3ff"/>
          </g>
        </g>
      </g>
      <g id="Group_177126" data-name="Group 177126">
        <g id="Group_177125" data-name="Group 177125">
          <g id="Group_177123" data-name="Group 177123">
            <path id="Path_40786" data-name="Path 40786" d="M162.989,20.274c0,4.542,5.7,8.587,5.7,8.587V11.686S162.989,15.73,162.989,20.274Z" fill="#66d1ff"/>
          </g>
          <g id="Group_177124" data-name="Group 177124">
            <path id="Path_40787" data-name="Path 40787" d="M168.69,11.686V28.861s5.7-4.045,5.7-8.587S168.69,11.686,168.69,11.686Z" fill="#00b3ff"/>
          </g>
        </g>
      </g>
      <g id="Group_177136" data-name="Group 177136">
        <g id="Group_177129" data-name="Group 177129">
          <g id="Group_177128" data-name="Group 177128">
            <g id="Group_177127" data-name="Group 177127">
              <path id="Path_40788" data-name="Path 40788" d="M159.911,72.717a12.414,12.414,0,0,1,8.783-21.193v-5.45a17.865,17.865,0,1,0,0,35.731l0-5.451A12.351,12.351,0,0,1,159.911,72.717Z" fill="#ffa466"/>
            </g>
          </g>
        </g>
        <g id="Group_177132" data-name="Group 177132">
          <g id="Group_177131" data-name="Group 177131">
            <g id="Group_177130" data-name="Group 177130">
              <path id="Path_40789" data-name="Path 40789" d="M168.694,46.074v5.45a12.415,12.415,0,0,1,0,24.83l0,5.451a17.866,17.866,0,0,0,0-35.731Z" fill="#bf4e00"/>
            </g>
          </g>
        </g>
        <g id="Group_177135" data-name="Group 177135">
          <g id="Group_177134" data-name="Group 177134">
            <g id="Group_177133" data-name="Group 177133">
              <path id="Path_40790" data-name="Path 40790" d="M177.468,55.158a12.416,12.416,0,1,0,0,17.559A12.374,12.374,0,0,0,177.468,55.158Z" fill="#ff6800"/>
            </g>
          </g>
        </g>
      </g>
      <g id="Group_177137" data-name="Group 177137">
        <path id="Path_40791" data-name="Path 40791" d="M172.233,63.649a8.265,8.265,0,0,0-2.468-1.242l-.69-.234c-.14-.047-.26-.1-.383-.148a3.7,3.7,0,0,1-1.2-.694,1.557,1.557,0,0,1-.449-1.164,1.718,1.718,0,0,1,.441-1.216,1.518,1.518,0,0,1,1.157-.468c.015,0,.031,0,.054,0a1.764,1.764,0,0,1,1.2.45,1.819,1.819,0,0,1,.561,1.23h3.086a5.116,5.116,0,0,0-.7-2.371,4.406,4.406,0,0,0-1.694-1.633,4.867,4.867,0,0,0-1.1-.432l0-2.758V24.967a1.28,1.28,0,0,0-2.559,0V55.751a4.373,4.373,0,0,0-1.076.441,4.567,4.567,0,0,0-1.73,1.665,4.313,4.313,0,0,0-.635,2.286,4.511,4.511,0,0,0,2.092,3.8,7.93,7.93,0,0,0,1.339.627c.084.024.3.092.643.205.207.065.391.131.57.2a5.267,5.267,0,0,1,1.512.815,2.112,2.112,0,0,1,.734,1.684,2,2,0,0,1-.6,1.486,2.094,2.094,0,0,1-1.533.588.934.934,0,0,1-.11-.006A2.194,2.194,0,0,1,167.235,69a2.162,2.162,0,0,1-.656-1.5h-3.135a5.011,5.011,0,0,0,.375,1.795,4.509,4.509,0,0,0,1.032,1.57,5.078,5.078,0,0,0,2.64,1.463v3.953s.9.074,1.2.075c.34,0,1.356-.075,1.356-.075V72.288a5.385,5.385,0,0,0,1.287-.522,5.122,5.122,0,0,0,2.6-4.5A4.467,4.467,0,0,0,172.233,63.649Z" fill="#3c3c3b"/>
      </g>
    </g>
    <g id="Group_177139" data-name="Group 177139">
      <path id="Path_40792" data-name="Path 40792" d="M188.185,84.224l1.487-1.528,2.665,2.582a1.285,1.285,0,0,0,1.817-.027h0a1.286,1.286,0,0,0-.028-1.82l-2.662-2.58,1.637-1.683-6.837-1.73Z" fill="#e2e3e4"/>
    </g>
    <g id="Group_177140" data-name="Group 177140">
      <path id="Path_40793" data-name="Path 40793" d="M149.679,84.224,148.192,82.7l-2.665,2.582a1.285,1.285,0,0,1-1.817-.027h0a1.287,1.287,0,0,1,.027-1.82l2.663-2.58-1.637-1.683,6.837-1.73Z" fill="#e2e3e4"/>
    </g>
    <g id="Group_177141" data-name="Group 177141">
      <path id="Path_40794" data-name="Path 40794" d="M165.225,91.8l2.131-.029.059,3.711a1.285,1.285,0,0,0,1.3,1.265h0a1.285,1.285,0,0,0,1.268-1.306l-.058-3.707,2.347-.033-3.61-6.057Z" fill="#e2e3e4"/>
    </g>
    <g id="Group_177143" data-name="Group 177143">
      <g id="Group_177142" data-name="Group 177142">
        <path id="Path_40795" data-name="Path 40795" d="M147.064,42.884H144.24a3.862,3.862,0,0,1-.067-.765,3.775,3.775,0,0,1,.067-.748h2.824v-3.1c.124-.023.247-.04.365-.051s.247-.017.384-.017.249.005.374.017.255.028.391.051v3.1h2.807c.023.124.039.249.05.374s.019.25.019.374-.007.253-.019.383-.027.258-.05.382h-2.807v3.08c-.136.023-.266.039-.391.051s-.249.016-.374.016a3.773,3.773,0,0,1-.749-.067Z" fill="#fff"/>
      </g>
    </g>
  </g>
</svg>
