<svg xmlns="http://www.w3.org/2000/svg" width="67.247" height="67.757" viewBox="0 0 67.247 67.757">
  <g id="Group_177167" data-name="Group 177167" transform="translate(-352.562 -351.685)">
    <g id="Group_177152" data-name="Group 177152">
      <circle id="Ellipse_713" data-name="Ellipse 713" cx="27.996" cy="27.996" r="27.996" transform="translate(357.859 357.744)" fill="#22bdff"/>
      <path id="Path_40967" data-name="Path 40967" d="M373.423,395.21c-.857-.186-.559.634-1.043-.41s-.485-.41-1.454,0-.447.112-.484-.373,0,0,.074-.745-.857-.447-1.416-1.118-.112-.484-.82-.682-.335.235-1.229-.585-.709-.149-1.081-.112-1.006.447-.932-.335-1.155.186-1.3.71-.224.333-.745-.039-.187.186-1.044,0,.3-1.3-.745-1.491-.373.186-.485-.708a5.371,5.371,0,0,1-.037-1.528c.037-.708-1.006-.224-.745,1.043s-.783.746-.969,0c-.158-.629-.659-.623-1.036-1.232.052.8.132,1.59.25,2.369.139.007-.028-.146.264-.317.447-.261.186.149,1.315.6s.176,0,.846.522.261.112.634.708.447.522.969.82.261.224.3,1.006-.3.671-1.006,1.715,0,.223.894,1.118.187.223.932,1.565.335,0,.782.6.075.522.82.857.187.6.075,1.156a2.776,2.776,0,0,0,.074,1.639c.224,1.081.485.746-.372,1.566-.113.107-.194.19-.252.257.13.154.263.307.4.458a1.258,1.258,0,0,1,.414.4c.053.082.1.149.14.209.53.567,1.079,1.116,1.654,1.638l.181-.1c.559-.3.373-.074.447-.708s.336-.41.894-.633.895-.261.858-.6.261-.484.782-1.043.559-.522.485-1.64.074-1.006,1.789-1.118.82-.149.67-.932,0-1.118.746-2.161.037-.746.372-1.565S374.28,395.4,373.423,395.21Z" fill="#005c75"/>
      <path id="Path_40968" data-name="Path 40968" d="M369.249,377.359c-.223-.261,0,0-.447-.3s.186-.634.261-1.081.075-.708-.447-1.416-.112.186-.447.82-.634-.038-.522-.895-.149-.186-.671-.633.261-.187,0-.82-.932.261-.969.82-.149.3-.559,1.267,0,.223.149,1.118-1.006.037-.969.522a4.162,4.162,0,0,1-.112,1.416c-.149.857-.41.037-.67-1.118s-.559-.261-.708-1.3-.783-.186-1.081-.558-.559-.895.335-1.566.224-.782,1.23-1.565.634-.484,1.453-.634.895-.745,1.081-1.006,0-.559-.782-.447-.932,1.155-.82-.335-.224.074-.82-.149c-.289-.109-.386-.207-.506-.234a27.865,27.865,0,0,0-5.369,16.479c0,.207.011.411.016.618a2.1,2.1,0,0,1,1.5-.242c.857.112.111-.261,1.863-.6s.3.335.708.633.484.149.484.149a1.292,1.292,0,0,1,.261.485c.112.335.037-.261.187-1.752s.894-.745,1.192-1.23.224-1.006,1.193-1.379.186-.3.708-1.192.223-.112,1.341-.373.336-.149.336-1.081-.559-.223.3-.82.373.038,1.23.3,0-.522.484-1.342S369.473,377.62,369.249,377.359Z" fill="#005c75"/>
      <path id="Path_40969" data-name="Path 40969" d="M369.519,371.061c-.139-.475,0,.167-.139-.7s.2-.811-.224-1.118-.056.335-.419-.307-.475.028-.559-.783.112-1.286-.335-1.006.251.726-.448.279-.279-.754-.95-.615-.028.2-.671.671-.894.811-.419,1.174.2.028.727.559.251.112.95.307.811.056.671.727.14.475,0,.951a1.452,1.452,0,0,1-.364.67c-.167.252.216.411-.167.252-.351-.146-.559-.363-.755,0s-.112.363.224.363.67-.056.726.364-.167.251.364.5,1.146,1.006,1.062.531-.587-.643-.252-.727.9.747.531-.171-.782-.906-.391-1.052-.084-.23.671.161,1.118.475.866-.112S369.659,371.536,369.519,371.061Z" fill="#005c75"/>
      <path id="Path_40970" data-name="Path 40970" d="M381.371,362.871c-.448.308.055-.083-.895.336s-.978.615-1.174.615,1.314-.91,1.062-1.07-.056-.26-.587,0-.726.483-.5.036.28-.064.587-.493.252-.346.475-.262.559-.252-.056-.42-.055-.139-.67-.475-.168-.587-1.118-.251-.28.363-.979.2-.922-.112-1.006.307.168.866-.279.559-.28-1.146-.448-.308-.642,1.677-.642.923.335-1.37-.224-1.034-.559.391-.783.279-.2-.475-.475.112-.084.755-.447.671-.7-.643-.81-.028.083.084.111.726,0,.839-.307.587-.475-.083-.531.084c-.089.266-.448,0-.895.265s-.391.322,0,.518,1.286.252.755.419-1.3-.307-1.069.168.177.2.6.559,0-.028.753.419.755.227.755.672a2.841,2.841,0,0,0,0,.893c.084.839.2.676,0,1.135s.084.012.224.6.279.28-.252.559-.363.28-.112.643-.139.364-.223.783.307.475-.056,1.006-.308.224.056,1.006.255.839.714,1.118.851,1.118.963.14.028-.783.363-1.2-.251-.5.839-.866.475-.2,1.341-.811.5-.167,1.314-.671.839-.691.727-.9-.408-.493.047-.325,1.015.531.679-.168-1.09-.47-.363-.906.671-.464.643-.687.335.2.363-.448-.223-.642,0-.978.671.308.392-.447-.587-.755-.056-1.342.363-.532.671-.881.335-.013.531-.684S381.818,362.564,381.371,362.871Z" fill="#005c75"/>
      <path id="Path_40971" data-name="Path 40971" d="M405.279,366.141c.048.485-.458.448-.607.261-.128-.16-.035-.352.267-1.137-.429-.4-.866-.79-1.319-1.162a.12.12,0,0,1-.1.045c-.16,0-.149-.11-.139-.235-.312-.251-.629-.5-.952-.735-.1.127-.2.3-.326.467-.316.428.094.391.3.5s-.056.149.037.335.056.447-.354.2-.2.3-.429.186-.205-.2-.54.187.279.186-.429.4-.111.156-.6.528.242.466.54.615.355.261.187.448l-.261-.056c-.158-.149-.084-.093-.317.1s0,0-.419.028-.131.084-.168.494.037.149.364.345.046.13.437.279.177.019.252.27a5.063,5.063,0,0,0,.233.69c.186.484-.065.158-.354-.028s-.177-.289-.242-.68-.429-.112-.5-.345-.176-.224-.586-.056.251.317-.038.391-.018.15.233.252.242.354.131.242.037-.158-.345-.112-.224-.084-.373-.587-.158.01-.186.289-.121.149-.121.354.168.177.316.317.15.14.094.457-.028.288.251.465.168-.018.27-.177.224-.074.354.056.224.065.355.354.093.187.037.382-.093-.083-.336-.493-.13-.056-.353.046-.057.3-.029.578a1.348,1.348,0,0,1,0,.559c-.046.428-.121.168-.29.307s-.343-.028-.427-.093-.019-.168.14-.224.289-.177.279-.484.056-.261-.074-.541-.168-.148-.326-.409.009-.224-.187-.55a1.785,1.785,0,0,0-.275-.41c-.238-.307-.144-.27-.079-.755s0,0-.289-.205-.2-.065-.521.131-.047.251.009.4.028.223-.093.512-.075.177.056.363.121.065.13.382.205.261.345.261.186.224.345.345.111.1-.056.4-.168-.019-.354-.178-.14-.13-.308-.2-.111-.122-.111-.122c-.41-.169-.308-.288-.6-.167-.533.223-.993-.325-1.528-.783s-.447-.261-.6-1.043.335-.447.671-1.193.074-.149.559-.6.41-.485.484-.894-.261-.3-.6,0-.3.26-.9.447-.372.671-.484,1.341a7.849,7.849,0,0,0-.3,1.752c.037.6.41.484.932.522s.521.385.782.391a.664.664,0,0,1,.391.27c.056.093.187-.131.28-.047.179.16.179.473-.449.4-.225.021-.647.1-1.489.254-1.006.186,0,0-.112.074a1.3,1.3,0,0,0-.41.82c-.112.522.112-.522-.52,0s-.188-.186-.039-.522-.149-.149-.633-.3.074.224.074.522.261.261.2.783-.2.037-.425-.261-.33.082-.336.633.187.373-.335.3-.484-.15-.224.3,0,0-.112.26-.335-.037-.521-.409-.187-.261-.783-.746.224.075.41-.112.3.038.932.187.522,0,.708-.559-.149-.3-.746-.783-.186-.037-1.229-.335-.224-.187-.634-.261-.335-.075-.783-.522-.186,0-1.117.671-1.007.484-.858.894.038.3-.559.932-.335.224-.424.708-.246.335-.694.7-.372.265-.559.824,0,.261.075,1.193,0,.261.484.149.112-.187.694-.448.089.112,0,.634.424.447.648.857.41.112.745-.484-.186-.41.038-.634.3-.112.111-.806-.41-.312-.186-.945.447-.373.634-.746,0-.186.335-.559.335-.41.671,0-.3.224-.336.671-.26.224-.521.485-.149.409.223.68.075.4.373.661.3-.224.6-.522.3-.074.932.275-.336.471-.671.247-.335-.186-.634.336.41.186.336.67-.149.149-.484-.221-.336.147-.41.743a1.148,1.148,0,0,0,0,.362c.055.07.021.1,0,0a.307.307,0,0,0-.071-.064c-.224-.149,0,0-.484.261s-.485.224-.932.075a1.88,1.88,0,0,0-.909-.075c-.462,0-.135-.373-.172-1.006s-.373-.112-.447.3.224.634-.075,1.006-.3.038-.261.6,0,0-.819.3,0,0-.448.708-.074.223-.708.223-.3-.037-.6.261.3.336.708.336.075.484.075,1.043-.038.261-.858-.037-.521.112-1.192.372,0,0,.3.783-.333.335-.221.82.335.186.857.447.41-.112,1.043-.447.186-.373.336-.745.447-.187.6-.9.3-.186,1.006.037.3-.223,1.044-.26.111.6.484.745.373.373.335.82.187.149.448-.149.26-.336-.038-.671-1.043-.745-.969-1.3.336.223.671.447.6.112,1.3.708-.187.41.335,1.043.484.485.484-.149.038-.41.932-.3.075.186.485.889.149.192.894.3.522-.075,1.193.074.149.485-.485,1.416,0,0-.745-.074-.373.037-.857.037-.373-.074-1.454-.41-.224,0-.41.895-.186.037-1.043-.261-.038-.336-1.081-.447,0,0-.447-.559.3-.41-.336-.709,0,0-.82-.186-.335-.074-1.565.634,0,0-.782-.224-.373-.037-1.118.447,0,0-.336.783.112.261-.3.932-.708.186-1.081.782-.223.149-.633.986-.038.319.112,1.1.074.336-.261,1.155.111.3.447,1.156.186.223,1.267.886c.466.286.557.375.556.4.029.007.076.019.15.042.557.169.747-.021,1.306-.021s.448.112,1.007-.186.5-.318.782-.224c.224.075.261.587.4.5s.643.086,1.146.31-.14.726-.308,1.23.224.167.476.726.111.2.67,1.006-.139.588.168,1.09-.084.364-.866,1.426,0,.391.615,1.006.055.363.307.727.224.224.252,1.174.028.391.558,1.314,0,.279.448.838.894.084,1.649-.307.391-.084.922-.587.308-.056.839-.811-.056-.671.531-.838.307-.168.5-.448-.028-.475-.084-.922.084-.28.475-.755.559-.2.923-.475.279-.363.055-.894-.083-.42-.139-1.2-.28-.336-.056-1.006,0,0,.251-.531.336.028.559-.336.308-.307.671-.671.364-.139.671-.866.252-.28.559-.783,0,0,.251-.726.336-.448-.223-.42,0,0-.727.056-.223.112-.671,0-.279-.168-.754-.365-.336-.445-.392-.809-.139-.223-.475-.559-.111-.475-.559-.978-.056-.224-.363-.866-.224-.308-.95-1.2.642-.168,1.257.419,0,.224.5.783.2.167.2.559.14.335.615.95.168.167.5,1.118.168.5.447.309.392-.113,1.062-.029.252,0,.476-.364.251-.363.671-.447a2.49,2.49,0,0,0,1.1-.811,4.059,4.059,0,0,0,.662-.782c.476-.615-.028-.336-.391-.615s-.363.223-.559-.308-.056-.167-.643.112-.335.2-.894-.112-.336-.475-.7-.838-.14-.531.363-.531.364.056,1.007.643.167.223.726.279,0,0,.839.212.2.291,1.286.1.475-.112,1.006.447l.531.671c.279.726.643-.112.95.587s.056.391.2,1.285.251.336,1.174,1.174a1.6,1.6,0,0,1,.484.618.739.739,0,0,1,.131-.227c.419-.531,0-.559-.224-1.173s.056-.28.7-.951.223-.447.5-.531.475-.251.866-.866.308,0,.811-.224.391,0,.559.363,0,.392.363.476.14.335.224.586.168.28.531.14.335.224.5.643.2.5-.028,1.118-.056.475.447.951.364.419.42.724.279.338.7.953.5.279.587-.224-.251-.308-.671-.922-.447-.2-.734-.5-.16-.5-.244-.979.084-.5.475-.531.531.112.979.643.251.363.81,0,.447-.252.252-.894.056-.42-.112-.643-.727-.5-.727-1.062.112-.364.5-.559.5.056.783,0c.2-.041.273-.182.453-.32.048-.669.081-1.342.081-2.022a27.9,27.9,0,0,0-8.571-20.15A1.275,1.275,0,0,0,405.279,366.141Z" fill="#005c75"/>
      <path id="Path_40972" data-name="Path 40972" d="M396.715,397.372c-.335.652-.074,1.062-.559,1.062s-.913.223-.876.521-.074.336.094.541c.154.188-.3.167-.336.764s-.167.782.336.838.782.019.82-.3-.615-.168,0-.764.484-.615.6-1.062.428-.578.3-.913S397.051,396.719,396.715,397.372Z" fill="#005c75"/>
      <path id="Path_40973" data-name="Path 40973" d="M411.389,394.162c-.251-.419-.014-.517-.573-.769a3.626,3.626,0,0,1-.922-.656.668.668,0,0,0-.545,0c-.415.237-.321.013.419.544s.573.266.727.783a1.772,1.772,0,0,0,.419.839,2.667,2.667,0,0,0,.741.712,3.629,3.629,0,0,0,.318.207c.084-.217.168-.433.246-.652-.088-.2-.244-.238-.313-.463C411.809,394.386,411.641,394.581,411.389,394.162Z" fill="#005c75"/>
      <path id="Path_40974" data-name="Path 40974" d="M401.3,362.676c.28.3-.268.8.131.67.111-.037-.187.131-.019.075s.248-.275.576-.555q-.518-.366-1.051-.707A1.929,1.929,0,0,0,401.3,362.676Z" fill="#005c75"/>
      <path id="Path_40975" data-name="Path 40975" d="M400.573,362.21c-.224-.391-.224-.22-.559-.464s-.168-.021-.522-.431l-.04-.047c-.222-.123-.447-.242-.672-.36a.707.707,0,0,0-.034.128c-.093.577-.447.559,0,.894s.559.112.783.429.149.447.634.447.573.081.751-.149C400.914,362.657,400.8,362.6,400.573,362.21Z" fill="#005c75"/>
      <path id="Path_40976" data-name="Path 40976" d="M387.063,363.924c-.354.037-.335-.391-.41.131s-.112.5-.354.558-.205-.167-.242.057c-.049.293-1.062-.3-.671.279s.447.3.54.82.168.577.429.764.336.559.41.186a3.452,3.452,0,0,0,.112-.764c0-.261.074-.82.279-.372s.5.894.541.521a.791.791,0,0,0-.243-.689c-.13-.149-.819-.485-.093-.522s.653.033.764-.3.54-.326-.111-.367S387.417,363.887,387.063,363.924Z" fill="#005c75"/>
      <path id="Path_40977" data-name="Path 40977" d="M380.225,372.608c-.3-.187-.392.093-.8.242s-.335.018-.689-.317-.149.5-.149.727.074.316.372.5.131.168.429.223.611.107.578-.223c-.019-.187.335-.317.54-.534S380.523,372.794,380.225,372.608Z" fill="#005c75"/>
      <path id="Path_40978" data-name="Path 40978" d="M381.846,377.489c-.122-.242-.093.28-.336.317s-.279.075-.223.447-.362.466-.023.578.339-.056.582-.224.093-.316.279-.6.3-.484.149-.522S381.92,377.638,381.846,377.489Z" fill="#005c75"/>
      <path id="Path_40979" data-name="Path 40979" d="M383.43,377.62c-.187-.075-.317-.056-.373-.373s.112-.428,0-.577-.056-.727-.335-.5-.038.243-.28.224c-.366-.028-.365.671-.1.82s.173-.093.36.335.652.494.279.6-.494-.079-.312.294.461.259.294.427-.41.113-.466.355,0,.112.261,0,.111-.149.466-.111.354.055.484-.094.354-.316.336-.466c-.006-.042.007-.039.022-.026-.023-.033-.057-.084-.116-.179C383.672,377.9,383.616,377.694,383.43,377.62Z" fill="#005c75"/>
      <path id="Path_40980" data-name="Path 40980" d="M368.122,365.82c-.182-.182-.335-.084-.615-.14s-.377.014-.643-.084a.267.267,0,0,1-.187-.241c-.229.216-.459.432-.681.656a.946.946,0,0,0,.225.089c.364.1.252.2.452.279s.135.084.555-.042.377.014.587.14.251,0,.447-.238S368.3,366,368.122,365.82Z" fill="#005c75"/>
      <path id="Path_40981" data-name="Path 40981" d="M373.6,360.728c-.026-.051-.041-.094-.057-.133a27.969,27.969,0,0,0-2.579,1.442c0,.036-.034.057-.089.058a28.106,28.106,0,0,0-3.784,2.871c.09.069.187.155.276.211.224.14.154.182.685.154s.14,0,.615.126.321-.014.377-.252-.042-.237.252-.475.279-.251.349-.377.308-.07.559-.294.1-.517.094-.671.326-.1.507-.264.126-.015.5,0,.042-.1.336-.391.447-.154.671-.392.248-.059.545-.293-.14-.014-.07-.14.475-.084.81-.335.308-.21.434-.322S373.712,360.943,373.6,360.728Z" fill="#005c75"/>
      <path id="Path_40982" data-name="Path 40982" d="M365.576,366.451c-.246.259-.488.521-.724.789a.72.72,0,0,1,.335-.036c.252,0,.2,0,.385-.308C365.746,366.612,365.727,366.509,365.576,366.451Z" fill="#005c75"/>
      <path id="Path_40983" data-name="Path 40983" d="M363.574,368.8a.5.5,0,0,0,.146.214.292.292,0,0,0,.349,0c.14-.086.364.277.35-.212s-.056-.55.014-.771a.6.6,0,0,0-.016-.284Q363.983,368.258,363.574,368.8Z" fill="#005c75"/>
      <path id="Path_40984" data-name="Path 40984" d="M366.663,404.933a27.142,27.142,0,0,0,38.385,0c-8.683,2.28-21.9,3.9-32.5-6.7s-8.718-22.176-5.885-31.689A27.142,27.142,0,0,0,366.663,404.933Z" opacity="0.3"/>
      <path id="Path_40985" data-name="Path 40985" d="M400.486,367.663c-.856,3.189-5.43,4.733-10.216,3.448s-7.971-4.912-7.115-8.1,5.43-4.733,10.216-3.448S401.342,364.474,400.486,367.663Z" fill="#fff" opacity="0.3"/>
      <path id="Path_40986" data-name="Path 40986" d="M395.311,361.663c-.166.619-1.56.784-3.113.367s-2.676-1.257-2.51-1.877,1.56-.784,3.113-.367S395.477,361.043,395.311,361.663Z" fill="#fff"/>
      <path id="Path_40987" data-name="Path 40987" d="M396.153,364.176c-.1.263-.717.273-1.376.021s-1.113-.669-1.012-.932.716-.273,1.376-.021S396.253,363.913,396.153,364.176Z" fill="#fff"/>
    </g>
    <g id="Group_177155" data-name="Group 177155">
      <rect id="Rectangle_162607" data-name="Rectangle 162607" width="14.351" height="24.863" rx="1.786" transform="translate(401.353 352.184)" fill="#243042"/>
      <rect id="Rectangle_162608" data-name="Rectangle 162608" width="11.684" height="18.462" transform="translate(402.686 354.194)" fill="#010203"/>
      <rect id="Rectangle_162609" data-name="Rectangle 162609" width="11.413" height="18.158" transform="translate(402.821 354.342)" fill="#00ab9d"/>
      <rect id="Rectangle_162610" data-name="Rectangle 162610" width="6.594" height="0.456" transform="translate(404.154 352.924)" fill="#4f6182"/>
      <rect id="Rectangle_162611" data-name="Rectangle 162611" width="2.111" height="0.456" transform="translate(411.455 352.924)" fill="#161a24"/>
      <path id="Rectangle_162612" data-name="Rectangle 162612" d="M.435,0H3.09a.435.435,0,0,1,.435.435v.982a.435.435,0,0,1-.435.435H.434A.434.434,0,0,1,0,1.417V.435A.435.435,0,0,1,.435,0Z" transform="translate(406.766 373.704)" fill="#a2a5ab"/>
      <path id="Path_40988" data-name="Path 40988" d="M409.758,375.487a7.081,7.081,0,0,0-2.747-1.6.405.405,0,0,1,.285-.117h2.462a.4.4,0,0,1,.4.4v.911A.4.4,0,0,1,409.758,375.487Z" fill="#7b7d82"/>
      <rect id="Rectangle_162613" data-name="Rectangle 162613" width="2.363" height="1.241" rx="0.291" transform="translate(403.49 373.704)" fill="#a2a5ab"/>
      <rect id="Rectangle_162614" data-name="Rectangle 162614" width="2.363" height="1.241" rx="0.291" transform="translate(411.203 373.704)" fill="#a2a5ab"/>
      <path id="Path_40989" data-name="Path 40989" d="M413.24,374.9a4.26,4.26,0,0,0-1.865-1.043.267.267,0,0,1,.215-.108h1.65a.27.27,0,0,1,.27.27v.611A.27.27,0,0,1,413.24,374.9Z" fill="#7b7d82"/>
      <path id="Path_40990" data-name="Path 40990" d="M405.533,374.9a4.26,4.26,0,0,0-1.866-1.043.27.27,0,0,1,.216-.108h1.65a.27.27,0,0,1,.27.27v.611A.27.27,0,0,1,405.533,374.9Z" fill="#7b7d82"/>
      <path id="Path_40991" data-name="Path 40991" d="M409.307,375.267h-1.558a.349.349,0,0,1-.349-.349v-.576a.349.349,0,0,1,.349-.349h1.558a.349.349,0,0,1,.349.349v.576A.349.349,0,0,1,409.307,375.267Zm-1.558-1.086a.161.161,0,0,0-.161.161v.576a.161.161,0,0,0,.161.16h1.558a.161.161,0,0,0,.161-.16v-.576a.161.161,0,0,0-.161-.161Z" fill="#1f252e"/>
      <path id="Path_40992" data-name="Path 40992" d="M403.145,352.347h10.932a1.775,1.775,0,0,1,1.476,1.671v20.927l-.2-20.652s.074-1.672-1.422-1.759C413.758,352.534,403.145,352.347,403.145,352.347Z" fill="#8e99ab"/>
      <path id="Path_40993" data-name="Path 40993" d="M414.034,376.743H403.1a1.775,1.775,0,0,1-1.476-1.672V354.145L402,374.8s0,1.557,1.25,1.557C403.421,376.354,414.034,376.743,414.034,376.743Z" fill="#0c0f14"/>
      <path id="Path_40994" data-name="Path 40994" d="M411.3,374.325c.057.383.567.575.567.575A.471.471,0,0,1,411.3,374.325Z" fill="#dce0e8"/>
      <path id="Path_40995" data-name="Path 40995" d="M406.883,374.63c.088.591.794.827.794.827S406.7,375.682,406.883,374.63Z" fill="#dce0e8"/>
      <path id="Path_40996" data-name="Path 40996" d="M403.6,374.394c.049.329.442.461.442.461S403.5,374.98,403.6,374.394Z" fill="#dce0e8"/>
      <g id="Group_177154" data-name="Group 177154">
        <g id="Group_177153" data-name="Group 177153">
          <path id="Path_40997" data-name="Path 40997" d="M411.938,361.193h-7.085a.425.425,0,0,0-.425.425v4.049a.425.425,0,0,0,.425.425h.656l-.82,1.416,2.255-1.416h4.994a.426.426,0,0,0,.426-.425v-4.049A.426.426,0,0,0,411.938,361.193Z" fill="#fff"/>
          <path id="Path_40998" data-name="Path 40998" d="M404.14,368.078l1.039-1.8h-.326a.616.616,0,0,1-.615-.615v-4.049a.616.616,0,0,1,.615-.615h7.085a.616.616,0,0,1,.616.615v4.049a.616.616,0,0,1-.616.615H407Zm.713-6.7a.236.236,0,0,0-.235.235v4.049a.235.235,0,0,0,.235.235h.986l-.6,1.037,1.65-1.037h5.049a.236.236,0,0,0,.236-.235v-4.049a.236.236,0,0,0-.236-.235Z" fill="#ff4242"/>
        </g>
        <path id="Path_40999" data-name="Path 40999" d="M407.128,363.623a.507.507,0,1,1-.507-.507A.507.507,0,0,1,407.128,363.623Z" fill="#bf3131"/>
        <path id="Path_41000" data-name="Path 41000" d="M408.9,363.623a.507.507,0,1,1-.507-.507A.507.507,0,0,1,408.9,363.623Z" fill="#bf3131"/>
        <path id="Path_41001" data-name="Path 41001" d="M410.678,363.623a.507.507,0,1,1-.507-.507A.507.507,0,0,1,410.678,363.623Z" fill="#bf3131"/>
      </g>
      <path id="Path_41002" data-name="Path 41002" d="M414.235,372.5l-11.413-18.158h11.413Z" fill="#fff" opacity="0.2"/>
      <path id="Path_41003" data-name="Path 41003" d="M414.76,352.586c.135.173.168.373.074.447s-.281-.006-.417-.179-.168-.373-.073-.447S414.624,352.413,414.76,352.586Z" fill="#fff"/>
      <path id="Path_41004" data-name="Path 41004" d="M415.224,353.183c.08.1.1.222.043.266s-.167,0-.247-.106-.1-.222-.044-.266S415.143,353.08,415.224,353.183Z" fill="#fff"/>
    </g>
    <g id="Group_177158" data-name="Group 177158">
      <rect id="Rectangle_162615" data-name="Rectangle 162615" width="14.791" height="25.625" rx="1.841" transform="translate(354.457 391.925)" fill="#fff"/>
      <rect id="Rectangle_162616" data-name="Rectangle 162616" width="12.043" height="19.028" transform="translate(355.831 393.997)" fill="#010203"/>
      <rect id="Rectangle_162617" data-name="Rectangle 162617" width="11.763" height="18.715" transform="translate(355.971 394.15)" fill="#f2a600"/>
      <rect id="Rectangle_162618" data-name="Rectangle 162618" width="6.796" height="0.47" transform="translate(357.344 392.688)" fill="#98bbfa"/>
      <rect id="Rectangle_162619" data-name="Rectangle 162619" width="2.175" height="0.47" transform="translate(364.87 392.688)" fill="#778cc2"/>
      <rect id="Rectangle_162620" data-name="Rectangle 162620" width="3.633" height="1.908" rx="0.448" transform="translate(360.036 414.105)" fill="#a2a5ab"/>
      <path id="Path_41005" data-name="Path 41005" d="M363.12,415.943a7.292,7.292,0,0,0-2.831-1.646.413.413,0,0,1,.294-.122h2.537a.415.415,0,0,1,.415.415v.938A.415.415,0,0,1,363.12,415.943Z" fill="#7b7d82"/>
      <rect id="Rectangle_162621" data-name="Rectangle 162621" width="2.435" height="1.279" rx="0.3" transform="translate(356.66 414.105)" fill="#a2a5ab"/>
      <rect id="Rectangle_162622" data-name="Rectangle 162622" width="2.435" height="1.279" rx="0.3" transform="translate(364.61 414.105)" fill="#a2a5ab"/>
      <path id="Path_41006" data-name="Path 41006" d="M366.709,415.338a4.4,4.4,0,0,0-1.923-1.075.277.277,0,0,1,.222-.111h1.7a.278.278,0,0,1,.278.278v.629A.278.278,0,0,1,366.709,415.338Z" fill="#7b7d82"/>
      <path id="Path_41007" data-name="Path 41007" d="M358.766,415.338a4.4,4.4,0,0,0-1.923-1.075.276.276,0,0,1,.222-.111h1.7a.279.279,0,0,1,.278.278v.629A.279.279,0,0,1,358.766,415.338Z" fill="#7b7d82"/>
      <path id="Path_41008" data-name="Path 41008" d="M362.656,415.716H361.05a.36.36,0,0,1-.36-.36v-.593a.36.36,0,0,1,.36-.36h1.606a.36.36,0,0,1,.359.36v.593A.36.36,0,0,1,362.656,415.716ZM361.05,414.6a.166.166,0,0,0-.166.166v.593a.166.166,0,0,0,.166.166h1.606a.165.165,0,0,0,.165-.166v-.593a.165.165,0,0,0-.165-.166Z" fill="#fff"/>
      <path id="Path_41009" data-name="Path 41009" d="M367.528,417.237H356.26a1.829,1.829,0,0,1-1.521-1.722V393.946l.382,21.286s0,1.605,1.289,1.605C356.589,416.837,367.528,417.237,367.528,417.237Z" fill="#8c8c8c"/>
      <path id="Path_41010" data-name="Path 41010" d="M364.71,414.745c.059.4.585.593.585.593A.486.486,0,0,1,364.71,414.745Z" fill="#dce0e8"/>
      <path id="Path_41011" data-name="Path 41011" d="M360.157,415.059c.091.61.819.853.819.853S359.974,416.144,360.157,415.059Z" fill="#dce0e8"/>
      <path id="Path_41012" data-name="Path 41012" d="M356.771,414.816c.051.34.456.475.456.475S356.669,415.42,356.771,414.816Z" fill="#dce0e8"/>
      <g id="Group_177157" data-name="Group 177157">
        <g id="Group_177156" data-name="Group 177156">
          <path id="Path_41013" data-name="Path 41013" d="M358.21,401.114h7.3a.438.438,0,0,1,.438.438v4.173a.438.438,0,0,1-.438.438h-.676l.845,1.46-2.324-1.46H358.21a.438.438,0,0,1-.438-.438v-4.173A.438.438,0,0,1,358.21,401.114Z" fill="#fff"/>
          <path id="Path_41014" data-name="Path 41014" d="M363.3,406.359H358.21a.635.635,0,0,1-.634-.634v-4.173a.635.635,0,0,1,.634-.634h7.3a.634.634,0,0,1,.634.634v4.173a.634.634,0,0,1-.634.634h-.336l1.071,1.851Zm-5.091-5.049a.242.242,0,0,0-.242.242v4.173a.242.242,0,0,0,.242.242h5.2l1.7,1.069-.619-1.069h1.016a.242.242,0,0,0,.242-.242v-4.173a.242.242,0,0,0-.242-.242Z" fill="#5542ff"/>
        </g>
        <path id="Path_41015" data-name="Path 41015" d="M363.168,403.618a.523.523,0,1,0,.522-.523A.523.523,0,0,0,363.168,403.618Z" fill="#5542ff"/>
        <path id="Path_41016" data-name="Path 41016" d="M361.339,403.618a.523.523,0,1,0,.522-.523A.523.523,0,0,0,361.339,403.618Z" fill="#5542ff"/>
        <path id="Path_41017" data-name="Path 41017" d="M359.51,403.618a.522.522,0,1,0,.522-.523A.523.523,0,0,0,359.51,403.618Z" fill="#5542ff"/>
      </g>
      <path id="Path_41018" data-name="Path 41018" d="M367.734,412.865,355.971,394.15h11.763Z" fill="#fff" opacity="0.2"/>
    </g>
    <g id="Group_177159" data-name="Group 177159">
      <path id="Path_41019" data-name="Path 41019" d="M399.388,356.948a5.194,5.194,0,0,0-1.152-.713l.434-.9a5.983,5.983,0,0,1,1.382.869Z" fill="#fff"/>
      <path id="Path_41020" data-name="Path 41020" d="M355.193,382.826l-1-.094c.1-1.025.223-2.042.377-3.023l.988.154C355.411,380.824,355.287,381.82,355.193,382.826Zm.935-5.888-.975-.225c.231-1,.5-2,.8-2.949l.953.3C356.616,374.994,356.352,375.96,356.128,376.938Zm1.805-5.661-.922-.386c.4-.951.843-1.882,1.321-2.765l.879.475C358.749,369.456,358.319,370.356,357.933,371.277Zm2.825-5.2-.824-.566a27.13,27.13,0,0,1,1.883-2.428l.754.658A26.027,26.027,0,0,0,360.758,366.073Zm3.884-4.447-.672-.74a26.466,26.466,0,0,1,2.392-1.932l.582.813A25.722,25.722,0,0,0,364.642,361.626Zm4.8-3.448-.49-.871a29.243,29.243,0,0,1,2.755-1.359l.394.918A28.417,28.417,0,0,0,369.445,358.178Zm5.444-2.351-.3-.953c.954-.306,1.949-.576,2.956-.8l.221.975C376.782,355.267,375.816,355.529,374.889,355.827Zm20.594-.57c-.9-.243-1.877-.452-2.9-.622l.163-.987c1.058.175,2.067.392,3,.644Zm-14.793-.747-.138-.99c.994-.14,2.017-.244,3.044-.309l.062,1C382.658,354.272,381.659,354.373,380.69,354.51Zm8.932-.24c-.984-.082-1.987-.13-2.979-.14l.009-1c1.017.011,2.044.059,3.054.143Z" fill="#fff"/>
      <path id="Path_41021" data-name="Path 41021" d="M354.957,387.353l-1-.014q.01-.766.038-1.511l1,.037C354.977,386.353,354.964,386.85,354.957,387.353Z" fill="#fff"/>
    </g>
    <g id="Group_177160" data-name="Group 177160">
      <path id="Path_41022" data-name="Path 41022" d="M372.21,417.014a6.115,6.115,0,0,1-1.381-.87l.666-.747a5.15,5.15,0,0,0,1.15.716Z" fill="#fff"/>
      <path id="Path_41023" data-name="Path 41023" d="M386.49,419.442l-.017-1c.951-.015,1.9-.064,2.836-.143l.085,1C388.44,419.377,387.464,419.426,386.49,419.442Zm-2.9-.047c-.972-.048-1.946-.129-2.9-.24l.118-.994c.926.11,1.877.189,2.827.236Zm8.7-.45-.156-.988c.938-.148,1.873-.334,2.778-.552l.235.973C394.207,418.6,393.246,418.792,392.281,418.945Zm-14.467-.231c-1-.193-1.959-.42-2.837-.675l.279-.961c.848.247,1.773.467,2.748.653Zm20.125-1.135-.314-.949c.9-.3,1.791-.642,2.636-1.013l.4.916C399.79,416.917,398.874,417.269,397.939,417.579Zm5.336-2.351-.492-.871a26.426,26.426,0,0,0,2.375-1.511l.582.812A27.268,27.268,0,0,1,403.275,415.228Zm4.745-3.4-.668-.744a24.862,24.862,0,0,0,1.981-2l.748.664A26.037,26.037,0,0,1,408.02,411.828Zm3.874-4.365-.816-.578a26.874,26.874,0,0,0,1.5-2.381l.873.488A27.479,27.479,0,0,1,411.894,407.463Zm2.85-5.084-.916-.4c.369-.845.71-1.732,1.012-2.635l.949.318C415.477,400.592,415.126,401.506,414.744,402.379Zm1.857-5.511-.971-.24c.222-.892.418-1.823.584-2.772l.984.172C417.028,395,416.827,395.955,416.6,396.868Zm1.006-5.711-.994-.109c.1-.917.181-1.87.235-2.833l1,.055C417.791,389.251,417.711,390.223,417.607,391.157Z" fill="#fff"/>
      <path id="Path_41024" data-name="Path 41024" d="M417.932,385.319l-1,0q0-.734-.011-1.488l1-.019Q417.936,384.573,417.932,385.319Z" fill="#fff"/>
    </g>
    <g id="Group_177163" data-name="Group 177163">
      <g id="Group_177161" data-name="Group 177161">
        <path id="Path_41025" data-name="Path 41025" d="M373.972,357.962l-10.517,7.318L359.1,359h0l10.507-7.312,4.367,6.277Z" fill="#fff"/>
        <path id="Path_41026" data-name="Path 41026" d="M359.443,358.756l9.823-6.836-2.091,7.459Z" fill="#c73e3e"/>
      </g>
      <rect id="Rectangle_162623" data-name="Rectangle 162623" width="3.757" height="0.596" transform="translate(369.053 358.853) rotate(-34.738)" fill="#858585"/>
      <rect id="Rectangle_162624" data-name="Rectangle 162624" width="6.325" height="0.596" transform="translate(367.529 361.161) rotate(-34.737)" fill="#858585"/>
      <g id="Group_177162" data-name="Group 177162">
        <path id="Path_41027" data-name="Path 41027" d="M365.628,362.676a2.019,2.019,0,0,1-.646.666,1.51,1.51,0,0,1-2.167-.4,1.837,1.837,0,0,1,.449-2.617,1.419,1.419,0,0,1,2.053.325,1.032,1.032,0,0,1-.1,1.512.39.39,0,0,1-.57-.072l-.008.006a.729.729,0,0,1-.309.68.568.568,0,0,1-.826-.214,1.136,1.136,0,0,1,.3-1.615,1.4,1.4,0,0,1,.557-.235l.4.842c.126.269.231.359.349.284.178-.118.243-.5-.083-.966a1.1,1.1,0,0,0-1.631-.266,1.449,1.449,0,0,0-.292,2.084,1.2,1.2,0,0,0,1.789.345,1.607,1.607,0,0,0,.5-.542Zm-1.533-1.435a.6.6,0,0,0-.139.072.656.656,0,0,0-.08.914c.108.156.246.205.381.112a.564.564,0,0,0,.049-.67Z" fill="#c73e3e"/>
      </g>
    </g>
    <path id="Path_41028" data-name="Path 41028" d="M352.562,388.569l4.136-.741-1.639,3.438Z" fill="#fff"/>
    <path id="Path_41029" data-name="Path 41029" d="M419.809,381.756l-5.245,1.048,1.849-4.091Z" fill="#fff"/>
    <g id="Group_177166" data-name="Group 177166">
      <g id="Group_177164" data-name="Group 177164">
        <path id="Path_41030" data-name="Path 41030" d="M400.211,412l10.487-7.259L415.02,411h0l-10.476,7.254L400.211,412Z" fill="#fff"/>
        <path id="Path_41031" data-name="Path 41031" d="M414.676,411.242l-9.794,6.781,2.1-7.42Z" fill="#504aff"/>
      </g>
      <rect id="Rectangle_162625" data-name="Rectangle 162625" width="3.74" height="0.593" transform="translate(401.694 412.758) rotate(-34.601)" fill="#858585"/>
      <rect id="Rectangle_162626" data-name="Rectangle 162626" width="6.296" height="0.593" transform="translate(401.113 411.915) rotate(-34.602)" fill="#858585"/>
      <g id="Group_177165" data-name="Group 177165">
        <path id="Path_41032" data-name="Path 41032" d="M408.528,407.324a2.037,2.037,0,0,1,.644-.661,1.5,1.5,0,0,1,2.157.407,1.827,1.827,0,0,1-.453,2.6,1.412,1.412,0,0,1-2.043-.328,1.028,1.028,0,0,1,.1-1.5.39.39,0,0,1,.568.072l.008-.006a.723.723,0,0,1,.308-.676.566.566,0,0,1,.822.215,1.13,1.13,0,0,1-.3,1.607,1.4,1.4,0,0,1-.555.233l-.4-.839c-.125-.268-.23-.358-.347-.283-.178.116-.243.492.08.961a1.091,1.091,0,0,0,1.623.269,1.443,1.443,0,0,0,.3-2.074,1.2,1.2,0,0,0-1.779-.348,1.626,1.626,0,0,0-.5.538Zm1.523,1.433a.567.567,0,0,0,.138-.071.654.654,0,0,0,.082-.91c-.107-.155-.244-.2-.379-.112a.562.562,0,0,0-.051.666Z" fill="#504aff"/>
      </g>
    </g>
  </g>
</svg>
