<svg xmlns="http://www.w3.org/2000/svg" xmlns:xlink="http://www.w3.org/1999/xlink" width="348.453" height="348.453" viewBox="0 0 348.453 348.453">
  <defs>
    <radialGradient id="radial-gradient" cx="0.5" cy="0.5" r="0.601" gradientTransform="matrix(0.707, -0.707, 0.707, 0.707, -0.207, 0.5)" gradientUnits="objectBoundingBox">
      <stop offset="0" stop-color="#fff"/>
      <stop offset="1" stop-color="#f4f4f4"/>
    </radialGradient>
    <radialGradient id="radial-gradient-2" cx="1.039" cy="0.739" r="0.678" gradientTransform="translate(0.145) scale(0.71 1)" gradientUnits="objectBoundingBox">
      <stop offset="0.109" stop-color="#d54600"/>
      <stop offset="1" stop-color="#ff1a85"/>
    </radialGradient>
    <radialGradient id="radial-gradient-3" cx="0.242" cy="0.265" r="0.677" gradientTransform="translate(0.254) scale(0.493 1)" gradientUnits="objectBoundingBox">
      <stop offset="0.028" stop-color="#d54600"/>
      <stop offset="1" stop-color="#ff1a85"/>
    </radialGradient>
  </defs>
  <g id="Group_177520" data-name="Group 177520" transform="translate(-344.875 -1762)">
    <rect id="Rectangle_162402" data-name="Rectangle 162402" width="246.394" height="246.394" rx="70.496" transform="translate(519.102 1762) rotate(45)" fill="url(#radial-gradient)"/>
    <path id="Path_15906" data-name="Path 15906" d="M514.953,336.009,434.415,255.47a63.107,63.107,0,0,1,0-89.248l80.538-80.538a63.107,63.107,0,0,1,89.248,0l80.539,80.538a63.107,63.107,0,0,1,0,89.248L604.2,336.009A63.107,63.107,0,0,1,514.953,336.009Z" transform="translate(-40.475 1725.38)" fill="none" stroke="#707070" stroke-miterlimit="10" stroke-width="1"/>
    <path id="Path_15910" data-name="Path 15910" d="M518.693,318.1a17.686,17.686,0,0,0-14.877,24.147,6.856,6.856,0,0,1,.5,2.984,5.082,5.082,0,0,1-2.426,4.274l.006,0c-9.623,3.583-26.009-2.718-50.033-51.756l-5.936-5.936s29.6,74.477,58.736,64.371a7.639,7.639,0,0,0,1.373-.539l.019-.009c.187-.082.374-.164.561-.253a26.066,26.066,0,0,1,10.835-2.2,17.6,17.6,0,0,0,6.211-.11,17.686,17.686,0,0,0-4.965-34.973Z" transform="translate(-43.619 1701.839)" fill="url(#radial-gradient-2)"/>
    <path id="Path_15912" data-name="Path 15912" d="M529,334.7l.856,1.733a1.507,1.507,0,0,0,1.133.824l1.913.277a1.505,1.505,0,0,1,.834,2.567l-1.385,1.349a1.506,1.506,0,0,0-.432,1.333l.327,1.9a1.5,1.5,0,0,1-2.183,1.586l-1.712-.9a1.508,1.508,0,0,0-1.4,0l-1.711.9a1.5,1.5,0,0,1-2.183-1.586l.327-1.9a1.509,1.509,0,0,0-.433-1.333l-1.384-1.349a1.505,1.505,0,0,1,.833-2.567l1.914-.277a1.505,1.505,0,0,0,1.132-.824l.856-1.733A1.5,1.5,0,0,1,529,334.7Z" transform="translate(-51.499 1697.433)" fill="#fff"/>
    <g id="Group_177506" data-name="Group 177506">
      <path id="Path_15909" data-name="Path 15909" d="M622.4,90.645c-2.816-3.109-12.345-2.859-12.345-2.859l1.475,1.476c37.194,2.139-53.174,33.417-75.582,40.952h0a4.959,4.959,0,0,1-5.883-3.741c0-.013-.009-.023-.013-.037a46.875,46.875,0,0,0-92.585,5.941l-.013,0s0,.062,0,.151c-.075.982-.123,1.971-.136,2.969a32.914,32.914,0,0,1-2.277,9.746l0,.006c-3.359,6.841-6.152,15.593-4.659,24.19l2.575-2.574s-.256-9.687,3.422-16.373c.219-.328,1.8-2.512,3.3.415.012.022.022.039.034.061a46.881,46.881,0,0,0,91.1-9.978h0v-.01c.024-.234.036-.472.056-.706.229-1.776,1.409-6.4,7.485-8.409l.029-.011C615.816,106.489,626.692,95.378,622.4,90.645Z" transform="translate(-41.947 1723.223)" fill="url(#radial-gradient-3)"/>
      <g id="Group_177061" data-name="Group 177061" transform="translate(428.651 1831.834)">
        <path id="Path_15917" data-name="Path 15917" d="M139.279,477.139c7.672,1.084,11.925,6.421,11.925,12.176,0,13.76-17.262,19.514-21.932,19.514a12.918,12.918,0,0,1-8.089-2.835,3.009,3.009,0,0,1-1.084-3.42,5.935,5.935,0,0,1,2.085-2.752,1.707,1.707,0,0,1,2.418.083c2,1.751,5.421,4.5,9.257,4.5,4.086,0,7.922-3.5,7.922-11.341,0-7.589-5.087-10.673-9.173-10.673a15.8,15.8,0,0,0-5.086.917l-.667-2.585c7.422-2.835,11.925-6.171,11.925-11.591,0-4.67-2.918-7.088-6.672-7.088-3.669,0-6.421,2.918-8.422,5.67l-1.918-1.668,3.669-5.171a13.675,13.675,0,0,1,10.091-4.5h.083c7.505,0,12.175,4.42,12.175,10.924a6.755,6.755,0,0,1-2.752,5.5,35.808,35.808,0,0,1-5.753,4.17Z" transform="translate(-119.939 -456.375)" fill="#fff"/>
      </g>
    </g>
  </g>
</svg>
