<svg xmlns="http://www.w3.org/2000/svg" xmlns:xlink="http://www.w3.org/1999/xlink" width="193.232" height="95.24" viewBox="0 0 193.232 95.24">
  <defs>
    <radialGradient id="radial-gradient" cx="0.524" cy="0.716" r="1.513" gradientTransform="translate(0.254) scale(0.493 1)" gradientUnits="objectBoundingBox">
      <stop offset="0" stop-color="#d54600"/>
      <stop offset="0.855" stop-color="#6e0083"/>
    </radialGradient>
  </defs>
  <g id="Group_177502" data-name="Group 177502" transform="translate(-1027.196 -1811.005)">
    <path id="Path_15922" data-name="Path 15922" d="M622.4,435.317c-2.816-3.109-12.345-2.858-12.345-2.858l1.475,1.475c37.194,2.139-53.174,33.417-75.582,40.952h0a4.958,4.958,0,0,1-5.883-3.741c0-.013-.009-.023-.013-.037a46.875,46.875,0,0,0-92.585,5.94l-.013,0s0,.063,0,.151c-.075.982-.123,1.971-.136,2.969a32.914,32.914,0,0,1-2.277,9.746l0,.006c-3.359,6.841-6.152,15.593-4.659,24.191l2.575-2.575s-.256-9.687,3.422-16.372c.219-.329,1.8-2.513,3.3.414.012.022.022.039.034.061a46.881,46.881,0,0,0,91.1-9.978h0v-.01c.024-.234.036-.471.056-.706.229-1.776,1.409-6.4,7.485-8.409l.029-.01C615.816,451.161,626.692,440.05,622.4,435.317Z" transform="translate(597.224 1378.551)" fill="url(#radial-gradient)"/>
    <g id="Group_177052" data-name="Group 177052" transform="translate(1067.485 1839.341)">
      <path id="Path_15904" data-name="Path 15904" d="M121.123,156.313v-2.669l5-.584c3.836-.334,4.253-1.5,4.253-5.754V129.459c0-3.918-.334-4.836-3.5-5l-5-.251v-2.5a104.706,104.706,0,0,0,17.6-4v29.6c0,4.253.333,5.42,4.336,5.838l4.837.5v2.669Z" transform="translate(-121.123 -117.702)" fill="#fff"/>
    </g>
  </g>
</svg>
