<svg xmlns="http://www.w3.org/2000/svg" width="1007.604" height="801.657" viewBox="0 0 1007.604 801.657">
  <g id="Group_181634" data-name="Group 181634" transform="translate(-179.198 -3061.5)">
    <g id="Group_179395" data-name="Group 179395" transform="translate(932.078 3148.295)">
      <g id="Group_179394" data-name="Group 179394">
        <circle id="Ellipse_874" data-name="Ellipse 874" cx="10.893" cy="10.893" r="10.893" fill="#b1b1b1" style="mix-blend-mode: multiply;isolation: isolate"/>
      </g>
      <path id="Path_49150" data-name="Path 49150" d="M632.783,244.772a6.285,6.285,0,1,1,6.285,6.285A6.285,6.285,0,0,1,632.783,244.772Z" transform="translate(-628.176 -233.879)" fill="#fff"/>
    </g>
    <g id="Group_179397" data-name="Group 179397" transform="translate(887.883 3453.203)">
      <g id="Group_179396" data-name="Group 179396">
        <circle id="Ellipse_875" data-name="Ellipse 875" cx="10.893" cy="10.893" r="10.893" fill="#b1b1b1" style="mix-blend-mode: multiply;isolation: isolate"/>
      </g>
      <path id="Path_49151" data-name="Path 49151" d="M632.783,368.364a6.285,6.285,0,1,1,6.285,6.285A6.286,6.286,0,0,1,632.783,368.364Z" transform="translate(-628.176 -357.472)" fill="#fff"/>
    </g>
    <g id="Group_179399" data-name="Group 179399" transform="translate(395.392 3453.354)">
      <g id="Group_179398" data-name="Group 179398">
        <circle id="Ellipse_876" data-name="Ellipse 876" cx="10.893" cy="10.893" r="10.893" fill="#b1b1b1" style="mix-blend-mode: multiply;isolation: isolate"/>
      </g>
      <path id="Path_49152" data-name="Path 49152" d="M457.006,368.461a6.285,6.285,0,1,1,6.285,6.285A6.286,6.286,0,0,1,457.006,368.461Z" transform="translate(-452.398 -357.569)" fill="#fff"/>
    </g>
    <g id="Group_179409" data-name="Group 179409" transform="translate(887.883 3760.528)">
      <g id="Group_179408" data-name="Group 179408">
        <circle id="Ellipse_881" data-name="Ellipse 881" cx="10.893" cy="10.893" r="10.893" fill="#b1b1b1" style="mix-blend-mode: multiply;isolation: isolate"/>
      </g>
      <path id="Path_49157" data-name="Path 49157" d="M544.894,491.957a6.285,6.285,0,1,1,6.285,6.285A6.286,6.286,0,0,1,544.894,491.957Z" transform="translate(-540.287 -481.064)" fill="#fff"/>
    </g>
    <g id="Group_181631" data-name="Group 181631">
      <g id="Group_181633" data-name="Group 181633">
        <g id="Group_179365" data-name="Group 179365" transform="translate(226.825 3139.879)">
          <path id="Path_49140" data-name="Path 49140" d="M1208.45,886.029H455.56c-86.066,0-166.084-76.862-166.084-171.337S369.494,543.355,455.56,543.355h612.677c68.563,0,144.343-61.23,144.343-136.492s-75.78-136.495-144.343-136.495H315.346V235.526h752.89c86.066,0,176.084,76.862,176.084,171.337S1154.3,578.2,1068.237,578.2H455.56C387,578.2,321.217,639.43,321.217,714.692S387,851.187,455.56,851.187h752.89Z" transform="translate(-299.476 -235.526)" fill="#ececec"/>
        </g>
        <g id="Group_181632" data-name="Group 181632">
          <g id="Group_179369" data-name="Group 179369" transform="translate(489.635 3453.354)">
            <g id="Group_179366" data-name="Group 179366" transform="translate(273.531)">
              <rect id="Rectangle_163272" data-name="Rectangle 163272" width="233.766" height="21.786" fill="#4564ad"/>
            </g>
            <g id="Group_179367" data-name="Group 179367" transform="translate(136.766)">
              <rect id="Rectangle_163273" data-name="Rectangle 163273" width="136.766" height="21.786" fill="#ea5e77"/>
            </g>
            <g id="Group_179368" data-name="Group 179368" transform="translate(-110.49)">
              <rect id="Rectangle_163274" data-name="Rectangle 163274" width="247.255" height="21.786" fill="#c1d000"/>
            </g>
          </g>
          <g id="Group_179373" data-name="Group 179373" transform="translate(489.635 3760.528)">
            <g id="Group_179370" data-name="Group 179370" transform="translate(273.531)">
              <rect id="Rectangle_163275" data-name="Rectangle 163275" width="264.607" height="21.786" fill="#fdc506"/>
            </g>
            <g id="Group_179371" data-name="Group 179371" transform="translate(136.766)">
              <rect id="Rectangle_163276" data-name="Rectangle 163276" width="136.766" height="21.786" fill="#39b7b1"/>
            </g>
            <g id="Group_179372" data-name="Group 179372" transform="translate(-116.56)">
              <rect id="Rectangle_163277" data-name="Rectangle 163277" width="253.326" height="21.786" fill="#f2913e"/>
            </g>
          </g>
          <g id="Group_179377" data-name="Group 179377" transform="translate(338.848 3148.295)">
            <g id="Group_179374" data-name="Group 179374" transform="translate(546.69)">
              <rect id="Rectangle_163278" data-name="Rectangle 163278" width="116.444" height="21.786" fill="#ed84b1"/>
            </g>
            <g id="Group_179375" data-name="Group 179375" transform="translate(145.843)">
              <rect id="Rectangle_163279" data-name="Rectangle 163279" width="400.847" height="21.786" fill="#fdc506"/>
            </g>
            <g id="Group_179376" data-name="Group 179376">
              <rect id="Rectangle_163280" data-name="Rectangle 163280" width="145.843" height="21.786" fill="#3cbad1"/>
            </g>
          </g>
          <g id="Group_179384" data-name="Group 179384" transform="translate(179.198 3061.5)">
            <g id="Group_179379" data-name="Group 179379">
              <circle id="Ellipse_864" data-name="Ellipse 864" cx="70.544" cy="70.544" r="70.544" transform="translate(0 52.53) rotate(-21.859)" fill="#3cbad1"/>
              <circle id="Ellipse_865" data-name="Ellipse 865" cx="54.919" cy="54.919" r="54.919" transform="translate(36.818 36.818)" fill="#fff"/>
            </g>
          </g>
          <g id="Group_179388" data-name="Group 179388" transform="translate(1003.328 3672.393)">
            <g id="Group_179385" data-name="Group 179385" transform="translate(0 7.291)">
              <circle id="Ellipse_868" data-name="Ellipse 868" cx="70.544" cy="70.544" r="70.544" transform="translate(0 52.53) rotate(-21.859)" fill="#fdc506"/>
              <circle id="Ellipse_869" data-name="Ellipse 869" cx="54.919" cy="54.919" r="54.919" transform="translate(20.244 61.388) rotate(-21.998)" fill="#fff"/>
            </g>
            <g id="Group_179387" data-name="Group 179387" transform="translate(55.316)">
              <circle id="Ellipse_870" data-name="Ellipse 870" cx="30.554" cy="30.554" r="30.554" transform="matrix(0.161, -0.987, 0.987, 0.161, 0, 60.309)" fill="#fff" stroke="#fdc506" stroke-miterlimit="10" stroke-width="2"/>
              <circle id="Ellipse_871" data-name="Ellipse 871" cx="20.042" cy="20.042" r="20.042" transform="translate(15.037 15.037)" fill="none" stroke="#fdc506" stroke-miterlimit="10" stroke-width="2"/>
              <path id="Path_49144" data-name="Path 49144" d="M673.944,451.9a9.181,9.181,0,1,1,9.181,9.181A9.181,9.181,0,0,1,673.944,451.9Z" transform="translate(-648.047 -416.818)" fill="#e84865"/>
              <g id="Group_179386" data-name="Group 179386" transform="translate(58.017 7.083)">
                <path id="Path_49145" data-name="Path 49145" d="M710.728,432.435c-1.159-2.1-4.433-2.042-6.386-1.461-6.43,1.908-9.719,9.315-9.747,15.519-.43.641,14.534-6.929,14.7-7.182C710.459,437.548,711.892,434.546,710.728,432.435Z" transform="translate(-694.585 -430.625)" fill="#e84865"/>
                <path id="Path_49146" data-name="Path 49146" d="M716.183,440.849c.8,2.267-1.433,4.667-3.168,5.736-5.708,3.521-13.423,1.036-18.067-3.078-.764-.107,14.855-6.215,15.153-6.172C712.192,437.642,715.385,438.574,716.183,440.849Z" transform="translate(-694.398 -426.894)" fill="#e84865"/>
              </g>
              <path id="Path_49147" data-name="Path 49147" d="M679.844,456s1.268-1.189,3.573-3.01a88.079,88.079,0,0,1,35.7-16.789l3.943-.868h0a86.7,86.7,0,0,1-40.314,20.117Q681.332,455.737,679.844,456Z" transform="translate(-644.766 -420.922)" fill="#4564ad"/>
            </g>
          </g>
          <g id="Group_179393" data-name="Group 179393" transform="translate(672.5 3148.295)">
            <g id="Group_179392" data-name="Group 179392">
              <circle id="Ellipse_873" data-name="Ellipse 873" cx="10.893" cy="10.893" r="10.893" fill="#b1b1b1" style="mix-blend-mode: multiply;isolation: isolate"/>
            </g>
            <path id="Path_49149" data-name="Path 49149" d="M544.894,244.772a6.285,6.285,0,1,1,6.285,6.285A6.286,6.286,0,0,1,544.894,244.772Z" transform="translate(-540.287 -233.879)" fill="#fff"/>
          </g>
          <g id="Group_179421" data-name="Group 179421" transform="translate(915.588 3040.163)">
            <g id="Group_179413" data-name="Group 179413" transform="translate(19.351 69.514)">
              <line id="Line_234" data-name="Line 234" y2="40.737" transform="translate(8.032)" fill="none" stroke="#df5791" stroke-miterlimit="10" stroke-width="1"/>
              <circle id="Ellipse_882" data-name="Ellipse 882" cx="8.032" cy="8.032" r="8.032" transform="translate(0 40.737)" fill="none" stroke="#df5791" stroke-miterlimit="10" stroke-width="1"/>
              <path id="Path_49158" data-name="Path 49158" d="M600.033,243.327a3.578,3.578,0,1,1-3.578-3.576A3.578,3.578,0,0,1,600.033,243.327Z" transform="translate(-588.423 -194.559)" fill="#fff"/>
            </g>
          </g>
          <g id="Group_179446" data-name="Group 179446" transform="translate(4823.008 -5934.315)">
            <g id="Group_179391" data-name="Group 179391" transform="translate(-4382.229 9082.61)">
              <g id="Group_179390" data-name="Group 179390">
                <circle id="Ellipse_872" data-name="Ellipse 872" cx="10.893" cy="10.893" r="10.893" fill="#b1b1b1" style="mix-blend-mode: multiply;isolation: isolate"/>
              </g>
              <path id="Path_49148" data-name="Path 49148" d="M457.006,244.772a6.285,6.285,0,1,1,6.285,6.285A6.285,6.285,0,0,1,457.006,244.772Z" transform="translate(-452.398 -233.879)" fill="#fff"/>
            </g>
            <g id="Group_179424" data-name="Group 179424" transform="translate(-4396.957 8981.444)">
              <g id="Group_179422" data-name="Group 179422" transform="translate(17.589 62.548)">
                <line id="Line_235" data-name="Line 235" y2="40.737" transform="translate(8.031)" fill="none" stroke="#009ab7" stroke-miterlimit="10" stroke-width="1"/>
                <path id="Path_49164" data-name="Path 49164" d="M428,244.919a8.032,8.032,0,1,1-8.033-8.031A8.032,8.032,0,0,1,428,244.919Z" transform="translate(-411.939 -196.151)" fill="none" stroke="#009ab7" stroke-miterlimit="10" stroke-width="1"/>
                <path id="Path_49165" data-name="Path 49165" d="M421.956,243.327a3.577,3.577,0,1,1-3.577-3.576A3.577,3.577,0,0,1,421.956,243.327Z" transform="translate(-410.347 -194.559)" fill="#fff"/>
              </g>
            </g>
          </g>
          <g id="Group_179447" data-name="Group 179447" transform="translate(4902.198 -5953.731)">
            <g id="Group_179407" data-name="Group 179407" transform="translate(-4421.324 9714.26)">
              <g id="Group_179406" data-name="Group 179406">
                <circle id="Ellipse_880" data-name="Ellipse 880" cx="10.893" cy="10.893" r="10.893" fill="#b1b1b1" style="mix-blend-mode: multiply;isolation: isolate"/>
              </g>
              <path id="Path_49156" data-name="Path 49156" d="M457.006,491.957a6.285,6.285,0,1,1,6.285,6.285A6.285,6.285,0,0,1,457.006,491.957Z" transform="translate(-452.398 -481.064)" fill="#fff"/>
            </g>
            <g id="Group_179435" data-name="Group 179435" transform="translate(-4480.865 9606.035)">
              <g id="Group_179434" data-name="Group 179434" transform="translate(62.402 70.248)">
                <line id="Line_242" data-name="Line 242" y2="40.737" transform="translate(8.031)" fill="none" stroke="#eb7206" stroke-miterlimit="10" stroke-width="1"/>
                <path id="Path_49175" data-name="Path 49175" d="M428,492.518a8.032,8.032,0,1,1-8.033-8.033A8.032,8.032,0,0,1,428,492.518Z" transform="translate(-411.939 -443.749)" fill="none" stroke="#eb7206" stroke-miterlimit="10" stroke-width="1"/>
                <path id="Path_49176" data-name="Path 49176" d="M421.956,490.926a3.577,3.577,0,1,1-3.577-3.578A3.577,3.577,0,0,1,421.956,490.926Z" transform="translate(-410.347 -442.157)" fill="#fff"/>
              </g>
            </g>
          </g>
          <g id="Group_179438" data-name="Group 179438" transform="translate(828.343 3652.304)">
            <g id="Group_179437" data-name="Group 179437" transform="translate(62.402 70.248)">
              <line id="Line_243" data-name="Line 243" y2="40.737" transform="translate(8.032)" fill="none" stroke="#c19607" stroke-miterlimit="10" stroke-width="1"/>
              <circle id="Ellipse_885" data-name="Ellipse 885" cx="8.032" cy="8.032" r="8.032" transform="translate(0 40.737)" fill="none" stroke="#c19607" stroke-miterlimit="10" stroke-width="1"/>
              <path id="Path_49177" data-name="Path 49177" d="M601.95,490.926a3.578,3.578,0,1,1-3.578-3.578A3.577,3.577,0,0,1,601.95,490.926Z" transform="translate(-590.341 -442.157)" fill="#fff"/>
            </g>
          </g>
          <g id="Group_179441" data-name="Group 179441" transform="translate(828.344 3346.952)">
            <g id="Group_179440" data-name="Group 179440" transform="translate(62.4 68.509)">
              <line id="Line_244" data-name="Line 244" y2="40.737" transform="translate(8.032)" fill="none" stroke="#2f4679" stroke-miterlimit="10" stroke-width="1"/>
              <path id="Path_49178" data-name="Path 49178" d="M603.78,369.074a8.032,8.032,0,1,1-8.031-8.031A8.031,8.031,0,0,1,603.78,369.074Z" transform="translate(-587.716 -320.306)" fill="none" stroke="#2f4679" stroke-miterlimit="10" stroke-width="1"/>
              <path id="Path_49179" data-name="Path 49179" d="M597.734,367.483a3.578,3.578,0,1,1-3.578-3.578A3.577,3.577,0,0,1,597.734,367.483Z" transform="translate(-586.124 -318.714)" fill="#fff"/>
            </g>
          </g>
          <g id="Group_179443" data-name="Group 179443" transform="translate(349.223 3333.254)">
            <g id="Group_179442" data-name="Group 179442" transform="translate(49.03 82.207)">
              <line id="Line_245" data-name="Line 245" y2="40.737" transform="translate(8.032)" fill="none" stroke="#95c11f" stroke-miterlimit="10" stroke-width="1"/>
              <circle id="Ellipse_886" data-name="Ellipse 886" cx="8.032" cy="8.032" r="8.032" transform="translate(0 40.737)" fill="none" stroke="#95c11f" stroke-miterlimit="10" stroke-width="1"/>
              <path id="Path_49180" data-name="Path 49180" d="M419.657,367.483a3.578,3.578,0,1,1-3.578-3.578A3.577,3.577,0,0,1,419.657,367.483Z" transform="translate(-408.048 -318.714)" fill="#fff"/>
            </g>
          </g>
          <text id="الفكرة" transform="translate(270.936 3156.077)" font-size="18" font-family="ElMessiri-Bold, El Messiri" font-weight="700"><tspan x="-24.399" y="0">الفكرة</tspan></text>
          <text id="الهدف" transform="translate(1095.065 3780.382)" font-size="18" font-family="ElMessiri-Bold, El Messiri" font-weight="700"><tspan x="-26.19" y="0">الهدف</tspan></text>
        </g>
      </g>
    </g>
  </g>
</svg>
