<svg xmlns="http://www.w3.org/2000/svg" width="58.171" height="58.559" viewBox="0 0 58.171 58.559">
  <g id="dart-svgrepo-com" transform="translate(-0.847 -0.001)">
    <path id="Path_51832" data-name="Path 51832" d="M57.773,56.935,53.988,53.15,54,80.508l.045,1.279a9.023,9.023,0,0,0,.317,1.984L84.355,94.346l7.5-3.321,0-.009L57.773,56.935" transform="translate(-40.986 -40.992)" fill="#00d2b8"/>
    <path id="Path_51833" data-name="Path 51833" d="M55.618,186.889l0,0a.28.28,0,0,1-.008-.039.1.1,0,0,0,.006.037ZM93.1,194.143l-7.5,3.321L55.62,186.891a14.313,14.313,0,0,0,3.206,6.019l9.787,9.731,21.76.028,2.734-8.536,0,.009Z" transform="translate(-42.238 -144.11)" fill="#55ddca"/>
    <path id="Path_51834" data-name="Path 51834" d="M1.347,70.756C.378,71.79.859,73.924,2.419,75.5l6.729,6.785,4.232,1.49a9.023,9.023,0,0,1-.317-1.984l-.045-1.279L13,53.15Z" transform="translate(0 -40.992)" fill="#0081c6"/>
    <path id="Path_51835" data-name="Path 51835" d="M84.6,53.483a9.368,9.368,0,0,0-1.99-.31l-1.351-.047-27.272,0L91.858,91h0l3.326-7.5L84.6,53.483" transform="translate(-40.986 -40.973)" fill="#0079b3"/>
    <path id="Path_51836" data-name="Path 51836" d="M187.67,54.654l.036.009h0a.18.18,0,0,0-.034-.007Zm6.05,3.22a14.116,14.116,0,0,0-6.014-3.212L198.29,84.671l-3.326,7.5h0l8.128-2.6.017-22.283-9.386-9.422Z" transform="translate(-144.089 -42.151)" fill="#00a4e4"/>
    <path id="Path_51837" data-name="Path 51837" d="M83.119,8.3,76.335,1.57C74.767.016,72.632-.467,71.6.5L53.988,12.157l27.272,0,1.351.047a9.368,9.368,0,0,1,1.99.31L83.119,8.3Z" transform="translate(-40.986 0)" fill="#00d2b8"/>
  </g>
</svg>
