<svg xmlns="http://www.w3.org/2000/svg" width="56.17" height="56.17" viewBox="0 0 56.17 56.17">
  <g id="SvgjsG1014" transform="translate(0.189 0.189)">
    <g id="Layer_1" data-name="Layer 1" transform="translate(-0.189 -0.189)">
      <circle id="Ellipse_608" data-name="Ellipse 608" cx="28.085" cy="28.085" r="28.085" fill="#38a8e0"/>
      <path id="Path_12056" data-name="Path 12056" d="M59.33,40.468a12.44,12.44,0,0,1-3.575.979A6.239,6.239,0,0,0,58.489,38a12.457,12.457,0,0,1-3.952,1.508,6.226,6.226,0,0,0-10.6,5.676,17.665,17.665,0,0,1-12.825-6.5,6.231,6.231,0,0,0,1.924,8.306,6.2,6.2,0,0,1-2.816-.78v.078a6.226,6.226,0,0,0,4.991,6.1A6.235,6.235,0,0,1,32.4,52.5a6.231,6.231,0,0,0,5.815,4.3,12.483,12.483,0,0,1-7.73,2.665A12.626,12.626,0,0,1,29,59.407,17.613,17.613,0,0,0,38.532,62.2c11.447,0,17.7-9.48,17.7-17.7v-.806A12.644,12.644,0,0,0,59.33,40.468Z" transform="translate(-16.08 -20.923)" fill="#fff"/>
    </g>
  </g>
</svg>
