<svg id="SvgjsG1014" xmlns="http://www.w3.org/2000/svg" width="56.17" height="56.17" viewBox="0 0 56.17 56.17">
  <g id="Ebene_1" data-name="Ebene 1">
    <path id="Path_12054" data-name="Path 12054" d="M56.17,28.085A28.085,28.085,0,1,0,23.7,55.828V36.2H16.566V28.085H23.7V21.9c0-7.039,4.193-10.927,10.608-10.927a43.188,43.188,0,0,1,6.287.549v6.911H37.05c-3.489,0-4.577,2.165-4.577,4.386v5.268h7.789L39.017,36.2H32.473V55.828A28.092,28.092,0,0,0,56.17,28.085Z" fill="#1877f2"/>
    <path id="Path_12055" data-name="Path 12055" d="M324.451,225.232l1.245-8.118h-7.789v-5.268c0-2.221,1.088-4.386,4.577-4.386h3.541v-6.911a43.188,43.188,0,0,0-6.287-.549c-6.415,0-10.608,3.888-10.608,10.927v6.187H302v8.118h7.131v19.625a28.381,28.381,0,0,0,8.776,0V225.232Z" transform="translate(-285.434 -189.029)" fill="#fff"/>
  </g>
</svg>
