<svg id="SvgjsG1014" xmlns="http://www.w3.org/2000/svg" width="24.183" height="24.183" viewBox="0 0 24.183 24.183">
  <g id="Ebene_1" data-name="Ebene 1">
    <path id="Path_12054" data-name="Path 12054" d="M24.183,12.092A12.092,12.092,0,1,0,10.2,24.037v-8.45H7.132v-3.5H10.2V9.428c0-3.03,1.805-4.7,4.567-4.7a18.594,18.594,0,0,1,2.707.236V7.935H15.952a1.748,1.748,0,0,0-1.971,1.888v2.268h3.354l-.536,3.5H13.981v8.45A12.1,12.1,0,0,0,24.183,12.092Z" fill="#1877f2"/>
    <path id="Path_12055" data-name="Path 12055" d="M311.666,210.864l.536-3.5h-3.354V205.1a1.748,1.748,0,0,1,1.971-1.888h1.525v-2.976a18.594,18.594,0,0,0-2.707-.236c-2.762,0-4.567,1.674-4.567,4.7v2.664H302v3.5h3.07v8.45a12.219,12.219,0,0,0,3.779,0v-8.45Z" transform="translate(-294.868 -195.277)" fill="#fff"/>
  </g>
</svg>
