<svg id="search" xmlns="http://www.w3.org/2000/svg" width="55.225" height="55.225" viewBox="0 0 55.225 55.225">
  <path id="Path_12045" data-name="Path 12045" d="M12.239,156.727,10.317,163.9l-7.026.149a27.661,27.661,0,0,1-.2-25.784h0l6.255,1.147,2.74,6.217a16.479,16.479,0,0,0,.155,11.095Z" transform="translate(0 -123.354)" fill="#fbbb00"/>
  <path id="Path_12046" data-name="Path 12046" d="M288.151,208.176a27.6,27.6,0,0,1-9.843,26.691h0l-7.879-.4-1.115-6.961a16.456,16.456,0,0,0,7.081-8.4H261.628V208.176h26.523Z" transform="translate(-233.409 -185.722)" fill="#518ef8"/>
  <path id="Path_12047" data-name="Path 12047" d="M72.115,325.18l0,0a27.621,27.621,0,0,1-41.608-8.447l8.948-7.325a16.422,16.422,0,0,0,23.665,8.408Z" transform="translate(-27.218 -276.036)" fill="#28b446"/>
  <path id="Path_12048" data-name="Path 12048" d="M70.774,6.357,61.828,13.68a16.42,16.42,0,0,0-24.208,8.6l-9-7.364h0a27.618,27.618,0,0,1,42.15-8.557Z" transform="translate(-25.537)" fill="#f14336"/>
</svg>
