<svg xmlns="http://www.w3.org/2000/svg" width="24.655" height="33.905" viewBox="0 0 24.655 33.905">
  <g id="Group_178110" data-name="Group 178110" transform="translate(-138.242 -11.611)">
    <g id="Group_178035" data-name="Group 178035" transform="translate(154.993 29.695)">
      <g id="Group_178032" data-name="Group 178032">
        <g id="Group_178031" data-name="Group 178031">
          <path id="Path_42180" data-name="Path 42180" d="M185.342,57.882a2.953,2.953,0,1,0,0,4.176A2.939,2.939,0,0,0,185.342,57.882Z" transform="translate(-180.303 -57.017)" fill="#bf4e00"/>
        </g>
      </g>
      <g id="Group_178034" data-name="Group 178034" transform="translate(1.705 0.344)">
        <g id="Group_178033" data-name="Group 178033">
          <path id="Path_42181" data-name="Path 42181" d="M186.674,60.421a2,2,0,0,0-.586-.3l-.165-.055c-.033-.011-.062-.023-.091-.035a.882.882,0,0,1-.286-.165.372.372,0,0,1-.106-.277.4.4,0,0,1,.105-.288.36.36,0,0,1,.274-.112h.013a.421.421,0,0,1,.286.107.434.434,0,0,1,.134.292h.733a1.212,1.212,0,0,0-.165-.563,1.038,1.038,0,0,0-.4-.389,1.074,1.074,0,0,0-.262-.1v-.657h-.609v.661h0a1.105,1.105,0,0,0-.256.1,1.085,1.085,0,0,0-.411.4,1.034,1.034,0,0,0-.151.544,1.078,1.078,0,0,0,.5.9,1.85,1.85,0,0,0,.319.149c.019.005.07.022.153.049l.134.047a1.262,1.262,0,0,1,.36.194.5.5,0,0,1,.175.4.473.473,0,0,1-.143.354.5.5,0,0,1-.365.139l-.027,0a.484.484,0,0,1-.5-.485h-.746a1.179,1.179,0,0,0,.089.427,1.062,1.062,0,0,0,.246.374,1.2,1.2,0,0,0,.627.348v.642h.609v-.652a1.221,1.221,0,0,0,.924-1.194A1.062,1.062,0,0,0,186.674,60.421Z" transform="translate(-184.584 -57.881)" fill="#ff6800"/>
        </g>
      </g>
    </g>
    <g id="Group_178037" data-name="Group 178037" transform="translate(154.112 14.128)">
      <g id="Group_178036" data-name="Group 178036" transform="translate(0 0)">
        <path id="Path_42182" data-name="Path 42182" d="M179.044,19.472h-.931a1.279,1.279,0,0,1-.022-.252,1.247,1.247,0,0,1,.022-.247h.931V17.952c.041-.008.082-.013.121-.017s.082-.005.127-.005.082,0,.123.005.084.01.129.017v1.021h.926a1.18,1.18,0,0,1,.016.123c0,.041.006.082.006.123s0,.083-.006.126a1.172,1.172,0,0,1-.016.126h-.926v1.016c-.045.007-.088.013-.129.017s-.082.005-.123.005a1.263,1.263,0,0,1-.247-.022Z" transform="translate(-178.091 -17.93)" fill="#c2edff"/>
      </g>
    </g>
    <g id="Group_178039" data-name="Group 178039" transform="translate(139.335 21.018)">
      <g id="Group_178038" data-name="Group 178038" transform="translate(0 0)">
        <path id="Path_42183" data-name="Path 42183" d="M141.577,36.187H141a.812.812,0,0,1-.014-.157.8.8,0,0,1,.014-.153h.578v-.634c.025,0,.051-.008.075-.01s.051,0,.078,0,.051,0,.076,0,.053.006.08.01v.634h.575a.99.99,0,0,1,.014.153.741.741,0,0,1,0,.078.711.711,0,0,1-.01.078h-.575v.63c-.027,0-.055.008-.08.011s-.051,0-.076,0a.76.76,0,0,1-.153-.014Z" transform="translate(-140.986 -35.23)" fill="#c2edff"/>
      </g>
    </g>
    <g id="Group_178041" data-name="Group 178041" transform="translate(159.909 27.41)">
      <g id="Group_178040" data-name="Group 178040" transform="translate(0)">
        <path id="Path_42184" data-name="Path 42184" d="M193.239,52.238h-.578a.783.783,0,0,1-.014-.157.764.764,0,0,1,.014-.153h.578v-.634c.025,0,.051-.008.074-.01s.051,0,.079,0,.051,0,.076,0,.052.006.08.01v.634h.574c0,.025.008.051.01.076s0,.051,0,.077,0,.051,0,.078-.006.053-.01.078h-.574v.63c-.028,0-.055.008-.08.01s-.051,0-.076,0a.76.76,0,0,1-.153-.014Z" transform="translate(-192.647 -51.281)" fill="#c2edff"/>
      </g>
    </g>
    <g id="Group_178042" data-name="Group 178042" transform="translate(138.242 11.611)">
      <circle id="Ellipse_787" data-name="Ellipse 787" cx="9.358" cy="9.358" r="9.358" transform="matrix(0.929, -0.369, 0.369, 0.929, 0, 6.904)" fill="#c2edff"/>
    </g>
    <g id="Group_178047" data-name="Group 178047" transform="translate(156.141 27.408)">
      <g id="Group_178044" data-name="Group 178044" transform="translate(0)">
        <g id="Group_178043" data-name="Group 178043">
          <path id="Path_42185" data-name="Path 42185" d="M186.265,51.8a1.805,1.805,0,1,0,0,2.552A1.8,1.8,0,0,0,186.265,51.8Z" transform="translate(-183.184 -51.276)" fill="#ff6800"/>
        </g>
      </g>
      <g id="Group_178046" data-name="Group 178046" transform="translate(1.043 0.211)">
        <g id="Group_178045" data-name="Group 178045">
          <path id="Path_42186" data-name="Path 42186" d="M187.079,53.357a1.216,1.216,0,0,0-.358-.181l-.1-.034-.056-.022a.537.537,0,0,1-.175-.1.228.228,0,0,1-.065-.169.247.247,0,0,1,.064-.176.22.22,0,0,1,.168-.069h.008a.259.259,0,0,1,.175.065.265.265,0,0,1,.082.179h.448a.742.742,0,0,0-.1-.344.635.635,0,0,0-.246-.237.678.678,0,0,0-.16-.063v-.4h-.372v.4h0a.685.685,0,0,0-.157.064.669.669,0,0,0-.251.242.654.654,0,0,0,.212.885,1.09,1.09,0,0,0,.195.092l.094.03.082.029a.781.781,0,0,1,.22.118.307.307,0,0,1,.107.245.288.288,0,0,1-.088.216.3.3,0,0,1-.223.085h-.016a.3.3,0,0,1-.307-.3H185.8a.715.715,0,0,0,.054.261.657.657,0,0,0,.151.228.738.738,0,0,0,.383.213v.392h.372v-.4a.746.746,0,0,0,.565-.73A.648.648,0,0,0,187.079,53.357Z" transform="translate(-185.802 -51.805)" fill="#fff"/>
        </g>
      </g>
    </g>
    <g id="Group_178052" data-name="Group 178052" transform="translate(139.335 28.772)">
      <g id="Group_178049" data-name="Group 178049" transform="translate(0)">
        <g id="Group_178048" data-name="Group 178048">
          <path id="Path_42187" data-name="Path 42187" d="M146.026,55.566a2.953,2.953,0,1,0,0,4.176A2.94,2.94,0,0,0,146.026,55.566Z" transform="translate(-140.986 -54.701)" fill="#ff6800"/>
        </g>
      </g>
      <g id="Group_178051" data-name="Group 178051" transform="translate(1.705 0.344)">
        <g id="Group_178050" data-name="Group 178050">
          <path id="Path_42188" data-name="Path 42188" d="M147.358,58.106a1.987,1.987,0,0,0-.586-.3l-.164-.055c-.033-.011-.062-.023-.092-.035a.882.882,0,0,1-.286-.165.374.374,0,0,1-.107-.278.4.4,0,0,1,.105-.288.361.361,0,0,1,.275-.112h.012a.421.421,0,0,1,.286.107.432.432,0,0,1,.134.292h.733a1.2,1.2,0,0,0-.165-.563,1.04,1.04,0,0,0-.4-.389,1.109,1.109,0,0,0-.262-.1v-.656h-.609v.661h0a1.1,1.1,0,0,0-.256.1,1.085,1.085,0,0,0-.411.4,1.035,1.035,0,0,0-.151.544,1.08,1.08,0,0,0,.5.9,1.844,1.844,0,0,0,.319.149c.02.005.07.022.153.049.049.016.092.031.134.047a1.265,1.265,0,0,1,.36.194.5.5,0,0,1,.175.4.473.473,0,0,1-.143.354.5.5,0,0,1-.365.139l-.027,0a.521.521,0,0,1-.346-.129.515.515,0,0,1-.155-.356h-.746a1.175,1.175,0,0,0,.088.427,1.071,1.071,0,0,0,.246.373,1.2,1.2,0,0,0,.627.348v.642h.609v-.652a1.236,1.236,0,0,0,.758-.57,1.211,1.211,0,0,0,.166-.623A1.06,1.06,0,0,0,147.358,58.106Z" transform="translate(-145.268 -55.566)" fill="#fff"/>
        </g>
      </g>
    </g>
    <g id="Group_178057" data-name="Group 178057" transform="translate(142.918 24.612)">
      <g id="Group_178054" data-name="Group 178054" transform="translate(0)">
        <g id="Group_178053" data-name="Group 178053">
          <path id="Path_42189" data-name="Path 42189" d="M151.689,44.548a1,1,0,1,0,0,1.413A.994.994,0,0,0,151.689,44.548Z" transform="translate(-149.983 -44.255)" fill="#ff6800"/>
        </g>
      </g>
      <g id="Group_178056" data-name="Group 178056" transform="translate(0.577 0.116)">
        <g id="Group_178055" data-name="Group 178055">
          <path id="Path_42190" data-name="Path 42190" d="M152.14,45.407a.674.674,0,0,0-.2-.1l-.056-.019-.031-.012a.3.3,0,0,1-.1-.056.125.125,0,0,1-.036-.094.137.137,0,0,1,.035-.1.122.122,0,0,1,.093-.038h0a.142.142,0,0,1,.1.036.148.148,0,0,1,.045.1h.248a.406.406,0,0,0-.056-.191.348.348,0,0,0-.136-.131.387.387,0,0,0-.088-.035v-.222h-.206v.224h0a.39.39,0,0,0-.087.035.369.369,0,0,0-.139.134.349.349,0,0,0-.051.184.365.365,0,0,0,.168.306.634.634,0,0,0,.108.051l.052.016.045.016a.435.435,0,0,1,.122.066.17.17,0,0,1,.059.136.16.16,0,0,1-.048.119.17.17,0,0,1-.123.047h-.009a.164.164,0,0,1-.17-.165h-.252a.392.392,0,0,0,.03.145.361.361,0,0,0,.083.127.409.409,0,0,0,.212.117v.217h.206V46.1a.428.428,0,0,0,.1-.042.413.413,0,0,0,.209-.362A.358.358,0,0,0,152.14,45.407Z" transform="translate(-151.433 -44.547)" fill="#fff"/>
        </g>
      </g>
    </g>
    <g id="Group_178062" data-name="Group 178062" transform="translate(138.335 28.572)">
      <g id="Group_178059" data-name="Group 178059" transform="translate(0)">
        <g id="Group_178058" data-name="Group 178058">
          <path id="Path_42191" data-name="Path 42191" d="M140.182,54.492a1,1,0,1,0,0,1.413A1,1,0,0,0,140.182,54.492Z" transform="translate(-138.476 -54.199)" fill="#ffa466"/>
        </g>
      </g>
      <g id="Group_178061" data-name="Group 178061" transform="translate(0.577 0.117)">
        <g id="Group_178060" data-name="Group 178060">
          <path id="Path_42192" data-name="Path 42192" d="M140.633,55.352a.67.67,0,0,0-.2-.1l-.056-.019-.031-.012a.308.308,0,0,1-.1-.056.127.127,0,0,1-.036-.094.137.137,0,0,1,.035-.1.123.123,0,0,1,.093-.038h0a.142.142,0,0,1,.1.036.147.147,0,0,1,.045.1h.249a.41.41,0,0,0-.056-.191.349.349,0,0,0-.137-.131.361.361,0,0,0-.088-.035v-.222h-.206v.224h0a.359.359,0,0,0-.087.035.368.368,0,0,0-.139.134.359.359,0,0,0-.006.359.354.354,0,0,0,.123.131.62.62,0,0,0,.108.051l.052.016.045.016a.434.434,0,0,1,.122.066.17.17,0,0,1,.059.136.161.161,0,0,1-.048.12.17.17,0,0,1-.123.047h-.009a.179.179,0,0,1-.117-.044.175.175,0,0,1-.053-.121h-.252a.4.4,0,0,0,.03.145.363.363,0,0,0,.083.126.408.408,0,0,0,.212.117v.217h.206v-.221a.421.421,0,0,0,.1-.042.411.411,0,0,0,.209-.362A.358.358,0,0,0,140.633,55.352Z" transform="translate(-139.926 -54.492)" fill="#fff"/>
        </g>
      </g>
    </g>
    <g id="Group_178067" data-name="Group 178067" transform="translate(160.898 35.054)">
      <g id="Group_178064" data-name="Group 178064" transform="translate(0)">
        <g id="Group_178063" data-name="Group 178063">
          <path id="Path_42193" data-name="Path 42193" d="M196.836,70.767a1,1,0,1,0,0,1.414A1,1,0,0,0,196.836,70.767Z" transform="translate(-195.13 -70.475)" fill="#ffa466"/>
        </g>
      </g>
      <g id="Group_178066" data-name="Group 178066" transform="translate(0.577 0.117)">
        <g id="Group_178065" data-name="Group 178065">
          <path id="Path_42194" data-name="Path 42194" d="M197.286,71.627a.666.666,0,0,0-.2-.1l-.056-.019L197,71.5a.31.31,0,0,1-.1-.056.128.128,0,0,1-.036-.094.137.137,0,0,1,.035-.1.122.122,0,0,1,.093-.038h0a.142.142,0,0,1,.1.036.147.147,0,0,1,.045.1h.248a.4.4,0,0,0-.056-.191.348.348,0,0,0-.136-.131.353.353,0,0,0-.088-.035v-.222H196.9v.223h0a.372.372,0,0,0-.087.035.368.368,0,0,0-.139.134.351.351,0,0,0-.051.184.364.364,0,0,0,.168.306.636.636,0,0,0,.108.05l.052.017.045.016a.426.426,0,0,1,.121.066.169.169,0,0,1,.059.135.161.161,0,0,1-.048.12.169.169,0,0,1-.123.047H197a.164.164,0,0,1-.17-.164h-.253a.408.408,0,0,0,.03.144.357.357,0,0,0,.084.126.407.407,0,0,0,.212.118v.217h.207v-.221a.423.423,0,0,0,.256-.193.409.409,0,0,0,.056-.211A.359.359,0,0,0,197.286,71.627Z" transform="translate(-196.579 -70.768)" fill="#fff"/>
        </g>
      </g>
    </g>
    <g id="Group_178072" data-name="Group 178072" transform="translate(158.708 29.68)">
      <g id="Group_178069" data-name="Group 178069" transform="translate(0)">
        <g id="Group_178068" data-name="Group 178068">
          <path id="Path_42195" data-name="Path 42195" d="M191.914,57.373a1.338,1.338,0,1,0,0,1.892A1.332,1.332,0,0,0,191.914,57.373Z" transform="translate(-189.63 -56.981)" fill="#ffa466"/>
        </g>
      </g>
      <g id="Group_178071" data-name="Group 178071" transform="translate(0.773 0.156)">
        <g id="Group_178070" data-name="Group 178070">
          <path id="Path_42196" data-name="Path 42196" d="M192.518,58.524a.909.909,0,0,0-.266-.134l-.075-.025-.041-.016a.392.392,0,0,1-.129-.075.168.168,0,0,1-.048-.125.184.184,0,0,1,.047-.131.164.164,0,0,1,.125-.051h.006a.189.189,0,0,1,.13.048.2.2,0,0,1,.061.133h.333a.549.549,0,0,0-.075-.255.466.466,0,0,0-.182-.176.484.484,0,0,0-.119-.047v-.3h-.276v.3h0a.509.509,0,0,0-.3.227.469.469,0,0,0-.069.247.488.488,0,0,0,.225.409.807.807,0,0,0,.145.068l.069.022.061.021a.571.571,0,0,1,.163.088.227.227,0,0,1,.08.181.214.214,0,0,1-.065.16.227.227,0,0,1-.165.063h-.012a.236.236,0,0,1-.157-.059.233.233,0,0,1-.07-.162h-.338a.534.534,0,0,0,.04.194.487.487,0,0,0,.112.169.545.545,0,0,0,.284.158v.291h.276v-.3a.554.554,0,0,0,.139-.056.551.551,0,0,0,.28-.485A.481.481,0,0,0,192.518,58.524Z" transform="translate(-191.571 -57.373)" fill="#fff"/>
        </g>
      </g>
    </g>
    <g id="Group_178096" data-name="Group 178096" transform="translate(141.918 11.641)">
      <g id="Group_178076" data-name="Group 178076" transform="translate(0 4.229)">
        <g id="Group_178075" data-name="Group 178075">
          <g id="Group_178073" data-name="Group 178073" transform="translate(0 0.135)">
            <path id="Path_42197" data-name="Path 42197" d="M148.937,29.218c2.09,2.089,6.573,1.329,6.573,1.329l-7.9-7.9S146.846,27.129,148.937,29.218Z" transform="translate(-147.473 -22.645)" fill="#66d1ff"/>
          </g>
          <g id="Group_178074" data-name="Group 178074" transform="translate(0.136)">
            <path id="Path_42198" data-name="Path 42198" d="M147.813,22.44l7.9,7.9s.761-4.483-1.329-6.574S147.813,22.44,147.813,22.44Z" transform="translate(-147.813 -22.305)" fill="#00b3ff"/>
          </g>
        </g>
      </g>
      <g id="Group_178080" data-name="Group 178080" transform="translate(8.775 4.229)">
        <g id="Group_178079" data-name="Group 178079">
          <g id="Group_178077" data-name="Group 178077">
            <path id="Path_42199" data-name="Path 42199" d="M170.97,23.769c-2.09,2.09-1.328,6.574-1.328,6.574l7.9-7.9S173.061,21.678,170.97,23.769Z" transform="translate(-169.507 -22.305)" fill="#66d1ff"/>
          </g>
          <g id="Group_178078" data-name="Group 178078" transform="translate(0.136 0.135)">
            <path id="Path_42200" data-name="Path 42200" d="M177.748,22.645l-7.9,7.9s4.482.762,6.573-1.329S177.748,22.645,177.748,22.645Z" transform="translate(-169.847 -22.645)" fill="#00b3ff"/>
          </g>
        </g>
      </g>
      <g id="Group_178084" data-name="Group 178084" transform="translate(6.18 0)">
        <g id="Group_178083" data-name="Group 178083">
          <g id="Group_178081" data-name="Group 178081">
            <path id="Path_42201" data-name="Path 42201" d="M162.989,15.106c0,1.809,2.27,3.42,2.27,3.42v-6.84S162.989,13.3,162.989,15.106Z" transform="translate(-162.989 -11.686)" fill="#66d1ff"/>
          </g>
          <g id="Group_178082" data-name="Group 178082" transform="translate(2.27)">
            <path id="Path_42202" data-name="Path 42202" d="M168.69,11.686v6.84s2.27-1.611,2.27-3.42S168.69,11.686,168.69,11.686Z" transform="translate(-168.69 -11.686)" fill="#00b3ff"/>
          </g>
        </g>
      </g>
      <g id="Group_178094" data-name="Group 178094" transform="translate(1.334 13.695)">
        <g id="Group_178087" data-name="Group 178087">
          <g id="Group_178086" data-name="Group 178086">
            <g id="Group_178085" data-name="Group 178085">
              <path id="Path_42203" data-name="Path 42203" d="M154.442,56.685a4.944,4.944,0,0,1,3.5-8.44V46.074a7.115,7.115,0,1,0,0,14.23V58.133A4.919,4.919,0,0,1,154.442,56.685Z" transform="translate(-150.822 -46.074)" fill="#ffa466"/>
            </g>
          </g>
        </g>
        <g id="Group_178090" data-name="Group 178090" transform="translate(7.117)">
          <g id="Group_178089" data-name="Group 178089">
            <g id="Group_178088" data-name="Group 178088">
              <path id="Path_42204" data-name="Path 42204" d="M168.693,46.074v2.171a4.944,4.944,0,0,1,0,9.889V60.3a7.115,7.115,0,0,0,0-14.23Z" transform="translate(-168.692 -46.074)" fill="#bf4e00"/>
            </g>
          </g>
        </g>
        <g id="Group_178093" data-name="Group 178093" transform="translate(2.171 2.171)">
          <g id="Group_178092" data-name="Group 178092">
            <g id="Group_178091" data-name="Group 178091">
              <path id="Path_42205" data-name="Path 42205" d="M164.714,52.971a4.945,4.945,0,1,0,0,6.993A4.928,4.928,0,0,0,164.714,52.971Z" transform="translate(-156.273 -51.524)" fill="#ff6800"/>
            </g>
          </g>
        </g>
      </g>
      <g id="Group_178095" data-name="Group 178095" transform="translate(6.361 4.78)">
        <path id="Path_42206" data-name="Path 42206" d="M166.944,39.6a3.292,3.292,0,0,0-.983-.495l-.275-.093c-.056-.019-.1-.038-.153-.059a1.473,1.473,0,0,1-.478-.276.62.62,0,0,1-.179-.464.684.684,0,0,1,.176-.484.6.6,0,0,1,.461-.186h.022a.7.7,0,0,1,.478.179.724.724,0,0,1,.223.49h1.229a2.037,2.037,0,0,0-.277-.944,1.755,1.755,0,0,0-.675-.65,1.938,1.938,0,0,0-.438-.172V24.2a.51.51,0,0,0-1.019,0v12.26a1.742,1.742,0,0,0-.429.176,1.819,1.819,0,0,0-.689.663,1.718,1.718,0,0,0-.253.91,1.8,1.8,0,0,0,.833,1.515,3.158,3.158,0,0,0,.533.25c.033.01.118.037.256.082.082.026.156.052.227.079a2.1,2.1,0,0,1,.6.325.841.841,0,0,1,.292.671.8.8,0,0,1-.24.592.834.834,0,0,1-.611.234l-.044,0a.874.874,0,0,1-.581-.216.861.861,0,0,1-.261-.6h-1.249a2,2,0,0,0,.149.715,1.8,1.8,0,0,0,.411.625,2.022,2.022,0,0,0,1.051.583v1.574s.359.029.479.03c.135,0,.54-.03.54-.03V43.044a2.145,2.145,0,0,0,.513-.208,2.04,2.04,0,0,0,1.035-1.791A1.779,1.779,0,0,0,166.944,39.6Z" transform="translate(-163.444 -23.689)" fill="#3c3c3b"/>
      </g>
    </g>
    <g id="Group_178097" data-name="Group 178097" transform="translate(157.367 37.827)">
      <path id="Path_42207" data-name="Path 42207" d="M187.029,80.141l.592-.609,1.061,1.028a.512.512,0,0,0,.724-.011h0a.512.512,0,0,0-.011-.725l-1.06-1.028.652-.67-2.723-.689Z" transform="translate(-186.264 -77.438)" fill="#e2e3e4"/>
    </g>
    <g id="Group_178098" data-name="Group 178098" transform="translate(140.275 37.827)">
      <path id="Path_42208" data-name="Path 42208" d="M145.868,80.141l-.592-.609-1.061,1.028a.512.512,0,0,1-.724-.011h0a.513.513,0,0,1,.011-.725l1.061-1.028-.652-.67,2.723-.689Z" transform="translate(-143.346 -77.438)" fill="#e2e3e4"/>
    </g>
    <g id="Group_178099" data-name="Group 178099" transform="translate(148.988 41.094)">
      <path id="Path_42209" data-name="Path 42209" d="M165.225,88.093l.849-.012.023,1.478a.512.512,0,0,0,.519.5h0a.512.512,0,0,0,.5-.52l-.023-1.476.935-.013L166.6,85.641Z" transform="translate(-165.225 -85.641)" fill="#e2e3e4"/>
    </g>
    <g id="Group_178101" data-name="Group 178101" transform="translate(140.604 22.203)">
      <g id="Group_178100" data-name="Group 178100">
        <path id="Path_42210" data-name="Path 42210" d="M145.324,40.07H144.2a1.538,1.538,0,0,1-.027-.3,1.5,1.5,0,0,1,.027-.3h1.125V38.234c.049-.009.1-.016.145-.02s.1-.007.153-.007.1,0,.149.007.1.011.156.02v1.233h1.118c.009.049.016.1.02.149s.008.1.008.149,0,.1-.008.153-.011.1-.02.152h-1.118V41.3c-.054.009-.106.016-.156.02s-.1.006-.149.006a1.5,1.5,0,0,1-.3-.027Z" transform="translate(-144.173 -38.207)" fill="#fff"/>
      </g>
    </g>
  </g>
</svg>
