<svg xmlns="http://www.w3.org/2000/svg" width="28.979" height="21.278" viewBox="0 0 28.979 21.278">
  <g id="Group_177944" data-name="Group 177944" transform="translate(-152.865 -195.649)">
    <path id="Path_41993" data-name="Path 41993" d="M183.04,209.623c.072-.743.123-1.378.138-1.661a8.507,8.507,0,0,0-.174-1.7c-.029-.463-1.1-1.444-1.4-1.747a12.235,12.235,0,0,0-1.147-.96c-.145-.094-.175-.094-.21-.181a.8.8,0,0,1,.381-.051c.109.044.131.152.261.188a2.176,2.176,0,0,0,.534-.073c.325-.057.665-.1,1-.18a.953.953,0,0,0,.67-1.1c-.029-.462-.5-.613-.866-.664s-.88-.231-1.226-.022c-.506.311-.3,1.257-1.069,1.118-.614-1.111-2.4-3.882-2.548-4.034a2.124,2.124,0,0,0-1.119-.628c-.309-.052-2.164-.167-3.933-.26a.474.474,0,0,0,0-.316l-.411-1.254a.633.633,0,0,0-.513-.459H166.78a.641.641,0,0,0-.512.459l-.405,1.254a.46.46,0,0,0,0,.31c-1.764.092-3.614.206-3.923.257a2.234,2.234,0,0,0-1.125.621c-.145.151-1.942,2.916-2.556,4.028-.757.144-.555-.808-1.061-1.119-.346-.209-.852-.042-1.226.022s-.837.2-.866.664a.953.953,0,0,0,.672,1.1c.324.072.663.116,1,.173a1.924,1.924,0,0,0,.534.08c.129-.036.152-.145.26-.188a.191.191,0,1,1,.159.239.081.081,0,0,0-.022.014,6.843,6.843,0,0,0-1.112.881c-.512.534-1.385,1.342-1.407,1.8a8.447,8.447,0,0,0-.174,1.7c.022.447.138,1.79.26,3.074.124,1.342.245,2.62.261,2.721.021.2-.044.411.043.585a.335.335,0,0,0,.21.171.347.347,0,0,1-.213-.167c-.086-.174-.02-.392-.042-.588-.012-.1-.138-1.376-.259-2.721l0,5.621a.263.263,0,0,0,.262.262l3.292,0a.264.264,0,0,0,.261-.261v-2.057l-2.447-.035,2.447.033c3.79.057,10.012.144,10.012.144h.011s6.409-.08,10.183-.131l1.578-.02c-.435.005-.978.012-1.591.021v2.059a.263.263,0,0,0,.26.262l3.292,0a.26.26,0,0,0,.262-.261l0-6.892a.248.248,0,0,0-.047-.149c-.061.687-.135,1.472-.2,2.173h0C182.906,211.1,182.979,210.312,183.04,209.623Zm-3.274-6.447c0,.009,0,.015-.011.015-.209,0-7.419-.418-10.66-.353h0c3.243-.065,10.455.351,10.661.351C179.762,203.189,179.765,203.185,179.767,203.176Zm-21.32-.114c.158-.4,1.029-1.814,1.731-2.931C159.479,201.245,158.611,202.659,158.447,203.062Zm19.323-3.307c-.381-.6-.664-1.048-.671-1.059h0S177.385,199.143,177.77,199.755Zm-10.633-1.336-6.04.264v0Zm14.287,16.157c.306,0,.5-.006.537-.009.079,0,.15,0,.216,0-.068.006-.144.009-.227.009Z" transform="translate(-1.339)" fill="#a7a9ac" opacity="0.5" style="mix-blend-mode: multiply;isolation: isolate"/>
    <g id="Group_177943" data-name="Group 177943" transform="translate(152.865 195.649)">
      <path id="Path_41994" data-name="Path 41994" d="M180.87,209.455c-.029-.463-1.1-1.444-1.4-1.747a12.237,12.237,0,0,0-1.147-.96c-.145-.094-.175-.094-.21-.181a.8.8,0,0,1,.382-.051c.109.044.13.152.26.188a2.169,2.169,0,0,0,.534-.073c.325-.057.665-.1,1-.18a.954.954,0,0,0,.67-1.1c-.029-.462-.5-.613-.865-.664s-.881-.231-1.227-.022c-.505.311-.3,1.257-1.069,1.118-.613-1.111-2.4-3.882-2.547-4.034a2.124,2.124,0,0,0-1.119-.628c-.556-.094-6.114-.389-7.168-.4s-6.6.3-7.16.389a2.232,2.232,0,0,0-1.125.621c-.145.151-1.943,2.916-2.556,4.028-.758.144-.556-.808-1.062-1.119-.346-.209-.852-.042-1.226.022s-.838.2-.866.664a.953.953,0,0,0,.672,1.1c.324.072.664.116,1,.173a1.924,1.924,0,0,0,.534.08c.129-.036.152-.145.26-.188a.191.191,0,1,1,.159.239.081.081,0,0,0-.022.014,6.841,6.841,0,0,0-1.112.881c-.512.534-1.385,1.342-1.407,1.8a8.474,8.474,0,0,0-.174,1.7c.022.447.137,1.79.26,3.074.123,1.342.245,2.62.261,2.721.021.2-.044.411.042.585s.3.224.65.224c.108,0,1.271.014,2.858.037,3.79.057,10.012.144,10.012.144s6.409-.08,10.184-.131c1.494-.021,2.577-.029,2.677-.036.347.007.563-.036.656-.217s.023-.388.044-.584c.015-.137.238-2.441.39-4.143.072-.743.123-1.378.137-1.661A8.4,8.4,0,0,0,180.87,209.455Zm-3.248-3.076c-.209,0-7.419-.418-10.66-.353-3.24-.072-10.459.331-10.661.331a47.208,47.208,0,0,1,2.664-4.489l8-.347,8,.362A48.726,48.726,0,0,1,177.621,206.38Z" transform="translate(-152.865 -198.838)" fill="#f9c611"/>
      <path id="Path_41995" data-name="Path 41995" d="M181.06,241.544c-.094.181-.31.224-.657.217-.1.007-1.184.015-2.679.036-3.774.051-10.183.131-10.183.131s-6.221-.087-10.011-.144c-1.588-.023-2.75-.037-2.858-.037-.347,0-.563-.043-.65-.224s-.022-.389-.042-.585c-.015-.079-.093-.93-.2-1.963a1.928,1.928,0,0,0,1.495.707H179.8a1.931,1.931,0,0,0,1.487-.7c-.093,1.038-.18,1.9-.188,1.977C181.081,241.156,181.147,241.372,181.06,241.544Z" transform="translate(-153.441 -222.843)" fill="#b3b3b3" opacity="0.32" style="mix-blend-mode: multiply;isolation: isolate"/>
      <path id="Path_41996" data-name="Path 41996" d="M183.388,207.713c-.207,0-7.42-.416-10.663-.351-3.239-.07-10.454.334-10.661.335a48.278,48.278,0,0,1,2.663-4.49l8-.35,8,.361A48.417,48.417,0,0,1,183.388,207.713Z" transform="translate(-158.632 -200.173)" fill="#0d8087"/>
      <path id="Path_41997" data-name="Path 41997" d="M186.8,204.539l-3.356,3.356c-.209-.007-.433-.007-.679-.007-.981,0-2.158.022-3.35.065l3.53-3.529.7-.029Z" transform="translate(-169.532 -201.139)" fill="#fff" opacity="0.28"/>
      <path id="Path_41998" data-name="Path 41998" d="M216.326,226.592c-.2.953-1.407.953-2.187.953-1.125,0-2.136.217-3.061-.657h-.007v-.007c.007-.873.975-1.213,1.928-1.371a.1.1,0,0,1,.043-.007,2.274,2.274,0,0,1,.238-.036.8.8,0,0,0,.136-.015c.108-.015.21-.036.318-.051.079-.008.151-.021.217-.029.13-.014.245-.029.346-.044a10.472,10.472,0,0,1,1.343-.072c.491-.007.592-.064.686.39A2.333,2.333,0,0,1,216.326,226.592Z" transform="translate(-189.398 -214.229)" fill="#f6f9d2"/>
      <path id="Path_41999" data-name="Path 41999" d="M155.958,226.592c.2.953,1.408.953,2.187.953,1.126,0,2.137.217,3.061-.657h.006v-.007c-.006-.873-.974-1.213-1.927-1.371a.1.1,0,0,0-.043-.007,2.287,2.287,0,0,0-.238-.036.809.809,0,0,1-.137-.015c-.109-.015-.209-.036-.318-.051-.079-.008-.151-.021-.217-.029q-.194-.021-.347-.044a10.444,10.444,0,0,0-1.342-.072c-.49-.007-.592-.064-.686.39A2.307,2.307,0,0,0,155.958,226.592Z" transform="translate(-154.776 -214.229)" fill="#f6f9d2"/>
      <path id="Path_42000" data-name="Path 42000" d="M157.384,240.508v2.057a.264.264,0,0,1-.261.261l-3.292,0a.263.263,0,0,1-.262-.263l0-5.621c.121,1.345.247,2.62.259,2.721.022.2-.044.415.042.588s.306.22.653.22C154.633,240.468,155.792,240.487,157.384,240.508Z" transform="translate(-153.306 -221.566)" fill="#333"/>
      <path id="Path_42001" data-name="Path 42001" d="M221.868,233.334l-.006,6.892a.259.259,0,0,1-.261.261l-3.292,0a.263.263,0,0,1-.26-.262v-2.059c1.5-.022,2.582-.032,2.68-.034.348,0,.566-.043.656-.217s.02-.394.042-.591c.016-.134.243-2.438.394-4.138A.246.246,0,0,1,221.868,233.334Z" transform="translate(-193.778 -219.209)" fill="#333"/>
      <path id="Path_42002" data-name="Path 42002" d="M160.686,235.841a1,1,0,1,1-1-1A1,1,0,0,1,160.686,235.841Z" transform="translate(-156.521 -220.25)" fill="#f88011"/>
      <path id="Path_42003" data-name="Path 42003" d="M166.263,236.328a.711.711,0,1,1-.711-.712A.711.711,0,0,1,166.263,236.328Z" transform="translate(-160.382 -220.735)" fill="#f88011"/>
      <path id="Path_42004" data-name="Path 42004" d="M221.207,235.886a1,1,0,1,1-.995-1A.993.993,0,0,1,221.207,235.886Z" transform="translate(-194.509 -220.277)" fill="#f88011"/>
      <path id="Path_42005" data-name="Path 42005" d="M215.659,236.366a.711.711,0,1,1-.71-.712A.712.712,0,0,1,215.659,236.366Z" transform="translate(-191.387 -220.759)" fill="#f88011"/>
      <path id="Path_42006" data-name="Path 42006" d="M188.239,197.828H182.2c-.195,0-.3-.208-.21-.467l.405-1.254a.64.64,0,0,1,.512-.459h4.626a.632.632,0,0,1,.512.459l.412,1.254C188.535,197.621,188.441,197.828,188.239,197.828Z" transform="translate(-171.125 -195.649)" fill="#fff"/>
      <path id="Path_42007" data-name="Path 42007" d="M186.63,229.478a.544.544,0,0,0-.021.051l-.808,2.021a.719.719,0,0,1-.549.426h-9.188a.716.716,0,0,1-.548-.426l-.809-2.021a.16.16,0,0,1-.015-.051Z" transform="translate(-166.565 -216.882)" fill="#768c91"/>
      <path id="Path_42008" data-name="Path 42008" d="M185.784,228.12H173.8c-.4,0-.594.334-.426.744l.808,2.018a1.214,1.214,0,0,0,1.018.744h9.189a1.214,1.214,0,0,0,1.018-.744l.806-2.018C186.376,228.454,186.182,228.12,185.784,228.12Zm-6.556,3H175.2a.717.717,0,0,1-.548-.426l-.808-2.02a.16.16,0,0,1-.015-.051H178.4C179.41,228.626,179.792,231.122,179.228,231.122Zm6.512-2.445-.807,2.02a.722.722,0,0,1-.548.426h-4.036c-.56,0-.179-2.5.831-2.5h4.585C185.756,228.642,185.748,228.656,185.74,228.677Z" transform="translate(-165.698 -216.03)" fill="#e3e3e3"/>
      <path id="Path_42009" data-name="Path 42009" d="M197.193,229.478a.505.505,0,0,0-.02.051l-.195.49h-3.559c-.794,0-1.344.974-1.582,1.956h-.056c-.56,0-.179-2.5.831-2.5Z" transform="translate(-177.129 -216.882)" fill="#8b8b8b" opacity="0.32" style="mix-blend-mode: multiply;isolation: isolate"/>
      <path id="Path_42010" data-name="Path 42010" d="M180.1,231.974h-.055c-.243-.981-.788-1.956-1.583-1.956h-3.554l-.2-.49a.1.1,0,0,1-.016-.051h4.577C180.281,229.478,180.662,231.974,180.1,231.974Z" transform="translate(-166.566 -216.882)" fill="#8b8b8b" opacity="0.32" style="mix-blend-mode: multiply;isolation: isolate"/>
      <g id="Group_177942" data-name="Group 177942" transform="translate(12.14 0.308)">
        <rect id="Rectangle_162880" data-name="Rectangle 162880" width="0.783" height="0.782" transform="translate(3.128 0.782)" fill="#707070"/>
        <rect id="Rectangle_162881" data-name="Rectangle 162881" width="0.781" height="0.782" transform="translate(2.347)" fill="#707070"/>
        <rect id="Rectangle_162882" data-name="Rectangle 162882" width="0.782" height="0.782" transform="translate(1.564 0.782)" fill="#707070"/>
        <rect id="Rectangle_162883" data-name="Rectangle 162883" width="0.782" height="0.782" transform="translate(0.782)" fill="#707070"/>
        <rect id="Rectangle_162884" data-name="Rectangle 162884" width="0.782" height="0.782" transform="translate(0 0.782)" fill="#707070"/>
      </g>
      <path id="Path_42011" data-name="Path 42011" d="M183.525,216.385c0,.664-.1,3.459-10.48,3.459s-10.487-2.795-10.487-3.459,8.329-.454,10.487-.454S183.525,215.72,183.525,216.385Z" transform="translate(-158.948 -208.359)" fill="#f9d613"/>
      <path id="Path_42012" data-name="Path 42012" d="M175.147,204.627l-3.515,3.516c-.931.036-1.834.072-2.62.108l3.508-3.509Z" transform="translate(-163 -201.284)" fill="#fff" opacity="0.28"/>
    </g>
  </g>
</svg>
