<svg xmlns="http://www.w3.org/2000/svg" width="31.599" height="21.644" viewBox="0 0 31.599 21.644">
  <g id="Group_177949" data-name="Group 177949" transform="translate(-30.493 -146.067)">
    <g id="Group_176638" data-name="Group 176638" transform="translate(32.202 146.067)">
      <g id="Group_176637" data-name="Group 176637">
        <path id="Path_40743" data-name="Path 40743" d="M46.108,163.341l-11.595,0,0-17.271,13.38,0,0,15.459Z" transform="translate(-34.513 -146.067)" fill="#fff"/>
        <path id="Path_40744" data-name="Path 40744" d="M61.8,182.449v1.812l1.785-1.812Z" transform="translate(-50.202 -166.987)" fill="#ababab"/>
        <rect id="Rectangle_162593" data-name="Rectangle 162593" width="7.889" height="1.597" transform="translate(1.697 1.626)" fill="#3aa699"/>
        <rect id="Rectangle_162594" data-name="Rectangle 162594" width="10.155" height="0.457" transform="translate(1.696 4.146)" fill="#858585"/>
        <rect id="Rectangle_162595" data-name="Rectangle 162595" width="10.155" height="0.457" transform="translate(1.696 5.425)" fill="#858585"/>
        <rect id="Rectangle_162596" data-name="Rectangle 162596" width="10.155" height="0.457" transform="translate(1.695 11.182)" fill="#858585"/>
        <rect id="Rectangle_162597" data-name="Rectangle 162597" width="10.155" height="0.457" transform="translate(1.694 12.462)" fill="#858585"/>
        <rect id="Rectangle_162598" data-name="Rectangle 162598" width="5.416" height="0.457" transform="translate(1.694 13.741)" fill="#858585"/>
        <rect id="Rectangle_162599" data-name="Rectangle 162599" width="10.088" height="3.478" transform="translate(1.695 6.745)" fill="#88e6db"/>
      </g>
    </g>
    <g id="Group_176641" data-name="Group 176641" transform="translate(34.365 149.804)">
      <g id="Group_176639" data-name="Group 176639" transform="translate(0 1.277)">
        <path id="Path_40745" data-name="Path 40745" d="M44.567,173.182h5.3V167.5h-5.3a1.574,1.574,0,0,0-1.574,1.574v2.537A1.574,1.574,0,0,0,44.567,173.182Z" transform="translate(-41.553 -163.404)" fill="#c93a3a"/>
        <path id="Path_40746" data-name="Path 40746" d="M39.6,172.723v.022a1.063,1.063,0,0,0,1.062,1.062h.377v-2.147h-.377A1.063,1.063,0,0,0,39.6,172.723Z" transform="translate(-39.605 -165.798)" fill="#781919"/>
        <path id="Path_40747" data-name="Path 40747" d="M39.6,174.2a1.063,1.063,0,0,0,1.062,1.062h.377v-1.074Z" transform="translate(-39.605 -167.25)" fill="#5e1414"/>
        <path id="Path_40748" data-name="Path 40748" d="M78.816,170.583h-.153v3.063h.153a1.472,1.472,0,0,0,1.424-1.516V172.1A1.472,1.472,0,0,0,78.816,170.583Z" transform="translate(-62.064 -165.178)" fill="#781919"/>
        <path id="Path_40749" data-name="Path 40749" d="M59.162,165.212v3.382c3.834,0,7.356,3.391,7.356,3.391V159.519S63,162.91,59.162,162.91Z" transform="translate(-50.851 -158.816)" fill="#ffb947"/>
        <rect id="Rectangle_162600" data-name="Rectangle 162600" width="1.017" height="1.624" rx="0.508" transform="translate(3.403 5.513)" fill="#731111"/>
        <path id="Path_40750" data-name="Path 40750" d="M47.964,187.726h.021a1.033,1.033,0,0,0,1.025-.906l.734-5.945h-2.1l-.7,5.692A1.033,1.033,0,0,0,47.964,187.726Z" transform="translate(-43.817 -171.096)" fill="#c93a3a"/>
        <path id="Path_40751" data-name="Path 40751" d="M48.229,182.16h2.1l.159-1.285h-2.1Z" transform="translate(-44.564 -171.096)" fill="#781919"/>
        <path id="Path_40752" data-name="Path 40752" d="M53.134,182.3h.915a1.951,1.951,0,0,1,.177-1.424h-.915Z" transform="translate(-47.385 -171.096)" fill="#4f1010"/>
        <path id="Path_40753" data-name="Path 40753" d="M59.788,164.466a8.81,8.81,0,0,0,6.854-3.564,9.319,9.319,0,0,1-6.854,3.157Z" transform="translate(-51.211 -159.611)" fill="#fff"/>
        <path id="Path_40754" data-name="Path 40754" d="M59.788,179.376v.408a9.319,9.319,0,0,1,6.854,3.157A8.81,8.81,0,0,0,59.788,179.376Z" transform="translate(-51.211 -170.234)" fill="#c48e37"/>
        <path id="Path_40755" data-name="Path 40755" d="M44.662,168.684h5.916v-.448h-4.84a1.516,1.516,0,0,0-1.045.418Z" transform="translate(-42.513 -163.829)" fill="#fff"/>
        <path id="Path_40756" data-name="Path 40756" d="M44.956,179.381h5.916v.448H46.032a1.514,1.514,0,0,1-1.045-.418Z" transform="translate(-42.682 -170.237)" fill="#a12e2e"/>
        <rect id="Rectangle_162601" data-name="Rectangle 162601" width="1.167" height="13.927" rx="0.583" transform="translate(15.432)" fill="#b82a2a"/>
        <path id="Path_40757" data-name="Path 40757" d="M76.506,171.791h-.012a.578.578,0,0,1-.578-.578V158.443a.578.578,0,0,1,.578-.578h.012Z" transform="translate(-60.485 -157.865)" fill="#8a2020"/>
        <path id="Path_40758" data-name="Path 40758" d="M79.906,171.11c.159.081.253.223.211.317s-.205.1-.364.023-.253-.223-.211-.317S79.748,171.029,79.906,171.11Z" transform="translate(-62.564 -165.45)" fill="#fff"/>
      </g>
      <g id="Group_176640" data-name="Group 176640" transform="translate(19.047 0)">
        <path id="Path_40759" data-name="Path 40759" d="M85.073,162.72a.613.613,0,0,0-.439,1.042,4.839,4.839,0,0,1,1.41,3.272,4.558,4.558,0,0,1-1.429,3.331.614.614,0,0,0,.847.889,5.776,5.776,0,0,0,1.81-4.22,6.005,6.005,0,0,0-1.76-4.129A.61.61,0,0,0,85.073,162.72Z" transform="translate(-84.425 -159.38)" fill="#7de7ff"/>
        <path id="Path_40760" data-name="Path 40760" d="M95.994,154.86a.613.613,0,0,0-.443,1.036,9.642,9.642,0,0,1,.009,13.22.614.614,0,1,0,.868.867,10.869,10.869,0,0,0,.01-14.934A.61.61,0,0,0,95.994,154.86Z" transform="translate(-90.725 -154.86)" fill="#7de7ff"/>
        <path id="Path_40761" data-name="Path 40761" d="M90.478,158.845a.613.613,0,0,0-.441,1.04,7.533,7.533,0,0,1,2.172,4.982,6.974,6.974,0,0,1-2.123,4.913.614.614,0,0,0,.852.883,8.112,8.112,0,0,0,2.5-5.8,8.791,8.791,0,0,0-2.518-5.835A.609.609,0,0,0,90.478,158.845Z" transform="translate(-87.553 -157.151)" fill="#7de7ff"/>
      </g>
    </g>
    <g id="Group_176642" data-name="Group 176642" transform="translate(30.493 153.486)">
      <rect id="Rectangle_162602" data-name="Rectangle 162602" width="0.836" height="6.499" transform="translate(1.488 5.423) rotate(-14.944)" fill="#34495e"/>
      <path id="Path_40762" data-name="Path 40762" d="M30.84,164.183l1.275,4.779.9-.241-1.275-4.779a.506.506,0,0,0-.586-.4l-.009,0A.506.506,0,0,0,30.84,164.183Z" transform="translate(-30.68 -163.525)" fill="#34495e"/>
      <path id="Path_40763" data-name="Path 40763" d="M37.938,190.768l.808-.216.114,2.072Z" transform="translate(-34.774 -179.067)" fill="#ffb947"/>
      <path id="Path_40764" data-name="Path 40764" d="M30.749,167.03l.165-.044-.077-.288-.165.044-.179.31.916,3.43.293.117Z" transform="translate(-30.493 -165.35)" fill="#ffb947"/>
    </g>
  </g>
</svg>
