<svg xmlns="http://www.w3.org/2000/svg" width="64.953" height="63.625" viewBox="0 0 64.953 63.625">
  <g id="Group_179462" data-name="Group 179462" transform="translate(-458.248 -360.935)">
    <g id="Group_179461" data-name="Group 179461" transform="translate(458.248 360.935)">
      <g id="Group_179460" data-name="Group 179460">
        <g id="_689_Analysis_currency_dollar_graph_money" data-name="689, Analysis, currency, dollar, graph, money">
          <g id="Group_179459" data-name="Group 179459">
            <g id="Group_179458" data-name="Group 179458">
              <path id="Path_49208" data-name="Path 49208" d="M503.908,332.086a2.294,2.294,0,0,1,0,4.589,2.294,2.294,0,0,1,0-4.589Z" transform="translate(-442.698 -274.62)" fill="#74829c"/>
              <path id="Path_49209" data-name="Path 49209" d="M457.8,329.558a3.018,3.018,0,1,1-3.019,3.017A2.987,2.987,0,0,1,457.8,329.558Z" transform="translate(-451.759 -275.109)" fill="#74829c"/>
              <path id="Path_49210" data-name="Path 49210" d="M456.582,286.565a3.018,3.018,0,1,1-3.019,3.018A2.988,2.988,0,0,1,456.582,286.565Z" transform="translate(-451.994 -283.426)" fill="#74829c"/>
              <path id="Path_49211" data-name="Path 49211" d="M501.614,285.25a3.743,3.743,0,1,1-3.743,3.743A3.685,3.685,0,0,1,501.614,285.25Z" transform="translate(-443.422 -283.681)" fill="#74829c"/>
              <path id="Path_49212" data-name="Path 49212" d="M482.278,292.837a21.128,21.128,0,1,1-21.128,21.128A21.128,21.128,0,0,1,482.278,292.837Z" transform="translate(-450.526 -282.213)" fill="#313a52"/>
              <path id="Path_49213" data-name="Path 49213" d="M490.564,319.526l-4.95,4.95-1.69-4.467-1.329-3.5,3.864,1.569Z" transform="translate(-446.377 -277.633)" fill="#d7deed"/>
              <path id="Path_49214" data-name="Path 49214" d="M505.611,297.895a1.569,1.569,0,1,1-1.569,1.569A1.686,1.686,0,0,1,505.611,297.895Z" transform="translate(-442.228 -281.234)" fill="#74829c"/>
              <path id="Path_49215" data-name="Path 49215" d="M500.553,325.713a1.57,1.57,0,1,1-1.569,1.569A1.687,1.687,0,0,1,500.553,325.713Z" transform="translate(-443.207 -275.853)" fill="#74829c"/>
              <path id="Path_49216" data-name="Path 49216" d="M495.5,334.616a1.569,1.569,0,1,1-1.569,1.569A1.6,1.6,0,0,1,495.5,334.616Z" transform="translate(-444.185 -274.13)" fill="#74829c"/>
              <path id="Path_49217" data-name="Path 49217" d="M492.967,284.036a1.569,1.569,0,1,1-1.571,1.569A1.6,1.6,0,0,1,492.967,284.036Z" transform="translate(-444.674 -283.915)" fill="#74829c"/>
              <path id="Path_49218" data-name="Path 49218" d="M492.883,312.5A12.073,12.073,0,1,0,480.81,324.57a12.857,12.857,0,0,0,5.8-1.449l-1.328-3.381,3.863,1.449A12.035,12.035,0,0,0,492.883,312.5Z" transform="translate(-449.058 -280.745)" fill="#2857ec"/>
              <path id="Path_49219" data-name="Path 49219" d="M484.384,312.35a2.834,2.834,0,0,1,.241,1.449,3.506,3.506,0,0,1-.363,1.69,4.735,4.735,0,0,1-.965,1.208,13.069,13.069,0,0,1-1.328.724,7.065,7.065,0,0,1-1.569.241v2.053h-1.208v-2.053a17.1,17.1,0,0,1-2.413-.482,11.928,11.928,0,0,1-2.174-.967l1.329-2.535a1.465,1.465,0,0,0,.36.241,6.218,6.218,0,0,0,.845.363,4.3,4.3,0,0,1,1.088.482,4.291,4.291,0,0,0,1.207.242v-2.3l-.845-.241a4.021,4.021,0,0,1-1.45-.6,8.563,8.563,0,0,1-1.086-.723,2.652,2.652,0,0,1-.6-.967,3.6,3.6,0,0,1-.241-1.207,3.867,3.867,0,0,1,.363-1.691,4.315,4.315,0,0,1,.845-1.207,3.583,3.583,0,0,1,1.327-.845,3.341,3.341,0,0,1,1.571-.363v-1.811h1.207v1.811a13.914,13.914,0,0,1,2.173.483,10.989,10.989,0,0,1,1.691.845l-1.328,2.414a1.487,1.487,0,0,0-.363-.241,2.633,2.633,0,0,0-.6-.362c-.242-.122-.6-.242-.846-.363a2.843,2.843,0,0,0-.966-.241v2.414l.6.121c.6.121,1.086.363,1.569.483a10.352,10.352,0,0,1,1.207.724A10.507,10.507,0,0,1,484.384,312.35Zm-4.226,2.657c.965,0,1.328-.363,1.328-.967a.731.731,0,0,0-.363-.724,7.176,7.176,0,0,0-.965-.482Zm-.845-5.433V307.4c-.845.12-1.208.362-1.208.965a1.046,1.046,0,0,0,.363.724C478.589,309.332,478.951,309.453,479.313,309.574Z" transform="translate(-447.923 -280.236)" fill="#fff"/>
              <path id="Path_49220" data-name="Path 49220" d="M468.991,334.616a1.569,1.569,0,1,1-1.568,1.569A1.52,1.52,0,0,1,468.991,334.616Z" transform="translate(-449.312 -274.13)" fill="#74829c"/>
              <path id="Path_49221" data-name="Path 49221" d="M463.935,286.565a1.569,1.569,0,1,1-1.571,1.569A1.523,1.523,0,0,1,463.935,286.565Z" transform="translate(-450.291 -283.426)" fill="#74829c"/>
              <path id="Path_49222" data-name="Path 49222" d="M453.817,296.681a1.569,1.569,0,1,1-1.569,1.569A1.521,1.521,0,0,1,453.817,296.681Z" transform="translate(-452.248 -281.469)" fill="#74829c"/>
              <path id="Path_49223" data-name="Path 49223" d="M453.817,321.971a1.569,1.569,0,1,1-1.569,1.569A1.6,1.6,0,0,1,453.817,321.971Z" transform="translate(-452.248 -276.577)" fill="#74829c"/>
              <path id="Path_49224" data-name="Path 49224" d="M479.107,299.147a1.6,1.6,0,0,1-1.569-1.569V285.5a1.569,1.569,0,0,1,3.139,0v12.073A1.687,1.687,0,0,1,479.107,299.147Z" transform="translate(-447.355 -283.935)" fill="#da5359"/>
              <path id="Path_49225" data-name="Path 49225" d="M479.107,339.611a1.6,1.6,0,0,1-1.569-1.569V325.967a1.569,1.569,0,0,1,3.139,0v12.074A1.687,1.687,0,0,1,479.107,339.611Z" transform="translate(-447.355 -276.107)" fill="#da5359"/>
              <path id="Path_49226" data-name="Path 49226" d="M506.354,312.364H494.281a1.569,1.569,0,1,1,0-3.139h12.073a1.6,1.6,0,0,1,1.569,1.569A1.686,1.686,0,0,1,506.354,312.364Z" transform="translate(-444.42 -279.042)" fill="#da5359"/>
              <path id="Path_49227" data-name="Path 49227" d="M465.892,312.364H453.817a1.569,1.569,0,1,1,0-3.139h12.074a1.6,1.6,0,0,1,1.568,1.569A1.685,1.685,0,0,1,465.892,312.364Z" transform="translate(-452.248 -279.042)" fill="#da5359"/>
              <path id="Path_49228" data-name="Path 49228" d="M482.834,338.284a1.434,1.434,0,0,1-1.449-1.208,1.418,1.418,0,0,1,1.208-1.69A25.653,25.653,0,0,0,503.6,314.38a1.469,1.469,0,0,1,2.9.483,28.731,28.731,0,0,1-23.542,23.542C483.076,338.284,482.954,338.284,482.834,338.284Z" transform="translate(-446.615 -278.282)" fill="#ef727a"/>
              <path id="Path_49229" data-name="Path 49229" d="M456.634,312.1h-.242a1.477,1.477,0,0,1-1.207-1.691,28.727,28.727,0,0,1,23.542-23.541,1.468,1.468,0,1,1,.482,2.9A25.654,25.654,0,0,0,458.2,310.776,1.647,1.647,0,0,1,456.634,312.1Z" transform="translate(-451.683 -283.37)" fill="#ef727a"/>
              <path id="Path_49230" data-name="Path 49230" d="M478.849,338.284h-.242a28.464,28.464,0,0,1-23.422-23.422,1.469,1.469,0,0,1,2.9-.483,25.651,25.651,0,0,0,21.007,21.007,1.479,1.479,0,0,1,1.208,1.69A1.353,1.353,0,0,1,478.849,338.284Z" transform="translate(-451.683 -278.282)" fill="#ef727a"/>
              <path id="Path_49231" data-name="Path 49231" d="M505.15,312.084a1.434,1.434,0,0,1-1.449-1.208,25.657,25.657,0,0,0-21.007-21.007,1.468,1.468,0,1,1,.482-2.9,28.729,28.729,0,0,1,23.543,23.542,1.418,1.418,0,0,1-1.208,1.69A.933.933,0,0,0,505.15,312.084Z" transform="translate(-446.595 -283.351)" fill="#ef727a"/>
            </g>
          </g>
        </g>
      </g>
    </g>
  </g>
</svg>
