<svg xmlns="http://www.w3.org/2000/svg" width="70.418" height="59.974" viewBox="0 0 70.418 59.974">
  <g id="Group_179613" data-name="Group 179613" transform="translate(-346.037 -250.417)">
    <g id="Group_179611" data-name="Group 179611" transform="translate(346.036 263.938)">
      <g id="Group_179608" data-name="Group 179608" transform="translate(27.89)">
        <path id="Path_49342" data-name="Path 49342" d="M397.041,286.6c-5.85,7.5-9.794,5.716-9.794,5.716-1.72-.3-2.026.469-3.952,2.38,0,0,.911.821.643,1.1l-5.922,6.113a1.88,1.88,0,0,0,.032,2.561,1.733,1.733,0,0,0,2.141.443s-.64,1.279.174,2.081a2.119,2.119,0,0,0,2.21.32,1.83,1.83,0,0,0,.494,1.678,1.467,1.467,0,0,0,1.57.393,2.41,2.41,0,0,0,.65,1.468,2.476,2.476,0,0,0,1.919.468l8.954-8.784a2.327,2.327,0,0,0,.692-1.754c-.136-2.048,1.014-3.765,5.818-8.708Z" transform="translate(-377.515 -268.063)" fill="#d6a17d"/>
        <rect id="Rectangle_163304" data-name="Rectangle 163304" width="2.762" height="13.249" transform="translate(11.995 21.985) rotate(-45.828)" fill="#fff"/>
        <path id="Path_49343" data-name="Path 49343" d="M403.318,295.566l18.433-19.789-11.151-10.1-18.1,19.384Z" transform="translate(-379.224 -265.678)" fill="#eb992f"/>
        <path id="Path_49344" data-name="Path 49344" d="M380.613,304.634l6.8,6.631-6.422-7.321Z" transform="translate(-377.869 -270.04)" fill="#bd8d6e"/>
        <path id="Path_49345" data-name="Path 49345" d="M406.333,293.513a1.254,1.254,0,1,0,.539,1.69A1.254,1.254,0,0,0,406.333,293.513Z" transform="translate(-380.592 -268.835)" fill="#141414"/>
        <path id="Path_49346" data-name="Path 49346" d="M409.074,290.575a1.254,1.254,0,1,0,.539,1.69A1.254,1.254,0,0,0,409.074,290.575Z" transform="translate(-380.904 -268.5)" fill="#141414"/>
      </g>
      <g id="Group_179609" data-name="Group 179609" transform="translate(0 1.971)">
        <path id="Path_49347" data-name="Path 49347" d="M381.926,293.885c-.278-.265.781-.758.781-.758a2.525,2.525,0,0,0-2.482-.9s-3.869,1.939-10.012-5.322l-5.408,5.689c5,4.75,6.214,6.419,6.159,8.47a2.332,2.332,0,0,0,.761,1.726l12.583,11.42a2.476,2.476,0,0,0,1.9-.544,2.406,2.406,0,0,0,.592-1.493,1.465,1.465,0,0,0,1.553-.454,1.83,1.83,0,0,0,.428-1.7,2.118,2.118,0,0,0,2.195-.408c.781-.834.09-2.087.09-2.087a1.733,1.733,0,0,0,2.123-.528,1.878,1.878,0,0,0-.07-2.559Z" transform="translate(-348.176 -270.069)" fill="#ffb7a4"/>
        <rect id="Rectangle_163305" data-name="Rectangle 163305" width="13.249" height="2.762" transform="translate(18.568 27.685) rotate(-46.447)" fill="#fff"/>
        <path id="Path_49348" data-name="Path 49348" d="M374.346,285.341,356.716,267.9l-10.68,10.6,17.923,17.762Z" transform="translate(-346.037 -267.902)" fill="#369bd9"/>
        <rect id="Rectangle_163306" data-name="Rectangle 163306" width="2.552" height="3.096" rx="0.827" transform="matrix(0.689, -0.725, 0.725, 0.689, 14.973, 24.268)" fill="#0c2330"/>
        <rect id="Rectangle_163307" data-name="Rectangle 163307" width="2.552" height="3.096" rx="0.827" transform="translate(12.286 21.471) rotate(-46.445)" fill="#0c2330"/>
        <path id="Path_49349" data-name="Path 49349" d="M383.183,311.075l6.53-6.9-.4-.675Z" transform="translate(-350.271 -271.961)" fill="#bf897b"/>
        <path id="Path_49350" data-name="Path 49350" d="M389.917,306.307l3.893,3.271-3.175-3.628Z" transform="translate(-351.039 -272.24)" fill="#bf897b"/>
        <path id="Path_49351" data-name="Path 49351" d="M387.6,309.026l3.774,3.44-3.416-4.134Z" transform="translate(-350.775 -272.511)" fill="#bf897b"/>
        <path id="Path_49352" data-name="Path 49352" d="M385.336,312.289l3.613,2.539-3.4-3.434Z" transform="translate(-350.517 -272.861)" fill="#bf897b"/>
      </g>
      <path id="Path_49353" data-name="Path 49353" d="M386.787,292.647c-2.466.3-2.33,1.433-5.419,4.037-1.232,1.629,1.558,3.889,2.421,4.93,1.236,1.675,2.248,1.008,2.335-.245.062-.895-1.187-3.09-1.187-3.09s1.26-1.518,1.582-1.319c0,0,2.932,4.09,4.993,2.392,1.774-1.462.957-4.21.957-4.21S388.585,292.918,386.787,292.647Z" transform="translate(-350.029 -268.752)" fill="#d6a17d"/>
      <g id="Group_179610" data-name="Group 179610" transform="translate(25.074 34.147)">
        <path id="Path_49354" data-name="Path 49354" d="M383.239,306.463a1.692,1.692,0,0,0-2.28.206l-3.248,3.287a1.857,1.857,0,0,0-.188,2.693l.027.023a2,2,0,0,0,2.743-.481l3.012-3.492a1.564,1.564,0,0,0-.043-2.216Z" transform="translate(-374.644 -304.435)" fill="#d6a17d"/>
        <path id="Path_49355" data-name="Path 49355" d="M385.042,309.174l-.019-.013a1.374,1.374,0,0,0-1.807.285l-2.631,3.083a1.8,1.8,0,0,0-.03,2.639l.027.019a1.932,1.932,0,0,0,2.575-.868l2.18-3.4A1.276,1.276,0,0,0,385.042,309.174Z" transform="translate(-374.983 -304.757)" fill="#d6a17d"/>
        <path id="Path_49356" data-name="Path 49356" d="M386.41,311.843l-.019-.01a1.163,1.163,0,0,0-1.485.423l-1.7,2.807a1.5,1.5,0,0,0,.442,2.184l.027.013a1.593,1.593,0,0,0,2.053-1l1.248-3.022A1.092,1.092,0,0,0,386.41,311.843Z" transform="translate(-375.317 -305.074)" fill="#d6a17d"/>
        <path id="Path_49357" data-name="Path 49357" d="M380.366,304.613a1.549,1.549,0,0,0-2.081.015l-3.2,2.848a1.8,1.8,0,0,0-.311,2.626l.026.025a1.943,1.943,0,0,0,2.708-.341l2.891-3.138a1.433,1.433,0,0,0-.016-2.016Z" transform="translate(-374.337 -304.219)" fill="#d6a17d"/>
      </g>
    </g>
    <g id="Group_179612" data-name="Group 179612" transform="translate(362.937 250.417)">
      <path id="Path_49358" data-name="Path 49358" d="M393.327,263.829v-1.262c4.175,0,9.274-3.454,9.274-7.483v-3.031h-9.356v-1.262h10.618v4.293C403.863,259.928,398.1,263.829,393.327,263.829Z" transform="translate(-368.318 -250.46)" fill="#ffc240"/>
      <path id="Path_49359" data-name="Path 49359" d="M375.646,263.829c-4.772,0-10.535-3.9-10.535-8.745v-4.293h10.617v1.262h-9.356v3.031c0,4.03,5.1,7.483,9.274,7.483Z" transform="translate(-365.111 -250.46)" fill="#ffc240"/>
      <path id="Path_49360" data-name="Path 49360" d="M372.6,250.417c0,10.606,8.573,16.7,8.573,31.3h2.58v-31.3Z" transform="translate(-365.965 -250.417)" fill="#e3ac39"/>
      <path id="Path_49361" data-name="Path 49361" d="M396.34,250.417c0,10.606-8.573,16.7-8.573,31.3h-2.58v-31.3Z" transform="translate(-367.4 -250.417)" fill="#ffc240"/>
      <path id="Path_49362" data-name="Path 49362" d="M389.815,288.5H379.192v-.027a2.731,2.731,0,0,1,2.732-2.732h5.16a2.731,2.731,0,0,1,2.732,2.732Z" transform="translate(-366.716 -254.444)" fill="#b56d40"/>
      <path id="Path_49363" data-name="Path 49363" d="M389.815,288.5H379.192v-.027a2.731,2.731,0,0,1,2.732-2.732h2.58v2.732Z" transform="translate(-366.716 -254.444)" fill="#7a4a2b"/>
      <path id="Path_49364" data-name="Path 49364" d="M390.718,251.534h4.605c-.508,7.958-4.821,14.3-6.3,18.285C388.787,265.18,390.921,259.39,390.718,251.534Z" transform="translate(-367.835 -250.544)" fill="#ffd06b"/>
      <path id="Path_49365" data-name="Path 49365" d="M394.788,254.614c-.084.705-.424,1.245-.758,1.2s-.536-.644-.452-1.35.424-1.245.758-1.2S394.872,253.909,394.788,254.614Z" transform="translate(-368.354 -250.741)" fill="#fff"/>
      <path id="Path_49366" data-name="Path 49366" d="M393.632,253.109c-.038.323-.193.568-.346.55s-.245-.294-.206-.616.193-.568.346-.549S393.671,252.787,393.632,253.109Z" transform="translate(-368.298 -250.654)" fill="#fff"/>
      <path id="Path_49367" data-name="Path 49367" d="M398.167,251.042h6.091v4.393l-.369-4.172Z" transform="translate(-368.879 -250.488)" fill="#fff"/>
    </g>
  </g>
</svg>
