<svg id="Group_177167" data-name="Group 177167" xmlns="http://www.w3.org/2000/svg" width="96.148" height="96.877" viewBox="0 0 96.148 96.877">
  <g id="Group_177152" data-name="Group 177152" transform="translate(7.573 8.664)">
    <circle id="Ellipse_713" data-name="Ellipse 713" cx="40.028" cy="40.028" r="40.028" transform="translate(0)" fill="#22bdff"/>
    <path id="Path_40967" data-name="Path 40967" d="M380.082,398.538c-1.225-.266-.8.906-1.491-.586s-.693-.586-2.079,0-.639.16-.692-.533,0,0,.106-1.065-1.225-.639-2.025-1.6-.16-.692-1.172-.975-.479.336-1.757-.836-1.014-.213-1.546-.16-1.438.639-1.333-.479-1.651.266-1.864,1.015-.32.476-1.065-.056-.267.266-1.493,0,.426-1.866-1.065-2.132-.533.266-.693-1.012a7.679,7.679,0,0,1-.053-2.185c.053-1.012-1.438-.32-1.065,1.491s-1.12,1.067-1.385,0c-.226-.9-.942-.891-1.481-1.762.074,1.142.189,2.273.357,3.387.2.01-.04-.209.377-.453.639-.373.266.213,1.88.852s.252,0,1.21.746.373.16.906,1.012.639.746,1.385,1.172.373.32.426,1.438-.426.959-1.438,2.452,0,.319,1.278,1.6.267.319,1.333,2.238.479,0,1.118.852.107.746,1.172,1.225.267.854.107,1.653a3.969,3.969,0,0,0,.106,2.343c.32,1.546.693,1.067-.532,2.239-.162.153-.277.272-.36.367.186.22.376.439.568.655a1.8,1.8,0,0,1,.592.576c.076.117.142.213.2.3.758.811,1.543,1.6,2.365,2.342l.259-.137c.8-.426.533-.106.639-1.012s.48-.586,1.278-.9,1.28-.373,1.227-.854.373-.692,1.118-1.491.8-.746.693-2.345.106-1.438,2.558-1.6,1.172-.213.958-1.333,0-1.6,1.067-3.09.053-1.067.532-2.238S381.308,398.8,380.082,398.538Z" transform="translate(-357.829 -344.971)" fill="#005c75"/>
    <path id="Path_40968" data-name="Path 40968" d="M374.144,380.954c-.319-.373,0,0-.639-.426s.266-.906.373-1.546.107-1.012-.639-2.025-.16.266-.639,1.172-.906-.054-.746-1.28-.213-.266-.959-.905.373-.267,0-1.172-1.333.373-1.385,1.172-.213.426-.8,1.811,0,.319.213,1.6-1.438.053-1.385.746a5.95,5.95,0,0,1-.16,2.025c-.213,1.225-.586.053-.958-1.6s-.8-.373-1.012-1.866-1.12-.266-1.546-.8-.8-1.28.479-2.239.32-1.118,1.759-2.238.906-.692,2.077-.906,1.28-1.065,1.546-1.438,0-.8-1.118-.639-1.333,1.651-1.172-.479-.32.106-1.172-.213c-.413-.156-.552-.3-.723-.335a39.841,39.841,0,0,0-7.676,23.561c0,.3.016.588.023.884a3,3,0,0,1,2.143-.346c1.225.16.159-.373,2.664-.852s.426.479,1.012.9.692.213.692.213a1.848,1.848,0,0,1,.373.693c.16.479.053-.373.267-2.5s1.278-1.065,1.7-1.759.32-1.438,1.706-1.972.266-.426,1.012-1.7.319-.16,1.917-.533.48-.213.48-1.546-.8-.319.426-1.172.533.054,1.759.428,0-.746.692-1.919S374.464,381.328,374.144,380.954Z" transform="translate(-357.859 -352.91)" fill="#005c75"/>
    <path id="Path_40969" data-name="Path 40969" d="M371.414,372.9c-.2-.679,0,.239-.2-1s.279-1.16-.32-1.6-.08.479-.6-.439-.679.04-.8-1.12.16-1.839-.479-1.438.359,1.038-.641.4-.4-1.078-1.358-.879-.04.28-.959.959-1.278,1.16-.6,1.679.28.04,1.039.8.359.16,1.358.439,1.16.08.959,1.039.2.679,0,1.36a2.075,2.075,0,0,1-.52.958c-.239.36.309.588-.239.36-.5-.209-.8-.519-1.079,0s-.16.519.32.519.958-.08,1.038.521-.239.359.52.719,1.639,1.438,1.518.759-.839-.919-.36-1.039,1.28,1.068.759-.245-1.118-1.3-.559-1.5-.12-.329.959.23,1.6.679,1.238-.16S371.615,373.581,371.414,372.9Z" transform="translate(-354.743 -353.862)" fill="#005c75"/>
    <path id="Path_40970" data-name="Path 40970" d="M386.077,363.792c-.64.44.079-.119-1.28.48s-1.4.879-1.679.879,1.879-1.3,1.518-1.53-.08-.372-.839,0-1.038.691-.719.051.4-.091.839-.7.36-.495.679-.375.8-.36-.08-.6-.079-.2-.958-.679-.24-.839-1.6-.359-.4.519-1.4.28-1.318-.16-1.438.439.24,1.238-.4.8-.4-1.639-.641-.44-.918,2.4-.918,1.32.479-1.959-.32-1.478-.8.559-1.12.4-.279-.679-.679.16-.12,1.079-.639.959-1-.919-1.158-.04.119.12.159,1.038,0,1.2-.439.839-.679-.119-.759.12c-.127.38-.641,0-1.28.379s-.559.46,0,.741,1.839.36,1.08.6-1.859-.439-1.529.24.253.279.851.8,0-.04,1.077.6,1.079.325,1.079.961a4.061,4.061,0,0,0,0,1.277c.12,1.2.28.967,0,1.623s.12.017.32.855.4.4-.36.8-.519.4-.16.919-.2.52-.319,1.12.439.679-.08,1.438-.44.32.08,1.438.365,1.2,1.021,1.6,1.217,1.6,1.377.2.04-1.119.519-1.719-.359-.719,1.2-1.238.679-.28,1.917-1.16.719-.239,1.879-.959,1.2-.988,1.039-1.293-.583-.7.067-.465,1.451.759.971-.24-1.558-.672-.519-1.3.959-.663.919-.982.479.279.519-.641-.319-.918,0-1.4.959.44.561-.639-.839-1.079-.08-1.919.519-.761.959-1.26.479-.019.759-.978S386.716,363.353,386.077,363.792Z" transform="translate(-352.46 -356.462)" fill="#005c75"/>
    <path id="Path_40971" data-name="Path 40971" d="M416.538,367.414c.069.693-.655.641-.868.373-.183-.229-.05-.5.382-1.626-.613-.572-1.238-1.129-1.886-1.661a.172.172,0,0,1-.147.064c-.229,0-.213-.157-.2-.336-.446-.359-.9-.711-1.361-1.051-.139.182-.293.433-.466.668-.452.612.134.559.427.719s-.08.213.053.479.08.639-.506.293-.293.426-.613.266-.293-.292-.772.267.4.266-.613.576-.159.223-.852.755.346.666.772.879.508.373.267.641l-.373-.08c-.226-.213-.12-.133-.453.146s0,0-.6.04-.187.12-.24.706.053.213.52.493.066.186.625.4.253.027.36.386a7.214,7.214,0,0,0,.333.987c.266.692-.093.226-.506-.04s-.253-.413-.346-.972-.613-.16-.721-.493-.252-.32-.838-.08.359.453-.054.559-.026.214.333.36.346.506.187.346.053-.226-.493-.16-.32-.12-.533-.839-.226.014-.266.413-.173.213-.173.506.24.253.452.453.215.2.134.653-.04.412.359.665.24-.026.386-.253.32-.106.506.08.32.093.508.506.133.267.053.546-.133-.119-.48-.7-.186-.08-.5.066-.082.426-.042.826a1.928,1.928,0,0,1,0,.8c-.066.612-.173.24-.415.439s-.49-.04-.611-.133-.027-.24.2-.32.413-.253.4-.692.08-.373-.106-.773-.24-.212-.466-.585.013-.32-.267-.786a2.552,2.552,0,0,0-.393-.586c-.34-.439-.206-.386-.113-1.079s0,0-.413-.293-.279-.093-.745.187-.067.359.013.573.04.319-.133.732-.107.253.08.519.173.093.186.546.293.373.493.373.266.32.493.493.159.146-.08.573-.24-.027-.506-.255-.2-.186-.44-.279-.159-.174-.159-.174c-.586-.242-.44-.412-.854-.239-.762.319-1.42-.465-2.185-1.119s-.639-.373-.852-1.491.479-.639.959-1.706.106-.213.8-.852.586-.693.692-1.278-.373-.427-.852,0-.426.372-1.28.639-.532.959-.692,1.917a11.222,11.222,0,0,0-.426,2.505c.053.852.586.692,1.332.746s.745.55,1.118.559a.949.949,0,0,1,.559.386c.08.133.267-.187.4-.067.256.229.256.676-.642.57-.322.03-.925.14-2.129.363-1.438.266,0,0-.16.106a1.855,1.855,0,0,0-.586,1.172c-.16.746.16-.746-.743,0s-.269-.266-.056-.746-.213-.213-.905-.426.106.32.106.746.373.373.289,1.119-.289.053-.608-.373-.472.117-.48.905.267.533-.479.427-.692-.214-.32.426,0,0-.16.372-.479-.053-.745-.585-.267-.373-1.12-1.067.32.107.586-.16.426.054,1.332.267.746,0,1.012-.8-.213-.428-1.067-1.12-.266-.053-1.757-.479-.32-.267-.906-.373-.479-.107-1.12-.746-.266,0-1.6.959-1.44.692-1.227,1.278.054.426-.8,1.332-.479.32-.606,1.012-.352.479-.992,1.007-.532.379-.8,1.178,0,.373.107,1.706,0,.373.692.213.16-.267.992-.64.127.16,0,.906.606.639.926,1.225.586.16,1.065-.692-.266-.586.054-.906.426-.16.159-1.152-.586-.446-.266-1.351.639-.533.907-1.067,0-.266.479-.8.479-.586.959,0-.426.32-.48.959-.372.32-.745.693-.213.585.319.972.107.572.533.945.426-.32.852-.746.426-.106,1.333.393-.48.673-.959.353-.479-.266-.907.48.586.266.48.958-.213.213-.692-.316-.48.21-.586,1.062a1.64,1.64,0,0,0-.006.518c.079.1.03.147,0,0a.44.44,0,0,0-.1-.091c-.32-.213,0,0-.692.373s-.694.32-1.333.107a2.689,2.689,0,0,0-1.3-.107c-.661,0-.193-.533-.246-1.438s-.533-.16-.639.426.32.906-.107,1.438-.426.054-.373.852,0,0-1.171.428,0,0-.641,1.012-.106.319-1.012.319-.426-.053-.852.373.426.48,1.012.48.107.692.107,1.491-.054.373-1.227-.053-.745.16-1.7.532,0,0,.423,1.12-.476.479-.316,1.172.479.266,1.225.639.586-.16,1.491-.639.266-.533.48-1.065.639-.267.852-1.28.426-.266,1.438.053.426-.319,1.493-.372.159.852.692,1.065.533.533.479,1.172.267.213.641-.213.372-.48-.054-.959-1.491-1.065-1.385-1.864.48.319.959.639.852.16,1.866,1.012-.267.586.479,1.491.692.693.692-.213.054-.586,1.333-.426.107.266.693,1.271.213.275,1.278.435.746-.107,1.706.106.213.693-.693,2.025,0,0-1.065-.106-.533.053-1.225.053-.533-.106-2.079-.586-.32,0-.586,1.28-.266.053-1.491-.373-.054-.48-1.546-.639,0,0-.639-.8.426-.586-.48-1.014,0,0-1.172-.266-.479-.106-2.238.906,0,0-1.118-.32-.533-.053-1.6.639,0,0-.48,1.119.16.373-.426,1.333-1.012.266-1.546,1.118-.319.213-.905,1.41-.054.456.16,1.574.106.48-.373,1.651.159.426.639,1.653.266.319,1.811,1.267c.666.409.8.536.795.568.042.01.109.027.214.06.8.242,1.068-.03,1.867-.03s.641.16,1.44-.266.713-.455,1.118-.32c.32.107.373.839.573.716s.919.123,1.639.443-.2,1.038-.44,1.759.32.239.681,1.038.159.28.958,1.438-.2.841.24,1.558-.12.52-1.238,2.039,0,.559.879,1.438.079.519.439,1.039.32.32.36,1.679.04.559.8,1.879,0,.4.641,1.2,1.278.12,2.358-.439.559-.12,1.318-.839.44-.08,1.2-1.16-.08-.959.759-1.2.439-.24.719-.64-.04-.679-.12-1.318.12-.4.679-1.079.8-.279,1.32-.679.4-.519.079-1.278-.119-.6-.2-1.719-.4-.48-.08-1.438,0,0,.359-.759.48.04.8-.48.44-.439.959-.959.52-.2.959-1.238.36-.4.8-1.12,0,0,.359-1.038.48-.641-.319-.6,0,0-1.039.08-.319.16-.959,0-.4-.24-1.078-.522-.48-.636-.56-1.157-.2-.319-.679-.8-.159-.679-.8-1.4-.08-.32-.519-1.238-.32-.44-1.358-1.719.918-.24,1.8.6,0,.32.721,1.12.279.239.279.8.2.479.879,1.358.24.239.719,1.6.24.719.639.442.56-.162,1.518-.041.36,0,.681-.52.359-.519.959-.639a3.56,3.56,0,0,0,1.57-1.16,5.8,5.8,0,0,0,.947-1.118c.681-.879-.04-.48-.559-.879s-.519.319-.8-.44-.08-.239-.919.16-.479.28-1.278-.16-.48-.679-1-1.2-.2-.759.519-.759.52.08,1.44.919.239.319,1.038.4,0,0,1.2.3.279.416,1.839.137.679-.16,1.438.639l.759.959c.4,1.038.919-.16,1.358.839s.08.559.28,1.837.359.48,1.679,1.679a2.291,2.291,0,0,1,.692.884,1.055,1.055,0,0,1,.187-.325c.6-.759,0-.8-.32-1.677s.08-.4,1-1.36.319-.639.719-.759.679-.359,1.238-1.238.44,0,1.159-.32.559,0,.8.519,0,.56.519.681.2.479.32.838.24.4.759.2.479.32.719.919.28.719-.04,1.6-.08.679.639,1.36.52.6.6,1.035.4.483,1,1.363.719.4.839-.32-.359-.44-.959-1.318-.639-.28-1.05-.719-.229-.721-.349-1.4.12-.719.679-.759.759.16,1.4.919.359.519,1.158,0,.639-.36.36-1.278.08-.6-.16-.919-1.039-.719-1.039-1.518.16-.52.719-.8.721.08,1.12,0c.287-.059.39-.26.648-.458.069-.956.116-1.919.116-2.891a39.9,39.9,0,0,0-12.255-28.81A1.825,1.825,0,0,0,416.538,367.414Z" transform="translate(-348.739 -355.409)" fill="#005c75"/>
    <path id="Path_40972" data-name="Path 40972" d="M397.454,397.465c-.479.932-.106,1.518-.8,1.518s-1.305.319-1.252.745-.106.48.134.773c.22.269-.426.239-.48,1.092s-.239,1.118.48,1.2,1.118.027,1.172-.426-.879-.24,0-1.092.692-.879.852-1.518.612-.826.426-1.305S397.934,396.531,397.454,397.465Z" transform="translate(-341.899 -340.806)" fill="#005c75"/>
    <path id="Path_40973" data-name="Path 40973" d="M412.371,394.8c-.359-.6-.02-.739-.819-1.1a5.185,5.185,0,0,1-1.318-.938.955.955,0,0,0-.779,0c-.593.339-.459.019.6.778s.819.38,1.039,1.12a2.533,2.533,0,0,0,.6,1.2,3.814,3.814,0,0,0,1.059,1.018,5.185,5.185,0,0,0,.455.3c.12-.31.24-.619.352-.932-.126-.287-.349-.34-.448-.662C412.972,395.12,412.731,395.4,412.371,394.8Z" transform="translate(-335.835 -342.731)" fill="#005c75"/>
    <path id="Path_40974" data-name="Path 40974" d="M401.455,362.9c.4.426-.383,1.148.187.958.159-.053-.267.187-.027.107.22-.073.355-.393.824-.793q-.74-.523-1.5-1.011A2.76,2.76,0,0,0,401.455,362.9Z" transform="translate(-339.346 -355.847)" fill="#005c75"/>
    <path id="Path_40975" data-name="Path 40975" d="M401.453,362.77c-.32-.559-.32-.315-.8-.663s-.24-.03-.746-.616l-.057-.067c-.317-.176-.639-.346-.961-.515a1.011,1.011,0,0,0-.049.183c-.133.825-.639.8,0,1.278s.8.16,1.12.613.213.639.906.639.819.116,1.074-.213C401.941,363.409,401.772,363.329,401.453,362.77Z" transform="translate(-340.382 -356.385)" fill="#005c75"/>
    <path id="Path_40976" data-name="Path 40976" d="M387.822,363.98c-.506.053-.479-.559-.586.187s-.16.719-.506.8-.293-.239-.346.082c-.07.419-1.518-.428-.959.4s.639.426.772,1.172.24.825.613,1.092.48.8.586.266a4.935,4.935,0,0,0,.16-1.092c0-.373.106-1.172.4-.532s.719,1.278.773.745a1.131,1.131,0,0,0-.347-.985c-.186-.213-1.171-.693-.133-.746s.934.047,1.092-.429.772-.466-.159-.525S388.328,363.927,387.822,363.98Z" transform="translate(-346.067 -355.145)" fill="#005c75"/>
    <path id="Path_40977" data-name="Path 40977" d="M380.955,372.674c-.428-.267-.56.133-1.147.346s-.479.026-.985-.453-.213.719-.213,1.039.106.452.532.719.187.24.613.319.874.153.826-.319c-.027-.267.479-.453.772-.763S381.381,372.94,380.955,372.674Z" transform="translate(-348.977 -351.422)" fill="#005c75"/>
    <path id="Path_40978" data-name="Path 40978" d="M382.154,377.516c-.174-.346-.133.4-.48.453s-.4.107-.319.639-.518.666-.033.826.485-.08.832-.32.133-.452.4-.852.426-.692.213-.746S382.259,377.729,382.154,377.516Z" transform="translate(-347.858 -349.286)" fill="#005c75"/>
    <path id="Path_40979" data-name="Path 40979" d="M383.978,378.267c-.267-.107-.453-.08-.533-.533s.16-.612,0-.825-.08-1.039-.479-.721-.054.347-.4.32c-.523-.04-.522.959-.142,1.172s.247-.133.515.479.932.706.4.859-.706-.113-.446.42.659.37.42.611-.586.162-.666.508,0,.16.373,0,.159-.213.666-.159.506.079.692-.134.506-.452.48-.666c-.009-.06.01-.056.031-.037-.033-.047-.081-.12-.166-.256C384.324,378.666,384.244,378.372,383.978,378.267Z" transform="translate(-347.418 -349.849)" fill="#005c75"/>
    <path id="Path_40980" data-name="Path 40980" d="M369.036,366.02c-.26-.26-.479-.12-.879-.2s-.539.02-.919-.12a.382.382,0,0,1-.267-.345c-.327.309-.656.618-.974.938a1.353,1.353,0,0,0,.322.127c.52.139.36.279.646.4s.193.12.794-.06.539.02.839.2.359,0,.639-.34S369.3,366.28,369.036,366.02Z" transform="translate(-354.362 -354.474)" fill="#005c75"/>
    <path id="Path_40981" data-name="Path 40981" d="M376.4,360.785c-.037-.073-.059-.134-.082-.19a40,40,0,0,0-3.687,2.062c-.007.051-.049.081-.127.083a40.187,40.187,0,0,0-5.41,4.1c.129.1.267.222.395.3.32.2.22.26.979.22s.2,0,.879.18.459-.02.539-.36-.06-.339.36-.679.4-.359.5-.539.44-.1.8-.42.14-.739.134-.959.466-.14.725-.377.18-.021.719,0,.06-.14.48-.559.639-.22.959-.56.355-.084.779-.419-.2-.02-.1-.2.679-.12,1.158-.479.44-.3.621-.46S376.558,361.093,376.4,360.785Z" transform="translate(-353.891 -356.519)" fill="#005c75"/>
    <path id="Path_40982" data-name="Path 40982" d="M365.887,366.451c-.352.37-.7.745-1.035,1.128a1.029,1.029,0,0,1,.479-.051c.36,0,.28,0,.55-.44C366.13,366.681,366.1,366.534,365.887,366.451Z" transform="translate(-354.854 -354.003)" fill="#005c75"/>
    <path id="Path_40983" data-name="Path 40983" d="M363.574,369.248a.72.72,0,0,0,.209.306.418.418,0,0,0,.5,0c.2-.123.52.4.5-.3s-.08-.786.02-1.1a.858.858,0,0,0-.023-.406Q364.159,368.48,363.574,369.248Z" transform="translate(-355.403 -353.448)" fill="#005c75"/>
    <path id="Path_40984" data-name="Path 40984" d="M370.08,421.43a38.807,38.807,0,0,0,54.882,0c-12.415,3.26-31.313,5.582-46.468-9.574s-12.465-31.707-8.414-45.308A38.807,38.807,0,0,0,370.08,421.43Z" transform="translate(-357.492 -353.961)" opacity="0.3"/>
    <path id="Path_40985" data-name="Path 40985" d="M407.994,371.339c-1.224,4.56-7.764,6.767-14.607,4.93s-11.4-7.023-10.173-11.583,7.764-6.767,14.607-4.93S409.218,366.78,407.994,371.339Z" transform="translate(-347.047 -357.158)" fill="#fff" opacity="0.3"/>
    <path id="Path_40986" data-name="Path 40986" d="M397.735,362.569c-.237.885-2.23,1.121-4.451.525s-3.826-1.8-3.589-2.684,2.23-1.121,4.451-.525S397.972,361.682,397.735,362.569Z" transform="translate(-344.187 -356.966)" fill="#fff"/>
    <path id="Path_40987" data-name="Path 40987" d="M397.185,364.655c-.143.376-1.025.39-1.967.03s-1.591-.956-1.447-1.333,1.024-.39,1.967-.03S397.328,364.279,397.185,364.655Z" transform="translate(-342.434 -355.46)" fill="#fff"/>
  </g>
  <g id="Group_177155" data-name="Group 177155" transform="translate(69.759 0.713)">
    <rect id="Rectangle_162607" data-name="Rectangle 162607" width="20.518" height="35.548" rx="1.786" fill="#243042"/>
    <rect id="Rectangle_162608" data-name="Rectangle 162608" width="16.706" height="26.396" transform="translate(1.906 2.874)" fill="#010203"/>
    <rect id="Rectangle_162609" data-name="Rectangle 162609" width="16.318" height="25.962" transform="translate(2.1 3.086)" fill="#00ab9d"/>
    <rect id="Rectangle_162610" data-name="Rectangle 162610" width="9.427" height="0.653" transform="translate(4.005 1.058)" fill="#4f6182"/>
    <rect id="Rectangle_162611" data-name="Rectangle 162611" width="3.018" height="0.653" transform="translate(14.445 1.058)" fill="#161a24"/>
    <path id="Rectangle_162612" data-name="Rectangle 162612" d="M.435,0H4.605A.435.435,0,0,1,5.04.435V2.212a.435.435,0,0,1-.435.435H.434A.434.434,0,0,1,0,2.213V.435A.435.435,0,0,1,.435,0Z" transform="translate(7.739 30.769)" fill="#a2a5ab"/>
    <path id="Path_40988" data-name="Path 40988" d="M410.939,376.224a10.125,10.125,0,0,0-3.928-2.285.58.58,0,0,1,.407-.167h3.52a.575.575,0,0,1,.575.575v1.3A.575.575,0,0,1,410.939,376.224Z" transform="translate(-398.921 -342.906)" fill="#7b7d82"/>
    <rect id="Rectangle_162613" data-name="Rectangle 162613" width="3.378" height="1.774" rx="0.291" transform="translate(3.056 30.769)" fill="#a2a5ab"/>
    <rect id="Rectangle_162614" data-name="Rectangle 162614" width="3.378" height="1.774" rx="0.291" transform="translate(14.084 30.769)" fill="#a2a5ab"/>
    <path id="Path_40989" data-name="Path 40989" d="M414.042,375.395a6.091,6.091,0,0,0-2.667-1.491.381.381,0,0,1,.307-.154h2.359a.386.386,0,0,1,.386.386v.874A.386.386,0,0,1,414.042,375.395Z" transform="translate(-397.045 -342.916)" fill="#7b7d82"/>
    <path id="Path_40990" data-name="Path 40990" d="M406.335,375.395a6.09,6.09,0,0,0-2.668-1.491.386.386,0,0,1,.309-.154h2.359a.386.386,0,0,1,.386.386v.874A.386.386,0,0,1,406.335,375.395Z" transform="translate(-400.358 -342.916)" fill="#7b7d82"/>
    <path id="Path_40991" data-name="Path 40991" d="M410.127,375.814H407.9a.5.5,0,0,1-.5-.5v-.824a.5.5,0,0,1,.5-.5h2.228a.5.5,0,0,1,.5.5v.824A.5.5,0,0,1,410.127,375.814Zm-2.228-1.553a.23.23,0,0,0-.23.23v.824a.23.23,0,0,0,.23.229h2.228a.23.23,0,0,0,.23-.229v-.824a.23.23,0,0,0-.23-.23Z" transform="translate(-398.754 -342.811)" fill="#1f252e"/>
    <path id="Path_40992" data-name="Path 40992" d="M403.145,352.347h15.63a2.537,2.537,0,0,1,2.11,2.389v29.921l-.284-29.528s.106-2.391-2.033-2.515C418.319,352.614,403.145,352.347,403.145,352.347Z" transform="translate(-400.582 -352.114)" fill="#8e99ab"/>
    <path id="Path_40993" data-name="Path 40993" d="M419.367,386.455h-15.63a2.538,2.538,0,0,1-2.11-2.391V354.145l.53,29.528s0,2.226,1.787,2.226C404.192,385.9,419.367,386.455,419.367,386.455Z" transform="translate(-401.235 -351.341)" fill="#0c0f14"/>
    <path id="Path_40994" data-name="Path 40994" d="M411.3,374.325c.082.548.811.822.811.822A.673.673,0,0,1,411.3,374.325Z" transform="translate(-397.081 -342.668)" fill="#dce0e8"/>
    <path id="Path_40995" data-name="Path 40995" d="M406.892,374.63c.126.845,1.135,1.182,1.135,1.182S406.638,376.134,406.892,374.63Z" transform="translate(-398.985 -342.537)" fill="#dce0e8"/>
    <path id="Path_40996" data-name="Path 40996" d="M403.6,374.394c.07.47.632.659.632.659S403.462,375.232,403.6,374.394Z" transform="translate(-400.393 -342.639)" fill="#dce0e8"/>
    <g id="Group_177154" data-name="Group 177154" transform="translate(3.985 12.609)">
      <g id="Group_177153" data-name="Group 177153">
        <path id="Path_40997" data-name="Path 40997" d="M415.165,361.193h-10.13a.607.607,0,0,0-.608.608v5.789a.607.607,0,0,0,.608.608h.938l-1.172,2.025,3.224-2.025h7.14a.608.608,0,0,0,.609-.608V361.8A.608.608,0,0,0,415.165,361.193Z" transform="translate(-404.016 -360.921)" fill="#fff"/>
        <path id="Path_40998" data-name="Path 40998" d="M404.14,371.119l1.486-2.568h-.466a.88.88,0,0,1-.879-.879v-5.789a.88.88,0,0,1,.879-.879h10.13a.881.881,0,0,1,.881.879v5.789a.881.881,0,0,1-.881.879h-7.062Zm1.019-9.572a.337.337,0,0,0-.336.336v5.789a.337.337,0,0,0,.336.336h1.41l-.858,1.483,2.359-1.483h7.219a.337.337,0,0,0,.337-.336v-5.789a.338.338,0,0,0-.337-.336Z" transform="translate(-404.14 -361.003)" fill="#ff4242"/>
      </g>
      <path id="Path_40999" data-name="Path 40999" d="M407.564,363.841a.725.725,0,1,1-.725-.725A.725.725,0,0,1,407.564,363.841Z" transform="translate(-403.292 -360.095)" fill="#bf3131"/>
      <path id="Path_41000" data-name="Path 41000" d="M409.339,363.841a.725.725,0,1,1-.725-.725A.725.725,0,0,1,409.339,363.841Z" transform="translate(-402.529 -360.095)" fill="#bf3131"/>
      <path id="Path_41001" data-name="Path 41001" d="M411.114,363.841a.725.725,0,1,1-.725-.725A.725.725,0,0,1,411.114,363.841Z" transform="translate(-401.766 -360.095)" fill="#bf3131"/>
    </g>
    <path id="Path_41002" data-name="Path 41002" d="M419.14,380.3l-16.318-25.962H419.14Z" transform="translate(-400.721 -351.256)" fill="#fff" opacity="0.2"/>
    <path id="Path_41003" data-name="Path 41003" d="M414.962,352.675c.193.247.24.533.106.639s-.4-.009-.6-.256-.24-.533-.1-.639S414.768,352.427,414.962,352.675Z" transform="translate(-395.793 -352.1)" fill="#fff"/>
    <path id="Path_41004" data-name="Path 41004" d="M415.345,353.236c.114.147.143.317.061.38s-.239,0-.353-.152-.144-.317-.063-.38S415.229,353.088,415.345,353.236Z" transform="translate(-395.512 -351.807)" fill="#fff"/>
  </g>
  <g id="Group_177158" data-name="Group 177158" transform="translate(2.709 57.534)">
    <rect id="Rectangle_162615" data-name="Rectangle 162615" width="21.147" height="36.638" rx="1.841" fill="#fff"/>
    <rect id="Rectangle_162616" data-name="Rectangle 162616" width="17.219" height="27.206" transform="translate(1.964 2.963)" fill="#010203"/>
    <rect id="Rectangle_162617" data-name="Rectangle 162617" width="16.819" height="26.758" transform="translate(2.164 3.181)" fill="#f2a600"/>
    <rect id="Rectangle_162618" data-name="Rectangle 162618" width="9.716" height="0.673" transform="translate(4.127 1.091)" fill="#98bbfa"/>
    <rect id="Rectangle_162619" data-name="Rectangle 162619" width="3.11" height="0.673" transform="translate(14.888 1.091)" fill="#778cc2"/>
    <rect id="Rectangle_162620" data-name="Rectangle 162620" width="5.195" height="2.728" rx="0.448" transform="translate(7.977 31.712)" fill="#a2a5ab"/>
    <path id="Path_41005" data-name="Path 41005" d="M364.337,416.7a10.425,10.425,0,0,0-4.048-2.353.59.59,0,0,1,.42-.174h3.627a.594.594,0,0,1,.593.593v1.341A.594.594,0,0,1,364.337,416.7Z" transform="translate(-351.951 -382.363)" fill="#7b7d82"/>
    <rect id="Rectangle_162621" data-name="Rectangle 162621" width="3.482" height="1.828" rx="0.3" transform="translate(3.15 31.712)" fill="#a2a5ab"/>
    <rect id="Rectangle_162622" data-name="Rectangle 162622" width="3.482" height="1.828" rx="0.3" transform="translate(14.516 31.712)" fill="#a2a5ab"/>
    <path id="Path_41006" data-name="Path 41006" d="M367.535,415.848a6.286,6.286,0,0,0-2.749-1.537.4.4,0,0,1,.317-.159h2.432a.4.4,0,0,1,.4.4v.9A.4.4,0,0,1,367.535,415.848Z" transform="translate(-350.018 -382.373)" fill="#7b7d82"/>
    <path id="Path_41007" data-name="Path 41007" d="M359.592,415.848a6.286,6.286,0,0,0-2.749-1.537.394.394,0,0,1,.317-.159h2.432a.4.4,0,0,1,.4.4v.9A.4.4,0,0,1,359.592,415.848Z" transform="translate(-353.432 -382.373)" fill="#7b7d82"/>
    <path id="Path_41008" data-name="Path 41008" d="M363.5,416.28h-2.3a.514.514,0,0,1-.515-.515v-.848a.514.514,0,0,1,.515-.515h2.3a.514.514,0,0,1,.513.515v.848A.514.514,0,0,1,363.5,416.28Zm-2.3-1.6a.237.237,0,0,0-.237.237v.848a.237.237,0,0,0,.237.237h2.3a.237.237,0,0,0,.236-.237v-.848a.236.236,0,0,0-.236-.237Z" transform="translate(-351.778 -382.265)" fill="#fff"/>
    <path id="Path_41009" data-name="Path 41009" d="M373.024,427.247H356.914a2.614,2.614,0,0,1-2.175-2.462V393.946l.546,30.434s0,2.295,1.843,2.295C357.384,426.675,373.024,427.247,373.024,427.247Z" transform="translate(-354.336 -391.057)" fill="#8c8c8c"/>
    <path id="Path_41010" data-name="Path 41010" d="M364.714,414.745c.084.565.836.848.836.848A.7.7,0,0,1,364.714,414.745Z" transform="translate(-350.054 -382.118)" fill="#dce0e8"/>
    <path id="Path_41011" data-name="Path 41011" d="M360.167,415.059c.13.872,1.171,1.22,1.171,1.22S359.9,416.61,360.167,415.059Z" transform="translate(-352.017 -381.983)" fill="#dce0e8"/>
    <path id="Path_41012" data-name="Path 41012" d="M356.776,414.816c.073.486.652.679.652.679S356.631,415.68,356.776,414.816Z" transform="translate(-353.468 -382.088)" fill="#dce0e8"/>
    <g id="Group_177157" data-name="Group 177157" transform="translate(4.459 12.857)">
      <g id="Group_177156" data-name="Group 177156">
        <path id="Path_41013" data-name="Path 41013" d="M358.4,401.114H368.84a.626.626,0,0,1,.626.626v5.966a.626.626,0,0,1-.626.626h-.967l1.208,2.087-3.323-2.087H358.4a.626.626,0,0,1-.626-.626V401.74A.626.626,0,0,1,358.4,401.114Z" transform="translate(-357.492 -400.834)" fill="#fff"/>
        <path id="Path_41014" data-name="Path 41014" d="M365.761,408.7h-7.279a.908.908,0,0,1-.906-.906v-5.966a.908.908,0,0,1,.906-.906h10.442a.907.907,0,0,1,.906.906v5.966a.907.907,0,0,1-.906.906h-.48l1.531,2.646Zm-7.279-7.219a.346.346,0,0,0-.346.346v5.966a.346.346,0,0,0,.346.346h7.441l2.434,1.528-.885-1.528h1.453a.346.346,0,0,0,.346-.346v-5.966a.346.346,0,0,0-.346-.346Z" transform="translate(-357.576 -400.918)" fill="#5542ff"/>
      </g>
      <path id="Path_41015" data-name="Path 41015" d="M363.168,403.843a.747.747,0,1,0,.746-.748A.747.747,0,0,0,363.168,403.843Z" transform="translate(-355.173 -399.982)" fill="#5542ff"/>
      <path id="Path_41016" data-name="Path 41016" d="M361.339,403.843a.747.747,0,1,0,.746-.748A.747.747,0,0,0,361.339,403.843Z" transform="translate(-355.959 -399.982)" fill="#5542ff"/>
      <path id="Path_41017" data-name="Path 41017" d="M359.51,403.843a.747.747,0,1,0,.746-.748A.747.747,0,0,0,359.51,403.843Z" transform="translate(-356.745 -399.982)" fill="#5542ff"/>
    </g>
    <path id="Path_41018" data-name="Path 41018" d="M372.79,420.908,355.971,394.15H372.79Z" transform="translate(-353.807 -390.969)" fill="#fff" opacity="0.2"/>
  </g>
  <g id="Group_177159" data-name="Group 177159" transform="translate(1.994 2.066)">
    <path id="Path_41019" data-name="Path 41019" d="M399.883,357.642a7.427,7.427,0,0,0-1.647-1.019l.62-1.29a8.554,8.554,0,0,1,1.976,1.242Z" transform="translate(-334.927 -352.183)" fill="#fff"/>
    <path id="Path_41020" data-name="Path 41020" d="M355.621,395.589l-1.424-.134c.139-1.465.319-2.92.539-4.322l1.413.22C355.933,392.726,355.755,394.15,355.621,395.589Zm1.337-8.419-1.394-.322c.33-1.434.716-2.852,1.15-4.216l1.363.432C357.656,384.391,357.278,385.772,356.958,387.17Zm2.581-8.094-1.318-.552c.57-1.36,1.205-2.691,1.889-3.953l1.257.679C360.705,376.472,360.09,377.759,359.539,379.076Zm4.039-7.441-1.178-.809a38.8,38.8,0,0,1,2.692-3.471l1.078.941A37.207,37.207,0,0,0,363.578,371.635Zm5.553-6.358-.961-1.058a37.845,37.845,0,0,1,3.42-2.762l.832,1.162A36.774,36.774,0,0,0,369.131,365.277Zm6.867-4.93-.7-1.245a41.825,41.825,0,0,1,3.939-1.943l.563,1.313A40.614,40.614,0,0,0,376,360.347Zm7.784-3.361-.436-1.363c1.364-.437,2.787-.824,4.226-1.149l.316,1.394C386.488,356.185,385.107,356.56,383.782,356.986Zm29.445-.815c-1.287-.347-2.684-.646-4.149-.889l.233-1.411c1.513.25,2.955.56,4.291.921ZM392.076,355.1l-.2-1.416c1.421-.2,2.884-.349,4.352-.442l.089,1.427C394.89,354.763,393.461,354.907,392.076,355.1Zm12.771-.343c-1.407-.117-2.841-.186-4.259-.2l.013-1.43c1.454.016,2.922.084,4.367.2Z" transform="translate(-353.854 -353.13)" fill="#fff"/>
    <path id="Path_41021" data-name="Path 41021" d="M355.387,388.008l-1.43-.02q.015-1.1.054-2.16l1.43.053C355.415,386.579,355.4,387.289,355.387,388.008Z" transform="translate(-353.957 -339.077)" fill="#fff"/>
  </g>
  <g id="Group_177160" data-name="Group 177160" transform="translate(26.117 45.928)">
    <path id="Path_41022" data-name="Path 41022" d="M372.8,417.709a8.738,8.738,0,0,1-1.974-1.244l.952-1.068a7.363,7.363,0,0,0,1.644,1.024Z" transform="translate(-370.829 -370.232)" fill="#fff"/>
    <path id="Path_41023" data-name="Path 41023" d="M391.438,432.862l-.024-1.43c1.36-.021,2.724-.092,4.055-.2l.122,1.424C394.226,432.77,392.831,432.84,391.438,432.862Zm-4.152-.067c-1.39-.069-2.782-.184-4.141-.343l.169-1.421c1.324.157,2.684.27,4.042.337Zm12.432-.643-.223-1.413c1.341-.212,2.678-.478,3.972-.789l.336,1.391C402.471,431.661,401.1,431.933,399.718,432.152Zm-20.685-.33c-1.436-.276-2.8-.6-4.056-.965l.4-1.374c1.212.353,2.535.668,3.929.934Zm28.774-1.623-.449-1.357c1.293-.43,2.561-.918,3.769-1.448l.575,1.31C410.454,429.252,409.144,429.756,407.807,430.2Zm7.629-3.361-.7-1.245a37.779,37.779,0,0,0,3.4-2.16l.832,1.161A38.98,38.98,0,0,1,415.437,426.837Zm6.784-4.861-.955-1.064a35.556,35.556,0,0,0,2.832-2.852l1.069.949A37.231,37.231,0,0,1,422.221,421.976Zm5.539-6.241-1.167-.826a38.4,38.4,0,0,0,2.142-3.4l1.248.7A39.275,39.275,0,0,1,427.76,415.735Zm4.075-7.269-1.31-.573c.528-1.208,1.015-2.476,1.447-3.767l1.357.455C432.883,405.911,432.381,407.218,431.835,408.466Zm2.655-7.879-1.388-.343c.317-1.275.6-2.606.835-3.963l1.407.246C435.1,397.916,434.813,399.281,434.49,400.587Zm1.438-8.165-1.421-.156c.146-1.311.259-2.674.336-4.051l1.427.079C436.191,389.7,436.077,391.086,435.928,392.421Z" transform="translate(-369.046 -381.914)" fill="#fff"/>
    <path id="Path_41024" data-name="Path 41024" d="M418.366,385.968l-1.43-.006q0-1.049-.016-2.127l1.43-.027Q418.372,384.9,418.366,385.968Z" transform="translate(-351.02 -383.808)" fill="#fff"/>
  </g>
  <g id="Group_177163" data-name="Group 177163" transform="translate(9.345 0)">
    <g id="Group_177161" data-name="Group 177161">
      <path id="Path_41025" data-name="Path 41025" d="M380.365,360.66l-15.037,10.463-6.229-8.983h0l15.022-10.454,6.244,8.975Z" transform="translate(-359.098 -351.685)" fill="#fff"/>
      <path id="Path_41026" data-name="Path 41026" d="M359.443,361.694l14.045-9.773-2.99,10.664Z" transform="translate(-358.95 -351.584)" fill="#c73e3e"/>
    </g>
    <rect id="Rectangle_162623" data-name="Rectangle 162623" width="5.372" height="0.852" transform="translate(14.234 10.248) rotate(-34.738)" fill="#858585"/>
    <rect id="Rectangle_162624" data-name="Rectangle 162624" width="9.043" height="0.852" transform="translate(12.054 13.548) rotate(-34.737)" fill="#858585"/>
    <g id="Group_177162" data-name="Group 177162" transform="translate(4.803 11.922)">
      <path id="Path_41027" data-name="Path 41027" d="M366.991,363.816a2.886,2.886,0,0,1-.924.952,2.16,2.16,0,0,1-3.1-.576,2.627,2.627,0,0,1,.642-3.742,2.029,2.029,0,0,1,2.935.465,1.476,1.476,0,0,1-.146,2.162.558.558,0,0,1-.815-.1l-.011.009a1.042,1.042,0,0,1-.442.972.812.812,0,0,1-1.181-.306,1.625,1.625,0,0,1,.423-2.309,2,2,0,0,1,.8-.336l.575,1.2c.18.385.33.513.5.406.254-.169.347-.709-.119-1.381a1.568,1.568,0,0,0-2.332-.38,2.072,2.072,0,0,0-.417,2.98,1.722,1.722,0,0,0,2.558.493,2.3,2.3,0,0,0,.716-.775Zm-2.192-2.052a.861.861,0,0,0-.2.1.939.939,0,0,0-.114,1.307c.154.223.352.293.545.16a.806.806,0,0,0,.07-.958Z" transform="translate(-362.457 -360.024)" fill="#c73e3e"/>
    </g>
  </g>
  <path id="Path_41028" data-name="Path 41028" d="M352.562,388.887l5.913-1.059-2.343,4.915Z" transform="translate(-352.562 -336.152)" fill="#fff"/>
  <path id="Path_41029" data-name="Path 41029" d="M422.063,383.064l-7.5,1.5,2.643-5.849Z" transform="translate(-325.915 -340.069)" fill="#fff"/>
  <g id="Group_177166" data-name="Group 177166" transform="translate(68.127 75.854)">
    <g id="Group_177164" data-name="Group 177164">
      <path id="Path_41030" data-name="Path 41030" d="M400.211,415.117,415.2,404.738l6.18,8.957h0l-14.979,10.371-6.195-8.948Z" transform="translate(-400.211 -404.738)" fill="#fff"/>
      <path id="Path_41031" data-name="Path 41031" d="M418.886,411.516l-14,9.7,3-10.609Z" transform="translate(-398.204 -402.217)" fill="#504aff"/>
    </g>
    <rect id="Rectangle_162625" data-name="Rectangle 162625" width="5.347" height="0.848" transform="translate(2.121 11.466) rotate(-34.601)" fill="#858585"/>
    <rect id="Rectangle_162626" data-name="Rectangle 162626" width="9.002" height="0.848" transform="translate(1.29 10.262) rotate(-34.602)" fill="#858585"/>
    <g id="Group_177165" data-name="Group 177165" transform="translate(11.891 2.34)">
      <path id="Path_41032" data-name="Path 41032" d="M408.528,407.732a2.913,2.913,0,0,1,.921-.945,2.151,2.151,0,0,1,3.084.582,2.612,2.612,0,0,1-.648,3.722,2.018,2.018,0,0,1-2.921-.469,1.469,1.469,0,0,1,.15-2.15.557.557,0,0,1,.812.1l.011-.008a1.034,1.034,0,0,1,.44-.967.809.809,0,0,1,1.175.307,1.616,1.616,0,0,1-.426,2.3,2,2,0,0,1-.794.333l-.569-1.2c-.179-.383-.329-.512-.5-.4-.254.166-.347.7.114,1.374a1.56,1.56,0,0,0,2.321.385,2.063,2.063,0,0,0,.422-2.965,1.713,1.713,0,0,0-2.544-.5,2.325,2.325,0,0,0-.716.769Zm2.178,2.049a.811.811,0,0,0,.2-.1.934.934,0,0,0,.117-1.3c-.153-.222-.349-.293-.542-.16a.8.8,0,0,0-.073.952Z" transform="translate(-408.528 -406.375)" fill="#504aff"/>
    </g>
  </g>
</svg>
