<svg xmlns="http://www.w3.org/2000/svg" width="102.652" height="92.557" viewBox="0 0 102.652 92.557">
  <g id="Group_177151" data-name="Group 177151" transform="translate(-988.529 -38.995)">
    <g id="Group_177150" data-name="Group 177150" transform="translate(988.529 38.995)">
      <rect id="Rectangle_162604" data-name="Rectangle 162604" width="102.652" height="15.19" rx="5" transform="translate(0 27.311)" fill="#e7553f"/>
      <g id="Group_177148" data-name="Group 177148" transform="translate(16.022 0)">
        <rect id="Rectangle_162605" data-name="Rectangle 162605" width="11.651" height="37.542" rx="5.825" transform="translate(0 4.172) rotate(-20.982)" fill="#74bec6"/>
        <rect id="Rectangle_162606" data-name="Rectangle 162606" width="11.651" height="37.542" rx="5.825" transform="translate(57.166 39.225) rotate(-159.018)" fill="#74bec6"/>
      </g>
      <g id="Group_177149" data-name="Group 177149" transform="translate(7.223 42.501)">
        <path id="Path_40966" data-name="Path 40966" d="M1004.312,93.406l5.637,42.666a8.5,8.5,0,0,0,8.428,7.389h60.075a8.5,8.5,0,0,0,8.429-7.389l5.637-42.666Zm49.3,8.841h8.5a1.889,1.889,0,0,1,1.889,1.889v8.5a1.89,1.89,0,0,1-1.889,1.889h-8.5a1.889,1.889,0,0,1-1.889-1.889v-8.5A1.889,1.889,0,0,1,1053.611,102.247Zm-18.893,0h8.5a1.889,1.889,0,0,1,1.889,1.889v8.5a1.89,1.89,0,0,1-1.889,1.889h-8.5a1.889,1.889,0,0,1-1.889-1.889v-8.5A1.889,1.889,0,0,1,1034.718,102.247Zm-20.782,10.391v-8.5a1.889,1.889,0,0,1,1.889-1.889h8.5a1.889,1.889,0,0,1,1.889,1.889v8.5a1.89,1.89,0,0,1-1.889,1.889h-8.5A1.889,1.889,0,0,1,1013.935,112.638Zm19.838,21.982h-8.5a1.889,1.889,0,0,1-1.889-1.889v-8.5a1.889,1.889,0,0,1,1.889-1.889h8.5a1.889,1.889,0,0,1,1.889,1.889v8.5A1.89,1.89,0,0,1,1033.773,134.62Zm18.893,0h-8.5a1.889,1.889,0,0,1-1.889-1.889v-8.5a1.889,1.889,0,0,1,1.889-1.889h8.5a1.889,1.889,0,0,1,1.889,1.889v8.5A1.89,1.89,0,0,1,1052.666,134.62Zm18.893,0h-8.5a1.889,1.889,0,0,1-1.889-1.889v-8.5a1.889,1.889,0,0,1,1.889-1.889h8.5a1.889,1.889,0,0,1,1.889,1.889v8.5A1.89,1.89,0,0,1,1071.559,134.62Zm9.446-20.093h-8.5a1.889,1.889,0,0,1-1.889-1.889v-8.5a1.889,1.889,0,0,1,1.889-1.889h8.5a1.889,1.889,0,0,1,1.889,1.889v8.5A1.89,1.89,0,0,1,1081.006,114.528Z" transform="translate(-1004.312 -93.406)" fill="#06a7ba"/>
      </g>
    </g>
  </g>
</svg>
