<svg xmlns="http://www.w3.org/2000/svg" width="104.744" height="71.745" viewBox="0 0 104.744 71.745">
  <g id="Group_176643" data-name="Group 176643" transform="translate(-30.493 -146.067)">
    <g id="Group_176638" data-name="Group 176638" transform="translate(36.157 146.067)">
      <g id="Group_176637" data-name="Group 176637">
        <path id="Path_40743" data-name="Path 40743" d="M72.948,203.326l-38.435-.009.013-57.25,44.351.01-.012,51.243Z" transform="translate(-34.513 -146.067)" fill="#fff"/>
        <path id="Path_40744" data-name="Path 40744" d="M61.8,182.449v6.008l5.918-6.006Z" transform="translate(-23.363 -131.197)" fill="#ababab"/>
        <rect id="Rectangle_162593" data-name="Rectangle 162593" width="26.15" height="5.293" transform="translate(5.624 5.389)" fill="#3aa699"/>
        <rect id="Rectangle_162594" data-name="Rectangle 162594" width="33.661" height="1.516" transform="translate(5.623 13.743)" fill="#858585"/>
        <rect id="Rectangle_162595" data-name="Rectangle 162595" width="33.661" height="1.516" transform="translate(5.622 17.984)" fill="#858585"/>
        <rect id="Rectangle_162596" data-name="Rectangle 162596" width="33.661" height="1.516" transform="translate(5.617 37.068)" fill="#858585"/>
        <rect id="Rectangle_162597" data-name="Rectangle 162597" width="33.661" height="1.516" transform="translate(5.616 41.308)" fill="#858585"/>
        <rect id="Rectangle_162598" data-name="Rectangle 162598" width="17.953" height="1.516" transform="translate(5.615 45.547)" fill="#858585"/>
        <rect id="Rectangle_162599" data-name="Rectangle 162599" width="33.44" height="11.53" transform="translate(5.619 22.357)" fill="#88e6db"/>
      </g>
    </g>
    <g id="Group_176641" data-name="Group 176641" transform="translate(43.329 158.454)">
      <g id="Group_176639" data-name="Group 176639" transform="translate(0 4.233)">
        <path id="Path_40745" data-name="Path 40745" d="M48.211,186.341H65.77V167.5H48.211a5.219,5.219,0,0,0-5.218,5.218v8.409A5.218,5.218,0,0,0,48.211,186.341Z" transform="translate(-38.22 -153.928)" fill="#c93a3a"/>
        <path id="Path_40746" data-name="Path 40746" d="M39.6,175.183v.072a3.523,3.523,0,0,0,3.522,3.522h1.251v-7.115H43.127A3.523,3.523,0,0,0,39.6,175.183Z" transform="translate(-39.605 -152.227)" fill="#781919"/>
        <path id="Path_40747" data-name="Path 40747" d="M39.6,174.223a3.523,3.523,0,0,0,3.522,3.522h1.251v-3.558Z" transform="translate(-39.605 -151.195)" fill="#5e1414"/>
        <path id="Path_40748" data-name="Path 40748" d="M79.172,170.583h-.509v10.152h.509a4.879,4.879,0,0,0,4.719-5.026v-.1A4.878,4.878,0,0,0,79.172,170.583Z" transform="translate(-23.642 -152.667)" fill="#781919"/>
        <path id="Path_40749" data-name="Path 40749" d="M59.162,178.39V189.6c12.709,0,24.385,11.241,24.385,11.241V159.519s-11.675,11.24-24.385,11.24Z" transform="translate(-31.612 -157.189)" fill="#ffb947"/>
        <rect id="Rectangle_162600" data-name="Rectangle 162600" width="3.37" height="5.384" rx="1.184" transform="translate(11.281 18.275)" fill="#731111"/>
        <path id="Path_40750" data-name="Path 40750" d="M50.357,203.586h.069a3.424,3.424,0,0,0,3.4-3l2.433-19.706H49.287l-2.33,18.867A3.425,3.425,0,0,0,50.357,203.586Z" transform="translate(-36.611 -148.461)" fill="#c93a3a"/>
        <path id="Path_40751" data-name="Path 40751" d="M48.229,185.135H55.2l.526-4.261H48.755Z" transform="translate(-36.08 -148.461)" fill="#781919"/>
        <path id="Path_40752" data-name="Path 40752" d="M53.134,185.6h3.033c-.525-3.23.587-4.721.587-4.721H53.723Z" transform="translate(-34.076 -148.461)" fill="#4f1010"/>
        <path id="Path_40753" data-name="Path 40753" d="M59.788,172.717c14.705,0,22.721-11.815,22.721-11.815s-8.347,10.465-22.721,10.465Z" transform="translate(-31.356 -156.624)" fill="#fff"/>
        <path id="Path_40754" data-name="Path 40754" d="M59.788,179.376v1.351c14.374,0,22.721,10.464,22.721,10.464S74.493,179.376,59.788,179.376Z" transform="translate(-31.356 -149.073)" fill="#c48e37"/>
        <path id="Path_40755" data-name="Path 40755" d="M44.662,169.719H64.271v-1.483H48.229a5.026,5.026,0,0,0-3.464,1.385Z" transform="translate(-37.538 -153.626)" fill="#fff"/>
        <path id="Path_40756" data-name="Path 40756" d="M44.956,179.381H64.565v1.485H48.524a5.019,5.019,0,0,1-3.464-1.386Z" transform="translate(-37.418 -149.071)" fill="#a12e2e"/>
        <rect id="Rectangle_162601" data-name="Rectangle 162601" width="3.868" height="46.164" rx="1.359" transform="translate(51.153)" fill="#b82a2a"/>
        <path id="Path_40757" data-name="Path 40757" d="M77.871,204.028h-.039a1.915,1.915,0,0,1-1.914-1.914V159.779a1.915,1.915,0,0,1,1.914-1.914h.039Z" transform="translate(-24.764 -157.865)" fill="#8a2020"/>
        <path id="Path_40758" data-name="Path 40758" d="M80.771,171.237c.527.269.84.738.7,1.049s-.68.344-1.206.075-.84-.74-.7-1.049S80.246,170.968,80.771,171.237Z" transform="translate(-23.287 -152.474)" fill="#fff"/>
      </g>
      <g id="Group_176640" data-name="Group 176640" transform="translate(63.138 0)">
        <path id="Path_40759" data-name="Path 40759" d="M86.573,162.72a2.033,2.033,0,0,0-1.455,3.454,16.041,16.041,0,0,1,4.675,10.847,15.108,15.108,0,0,1-4.737,11.043,2.034,2.034,0,0,0,2.806,2.946,19.146,19.146,0,0,0,6-13.988,19.907,19.907,0,0,0-5.833-13.687A2.022,2.022,0,0,0,86.573,162.72Z" transform="translate(-84.425 -151.648)" fill="#7de7ff"/>
        <path id="Path_40760" data-name="Path 40760" d="M97.414,154.86a2.031,2.031,0,0,0-1.469,3.434,33.183,33.183,0,0,1,8.707,21.747c0,8.01-3.487,16.88-8.676,22.074a2.034,2.034,0,1,0,2.878,2.875c5.9-5.907,9.864-15.934,9.864-24.949a37.444,37.444,0,0,0-9.831-24.552A2.023,2.023,0,0,0,97.414,154.86Z" transform="translate(-79.948 -154.86)" fill="#7de7ff"/>
        <path id="Path_40761" data-name="Path 40761" d="M91.9,158.845a2.033,2.033,0,0,0-1.461,3.447c4.44,4.584,7.2,10.909,7.2,16.516A23.117,23.117,0,0,1,90.6,195.092a2.034,2.034,0,0,0,2.824,2.927,26.888,26.888,0,0,0,8.278-19.212c0-6.624-3.2-14.033-8.345-19.341A2.02,2.02,0,0,0,91.9,158.845Z" transform="translate(-82.202 -153.231)" fill="#7de7ff"/>
      </g>
    </g>
    <g id="Group_176642" data-name="Group 176642" transform="translate(30.493 170.66)">
      <rect id="Rectangle_162602" data-name="Rectangle 162602" width="2.772" height="21.542" transform="translate(4.932 17.974) rotate(-14.944)" fill="#34495e"/>
      <path id="Path_40762" data-name="Path 40762" d="M30.89,165.706l4.228,15.841,2.986-.8-4.228-15.841a1.677,1.677,0,0,0-1.941-1.338l-.03.008A1.676,1.676,0,0,0,30.89,165.706Z" transform="translate(-30.36 -163.525)" fill="#34495e"/>
      <path id="Path_40763" data-name="Path 40763" d="M37.938,191.267l2.678-.715.378,6.87Z" transform="translate(-27.45 -152.479)" fill="#ffb947"/>
      <path id="Path_40764" data-name="Path 40764" d="M31.341,167.8l.547-.146-.254-.953-.547.146-.593,1.027,3.035,11.371.971.386Z" transform="translate(-30.493 -162.228)" fill="#ffb947"/>
    </g>
  </g>
</svg>
