<svg xmlns="http://www.w3.org/2000/svg" width="94.112" height="129.421" viewBox="0 0 94.112 129.421">
  <g id="Group_177144" data-name="Group 177144" transform="translate(-138.242 -11.611)">
    <g id="Group_177077" data-name="Group 177077" transform="translate(202.183 80.638)">
      <g id="Group_177074" data-name="Group 177074">
        <g id="Group_177073" data-name="Group 177073">
          <path id="Path_40765" data-name="Path 40765" d="M199.54,60.317a11.272,11.272,0,1,0,0,15.939A11.218,11.218,0,0,0,199.54,60.317Z" transform="translate(-180.303 -57.017)" fill="#bf4e00"/>
        </g>
      </g>
      <g id="Group_177076" data-name="Group 177076" transform="translate(6.508 1.313)">
        <g id="Group_177075" data-name="Group 177075">
          <path id="Path_40766" data-name="Path 40766" d="M192.562,67.575a7.624,7.624,0,0,0-2.238-1.13l-.629-.21c-.125-.043-.237-.09-.348-.135a3.366,3.366,0,0,1-1.092-.631,1.421,1.421,0,0,1-.406-1.058,1.539,1.539,0,0,1,.4-1.1,1.375,1.375,0,0,1,1.047-.429c.015,0,.032,0,.049,0a1.608,1.608,0,0,1,1.093.409,1.655,1.655,0,0,1,.511,1.114h2.8a4.627,4.627,0,0,0-.631-2.15,3.963,3.963,0,0,0-1.538-1.484,4.1,4.1,0,0,0-1-.391V57.881h-2.326V60.4h0a4.22,4.22,0,0,0-.979.4,4.143,4.143,0,0,0-1.569,1.513,3.946,3.946,0,0,0-.576,2.077,4.116,4.116,0,0,0,1.9,3.452,7.063,7.063,0,0,0,1.218.569c.073.02.269.082.585.187.184.061.353.12.512.179a4.817,4.817,0,0,1,1.373.74,1.907,1.907,0,0,1,.667,1.528,1.805,1.805,0,0,1-.546,1.351,1.913,1.913,0,0,1-1.393.532c-.036,0-.067,0-.1-.008a1.849,1.849,0,0,1-1.917-1.853h-2.846a4.5,4.5,0,0,0,.339,1.628,4.056,4.056,0,0,0,.939,1.426,4.59,4.59,0,0,0,2.393,1.327V77.9h2.326V75.415a4.661,4.661,0,0,0,3.525-4.556A4.053,4.053,0,0,0,192.562,67.575Z" transform="translate(-184.584 -57.881)" fill="#ff6800"/>
        </g>
      </g>
    </g>
    <g id="Group_177079" data-name="Group 177079" transform="translate(198.821 21.217)">
      <g id="Group_177078" data-name="Group 177078" transform="translate(0 0)">
        <path id="Path_40767" data-name="Path 40767" d="M181.729,23.816h-3.554a4.885,4.885,0,0,1-.084-.964,4.764,4.764,0,0,1,.084-.941h3.554v-3.9c.157-.029.312-.05.461-.065s.312-.02.483-.02c.157,0,.313.006.471.02s.321.036.491.065v3.9h3.533a4.522,4.522,0,0,1,.062.47c.015.158.024.315.024.471s-.009.318-.024.482a4.489,4.489,0,0,1-.062.482h-3.533v3.877c-.17.027-.334.049-.491.064s-.315.02-.471.02a4.819,4.819,0,0,1-.944-.084Z" transform="translate(-178.091 -17.93)" fill="#c2edff"/>
      </g>
    </g>
    <g id="Group_177081" data-name="Group 177081" transform="translate(142.413 47.517)">
      <g id="Group_177080" data-name="Group 177080">
        <path id="Path_40768" data-name="Path 40768" d="M143.243,38.883h-2.206a3.1,3.1,0,0,1-.052-.6,3.035,3.035,0,0,1,.052-.585h2.206V35.282c.1-.018.193-.03.286-.04s.193-.012.3-.012.195,0,.292.012.2.021.306.04V37.7h2.194a3.794,3.794,0,0,1,.053.585,2.833,2.833,0,0,1-.015.3,2.729,2.729,0,0,1-.038.3h-2.194v2.4c-.1.018-.208.032-.306.041s-.195.012-.292.012a2.9,2.9,0,0,1-.585-.053Z" transform="translate(-140.986 -35.23)" fill="#c2edff"/>
      </g>
    </g>
    <g id="Group_177083" data-name="Group 177083" transform="translate(220.949 71.918)">
      <g id="Group_177082" data-name="Group 177082">
        <path id="Path_40769" data-name="Path 40769" d="M194.906,54.936H192.7a2.989,2.989,0,0,1-.053-.6,2.916,2.916,0,0,1,.053-.585h2.206V51.334c.1-.018.193-.03.284-.04s.193-.014.3-.014.195,0,.292.014.2.021.306.04v2.419h2.192c.018.1.03.195.04.292s.014.195.014.293,0,.2-.014.3-.021.2-.04.3h-2.192v2.4c-.106.018-.208.03-.306.04s-.195.014-.292.014a2.9,2.9,0,0,1-.585-.053Z" transform="translate(-192.647 -51.281)" fill="#c2edff"/>
      </g>
    </g>
    <g id="Group_177084" data-name="Group 177084" transform="translate(138.242 11.611)">
      <circle id="Ellipse_712" data-name="Ellipse 712" cx="35.721" cy="35.721" r="35.721" transform="matrix(0.929, -0.369, 0.369, 0.929, 0, 26.353)" fill="#c2edff"/>
    </g>
    <g id="Group_177089" data-name="Group 177089" transform="translate(206.563 71.91)">
      <g id="Group_177086" data-name="Group 177086">
        <g id="Group_177085" data-name="Group 177085">
          <path id="Path_40770" data-name="Path 40770" d="M194.945,53.295a6.89,6.89,0,1,0,0,9.743A6.855,6.855,0,0,0,194.945,53.295Z" transform="translate(-183.183 -51.276)" fill="#ff6800"/>
        </g>
      </g>
      <g id="Group_177088" data-name="Group 177088" transform="translate(3.981 0.804)">
        <g id="Group_177087" data-name="Group 177087">
          <path id="Path_40771" data-name="Path 40771" d="M190.677,57.731a4.643,4.643,0,0,0-1.368-.69l-.385-.129c-.076-.026-.144-.055-.213-.082a2.049,2.049,0,0,1-.667-.386.87.87,0,0,1-.248-.646.942.942,0,0,1,.245-.672.841.841,0,0,1,.642-.263l.029,0a.988.988,0,0,1,.669.249,1.01,1.01,0,0,1,.312.683H191.4a2.832,2.832,0,0,0-.386-1.315,2.423,2.423,0,0,0-.939-.906,2.589,2.589,0,0,0-.613-.239V51.805h-1.421v1.541h0a2.614,2.614,0,0,0-.6.245,2.554,2.554,0,0,0-.959.923,2.5,2.5,0,0,0,.81,3.379,4.165,4.165,0,0,0,.743.35c.046.011.164.05.359.114.111.036.214.073.312.109a2.979,2.979,0,0,1,.841.452,1.173,1.173,0,0,1,.407.935,1.1,1.1,0,0,1-.334.825,1.162,1.162,0,0,1-.851.325c-.021,0-.041,0-.062,0a1.131,1.131,0,0,1-1.171-1.134H185.8a2.727,2.727,0,0,0,.205,1,2.506,2.506,0,0,0,.575.871,2.819,2.819,0,0,0,1.462.812v1.5h1.421v-1.52a2.847,2.847,0,0,0,2.156-2.785A2.475,2.475,0,0,0,190.677,57.731Z" transform="translate(-185.802 -51.805)" fill="#fff"/>
        </g>
      </g>
    </g>
    <g id="Group_177094" data-name="Group 177094" transform="translate(142.413 77.117)">
      <g id="Group_177091" data-name="Group 177091">
        <g id="Group_177090" data-name="Group 177090">
          <path id="Path_40772" data-name="Path 40772" d="M160.224,58a11.272,11.272,0,1,0,0,15.939A11.222,11.222,0,0,0,160.224,58Z" transform="translate(-140.986 -54.701)" fill="#ff6800"/>
        </g>
      </g>
      <g id="Group_177093" data-name="Group 177093" transform="translate(6.51 1.315)">
        <g id="Group_177092" data-name="Group 177092">
          <path id="Path_40773" data-name="Path 40773" d="M153.245,65.26a7.587,7.587,0,0,0-2.238-1.13l-.628-.211c-.126-.043-.237-.09-.35-.135a3.368,3.368,0,0,1-1.09-.629,1.427,1.427,0,0,1-.407-1.06,1.546,1.546,0,0,1,.4-1.1,1.378,1.378,0,0,1,1.049-.429c.015,0,.03,0,.047,0a1.605,1.605,0,0,1,1.093.409,1.648,1.648,0,0,1,.511,1.114h2.8a4.592,4.592,0,0,0-.631-2.15,3.97,3.97,0,0,0-1.537-1.484,4.234,4.234,0,0,0-1-.391V55.566h-2.324v2.522h0a4.2,4.2,0,0,0-.979.4A4.143,4.143,0,0,0,146.391,60a3.952,3.952,0,0,0-.576,2.078,4.123,4.123,0,0,0,1.9,3.451,7.038,7.038,0,0,0,1.216.569c.075.02.269.082.585.187.185.061.353.12.512.179a4.828,4.828,0,0,1,1.374.74,1.915,1.915,0,0,1,.667,1.529,1.8,1.8,0,0,1-.546,1.35,1.913,1.913,0,0,1-1.394.532c-.036,0-.067,0-.1-.006a1.987,1.987,0,0,1-1.323-.493,1.965,1.965,0,0,1-.593-1.361h-2.846a4.484,4.484,0,0,0,.337,1.628,4.086,4.086,0,0,0,.939,1.424,4.6,4.6,0,0,0,2.394,1.327v2.451h2.324V73.1a4.717,4.717,0,0,0,2.894-2.177,4.621,4.621,0,0,0,.632-2.379A4.045,4.045,0,0,0,153.245,65.26Z" transform="translate(-145.268 -55.566)" fill="#fff"/>
        </g>
      </g>
    </g>
    <g id="Group_177099" data-name="Group 177099" transform="translate(156.091 61.237)">
      <g id="Group_177096" data-name="Group 177096">
        <g id="Group_177095" data-name="Group 177095">
          <path id="Path_40774" data-name="Path 40774" d="M156.5,45.372a3.817,3.817,0,1,0,0,5.4A3.793,3.793,0,0,0,156.5,45.372Z" transform="translate(-149.983 -44.255)" fill="#ff6800"/>
        </g>
      </g>
      <g id="Group_177098" data-name="Group 177098" transform="translate(2.204 0.444)">
        <g id="Group_177097" data-name="Group 177097">
          <path id="Path_40775" data-name="Path 40775" d="M154.133,47.831a2.571,2.571,0,0,0-.759-.383l-.213-.071c-.043-.015-.079-.03-.117-.046a1.128,1.128,0,0,1-.369-.214.475.475,0,0,1-.138-.357.524.524,0,0,1,.135-.372.466.466,0,0,1,.356-.144l.017,0a.542.542,0,0,1,.369.137.564.564,0,0,1,.173.379h.947a1.549,1.549,0,0,0-.214-.728,1.33,1.33,0,0,0-.52-.5,1.475,1.475,0,0,0-.337-.134v-.848h-.787V45.4h0a1.49,1.49,0,0,0-.331.135,1.408,1.408,0,0,0-.531.512,1.331,1.331,0,0,0-.195.7,1.394,1.394,0,0,0,.642,1.168,2.421,2.421,0,0,0,.412.193c.026.006.093.027.2.062l.173.061a1.66,1.66,0,0,1,.465.251.649.649,0,0,1,.225.518.609.609,0,0,1-.184.456.649.649,0,0,1-.471.181l-.035,0a.628.628,0,0,1-.649-.629h-.962a1.494,1.494,0,0,0,.114.552,1.377,1.377,0,0,0,.318.483,1.562,1.562,0,0,0,.81.448v.83h.787v-.842a1.633,1.633,0,0,0,.4-.16,1.578,1.578,0,0,0,.8-1.382A1.368,1.368,0,0,0,154.133,47.831Z" transform="translate(-151.433 -44.547)" fill="#fff"/>
        </g>
      </g>
    </g>
    <g id="Group_177104" data-name="Group 177104" transform="translate(138.598 76.354)">
      <g id="Group_177101" data-name="Group 177101">
        <g id="Group_177100" data-name="Group 177100">
          <path id="Path_40776" data-name="Path 40776" d="M144.989,55.316a3.817,3.817,0,1,0,0,5.4A3.8,3.8,0,0,0,144.989,55.316Z" transform="translate(-138.476 -54.199)" fill="#ffa466"/>
        </g>
      </g>
      <g id="Group_177103" data-name="Group 177103" transform="translate(2.204 0.445)">
        <g id="Group_177102" data-name="Group 177102">
          <path id="Path_40777" data-name="Path 40777" d="M142.626,57.774a2.56,2.56,0,0,0-.757-.383l-.213-.071a1.2,1.2,0,0,1-.119-.046,1.175,1.175,0,0,1-.369-.213.486.486,0,0,1-.137-.359.524.524,0,0,1,.135-.372.47.47,0,0,1,.356-.144l.015,0a.543.543,0,0,1,.369.138.56.56,0,0,1,.173.377h.949a1.567,1.567,0,0,0-.214-.728,1.334,1.334,0,0,0-.521-.5,1.38,1.38,0,0,0-.337-.132v-.848h-.788v.854h0a1.369,1.369,0,0,0-.333.135,1.4,1.4,0,0,0-.531.511,1.371,1.371,0,0,0-.021,1.371,1.351,1.351,0,0,0,.47.5,2.367,2.367,0,0,0,.412.193c.024.006.091.027.2.062.062.021.12.041.173.061a1.655,1.655,0,0,1,.465.251.649.649,0,0,1,.225.518.615.615,0,0,1-.184.458.648.648,0,0,1-.471.179l-.035,0a.682.682,0,0,1-.448-.167.668.668,0,0,1-.2-.461h-.962a1.533,1.533,0,0,0,.114.552,1.385,1.385,0,0,0,.318.482,1.557,1.557,0,0,0,.81.448v.83h.788v-.842a1.608,1.608,0,0,0,.4-.16,1.57,1.57,0,0,0,.8-1.382A1.366,1.366,0,0,0,142.626,57.774Z" transform="translate(-139.926 -54.492)" fill="#fff"/>
        </g>
      </g>
    </g>
    <g id="Group_177109" data-name="Group 177109" transform="translate(224.724 101.097)">
      <g id="Group_177106" data-name="Group 177106">
        <g id="Group_177105" data-name="Group 177105">
          <path id="Path_40778" data-name="Path 40778" d="M201.643,71.591a3.817,3.817,0,1,0,0,5.4A3.807,3.807,0,0,0,201.643,71.591Z" transform="translate(-195.13 -70.475)" fill="#ffa466"/>
        </g>
      </g>
      <g id="Group_177108" data-name="Group 177108" transform="translate(2.203 0.445)">
        <g id="Group_177107" data-name="Group 177107">
          <path id="Path_40779" data-name="Path 40779" d="M199.279,74.049a2.542,2.542,0,0,0-.757-.382l-.213-.073c-.043-.014-.079-.029-.117-.044a1.186,1.186,0,0,1-.371-.213.488.488,0,0,1-.137-.359.524.524,0,0,1,.135-.372.465.465,0,0,1,.356-.146l.017,0a.543.543,0,0,1,.369.138.561.561,0,0,1,.173.379h.947a1.539,1.539,0,0,0-.214-.728,1.33,1.33,0,0,0-.52-.5,1.348,1.348,0,0,0-.337-.134v-.847h-.789v.853h0a1.419,1.419,0,0,0-.331.135,1.4,1.4,0,0,0-.531.511,1.341,1.341,0,0,0-.2.7,1.39,1.39,0,0,0,.643,1.169,2.433,2.433,0,0,0,.412.192l.2.064c.061.02.119.041.173.061a1.627,1.627,0,0,1,.464.251.644.644,0,0,1,.227.517.613.613,0,0,1-.184.458.646.646,0,0,1-.471.181l-.035,0a.625.625,0,0,1-.649-.626h-.964a1.557,1.557,0,0,0,.114.55,1.362,1.362,0,0,0,.319.482,1.555,1.555,0,0,0,.809.45v.83h.789V76.7a1.615,1.615,0,0,0,.979-.737,1.563,1.563,0,0,0,.214-.806A1.369,1.369,0,0,0,199.279,74.049Z" transform="translate(-196.579 -70.768)" fill="#fff"/>
        </g>
      </g>
    </g>
    <g id="Group_177114" data-name="Group 177114" transform="translate(216.363 80.583)">
      <g id="Group_177111" data-name="Group 177111">
        <g id="Group_177110" data-name="Group 177110">
          <path id="Path_40780" data-name="Path 40780" d="M198.348,58.477a5.107,5.107,0,1,0,0,7.223A5.086,5.086,0,0,0,198.348,58.477Z" transform="translate(-189.63 -56.981)" fill="#ffa466"/>
        </g>
      </g>
      <g id="Group_177113" data-name="Group 177113" transform="translate(2.951 0.596)">
        <g id="Group_177112" data-name="Group 177112">
          <path id="Path_40781" data-name="Path 40781" d="M195.186,61.766a3.471,3.471,0,0,0-1.014-.512l-.286-.1c-.056-.018-.108-.041-.158-.061a1.5,1.5,0,0,1-.494-.286.642.642,0,0,1-.184-.479.7.7,0,0,1,.181-.5.626.626,0,0,1,.476-.195l.021,0a.722.722,0,0,1,.5.184.75.75,0,0,1,.231.506h1.269a2.1,2.1,0,0,0-.287-.974,1.782,1.782,0,0,0-.7-.672,1.848,1.848,0,0,0-.453-.178V57.373h-1.053v1.143h0a1.945,1.945,0,0,0-1.154.865,1.791,1.791,0,0,0-.262.943,1.863,1.863,0,0,0,.861,1.563,3.078,3.078,0,0,0,.552.258c.033.009.122.038.265.085.084.027.16.055.233.081a2.181,2.181,0,0,1,.622.336.867.867,0,0,1,.3.692.816.816,0,0,1-.249.613.867.867,0,0,1-.631.242c-.015,0-.03,0-.046,0a.9.9,0,0,1-.6-.223.889.889,0,0,1-.269-.617h-1.289a2.038,2.038,0,0,0,.152.739,1.861,1.861,0,0,0,.426.645,2.082,2.082,0,0,0,1.085.6v1.111h1.053V65.318a2.113,2.113,0,0,0,.529-.214,2.1,2.1,0,0,0,1.069-1.85A1.834,1.834,0,0,0,195.186,61.766Z" transform="translate(-191.571 -57.373)" fill="#fff"/>
        </g>
      </g>
    </g>
    <g id="Group_177138" data-name="Group 177138" transform="translate(152.275 11.725)">
      <g id="Group_177118" data-name="Group 177118" transform="translate(0 16.143)">
        <g id="Group_177117" data-name="Group 177117">
          <g id="Group_177115" data-name="Group 177115" transform="translate(0 0.517)">
            <path id="Path_40782" data-name="Path 40782" d="M153.062,47.736c7.978,7.975,25.09,5.071,25.09,5.071L147.99,22.645S145.08,39.76,153.062,47.736Z" transform="translate(-147.473 -22.645)" fill="#66d1ff"/>
          </g>
          <g id="Group_177116" data-name="Group 177116" transform="translate(0.517)">
            <path id="Path_40783" data-name="Path 40783" d="M147.813,22.822l30.161,30.163s2.907-17.113-5.071-25.093S147.813,22.822,147.813,22.822Z" transform="translate(-147.813 -22.305)" fill="#00b3ff"/>
          </g>
        </g>
      </g>
      <g id="Group_177122" data-name="Group 177122" transform="translate(33.496 16.143)">
        <g id="Group_177121" data-name="Group 177121">
          <g id="Group_177119" data-name="Group 177119">
            <path id="Path_40784" data-name="Path 40784" d="M175.093,27.892c-7.978,7.98-5.068,25.093-5.068,25.093l30.16-30.163S183.074,19.914,175.093,27.892Z" transform="translate(-169.507 -22.305)" fill="#66d1ff"/>
          </g>
          <g id="Group_177120" data-name="Group 177120" transform="translate(0.518 0.517)">
            <path id="Path_40785" data-name="Path 40785" d="M200.007,22.645l-30.16,30.163s17.11,2.908,25.09-5.071S200.007,22.645,200.007,22.645Z" transform="translate(-169.847 -22.645)" fill="#00b3ff"/>
          </g>
        </g>
      </g>
      <g id="Group_177126" data-name="Group 177126" transform="translate(23.588)">
        <g id="Group_177125" data-name="Group 177125">
          <g id="Group_177123" data-name="Group 177123">
            <path id="Path_40786" data-name="Path 40786" d="M162.989,24.742c0,6.9,8.667,13.054,8.667,13.054V11.686S162.989,17.834,162.989,24.742Z" transform="translate(-162.989 -11.686)" fill="#66d1ff"/>
          </g>
          <g id="Group_177124" data-name="Group 177124" transform="translate(8.667)">
            <path id="Path_40787" data-name="Path 40787" d="M168.69,11.686V37.8s8.665-6.149,8.665-13.054S168.69,11.686,168.69,11.686Z" transform="translate(-168.69 -11.686)" fill="#00b3ff"/>
          </g>
        </g>
      </g>
      <g id="Group_177136" data-name="Group 177136" transform="translate(5.091 52.277)">
        <g id="Group_177129" data-name="Group 177129">
          <g id="Group_177128" data-name="Group 177128">
            <g id="Group_177127" data-name="Group 177127">
              <path id="Path_40788" data-name="Path 40788" d="M164.639,86.577a18.871,18.871,0,0,1,13.352-32.218V46.074a27.159,27.159,0,1,0,0,54.319l0-8.287A18.775,18.775,0,0,1,164.639,86.577Z" transform="translate(-150.822 -46.074)" fill="#ffa466"/>
            </g>
          </g>
        </g>
        <g id="Group_177132" data-name="Group 177132" transform="translate(27.167)">
          <g id="Group_177131" data-name="Group 177131">
            <g id="Group_177130" data-name="Group 177130">
              <path id="Path_40789" data-name="Path 40789" d="M168.7,46.074v8.285a18.873,18.873,0,0,1,0,37.747l0,8.287a27.159,27.159,0,0,0,0-54.319Z" transform="translate(-168.692 -46.074)" fill="#bf4e00"/>
            </g>
          </g>
        </g>
        <g id="Group_177135" data-name="Group 177135" transform="translate(8.287 8.285)">
          <g id="Group_177134" data-name="Group 177134">
            <g id="Group_177133" data-name="Group 177133">
              <path id="Path_40790" data-name="Path 40790" d="M188.494,57.048a18.876,18.876,0,1,0,0,26.693A18.811,18.811,0,0,0,188.494,57.048Z" transform="translate(-156.273 -51.524)" fill="#ff6800"/>
            </g>
          </g>
        </g>
      </g>
      <g id="Group_177137" data-name="Group 177137" transform="translate(24.28 18.247)">
        <path id="Path_40791" data-name="Path 40791" d="M176.805,84.437a12.565,12.565,0,0,0-3.752-1.888L172,82.193c-.213-.071-.4-.144-.582-.225a5.623,5.623,0,0,1-1.826-1.055,2.366,2.366,0,0,1-.683-1.77,2.612,2.612,0,0,1,.67-1.849,2.307,2.307,0,0,1,1.759-.711c.023,0,.047,0,.082,0a2.682,2.682,0,0,1,1.826.684,2.765,2.765,0,0,1,.853,1.87H178.8a7.777,7.777,0,0,0-1.057-3.6,6.7,6.7,0,0,0-2.575-2.483,7.4,7.4,0,0,0-1.674-.657l0-4.193V25.632a1.945,1.945,0,0,0-3.89,0v46.8a6.648,6.648,0,0,0-1.636.67,6.943,6.943,0,0,0-2.63,2.531,6.556,6.556,0,0,0-.965,3.475,6.857,6.857,0,0,0,3.18,5.783,12.055,12.055,0,0,0,2.036.953c.128.036.452.14.977.312.315.1.594.2.867.3a8.007,8.007,0,0,1,2.3,1.239,3.211,3.211,0,0,1,1.116,2.56,3.047,3.047,0,0,1-.917,2.259,3.183,3.183,0,0,1-2.331.894,1.419,1.419,0,0,1-.167-.009,3.336,3.336,0,0,1-2.218-.825,3.287,3.287,0,0,1-1-2.286h-4.766a7.617,7.617,0,0,0,.57,2.729,6.854,6.854,0,0,0,1.569,2.387,7.719,7.719,0,0,0,4.013,2.224v6.009s1.37.112,1.829.114c.517,0,2.061-.114,2.061-.114V97.57a8.186,8.186,0,0,0,1.957-.794,7.787,7.787,0,0,0,3.95-6.836A6.791,6.791,0,0,0,176.805,84.437Z" transform="translate(-163.444 -23.689)" fill="#3c3c3b"/>
      </g>
    </g>
    <g id="Group_177139" data-name="Group 177139" transform="translate(211.246 111.682)">
      <path id="Path_40792" data-name="Path 40792" d="M189.184,87.754l2.261-2.323,4.051,3.925a1.954,1.954,0,0,0,2.762-.041h0a1.955,1.955,0,0,0-.043-2.767l-4.047-3.922,2.489-2.559-10.394-2.63Z" transform="translate(-186.264 -77.438)" fill="#e2e3e4"/>
    </g>
    <g id="Group_177140" data-name="Group 177140" transform="translate(146.002 111.682)">
      <path id="Path_40793" data-name="Path 40793" d="M152.973,87.754l-2.261-2.323-4.051,3.925a1.954,1.954,0,0,1-2.762-.041h0a1.957,1.957,0,0,1,.041-2.767l4.048-3.922L145.5,80.068l10.394-2.63Z" transform="translate(-143.346 -77.438)" fill="#e2e3e4"/>
    </g>
    <g id="Group_177141" data-name="Group 177141" transform="translate(179.262 124.153)">
      <path id="Path_40794" data-name="Path 40794" d="M165.225,95l3.24-.044.09,5.642a1.953,1.953,0,0,0,1.981,1.923h0a1.953,1.953,0,0,0,1.928-1.985l-.088-5.635,3.568-.05-5.488-9.208Z" transform="translate(-165.225 -85.641)" fill="#e2e3e4"/>
    </g>
    <g id="Group_177143" data-name="Group 177143" transform="translate(147.258 52.043)">
      <g id="Group_177142" data-name="Group 177142">
        <path id="Path_40795" data-name="Path 40795" d="M148.568,45.317h-4.293a5.87,5.87,0,0,1-.1-1.163,5.739,5.739,0,0,1,.1-1.137h4.293V38.31c.189-.035.376-.061.555-.078s.376-.026.584-.026c.19,0,.379.008.569.026s.388.043.594.078v4.707h4.267c.035.189.059.379.076.569s.029.38.029.569-.011.385-.029.582-.041.392-.076.581H150.87V50c-.207.035-.4.059-.594.078s-.379.024-.569.024a5.736,5.736,0,0,1-1.139-.1Z" transform="translate(-144.173 -38.207)" fill="#fff"/>
      </g>
    </g>
  </g>
</svg>
