<svg xmlns="http://www.w3.org/2000/svg" width="57.494" height="53.867" viewBox="0 0 57.494 53.867">
  <g id="_8" data-name="8" transform="translate(-28.6 -23.694)">
    <g id="_5" data-name="5" transform="translate(28.6 33.912)">
      <g id="Group_179087" data-name="Group 179087">
        <g id="Group_179086" data-name="Group 179086">
          <g id="Group_179083" data-name="Group 179083" transform="translate(14.866 32.974)">
            <path id="Path_48480" data-name="Path 48480" d="M65.337,77.964l-4.924-.648-4.924.648-.34,1.929H65.676Z" transform="translate(-48.63 -77.316)" fill="#90a4ae"/>
            <path id="Path_48481" data-name="Path 48481" d="M65.432,80.515H54.9l-1.012,5.743H66.444Z" transform="translate(-48.386 -77.939)" fill="#b0bec5"/>
            <path id="Path_48482" data-name="Path 48482" d="M70.522,89.562l-.6-.913c-.7-.465-4.74-.724-4.74-.724h-.021l-.049-.279H52.562l-.049.279h-.021s-4.035.259-4.74.724l-.6.913c-.246.163,0,.438.4.438H70.126C70.518,90,70.769,89.725,70.522,89.562Z" transform="translate(-47.057 -79.325)" fill="#cfd8dc"/>
          </g>
          <g id="Group_179085" data-name="Group 179085">
            <g id="Group_179084" data-name="Group 179084">
              <path id="Rectangle_163153" data-name="Rectangle 163153" d="M.258,0H53.04A.257.257,0,0,1,53.3.257V33.541a.257.257,0,0,1-.257.257H.257A.257.257,0,0,1,0,33.541V.258A.258.258,0,0,1,.258,0Z" fill="#cfd8dc"/>
              <rect id="Rectangle_163154" data-name="Rectangle 163154" width="47.577" height="29.118" transform="translate(2.86 2.34)" fill="#68787a"/>
            </g>
          </g>
        </g>
        <path id="Path_48483" data-name="Path 48483" d="M66.45,39.994H33.017V67.817H79.054V39.994Z" transform="translate(-29.459 -37.083)" fill="#2a445d"/>
      </g>
    </g>
    <path id="Path_48484" data-name="Path 48484" d="M33.017,40.517v27.4H79.054v-.2Z" transform="translate(-0.859 -3.272)" fill="#bdbdbd" opacity="0.41" style="mix-blend-mode: overlay;isolation: isolate"/>
    <path id="Path_48485" data-name="Path 48485" d="M79.262,32.465,79.086,30.5l-1.478-.117a5.02,5.02,0,0,0-.434-.928l.85-1.2-1.4-1.389-1.194.851a5.058,5.058,0,0,0-.946-.438l-.12-1.452L72.4,25.657l-.363,1.408a5.067,5.067,0,0,0-1.017.275L70,26.313l-.046.032-1.566,1.1.625,1.309a5.114,5.114,0,0,0-.6.868l-1.441-.131-.505,1.9L67.8,32a5.042,5.042,0,0,0,.1,1.041l-1.2.83.837,1.783,1.422-.393a5.005,5.005,0,0,0,.734.722l-.387,1.422,1.787.829.844-1.228a5.142,5.142,0,0,0,1.013.082l.623,1.348,1.9-.514-.072-.76-.072-.73c.141-.081.281-.169.417-.264a5.17,5.17,0,0,0,.408-.319l1.348.636,1.126-1.617-1.066-1.048a5.025,5.025,0,0,0,.259-.979Zm-4.611,2.15a3.142,3.142,0,1,1-3.615-5.139,3.263,3.263,0,0,1,.384-.226,3.139,3.139,0,0,1,3.231,5.365Z" transform="translate(-7.366 -0.382)" fill="#0ec0c0"/>
    <path id="Path_48486" data-name="Path 48486" d="M96.889,30.5l-.176-1.963-1.478-.116A4.978,4.978,0,0,0,94.8,27.5l.851-1.2-1.4-1.389-1.194.852a5.011,5.011,0,0,0-.946-.439l-.121-1.453-1.963-.168L89.667,25.1a5.038,5.038,0,0,0-1.017.275L87.632,24.35l-.046.033-1.566,1.1.625,1.309a5.069,5.069,0,0,0-.6.868L84.6,27.53l-.505,1.9,1.328.606a5.048,5.048,0,0,0,.1,1.041l-1.2.83.837,1.783,1.422-.393a5.047,5.047,0,0,0,.734.722l-.388,1.421,1.787.829.844-1.227a5.141,5.141,0,0,0,1.013.081l.623,1.349,1.9-.514-.072-.76-.071-.73c.142-.081.281-.169.416-.264s.279-.208.409-.32l1.348.636,1.126-1.617-1.066-1.048a5.039,5.039,0,0,0,.259-.979Zm-4.611,2.15a3.142,3.142,0,0,1-3.615-5.139,3.206,3.206,0,0,1,.384-.227,3.14,3.14,0,0,1,3.231,5.366Z" transform="translate(-10.795 0)" fill="#184f78"/>
    <g id="Group_179096" data-name="Group 179096" transform="translate(34.892 41.825)">
      <g id="Group_179092" data-name="Group 179092">
        <g id="Group_179088" data-name="Group 179088" transform="translate(0 9.874)">
          <rect id="Rectangle_163155" data-name="Rectangle 163155" width="5.669" height="9.797" fill="#a6dae8"/>
        </g>
        <g id="Group_179089" data-name="Group 179089" transform="translate(6.791 4.746)">
          <rect id="Rectangle_163156" data-name="Rectangle 163156" width="5.669" height="14.925" fill="#f94e63"/>
        </g>
        <g id="Group_179090" data-name="Group 179090" transform="translate(13.582)">
          <rect id="Rectangle_163157" data-name="Rectangle 163157" width="5.669" height="19.671" fill="#17c5cc"/>
        </g>
        <g id="Group_179091" data-name="Group 179091" transform="translate(20.373 8.428)">
          <rect id="Rectangle_163158" data-name="Rectangle 163158" width="5.669" height="11.243" fill="#ffd740"/>
        </g>
      </g>
      <g id="Group_179095" data-name="Group 179095" transform="translate(27.557 3.979)">
        <g id="Group_179093" data-name="Group 179093">
          <rect id="Rectangle_163159" data-name="Rectangle 163159" width="5.669" height="15.692" fill="#fff"/>
        </g>
        <g id="Group_179094" data-name="Group 179094" transform="translate(6.791 4.219)">
          <rect id="Rectangle_163160" data-name="Rectangle 163160" width="5.669" height="11.474" fill="#ff6f00"/>
        </g>
      </g>
    </g>
    <path id="Path_48487" data-name="Path 48487" d="M91.6,42.652l-.241-2.673-2.012-.158a6.792,6.792,0,0,0-.592-1.265l1.157-1.64-1.9-1.892-1.625,1.159a6.933,6.933,0,0,0-1.287-.6l-.164-1.978-2.674-.228L81.765,35.3a6.888,6.888,0,0,0-1.385.375l-1.387-1.4-.063.045-2.132,1.5.851,1.783a6.916,6.916,0,0,0-.818,1.181L74.869,38.6,74.182,41.2l1.809.824a6.794,6.794,0,0,0,.135,1.418l-1.632,1.131L75.634,47l1.936-.536a6.844,6.844,0,0,0,1,.983l-.528,1.936,2.434,1.128,1.149-1.671a6.937,6.937,0,0,0,1.38.111l.848,1.837,2.589-.7-.1-1.034-.1-.995c.193-.11.383-.23.568-.358s.379-.283.557-.436l1.837.867,1.534-2.2L89.289,44.5a6.945,6.945,0,0,0,.354-1.332Zm-6.279,2.927a4.275,4.275,0,1,1,1.037-5.961A4.239,4.239,0,0,1,85.321,45.579Z" transform="translate(-8.866 -1.884)" fill="#f4cd25"/>
  </g>
</svg>
