<svg id="zoom" xmlns="http://www.w3.org/2000/svg" width="49.504" height="49.494" viewBox="0 0 49.504 49.494">
  <g id="Group_176411" data-name="Group 176411" transform="translate(0 0)">
    <g id="Group_176410" data-name="Group 176410">
      <path id="Path_12130" data-name="Path 12130" d="M5.579,5.609A18.949,18.949,0,0,1,33.065,31.685l1.447,1.447a2.994,2.994,0,0,1,4.234,0h0l9.88,9.88a2.994,2.994,0,0,1,0,4.234h0l-1.411,1.411a2.994,2.994,0,0,1-4.234,0l-9.88-9.88a2.994,2.994,0,0,1,0-4.234h0L31.655,33.1A18.949,18.949,0,0,1,5.579,5.609ZM34.512,37.365l9.88,9.88a1,1,0,0,0,1.411,0l1.411-1.412a1,1,0,0,0,0-1.41l-9.88-9.88a1.021,1.021,0,0,0-1.411,0l-1.411,1.412A1,1,0,0,0,34.512,37.365ZM6.989,31.015a16.966,16.966,0,1,0,0-23.994A16.966,16.966,0,0,0,6.989,31.015Z" transform="translate(0 -0.041)" fill="#1a346f"/>
    </g>
  </g>
  <g id="Group_176413" data-name="Group 176413" transform="translate(4.022 8.391)">
    <g id="Group_176412" data-name="Group 176412" transform="translate(0)">
      <path id="Path_12131" data-name="Path 12131" d="M322.545,67.3h0l1.411,1.411a12.99,12.99,0,0,0,0,18.349l-1.411,1.411A14.985,14.985,0,0,1,322.545,67.3Z" transform="translate(-318.167 -67.303)" fill="#1a346f"/>
    </g>
  </g>
</svg>
