<svg xmlns="http://www.w3.org/2000/svg" xmlns:xlink="http://www.w3.org/1999/xlink" width="348.453" height="348.453" viewBox="0 0 348.453 348.453">
  <defs>
    <radialGradient id="radial-gradient" cx="0.5" cy="0.5" r="0.601" gradientTransform="matrix(0.707, -0.707, 0.707, 0.707, -0.207, 0.5)" gradientUnits="objectBoundingBox">
      <stop offset="0" stop-color="#fff"/>
      <stop offset="1" stop-color="#f4f4f4"/>
    </radialGradient>
    <radialGradient id="radial-gradient-2" cx="1.039" cy="0.739" r="0.678" gradientTransform="translate(0.145) scale(0.71 1)" gradientUnits="objectBoundingBox">
      <stop offset="0" stop-color="#d54600"/>
      <stop offset="0.855" stop-color="#6e0083"/>
    </radialGradient>
    <radialGradient id="radial-gradient-3" cx="0.524" cy="0.716" r="1.513" gradientTransform="translate(0.254) scale(0.493 1)" xlink:href="#radial-gradient-2"/>
  </defs>
  <g id="Group_177518" data-name="Group 177518" transform="translate(-984.047 -1762)">
    <rect id="Rectangle_162407" data-name="Rectangle 162407" width="246.394" height="246.394" rx="70.496" transform="translate(1158.273 1762) rotate(45)" fill="url(#radial-gradient)"/>
    <path id="Path_15919" data-name="Path 15919" d="M514.953,680.681l-80.538-80.538a63.107,63.107,0,0,1,0-89.248l80.538-80.539a63.109,63.109,0,0,1,89.248,0l80.539,80.539a63.107,63.107,0,0,1,0,89.248L604.2,680.681A63.107,63.107,0,0,1,514.953,680.681Z" transform="translate(598.696 1380.708)" fill="none" stroke="#707070" stroke-miterlimit="10" stroke-width="1"/>
    <path id="Path_15923" data-name="Path 15923" d="M518.693,662.773a17.686,17.686,0,0,0-14.877,24.147,6.856,6.856,0,0,1,.5,2.984,5.08,5.08,0,0,1-2.426,4.274l.006,0c-9.623,3.583-26.009-2.718-50.033-51.756l-5.936-5.936s29.6,74.477,58.736,64.371a7.576,7.576,0,0,0,1.373-.539l.019-.008c.187-.083.374-.165.561-.254a26.067,26.067,0,0,1,10.835-2.2,17.6,17.6,0,0,0,6.211-.11,17.686,17.686,0,0,0-4.965-34.973Z" transform="translate(595.553 1357.167)" fill="url(#radial-gradient-2)"/>
    <path id="Path_15925" data-name="Path 15925" d="M529,679.369l.856,1.733a1.5,1.5,0,0,0,1.133.824l1.913.278a1.5,1.5,0,0,1,.834,2.567l-1.385,1.35a1.5,1.5,0,0,0-.432,1.332l.327,1.9a1.505,1.505,0,0,1-2.183,1.587l-1.712-.9a1.5,1.5,0,0,0-1.4,0l-1.711.9a1.505,1.505,0,0,1-2.183-1.587l.327-1.9a1.506,1.506,0,0,0-.433-1.332l-1.384-1.35a1.5,1.5,0,0,1,.833-2.567l1.914-.278a1.5,1.5,0,0,0,1.132-.824l.856-1.733A1.5,1.5,0,0,1,529,679.369Z" transform="translate(587.673 1352.761)" fill="#fff"/>
    <g id="Group_177502" data-name="Group 177502">
      <path id="Path_15922" data-name="Path 15922" d="M622.4,435.317c-2.816-3.109-12.345-2.858-12.345-2.858l1.475,1.475c37.194,2.139-53.174,33.417-75.582,40.952h0a4.958,4.958,0,0,1-5.883-3.741c0-.013-.009-.023-.013-.037a46.875,46.875,0,0,0-92.585,5.94l-.013,0s0,.063,0,.151c-.075.982-.123,1.971-.136,2.969a32.914,32.914,0,0,1-2.277,9.746l0,.006c-3.359,6.841-6.152,15.593-4.659,24.191l2.575-2.575s-.256-9.687,3.422-16.372c.219-.329,1.8-2.513,3.3.414.012.022.022.039.034.061a46.881,46.881,0,0,0,91.1-9.978h0v-.01c.024-.234.036-.471.056-.706.229-1.776,1.409-6.4,7.485-8.409l.029-.01C615.816,451.161,626.692,440.05,622.4,435.317Z" transform="translate(597.224 1378.551)" fill="url(#radial-gradient-3)"/>
      <g id="Group_177052" data-name="Group 177052" transform="translate(1067.485 1839.341)">
        <path id="Path_15904" data-name="Path 15904" d="M121.123,156.313v-2.669l5-.584c3.836-.334,4.253-1.5,4.253-5.754V129.459c0-3.918-.334-4.836-3.5-5l-5-.251v-2.5a104.706,104.706,0,0,0,17.6-4v29.6c0,4.253.333,5.42,4.336,5.838l4.837.5v2.669Z" transform="translate(-121.123 -117.702)" fill="#fff"/>
      </g>
    </g>
  </g>
</svg>
