<svg xmlns="http://www.w3.org/2000/svg" width="92.317" height="63.233" viewBox="0 0 92.317 63.233">
  <g id="Group_176643" data-name="Group 176643" transform="translate(-30.493 -146.067)">
    <g id="Group_176638" data-name="Group 176638" transform="translate(35.485 146.067)">
      <g id="Group_176637" data-name="Group 176637">
        <path id="Path_40743" data-name="Path 40743" d="M68.388,196.532l-33.875-.008.011-50.458,39.089.009-.01,45.163Z" transform="translate(-34.513 -146.067)" fill="#fff"/>
        <path id="Path_40744" data-name="Path 40744" d="M61.8,182.449v5.295l5.216-5.294Z" transform="translate(-27.923 -137.278)" fill="#ababab"/>
        <rect id="Rectangle_162593" data-name="Rectangle 162593" width="23.047" height="4.665" transform="translate(4.957 4.749)" fill="#3aa699"/>
        <rect id="Rectangle_162594" data-name="Rectangle 162594" width="29.667" height="1.336" transform="translate(4.955 12.113)" fill="#858585"/>
        <rect id="Rectangle_162595" data-name="Rectangle 162595" width="29.667" height="1.336" transform="translate(4.955 15.85)" fill="#858585"/>
        <rect id="Rectangle_162596" data-name="Rectangle 162596" width="29.667" height="1.336" transform="translate(4.951 32.67)" fill="#858585"/>
        <rect id="Rectangle_162597" data-name="Rectangle 162597" width="29.667" height="1.336" transform="translate(4.95 36.407)" fill="#858585"/>
        <rect id="Rectangle_162598" data-name="Rectangle 162598" width="15.823" height="1.336" transform="translate(4.949 40.143)" fill="#858585"/>
        <rect id="Rectangle_162599" data-name="Rectangle 162599" width="29.472" height="10.162" transform="translate(4.953 19.705)" fill="#88e6db"/>
      </g>
    </g>
    <g id="Group_176641" data-name="Group 176641" transform="translate(41.806 156.984)">
      <g id="Group_176639" data-name="Group 176639" transform="translate(0 3.731)">
        <path id="Path_40745" data-name="Path 40745" d="M47.592,184.105H63.068V167.5H47.592a4.6,4.6,0,0,0-4.6,4.6v7.411A4.6,4.6,0,0,0,47.592,184.105Z" transform="translate(-38.787 -155.538)" fill="#c93a3a"/>
        <path id="Path_40746" data-name="Path 40746" d="M39.6,174.765v.063a3.105,3.105,0,0,0,3.1,3.1h1.1v-6.271h-1.1A3.105,3.105,0,0,0,39.6,174.765Z" transform="translate(-39.605 -154.532)" fill="#781919"/>
        <path id="Path_40747" data-name="Path 40747" d="M39.6,174.218a3.105,3.105,0,0,0,3.1,3.1h1.1v-3.136Z" transform="translate(-39.605 -153.922)" fill="#5e1414"/>
        <path id="Path_40748" data-name="Path 40748" d="M79.111,170.583h-.448v8.948h.448a4.3,4.3,0,0,0,4.159-4.43v-.089A4.3,4.3,0,0,0,79.111,170.583Z" transform="translate(-30.17 -154.793)" fill="#781919"/>
        <path id="Path_40749" data-name="Path 40749" d="M59.162,176.151v9.882c11.2,0,21.491,9.908,21.491,9.908V159.519s-10.29,9.906-21.491,9.906Z" transform="translate(-34.881 -157.465)" fill="#ffb947"/>
        <rect id="Rectangle_162600" data-name="Rectangle 162600" width="2.97" height="4.745" rx="1.184" transform="translate(9.942 16.107)" fill="#731111"/>
        <path id="Path_40750" data-name="Path 40750" d="M49.951,200.891h.061a3.018,3.018,0,0,0,3-2.648l2.144-17.368H49.007L46.954,197.5A3.019,3.019,0,0,0,49.951,200.891Z" transform="translate(-37.835 -152.307)" fill="#c93a3a"/>
        <path id="Path_40751" data-name="Path 40751" d="M48.229,184.63h6.145l.464-3.755H48.693Z" transform="translate(-37.522 -152.307)" fill="#781919"/>
        <path id="Path_40752" data-name="Path 40752" d="M53.134,185.035h2.673c-.463-2.847.518-4.16.518-4.16H53.653Z" transform="translate(-36.337 -152.307)" fill="#4f1010"/>
        <path id="Path_40753" data-name="Path 40753" d="M59.788,171.315c12.961,0,20.025-10.413,20.025-10.413a27.224,27.224,0,0,1-20.025,9.224Z" transform="translate(-34.729 -157.131)" fill="#fff"/>
        <path id="Path_40754" data-name="Path 40754" d="M59.788,179.376v1.191a27.225,27.225,0,0,1,20.025,9.222S72.749,179.376,59.788,179.376Z" transform="translate(-34.729 -152.669)" fill="#c48e37"/>
        <path id="Path_40755" data-name="Path 40755" d="M44.662,169.543H61.945v-1.307H47.806a4.43,4.43,0,0,0-3.053,1.22Z" transform="translate(-38.383 -155.36)" fill="#fff"/>
        <path id="Path_40756" data-name="Path 40756" d="M44.956,179.381H62.239v1.309H48.1a4.423,4.423,0,0,1-3.053-1.222Z" transform="translate(-38.312 -152.667)" fill="#a12e2e"/>
        <rect id="Rectangle_162601" data-name="Rectangle 162601" width="3.409" height="40.687" rx="1.359" transform="translate(45.084)" fill="#b82a2a"/>
        <path id="Path_40757" data-name="Path 40757" d="M77.639,198.551H77.6a1.687,1.687,0,0,1-1.687-1.687V159.552a1.688,1.688,0,0,1,1.687-1.687h.035Z" transform="translate(-30.833 -157.865)" fill="#8a2020"/>
        <path id="Path_40758" data-name="Path 40758" d="M80.624,171.215c.464.237.74.651.617.925s-.6.3-1.063.066-.74-.652-.617-.925S80.161,170.978,80.624,171.215Z" transform="translate(-29.96 -154.679)" fill="#fff"/>
      </g>
      <g id="Group_176640" data-name="Group 176640" transform="translate(55.647 0)">
        <path id="Path_40759" data-name="Path 40759" d="M86.318,162.72a1.792,1.792,0,0,0-1.283,3.044,14.138,14.138,0,0,1,4.121,9.56,13.316,13.316,0,0,1-4.175,9.733,1.793,1.793,0,0,0,2.473,2.6,16.875,16.875,0,0,0,5.287-12.329A17.545,17.545,0,0,0,87.6,163.261,1.782,1.782,0,0,0,86.318,162.72Z" transform="translate(-84.425 -152.961)" fill="#7de7ff"/>
        <path id="Path_40760" data-name="Path 40760" d="M97.173,154.86a1.79,1.79,0,0,0-1.295,3.027,29.246,29.246,0,0,1,7.674,19.167c0,7.06-3.073,14.878-7.647,19.455a1.793,1.793,0,1,0,2.537,2.534c5.2-5.206,8.693-14.043,8.693-21.989a33,33,0,0,0-8.665-21.639A1.783,1.783,0,0,0,97.173,154.86Z" transform="translate(-81.779 -154.86)" fill="#7de7ff"/>
        <path id="Path_40761" data-name="Path 40761" d="M91.657,158.845a1.792,1.792,0,0,0-1.287,3.038c3.913,4.04,6.346,9.615,6.346,14.556a20.374,20.374,0,0,1-6.2,14.352A1.793,1.793,0,0,0,93,193.372a23.7,23.7,0,0,0,7.3-16.932c0-5.838-2.817-12.368-7.355-17.047A1.78,1.78,0,0,0,91.657,158.845Z" transform="translate(-83.111 -153.897)" fill="#7de7ff"/>
      </g>
    </g>
    <g id="Group_176642" data-name="Group 176642" transform="translate(30.493 167.742)">
      <rect id="Rectangle_162602" data-name="Rectangle 162602" width="2.443" height="18.987" transform="translate(4.347 15.842) rotate(-14.944)" fill="#34495e"/>
      <path id="Path_40762" data-name="Path 40762" d="M30.881,165.447l3.726,13.961,2.632-.7-3.726-13.961a1.478,1.478,0,0,0-1.711-1.18l-.026.007A1.477,1.477,0,0,0,30.881,165.447Z" transform="translate(-30.414 -163.525)" fill="#34495e"/>
      <path id="Path_40763" data-name="Path 40763" d="M37.938,191.183l2.36-.63.333,6.055Z" transform="translate(-28.695 -156.996)" fill="#ffb947"/>
      <path id="Path_40764" data-name="Path 40764" d="M31.24,167.667l.482-.129-.224-.84-.482.129-.523.905,2.675,10.022.856.341Z" transform="translate(-30.493 -162.759)" fill="#ffb947"/>
    </g>
  </g>
</svg>
