<svg xmlns="http://www.w3.org/2000/svg" xmlns:xlink="http://www.w3.org/1999/xlink" width="340.987" height="340.987" viewBox="0 0 340.987 340.987">
  <defs>
    <radialGradient id="radial-gradient" cx="0.5" cy="0.5" r="0.5" gradientUnits="objectBoundingBox">
      <stop offset="0" stop-color="#fff"/>
      <stop offset="1" stop-color="#f4f4f4"/>
    </radialGradient>
    <radialGradient id="radial-gradient-2" cx="1.039" cy="0.739" r="0.678" gradientTransform="translate(0.145) scale(0.71 1)" gradientUnits="objectBoundingBox">
      <stop offset="0.414" stop-color="#ff8500"/>
      <stop offset="1" stop-color="#cb5f00"/>
    </radialGradient>
    <radialGradient id="radial-gradient-3" cx="0.242" cy="0.265" r="0.677" gradientTransform="translate(0.254) scale(0.493 1)" xlink:href="#radial-gradient-2"/>
  </defs>
  <g id="Group_177521" data-name="Group 177521" transform="translate(-32.793 -1765.733)">
    <path id="Path_15898" data-name="Path 15898" d="M161.643,339.929,76.665,254.95a63.107,63.107,0,0,1,0-89.248l84.978-84.978a63.107,63.107,0,0,1,89.248,0L335.87,165.7a63.109,63.109,0,0,1,0,89.248l-84.979,84.979A63.109,63.109,0,0,1,161.643,339.929Z" transform="translate(-2.981 1725.9)" fill="url(#radial-gradient)"/>
    <rect id="Rectangle_162401" data-name="Rectangle 162401" width="240.115" height="240.115" rx="70.496" transform="translate(203.287 1766.44) rotate(45)" fill="none" stroke="#707070" stroke-miterlimit="10" stroke-width="1"/>
    <path id="Path_15903" data-name="Path 15903" d="M165.9,318.1a17.686,17.686,0,0,0-14.877,24.147,6.856,6.856,0,0,1,.5,2.984,5.082,5.082,0,0,1-2.426,4.274l.006,0c-9.623,3.583-26.009-2.718-50.033-51.756l-5.936-5.936s29.6,74.477,58.735,64.371a7.639,7.639,0,0,0,1.373-.539l.019-.009c.187-.082.374-.164.561-.253a26.066,26.066,0,0,1,10.835-2.2,17.6,17.6,0,0,0,6.211-.11A17.686,17.686,0,0,0,165.9,318.1Z" transform="translate(-6.644 1701.839)" fill="url(#radial-gradient-2)"/>
    <path id="Path_15905" data-name="Path 15905" d="M176.209,334.7l.856,1.733a1.506,1.506,0,0,0,1.133.824l1.913.277a1.505,1.505,0,0,1,.834,2.567l-1.385,1.349a1.506,1.506,0,0,0-.432,1.333l.327,1.9a1.5,1.5,0,0,1-2.183,1.586l-1.712-.9a1.508,1.508,0,0,0-1.4,0l-1.711.9a1.5,1.5,0,0,1-2.183-1.586l.327-1.9a1.509,1.509,0,0,0-.433-1.333l-1.384-1.349a1.505,1.505,0,0,1,.833-2.567l1.914-.277a1.5,1.5,0,0,0,1.132-.824l.856-1.733A1.5,1.5,0,0,1,176.209,334.7Z" transform="translate(-14.524 1697.433)" fill="#fff"/>
    <g id="Group_177508" data-name="Group 177508">
      <path id="Path_15902" data-name="Path 15902" d="M269.613,90.645c-2.816-3.109-12.345-2.859-12.345-2.859l1.475,1.476c37.194,2.139-53.174,33.417-75.582,40.952h0a4.959,4.959,0,0,1-5.883-3.741c0-.013-.009-.023-.013-.037a46.875,46.875,0,0,0-92.585,5.941l-.013,0s0,.062,0,.151c-.075.982-.123,1.971-.136,2.969a32.914,32.914,0,0,1-2.277,9.746l0,.006c-3.359,6.841-6.152,15.593-4.659,24.19l2.575-2.574s-.256-9.687,3.422-16.373c.219-.328,1.8-2.512,3.3.415.012.022.022.039.034.061a46.881,46.881,0,0,0,91.1-9.978h0v-.01c.024-.234.036-.472.056-.706.229-1.776,1.409-6.4,7.485-8.409l.029-.011C263.026,106.489,273.9,95.378,269.613,90.645Z" transform="translate(-4.972 1723.223)" fill="url(#radial-gradient-3)"/>
      <g id="Group_177065" data-name="Group 177065" transform="translate(105.51 1831.834)">
        <path id="Path_15924" data-name="Path 15924" d="M504,492.818h-7.088v15.427h-8.84V492.818H466.393V489.4c6.837-9.59,18.262-24.434,25.267-33.024h5.254V487.48h7.922Zm-15.928-26.6-.166-.083c-5.172,6.672-9.924,13.677-15.012,21.349h15.177Z" transform="translate(-466.393 -456.375)" fill="#fff"/>
      </g>
    </g>
  </g>
</svg>
