<svg id="share_1_" data-name="share (1)" xmlns="http://www.w3.org/2000/svg" width="45.641" height="49.79" viewBox="0 0 45.641 49.79">
  <path id="Path_12132" data-name="Path 12132" d="M328.152,22.742A6.742,6.742,0,1,1,321.41,16,6.742,6.742,0,0,1,328.152,22.742Zm0,0" transform="translate(-284.068 -14.444)" fill="#1a346f"/>
  <path id="Path_12133" data-name="Path 12133" d="M306.966,16.6a8.3,8.3,0,1,1,8.3-8.3A8.307,8.307,0,0,1,306.966,16.6Zm0-13.485A5.187,5.187,0,1,0,312.152,8.3,5.192,5.192,0,0,0,306.966,3.112Zm0,0" transform="translate(-269.624)" fill="#1a346f"/>
  <path id="Path_12134" data-name="Path 12134" d="M328.152,364.075a6.742,6.742,0,1,1-6.742-6.743A6.742,6.742,0,0,1,328.152,364.075Zm0,0" transform="translate(-284.068 -322.583)" fill="#1a346f"/>
  <path id="Path_12135" data-name="Path 12135" d="M306.966,357.929a8.3,8.3,0,1,1,8.3-8.3A8.307,8.307,0,0,1,306.966,357.929Zm0-13.485a5.187,5.187,0,1,0,5.186,5.187A5.192,5.192,0,0,0,306.966,344.444Zm0,0" transform="translate(-269.624 -308.139)" fill="#1a346f"/>
  <path id="Path_12136" data-name="Path 12136" d="M29.485,193.41a6.742,6.742,0,1,1-6.743-6.742A6.742,6.742,0,0,1,29.485,193.41Zm0,0" transform="translate(-14.444 -168.515)" fill="#1a346f"/>
  <path id="Path_12137" data-name="Path 12137" d="M8.3,187.264a8.3,8.3,0,1,1,8.3-8.3A8.307,8.307,0,0,1,8.3,187.264Zm0-13.485a5.186,5.186,0,1,0,5.187,5.186A5.192,5.192,0,0,0,8.3,173.78Zm0,0" transform="translate(0 -154.071)" fill="#1a346f"/>
  <path id="Path_12138" data-name="Path 12138" d="M116.425,105.341a2.075,2.075,0,0,1-1.029-3.878l19.25-10.974a2.075,2.075,0,1,1,2.054,3.606l-19.25,10.974A2.061,2.061,0,0,1,116.425,105.341Zm0,0" transform="translate(-103.229 -81.442)" fill="#1a346f"/>
  <path id="Path_12139" data-name="Path 12139" d="M135.693,281.345a2.061,2.061,0,0,1-1.025-.272L115.418,270.1a2.075,2.075,0,0,1,2.054-3.606l19.25,10.974a2.075,2.075,0,0,1-1.029,3.878Zm0,0" transform="translate(-103.249 -240.33)" fill="#1a346f"/>
</svg>
