<svg id="SvgjsG1014" xmlns="http://www.w3.org/2000/svg" width="57.112" height="57.112" viewBox="0 0 57.112 57.112">
  <g id="Group_176272" data-name="Group 176272">
    <path id="Path_12122" data-name="Path 12122" d="M0,28.556A28.556,28.556,0,1,1,28.556,57.112,28.556,28.556,0,0,1,0,28.556Z" fill="#ffe400"/>
    <path id="Path_12123" data-name="Path 12123" d="M26.723,12h-.076l-.524.006a8.85,8.85,0,0,0-3.481.734A7.76,7.76,0,0,0,20.42,14.21a8.29,8.29,0,0,0-1.856,2.659c-.681,1.523-.519,4.086-.389,6.146v0l.042.676a1.2,1.2,0,0,1-.5.094,3.3,3.3,0,0,1-1.356-.364,1.216,1.216,0,0,0-.518-.107,1.847,1.847,0,0,0-.913.256,1.254,1.254,0,0,0-.643.825,1.129,1.129,0,0,0,.433,1.068,3.707,3.707,0,0,0,1.134.648c.13.051.283.1.445.151.564.178,1.418.449,1.641.971a1.26,1.26,0,0,1-.144,1.035,10.022,10.022,0,0,1-1.549,2.408,8.608,8.608,0,0,1-1.85,1.632,6.819,6.819,0,0,1-2.6,1.011.712.712,0,0,0-.6.742.936.936,0,0,0,.074.309v0a1.913,1.913,0,0,0,1.032.882,11.876,11.876,0,0,0,2.978.776,3.524,3.524,0,0,1,.182.654c.05.23.1.464.176.714a.78.78,0,0,0,.816.595,3.978,3.978,0,0,0,.7-.1,7.878,7.878,0,0,1,1.6-.181,7.124,7.124,0,0,1,1.142.1,5.443,5.443,0,0,1,2.135,1.1,6.925,6.925,0,0,0,4.208,1.637c.051,0,.1,0,.153,0s.139,0,.221,0a6.907,6.907,0,0,0,4.206-1.637h0a5.432,5.432,0,0,1,2.133-1.1,6.994,6.994,0,0,1,1.142-.1,7.984,7.984,0,0,1,1.6.169,3.872,3.872,0,0,0,.7.086h.035a.77.77,0,0,0,.783-.583c.071-.246.124-.476.175-.708a3.71,3.71,0,0,1,.181-.652,11.822,11.822,0,0,0,2.979-.776,1.905,1.905,0,0,0,1.03-.878.909.909,0,0,0,.075-.314.712.712,0,0,0-.6-.741c-4.072-.67-5.906-4.841-5.981-5.019q-.008-.018-.017-.035a1.258,1.258,0,0,1-.143-1.035c.221-.521,1.074-.791,1.64-.97.163-.051.316-.1.445-.151a3.429,3.429,0,0,0,1.215-.726,1.151,1.151,0,0,0,.37-.831,1.307,1.307,0,0,0-.978-1.133,1.754,1.754,0,0,0-.663-.127,1.5,1.5,0,0,0-.616.126,3.457,3.457,0,0,1-1.27.361,1.153,1.153,0,0,1-.42-.092l.036-.589.006-.088c.131-2.061.293-4.626-.388-6.149A8.3,8.3,0,0,0,32.434,14.2a7.782,7.782,0,0,0-2.23-1.469A8.888,8.888,0,0,0,26.723,12Z" transform="translate(2.126 2.278)" fill="#fff"/>
  </g>
</svg>
