<svg xmlns="http://www.w3.org/2000/svg" width="57.815" height="57.815" viewBox="0 0 57.815 57.815">
  <g id="adobe-illustrator-svgrepo-com" transform="translate(-2 -2)">
    <path id="Path_51854" data-name="Path 51854" d="M2,22.924C2,15.6,2,11.938,3.425,9.14A13.077,13.077,0,0,1,9.14,3.425C11.938,2,15.6,2,22.924,2H38.892c7.324,0,10.986,0,13.783,1.425A13.077,13.077,0,0,1,58.39,9.14c1.425,2.8,1.425,6.459,1.425,13.783V38.892c0,7.324,0,10.986-1.425,13.783a13.077,13.077,0,0,1-5.715,5.715c-2.8,1.425-6.459,1.425-13.783,1.425H22.924c-7.324,0-10.986,0-13.783-1.425a13.077,13.077,0,0,1-5.715-5.715C2,49.878,2,46.216,2,38.892Z" fill="#300"/>
    <path id="Path_51855" data-name="Path 51855" d="M23.863,29.855H14.9l-1.823,5.808a.462.462,0,0,1-.465.358H8.078q-.388,0-.271-.438L15.563,12.67q.116-.358.233-.815a8.731,8.731,0,0,0,.155-1.611.247.247,0,0,1,.271-.279h6.167q.271,0,.31.2l8.8,25.459q.116.4-.233.4H26.229a.363.363,0,0,1-.388-.278ZM16.3,24.842h6.128c-1.007-3.44-2.143-6.836-3.064-10.3C18.37,18.013,17.286,21.472,16.3,24.842Z" transform="translate(6.154 8.479)" fill="#ff9a00"/>
    <path id="Path_51856" data-name="Path 51856" d="M23.326,15.206a2.752,2.752,0,0,1-1.158-.2,2.809,2.809,0,0,1-.975-.671,3.164,3.164,0,0,1-.628-1.05,3.221,3.221,0,0,1-.187-1.217,2.987,2.987,0,0,1,.207-1.2,2.926,2.926,0,0,1,.666-1.008,2.986,2.986,0,0,1,.993-.649A2.929,2.929,0,0,1,23.4,9a2.845,2.845,0,0,1,2.191.855,3.086,3.086,0,0,1,.612,1.023,3.142,3.142,0,0,1,.183,1.185,3.176,3.176,0,0,1-.192,1.221,3.119,3.119,0,0,1-.641,1.047,2.971,2.971,0,0,1-1.026.677A2.909,2.909,0,0,1,23.326,15.206ZM20.65,36.647V17.633c0-.239.1-.358.31-.358h4.771q.31,0,.31.358V36.647q0,.4-.31.4H21Q20.65,37.045,20.65,36.647Z" transform="translate(19.567 7.454)" fill="#ff9a00"/>
  </g>
</svg>
