<svg xmlns="http://www.w3.org/2000/svg" width="58.279" height="58.279" viewBox="0 0 58.279 58.279">
  <g id="adobe-xd-svgrepo-com" transform="translate(-2 -2)">
    <path id="Path_51851" data-name="Path 51851" d="M2,23.091C2,15.709,2,12.017,3.437,9.2A13.182,13.182,0,0,1,9.2,3.437C12.017,2,15.709,2,23.091,2h16.1c7.383,0,11.074,0,13.894,1.437A13.182,13.182,0,0,1,58.843,9.2c1.437,2.82,1.437,6.511,1.437,13.894v16.1c0,7.383,0,11.074-1.437,13.894a13.182,13.182,0,0,1-5.761,5.761c-2.82,1.437-6.511,1.437-13.894,1.437h-16.1c-7.383,0-11.074,0-13.894-1.437a13.182,13.182,0,0,1-5.761-5.761C2,50.262,2,46.571,2,39.188Z" fill="#470137"/>
    <path id="Path_51852" data-name="Path 51852" d="M28.16,10.444l-7.272,12.31,7.78,13.072c.162.3,0,.362-.234.362H22.882c-.391,0-.665-.014-.821-.282Q21.278,34.342,20.5,32.8t-1.661-3.148q-.88-1.6-1.74-3.248c-.522,1.069-1.1,2.139-1.662,3.208s-1.115,2.132-1.662,3.188-1.108,2.106-1.681,3.148c-.1.241-.287.265-.547.265H6.188c-.21,0-.236-.158-.117-.346l7.545-12.711L6.266,10.4a.216.216,0,0,1,.2-.361h5.512a.632.632,0,0,1,.586.281q.7,1.6,1.564,3.208t1.74,3.168c.587,1.043,1.166,2.1,1.662,3.168q.781-1.644,1.583-3.208t1.642-3.148q.84-1.584,1.622-3.148a.414.414,0,0,1,.469-.321h5.122C28.16,10.043,28.24,10.31,28.16,10.444Z" transform="translate(4.326 8.694)" fill="#ff61f6"/>
    <path id="Path_51853" data-name="Path 51853" d="M27.339,37.833c-3.448.054-7.059-1.366-8.875-4.511a11.059,11.059,0,0,1-1.329-5.674,10.68,10.68,0,0,1,1.329-5.253c2.285-4.084,6.888-5.614,11.26-5.213v-7.9c0-.187.078-.281.235-.281h4.926a.212.212,0,0,1,.235.241v23.7c0,.978.1,1.952.157,2.927a.424.424,0,0,1-.235.4A19.834,19.834,0,0,1,27.339,37.833Zm2.385-4.972V21.914a5.582,5.582,0,0,0-7.037,5.493A5.361,5.361,0,0,0,29.724,32.86Z" transform="translate(16.367 7.57)" fill="#ff61f6"/>
  </g>
</svg>
