<svg xmlns="http://www.w3.org/2000/svg" width="86.094" height="43.63" viewBox="0 0 86.094 43.63">
  <g id="SvgjsG1013" transform="translate(-2.906 -33.039)">
    <g id="Group_182929" data-name="Group 182929" transform="translate(2.906 33.039)">
      <path id="Path_51850" data-name="Path 51850" d="M45.953,33.039c-23.773,0-43.047,9.767-43.047,21.815S22.18,76.669,45.953,76.669,89,66.9,89,54.854,69.726,33.039,45.953,33.039ZM34.752,59.1a8.416,8.416,0,0,1-3.424,1.766,16.863,16.863,0,0,1-4.8.325H22.123L20.9,68.242H15.757l4.59-23.956H30.24c2.976,0,5.147.856,6.512,2.418s1.775,3.779,1.231,6.579A10.362,10.362,0,0,1,34.752,59.1ZM49.768,61.2l2.03-10.16a3.013,3.013,0,0,0-.254-2.5,3.542,3.542,0,0,0-2.561-.722H44.9L42.274,61.2h-5.1l4.59-23.252h5.1l-1.22,6.341H50.19c2.861,0,4.834.574,5.92,1.572s1.411,2.365.977,4.6L54.952,61.2ZM78.134,53.32A10.264,10.264,0,0,1,74.9,59.1a8.42,8.42,0,0,1-3.424,1.766,16.866,16.866,0,0,1-4.8.325H62.274l-1.22,7.046H55.91L60.5,44.285h9.893c2.976,0,5.147.856,6.511,2.418S78.678,50.521,78.134,53.32Zm-9.691-5.511H64.919L63,57.673h3.13c2.073,0,3.619-.2,4.633-.986a5.964,5.964,0,0,0,2.056-3.82c.341-1.755.186-3.124-.465-3.846S70.4,47.808,68.443,47.808Zm-40.152,0H24.767l-1.921,9.864h3.129c2.074,0,3.619-.2,4.634-.986a5.964,5.964,0,0,0,2.055-3.82c.341-1.755.186-3.124-.465-3.846S30.246,47.808,28.291,47.808Z" transform="translate(-2.906 -33.039)" fill="#6181b6"/>
    </g>
  </g>
</svg>
