<svg id="laravel-svgrepo-com" xmlns="http://www.w3.org/2000/svg" width="64.519" height="66.419" viewBox="0 0 64.519 66.419">
  <path id="Path_51849" data-name="Path 51849" d="M64.482,15.026a1.041,1.041,0,0,1,.036.272V29.554a1.04,1.04,0,0,1-.522.9L52.031,37.345V51a1.042,1.042,0,0,1-.52.9L26.533,66.281a1.118,1.118,0,0,1-.182.075c-.023.008-.045.022-.07.029a1.046,1.046,0,0,1-.533,0c-.029-.008-.055-.023-.082-.034a1.082,1.082,0,0,1-.172-.07L.522,51.9A1.04,1.04,0,0,1,0,51V8.23a1.063,1.063,0,0,1,.036-.273c.008-.03.026-.057.036-.087a1.024,1.024,0,0,1,.066-.161A.972.972,0,0,1,.21,7.617,1.059,1.059,0,0,1,.3,7.5a1.015,1.015,0,0,1,.1-.078.847.847,0,0,1,.114-.09h0L13.008.139a1.042,1.042,0,0,1,1.039,0L26.534,7.328h0a1.274,1.274,0,0,1,.114.088,1.229,1.229,0,0,1,.1.078,1.215,1.215,0,0,1,.094.122.959.959,0,0,1,.07.092,1.085,1.085,0,0,1,.068.161c.01.03.029.057.036.088a1.051,1.051,0,0,1,.036.272V34.944l10.405-5.991V15.3a1.05,1.05,0,0,1,.036-.27c.009-.031.026-.058.036-.088a1.171,1.171,0,0,1,.068-.161c.019-.034.048-.061.07-.092a1.069,1.069,0,0,1,.094-.121,1,1,0,0,1,.1-.078,1.048,1.048,0,0,1,.114-.09h0L50.471,7.206a1.041,1.041,0,0,1,1.039,0L64,14.4a1.147,1.147,0,0,1,.117.088c.032.026.07.049.1.078a1.215,1.215,0,0,1,.094.122.786.786,0,0,1,.07.092,1.031,1.031,0,0,1,.068.161A.743.743,0,0,1,64.482,15.026ZM62.437,28.952V17.1l-4.37,2.516-6.037,3.476V34.944l10.408-5.991ZM49.95,50.4V38.535l-5.938,3.391L27.055,51.6V63.579ZM2.082,10.03V50.4L24.974,63.578V51.606L13.014,44.837l0,0-.005,0a48.237,48.237,0,0,0-.21-.161l0,0a.99.99,0,0,1-.086-.109,1.11,1.11,0,0,1-.078-.1v0a.829.829,0,0,1-.055-.13.769.769,0,0,1-.049-.117h0a1,1,0,0,1-.021-.152.9.9,0,0,1-.016-.117V16.021L6.451,12.544l-4.37-2.513ZM13.529,2.241,3.125,8.23l10.4,5.989,10.4-5.99-10.4-5.987ZM18.94,39.616l6.036-3.475V10.03l-4.37,2.516-6.037,3.476V42.133ZM50.991,9.309,40.588,15.3l10.4,5.989,10.4-5.99ZM49.95,23.088l-6.037-3.476L39.544,17.1V28.952l6.036,3.475,4.371,2.517ZM26.013,49.8l15.258-8.711L48.9,36.741,38.5,30.756,26.536,37.647l-10.908,6.28Z" transform="translate(0 0)" fill="#ff2d20"/>
</svg>
