<svg id="SvgjsG1014" xmlns="http://www.w3.org/2000/svg" width="24.183" height="24.183" viewBox="0 0 24.183 24.183">
  <g id="Layer_1" data-name="Layer 1" transform="translate(0 0)">
    <circle id="Ellipse_608" data-name="Ellipse 608" cx="12.092" cy="12.092" r="12.092" fill="#38a8e0"/>
    <path id="Path_12056" data-name="Path 12056" d="M42.058,38.8a5.356,5.356,0,0,1-1.539.422A2.686,2.686,0,0,0,41.7,37.743a5.363,5.363,0,0,1-1.7.649,2.681,2.681,0,0,0-4.565,2.444,7.606,7.606,0,0,1-5.522-2.8,2.683,2.683,0,0,0,.828,3.576,2.667,2.667,0,0,1-1.213-.336v.034a2.681,2.681,0,0,0,2.149,2.628,2.684,2.684,0,0,1-1.211.047,2.683,2.683,0,0,0,2.5,1.852,5.374,5.374,0,0,1-3.328,1.147A5.437,5.437,0,0,1,29,46.958a7.617,7.617,0,0,0,11.726-6.419v-.347A5.444,5.444,0,0,0,42.058,38.8Z" transform="translate(-23.437 -30.389)" fill="#fff"/>
  </g>
</svg>
